<?xml version="1.0" encoding="utf-8"?>
<!-- Generator: Adobe Illustrator 17.0.2, SVG Export Plug-In . SVG Version: 6.00 Build 0)  -->
<!DOCTYPE svg PUBLIC "-//W3C//DTD SVG 1.0//EN" "http://www.w3.org/TR/2001/REC-SVG-20010904/DTD/svg10.dtd">
<svg version="1.0" id="Layer_1" xmlns:svg="http://www.w3.org/2000/svg"
	 xmlns="http://www.w3.org/2000/svg" xmlns:xlink="http://www.w3.org/1999/xlink" x="0px" y="0px" width="32.3px" height="16.5px"
	 viewBox="0 0 32.3 16.5" enable-background="new 0 0 32.3 16.5" xml:space="preserve">
<g>
	<g transform="translate(0,16.5269)">
		<g transform="matrix(-4.44089e-16,-1,1,-4.44089e-16,0,0)">
			<g id="breadboard">
				
					<rect id="connector0pin" x="0.6" y="21.5" transform="matrix(-2.547107e-06 -1 1 -2.547107e-06 -21.501 23.661)" fill="none" width="1" height="2.2"/>
				
					<rect id="connector1pin" x="7.8" y="21.5" transform="matrix(-2.547107e-06 -1 1 -2.547107e-06 -14.32 30.842)" fill="none" width="1" height="2.2"/>
				
					<rect id="connector2pin" x="14.9" y="21.5" transform="matrix(-2.547107e-06 -1 1 -2.547107e-06 -7.1341 38.0279)" fill="none" width="1" height="2.2"/>
				
					<line id="connector0leg" fill="none" stroke="#8C8C8C" stroke-width="2.16" stroke-linecap="round" x1="1.1" y1="24.1" x2="1.1" y2="31.3"/>
				
					<line id="connector1leg" fill="none" stroke="#8C8C8C" stroke-width="2.16" stroke-linecap="round" x1="8.3" y1="24.1" x2="8.3" y2="31.3"/>
				
					<line id="connector2leg" fill="none" stroke="#8C8C8C" stroke-width="2.16" stroke-linecap="round" x1="15.4" y1="24.1" x2="15.4" y2="31.3"/>
				
					<rect id="rect9506" x="3.6" y="18.3" transform="matrix(-2.547107e-06 -1 1 -2.547107e-06 -11.1515 27.6615)" fill="#8C8C8C" width="9.4" height="2.2"/>
				<path id="path9510" fill="#8C8C8C" d="M3.3,14.7V18c0,0.4-0.8,1.1-1.2,1.4c-1,0.9-2.1,1.8-2.1,3v1.6h2.2c0,0,0-1,0-1.2
					c0-0.5,0.9-1.4,1.3-1.8c1-0.9,1.9-1.7,1.9-2.7v-3.6L3.3,14.7L3.3,14.7z"/>
				<path id="path9514" fill="#8C8C8C" d="M13.2,14.7V18c0,0.4,0.8,1.1,1.2,1.4c1,0.9,2.1,1.8,2.1,3v1.6h-2.2c0,0,0-1,0-1.2
					c0-0.5-0.9-1.4-1.3-1.8c-1-0.9-1.9-1.7-1.9-2.7v-3.6L13.2,14.7L13.2,14.7z"/>
				
					<rect id="rect9553" x="3.2" y="3.1" transform="matrix(-2.547107e-06 -1 1 -2.547107e-06 -1.44 17.948)" fill="#1A1A1A" width="10.1" height="13.3"/>
				<path id="path9555" fill="#141414" d="M13.9,4.7v2.5v8.2v1.8c0.6-0.7,1-1.6,1-2.5l0,0l0-10.1H13.9z"/>
				<path id="path9557" fill="#242424" d="M2.6,4.7h-1v10.1l0,0c0,0.9,0.4,1.7,1,2.5v-1.8V7.1V4.7z"/>
				<path id="path9559" fill="#1F1F1F" d="M1.6,4.7L1.6,4.7c0,0.9,0.4,1.7,1,2.5h11.3c0.6-0.7,1-1.6,1-2.5l0,0H1.6z"/>
				<path id="path9561" fill="#141414" d="M8.3,0C4.6,0,1.6,2.1,1.6,4.7h13.3C14.9,2.1,11.9,0,8.3,0z"/>
				
					<rect id="rect9563" x="3.2" y="6.5" transform="matrix(-2.547107e-06 -1 1 -2.547107e-06 -3.8881 20.406)" width="10.1" height="11.3"/>
				<path fill="#999999" d="M5,14.4V9h2.2V10h1.1v1.1h1.1l0-2.2h2.2v5.4H9.3v-1.1l-1.1,0v-1.1H7.2v2.2L5,14.4L5,14.4z"/>
			</g>
		</g>
	</g>
</g>
</svg>
