<?xml version="1.0" encoding="utf-8"?>
<!-- Generator: Adobe Illustrator 18.0.0, SVG Export Plug-In . SVG Version: 6.00 Build 0)  -->
<!DOCTYPE svg PUBLIC "-//W3C//DTD SVG 1.1//EN" "http://www.w3.org/Graphics/SVG/1.1/DTD/svg11.dtd">
<svg version="1.1" id="Layer_1" xmlns="http://www.w3.org/2000/svg" xmlns:xlink="http://www.w3.org/1999/xlink" x="0px" y="0px"
	 viewBox="0 0 100 100" enable-background="new 0 0 100 100" xml:space="preserve">
<path fill="#2D3D4E" d="M92.4,80.1L73.9,64.9c-0.9-0.8-0.8-2.3,0.3-2.8l8-4.2c1.4-0.7,1.2-2.7-0.3-3.2l-42-12.5
	c-1.4-0.4-2.7,1.1-2,2.4l20.4,38.8c0.7,1.4,2.7,1.2,3.2-0.3l3-10.3c0.3-1.2,1.8-1.6,2.7-0.8l19,15.5c0.7,0.6,1.8,0.5,2.4-0.2l4-4.8
	C93.2,81.7,93.1,80.7,92.4,80.1z"/>
</svg>
