<?xml version="1.0" encoding="utf-8"?>
<!-- Generator: Adobe Illustrator 17.0.2, SVG Export Plug-In . SVG Version: 6.00 Build 0)  -->
<!DOCTYPE svg PUBLIC "-//W3C//DTD SVG 1.1//EN" "http://www.w3.org/Graphics/SVG/1.1/DTD/svg11.dtd">
<svg version="1.1" id="Layer_1" xmlns="http://www.w3.org/2000/svg" xmlns:xlink="http://www.w3.org/1999/xlink" x="0px" y="0px"
	 width="273px" height="177px" viewBox="0 0 273 177" enable-background="new 0 0 273 177" xml:space="preserve">
<g>
	<g opacity="0.25">
		<rect y="10" fill="#010101" width="273" height="167"/>
	</g>
	<g>
		<rect fill="#2A2A2A" width="273" height="167"/>
	</g>
</g>
<g>
	<g>
		<g enable-background="new    ">
			<g>
				<circle fill="#302F2F" cx="253.524" cy="146.999" r="11.689"/>
			</g>
			<g enable-background="new    ">
				<defs>
					<path id="SVGID_1_" enable-background="new    " d="M254,135.31v-2c7,0,13.451,6.129,13.451,13.689
						s-6.248,13.689-13.808,13.689c-7.56,0-13.511-6.129-13.511-13.689S246,133.31,254,133.31V135.31
						c-7-0.001-11.928,5.236-11.927,11.689c-0.001,6.453,5.117,11.69,11.57,11.689c6.453,0.001,11.869-5.236,11.868-11.689
						C265.512,140.546,260,135.309,254,135.31z"/>
				</defs>
				<clipPath id="SVGID_2_">
					<use xlink:href="#SVGID_1_"  overflow="visible"/>
				</clipPath>
				<g clip-path="url(#SVGID_2_)" enable-background="new    ">
					<path fill="#302F2F" d="M254,135v-1.69c2,0,3.649,0.426,5.357,1.192l-0.699,1.826c-1.458-0.654-3.657-1.018-4.657-1.017"/>
					<path fill="#302F2F" d="M258.3,136.327l0.818-1.826c1.415,0.634,2.702,1.502,3.813,2.553l-1.375,1.453
						C260.608,137.61,259.508,136.869,258.3,136.327"/>
					<path fill="#302F2F" d="M261.557,138.508l1.375-1.453c0.724,0.685,1.373,1.448,1.933,2.275l-1.657,1.121
						C262.729,139.745,262.175,139.093,261.557,138.508"/>
					<path fill="#302F2F" d="M263.208,140.451l1.657-1.121c0.439,0.648,0.825,1.337,1.149,2.058l-1.825,0.821
						C263.912,141.593,263.583,141.005,263.208,140.451"/>
					<path fill="#302F2F" d="M264.189,142.209l1.825-0.821c0.269,0.597,0.496,1.216,0.677,1.855l-1.923,0.549
						C264.613,143.247,264.419,142.718,264.189,142.209"/>
					<path fill="#302F2F" d="M264.768,143.793l1.923-0.549c0.156,0.549,0.279,1.112,0.366,1.687l-1.977,0.303
						C265.006,144.742,264.901,144.261,264.768,143.793"/>
					<path fill="#302F2F" d="M265.081,145.233l1.977-0.303c0.076,0.499,0.124,1.007,0.145,1.522l-1.998,0.08
						C265.187,146.093,265.145,145.659,265.081,145.233"/>
					<path fill="#302F2F" d="M265.204,146.532l1.998-0.08c0.007,0.181,0.011,0.364,0.011,0.547c0,0.283-0.009,0.564-0.026,0.842
						l-1.996-0.123c0.014-0.238,0.022-0.478,0.022-0.719C265.213,146.843,265.21,146.687,265.204,146.532"/>
					<path fill="#302F2F" d="M265.191,147.718l1.996,0.123c-0.025,0.414-0.069,0.823-0.13,1.226l-1.977-0.303
						C265.133,148.421,265.17,148.071,265.191,147.718"/>
					<path fill="#302F2F" d="M265.081,148.765l1.977,0.303c-0.055,0.365-0.125,0.726-0.209,1.081l-1.947-0.461
						C264.974,149.384,265.033,149.077,265.081,148.765"/>
					<path fill="#302F2F" d="M264.902,149.688l1.947,0.461c-0.077,0.327-0.166,0.65-0.266,0.968l-1.908-0.602
						C264.761,150.243,264.837,149.967,264.902,149.688"/>
					<path fill="#302F2F" d="M264.675,150.514l1.908,0.602c-0.093,0.296-0.196,0.587-0.308,0.874l-1.863-0.73
						C264.508,151.016,264.596,150.767,264.675,150.514"/>
					<path fill="#302F2F" d="M264.412,151.261l1.863,0.73c-0.105,0.267-0.218,0.531-0.338,0.79l-1.813-0.845
						C264.226,151.714,264.322,151.489,264.412,151.261"/>
					<path fill="#302F2F" d="M264.123,151.935l1.813,0.845c-0.114,0.245-0.235,0.485-0.363,0.722l-1.76-0.951
						C263.922,152.349,264.025,152.144,264.123,151.935"/>
					<path fill="#302F2F" d="M263.812,152.551l1.76,0.951c-0.122,0.226-0.25,0.447-0.384,0.665l-1.704-1.048
						C263.599,152.933,263.708,152.744,263.812,152.551"/>
					<path fill="#3E3C3B" d="M263.484,153.119l1.704,1.048c-0.125,0.203-0.256,0.403-0.391,0.599l-1.647-1.135
						C263.266,153.463,263.377,153.293,263.484,153.119"/>
					<path fill="#434140" d="M263.15,153.631l1.647,1.135c-0.131,0.19-0.267,0.377-0.408,0.56l-1.588-1.217
						C262.922,153.953,263.038,153.793,263.15,153.631"/>
					<path fill="#484544" d="M262.802,154.109l1.588,1.217c-0.136,0.178-0.277,0.352-0.421,0.522l-1.526-1.293
						C262.565,154.41,262.685,154.261,262.802,154.109"/>
					<path fill="#4C4948" d="M262.442,154.555l1.526,1.293c-0.137,0.161-0.278,0.32-0.422,0.475l-1.465-1.363
						C262.205,154.828,262.325,154.693,262.442,154.555"/>
					<path fill="#4F4C4B" d="M262.082,154.961l1.465,1.363c-0.142,0.152-0.287,0.302-0.436,0.448l-1.401-1.428
						C261.836,155.218,261.96,155.091,262.082,154.961"/>
					<path fill="#524F4E" d="M261.709,155.343l1.401,1.428c-0.144,0.141-0.291,0.279-0.441,0.414l-1.337-1.488
						C261.461,155.581,261.586,155.463,261.709,155.343"/>
					<path fill="#555251" d="M261.332,155.697l1.337,1.488c-0.148,0.133-0.299,0.263-0.453,0.39l-1.27-1.545
						C261.077,155.921,261.206,155.81,261.332,155.697"/>
					<path fill="#585554" d="M260.945,156.03l1.27,1.545c-0.152,0.125-0.306,0.247-0.463,0.365l-1.203-1.599
						C260.684,156.24,260.816,156.136,260.945,156.03"/>
					<path fill="#5B5757" d="M260.55,156.341l1.203,1.599c-0.158,0.119-0.318,0.235-0.482,0.347l-1.132-1.649
						C260.278,156.542,260.415,156.443,260.55,156.341"/>
					<path fill="#5D5A59" d="M260.138,156.637l1.132,1.649c-0.163,0.112-0.329,0.221-0.498,0.327l-1.06-1.697
						C259.857,156.826,259.999,156.733,260.138,156.637"/>
					<path fill="#605C5C" d="M259.713,156.916l1.06,1.697c-0.166,0.104-0.335,0.204-0.505,0.301l-0.986-1.741
						C259.427,157.091,259.571,157.005,259.713,156.916"/>
					<path fill="#625F5E" d="M259.282,157.174l0.986,1.741c-0.172,0.097-0.346,0.191-0.522,0.281l-0.91-1.782
						C258.986,157.337,259.135,157.257,259.282,157.174"/>
					<path fill="#646161" d="M258.836,157.414l0.91,1.782c-0.184,0.094-0.37,0.184-0.558,0.269l-0.828-1.821
						C258.52,157.571,258.679,157.494,258.836,157.414"/>
					<path fill="#676363" d="M258.36,157.644l0.828,1.821c-0.195,0.089-0.392,0.173-0.592,0.253l-0.742-1.858
						C258.025,157.791,258.193,157.72,258.36,157.644"/>
					<path fill="#696565" d="M257.854,157.859l0.742,1.858c-0.209,0.083-0.421,0.162-0.635,0.235l-0.649-1.892
						C257.495,157.998,257.676,157.931,257.854,157.859"/>
					<path fill="#6B6867" d="M257.312,158.06l0.649,1.892c-0.237,0.081-0.477,0.156-0.72,0.224l-0.544-1.925
						C256.905,158.194,257.11,158.13,257.312,158.06"/>
					<path fill="#6D6A6A" d="M256.698,158.252l0.544,1.925c-0.268,0.076-0.54,0.143-0.814,0.202l-0.425-1.955
						C256.237,158.374,256.469,158.316,256.698,158.252"/>
					<path fill="#6F6C6C" d="M256.003,158.425l0.425,1.955c-0.333,0.072-0.67,0.132-1.011,0.179l-0.277-1.981
						C255.431,158.537,255.719,158.486,256.003,158.425"/>
					<path fill="#716E6E" d="M255.139,158.577l0.277,1.981c-0.531,0.073-1.071,0.116-1.62,0.127l-0.04-2
						C254.225,158.677,254.686,158.64,255.139,158.577"/>
					<path fill="#737070" d="M253.757,158.686l0.04,2c-0.091,0.002-0.182,0.003-0.273,0.003c-0.786,0-1.556-0.066-2.305-0.193
						l0.337-1.972c0.64,0.108,1.297,0.165,1.968,0.165C253.602,158.688,253.679,158.687,253.757,158.686"/>
					<path fill="#716E6E" d="M251.556,158.523l-0.337,1.972c-0.503-0.085-0.998-0.198-1.481-0.337l0.554-1.922
						C250.705,158.354,251.126,158.45,251.556,158.523"/>
					<path fill="#6F6C6C" d="M250.292,158.235l-0.554,1.922c-0.335-0.096-0.665-0.205-0.989-0.326l0.698-1.875
						C249.724,158.06,250.006,158.153,250.292,158.235"/>
					<path fill="#6D6A6A" d="M249.447,157.957l-0.698,1.875c-0.266-0.099-0.529-0.206-0.787-0.321l0.813-1.828
						C248.996,157.781,249.22,157.873,249.447,157.957"/>
					<path fill="#6B6867" d="M248.775,157.683l-0.813,1.828c-0.225-0.1-0.446-0.206-0.664-0.317l0.91-1.781
						C248.395,157.507,248.584,157.598,248.775,157.683"/>
					<path fill="#696565" d="M248.208,157.412l-0.91,1.781c-0.202-0.103-0.402-0.212-0.598-0.325l0.998-1.734
						C247.866,157.231,248.036,157.324,248.208,157.412"/>
					<path fill="#676363" d="M247.698,157.134l-0.998,1.734c-0.188-0.109-0.374-0.221-0.556-0.338l1.079-1.685
						C247.379,156.945,247.537,157.042,247.698,157.134"/>
					<path fill="#646161" d="M247.223,156.845l-1.079,1.685c-0.17-0.109-0.338-0.222-0.503-0.338l1.152-1.635
						C246.934,156.656,247.077,156.752,247.223,156.845"/>
					<path fill="#625F5E" d="M246.793,156.556l-1.152,1.635c-0.165-0.116-0.327-0.236-0.486-0.36l1.223-1.583
						C246.514,156.355,246.653,156.457,246.793,156.556"/>
					<path fill="#605C5C" d="M246.378,156.249l-1.223,1.583c-0.159-0.123-0.316-0.25-0.47-0.38l1.292-1.527
						C246.108,156.036,246.242,156.144,246.378,156.249"/>
					<path fill="#5D5A59" d="M245.977,155.925l-1.292,1.527c-0.15-0.127-0.298-0.258-0.442-0.391l1.356-1.47
						C245.723,155.705,245.849,155.816,245.977,155.925"/>
					<path fill="#5B5757" d="M245.599,155.591l-1.356,1.47c-0.144-0.133-0.285-0.269-0.423-0.408l1.418-1.411
						C245.356,155.361,245.476,155.477,245.599,155.591"/>
					<path fill="#585554" d="M245.238,155.242l-1.418,1.411c-0.138-0.138-0.272-0.28-0.404-0.424l1.477-1.349
						C245.005,155.004,245.12,155.124,245.238,155.242"/>
					<path fill="#555251" d="M244.893,154.881l-1.477,1.349c-0.133-0.146-0.263-0.295-0.39-0.446l1.534-1.284
						C244.668,154.629,244.779,154.756,244.893,154.881"/>
					<path fill="#524F4E" d="M244.559,154.499l-1.534,1.284c-0.131-0.157-0.259-0.316-0.383-0.478l1.59-1.214
						C244.338,154.23,244.447,154.366,244.559,154.499"/>
					<path fill="#4F4C4B" d="M244.232,154.091l-1.59,1.214c-0.127-0.166-0.25-0.335-0.369-0.506l1.644-1.14
						C244.019,153.805,244.124,153.949,244.232,154.091"/>
					<path fill="#4C4948" d="M243.917,153.659l-1.644,1.14c-0.121-0.175-0.239-0.352-0.352-0.533l1.695-1.062
						C243.713,153.358,243.813,153.509,243.917,153.659"/>
					<path fill="#484544" d="M243.616,153.204l-1.695,1.062c-0.118-0.188-0.232-0.38-0.341-0.574l1.745-0.979
						C243.418,152.879,243.515,153.043,243.616,153.204"/>
					<path fill="#434140" d="M243.325,152.713l-1.745,0.979c-0.112-0.199-0.219-0.401-0.321-0.606l1.792-0.89
						C243.138,152.371,243.229,152.543,243.325,152.713"/>
					<path fill="#3E3C3B" d="M243.051,152.195l-1.792,0.89c-0.106-0.213-0.207-0.43-0.302-0.649l1.836-0.795
						C242.875,151.829,242.96,152.013,243.051,152.195"/>
					<path fill="#302F2F" d="M242.793,151.641l-1.836,0.795c-0.1-0.232-0.195-0.467-0.282-0.705l1.877-0.692
						C242.627,151.243,242.708,151.444,242.793,151.641"/>
					<path fill="#302F2F" d="M242.552,151.04l-1.877,0.692c-0.092-0.25-0.177-0.502-0.254-0.759l1.914-0.581
						C242.401,150.611,242.474,150.827,242.552,151.04"/>
					<path fill="#302F2F" d="M242.335,150.392l-1.914,0.581c-0.082-0.271-0.156-0.547-0.222-0.825l1.947-0.461
						C242.202,149.925,242.265,150.16,242.335,150.392"/>
					<path fill="#302F2F" d="M242.146,149.688l-1.947,0.461c-0.071-0.3-0.131-0.604-0.182-0.911l1.973-0.328
						C242.033,149.172,242.085,149.432,242.146,149.688"/>
					<path fill="#302F2F" d="M241.99,148.91l-1.973,0.328c-0.054-0.331-0.097-0.666-0.127-1.005l1.992-0.181
						C241.907,148.341,241.944,148.627,241.99,148.91"/>
					<path fill="#302F2F" d="M241.882,148.052l-1.992,0.181c-0.033-0.37-0.051-0.744-0.054-1.122l2-0.016
						C241.838,147.417,241.853,147.736,241.882,148.052"/>
					<path fill="#302F2F" d="M242,147.094l-2,0.016c0-0.037,0-0.074,0-0.112c0-0.38-0.067-0.757-0.037-1.129l2.034,0.165
						c-0.026,0.318,0.002,0.639,0.002,0.964c0,0.032,0,0.001,0,0.001"/>
					<path fill="#302F2F" d="M241.874,146.035l-1.993-0.165c0.038-0.46,0.098-0.915,0.18-1.361l1.967,0.364
						C241.958,145.255,241.906,145.642,241.874,146.035"/>
					<path fill="#302F2F" d="M242.028,144.873l-1.967-0.364c0.092-0.503,0.212-0.995,0.358-1.477l1.914,0.58
						C242.209,144.024,242.106,144.444,242.028,144.873"/>
					<path fill="#302F2F" d="M242.333,143.612l-1.914-0.58c0.167-0.551,0.367-1.087,0.598-1.606l1.827,0.815
						C242.646,142.684,242.475,143.142,242.333,143.612"/>
					<path fill="#302F2F" d="M242.844,142.241l-1.827-0.815c0.271-0.607,0.585-1.191,0.938-1.747l1.69,1.07
						C243.344,141.224,243.076,141.723,242.844,142.241"/>
					<path fill="#302F2F" d="M243.645,140.749l-1.69-1.07c0.425-0.671,0.907-1.302,1.439-1.886l1.48,1.346
						C244.42,139.637,244.008,140.176,243.645,140.749"/>
					<path fill="#302F2F" d="M244.874,139.138l-1.48-1.346c0.671-0.737,1.421-1.401,2.237-1.978l1.154,1.634
						C246.087,137.941,245.447,138.508,244.874,139.138"/>
					<path fill="#302F2F" d="M246.784,137.448l-1.154-1.634c1.237-0.875,2.626-1.549,4.119-1.977l0.552,1.923
						C249.027,136.125,247.841,136.701,246.784,137.448"/>
					<path fill="#302F2F" d="M250.54,135.76l-0.433-1.923c1.199-0.343,1.894-0.527,3.894-0.527v2
						C252,135.31,251.563,135.467,250.54,135.76"/>
				</g>
			</g>
		</g>
	</g>
</g>
<g>
	<g>
		<g enable-background="new    ">
			<g enable-background="new    ">
				<defs>
					<path id="SVGID_3_" enable-background="new    " d="M253.536,146.999C253.536,146.999,253.537,146.999,253.536,146.999
						c0.001-0.002-0.01-0.013-0.012-0.013c0,0,0,0,0,0v0.7c-0.388-0.004-0.684-0.3-0.688-0.688c0.004-0.388,0.3-0.684,0.688-0.688
						c0.388,0.004,0.684,0.3,0.688,0.688c-0.004,0.388-0.3,0.684-0.688,0.688v-0.7c0,0,0,0,0,0
						c-0.002-0.001-0.013,0.011-0.013,0.013c0,0,0,0,0,0c0,0,0,0,0,0c-0.001,0.002,0.011,0.013,0.013,0.013c0,0,0,0,0,0c0,0,0,0,0,0
						C253.526,147.012,253.537,147.001,253.536,146.999C253.537,146.999,253.536,146.999,253.536,146.999z"/>
				</defs>
				<clipPath id="SVGID_4_">
					<use xlink:href="#SVGID_3_"  overflow="visible"/>
				</clipPath>
				<g clip-path="url(#SVGID_4_)" enable-background="new    ">
					<path fill="#302F2F" d="M253.524,146.987v0.7c-0.388-0.004-0.684-0.3-0.688-0.688c0.004-0.388,0.3-0.684,0.688-0.688
						c0.388,0.004,0.684,0.3,0.688,0.688c-0.004,0.388-0.3,0.684-0.688,0.688V146.987c0-0.003-0.016,0.012-0.012,0.012
						c-0.003,0,0.012,0.016,0.012,0.012c0,0.003,0.016-0.012,0.012-0.012C253.54,146.999,253.524,146.983,253.524,146.987"/>
				</g>
			</g>
			<g enable-background="new    ">
				<defs>
					<path id="SVGID_5_" enable-background="new    " d="M253.536,147c0,0,0,0.006,0,0.006c0.001-0.002,0.227-0.006,0.225-0.006
						c0,0,0.238,0,0.238,0v-3.313c1,0,3.074,1.485,3.074,3.312s-1.604,3.312-3.431,3.312s-3.133-1.485-3.133-3.312
						s1.491-3.312,3.491-3.312V147c0,0-0.238,0-0.238,0c-0.002,0-0.132,0-0.132,0c0,0-0.059,0-0.059,0c0,0-0.03,0-0.03,0
						c-0.001,0-0.004,0-0.002,0c0,0-0.007,0-0.007,0c0,0-0.004,0-0.004,0c0.002,0,0.011,0,0.011,0
						C253.538,147,253.536,147,253.536,147z"/>
				</defs>
				<clipPath id="SVGID_6_">
					<use xlink:href="#SVGID_5_"  overflow="visible"/>
				</clipPath>
				<g clip-path="url(#SVGID_6_)" enable-background="new    ">
					<path fill="#7B7878" d="M254,147v-3.313c0,0,0.296,0.039,0.548,0.101L253.882,147C253.881,147,254,147,254,147"/>
					<path fill="#797676" d="M253.525,147l0.785-3.212c0.14,0.034,0.276,0.08,0.409,0.132l-1.193,3.08c0,0,0.474,0,0.474,0"/>
					<path fill="#777474" d="M253.526,147l1.193-3.084c0.099,0.039,0.197,0.085,0.291,0.132L253.527,147c0,0,0.473,0,0.473,0"/>
					<path fill="#757272" d="M253.527,147l1.483-2.955c0.084,0.042,0.166,0.09,0.245,0.139L253.528,147c0,0,0.472,0,0.472,0"/>
					<path fill="#737070" d="M253.528,146.989l1.727-2.813c0.07,0.043,0.139,0.089,0.205,0.137L253.528,146.989
						C253.529,146.989,253.528,146.989,253.528,146.989"/>
					<path fill="#716E6E" d="M253.529,147l1.931-2.682c0.067,0.048,0.132,0.101,0.195,0.154L253.53,147c0,0,0.47,0,0.47,0"/>
					<path fill="#6F6C6C" d="M253.53,146.99l2.125-2.525c0.058,0.049,0.115,0.1,0.17,0.153L253.53,146.99
						C253.531,146.991,253.53,146.991,253.53,146.99"/>
					<path fill="#6D6A6A" d="M253.531,146.991l2.294-2.373c0.053,0.051,0.105,0.105,0.154,0.16L253.531,146.991
						C253.532,146.992,253.531,146.992,253.531,146.991"/>
					<path fill="#6B6867" d="M253.532,146.992l2.447-2.214c0.048,0.053,0.094,0.107,0.138,0.163L253.532,146.992
						C253.533,146.993,253.532,146.993,253.532,146.992"/>
					<path fill="#696565" d="M253.533,146.993l2.585-2.053c0.044,0.055,0.086,0.112,0.126,0.169L253.533,146.993
						C253.533,146.994,253.533,146.993,253.533,146.993"/>
					<path fill="#676363" d="M253.534,146.994l2.71-1.884c0.041,0.059,0.08,0.118,0.117,0.18L253.534,146.994
						C253.534,146.995,253.534,146.994,253.534,146.994"/>
					<path fill="#646161" d="M253.534,146.995l2.826-1.705c0.036,0.059,0.07,0.12,0.102,0.181L253.534,146.995
						C253.535,146.995,253.535,146.995,253.534,146.995"/>
					<path fill="#625F5E" d="M253.535,146.996l2.927-1.525c0.033,0.064,0.065,0.129,0.094,0.196L253.535,146.996
						C253.535,146.996,253.535,146.996,253.535,146.996"/>
					<path fill="#605C5C" d="M253.536,146.996l3.021-1.33c0.03,0.067,0.057,0.135,0.082,0.204L253.536,146.996
						C253.536,146.997,253.536,146.997,253.536,146.996"/>
					<path fill="#5D5A59" d="M253.536,146.997l3.102-1.126c0.025,0.069,0.048,0.138,0.068,0.209L253.536,146.997
						C253.536,146.998,253.536,146.997,253.536,146.997"/>
					<path fill="#5B5757" d="M253.536,146.998l3.17-0.918c0.021,0.072,0.039,0.144,0.055,0.218L253.536,146.998
						C253.537,146.998,253.537,146.998,253.536,146.998"/>
					<path fill="#585554" d="M253.537,146.998l3.225-0.701c0.017,0.076,0.03,0.154,0.042,0.232L253.537,146.998
						C253.537,146.999,253.537,146.998,253.537,146.998"/>
					<path fill="#555251" d="M253.537,146.999l3.266-0.469c0.012,0.082,0.02,0.164,0.026,0.248L253.537,146.999
						C253.537,146.999,253.537,146.999,253.537,146.999"/>
					<path fill="#524F4E" d="M253.537,147l3.374-0.222c0.005,0.073,0.089,0.147,0.089,0.221c0,0.02,0,0.04,0,0.06L253.619,147
						c0,0-0.041,0-0.041,0c0,0,0.423,0,0.423,0"/>
					<path fill="#4F4C4B" d="M253.536,146.999l3.299,0.06c-0.002,0.095-0.007,0.188-0.017,0.281L253.536,146.999
						C253.537,146.999,253.537,146.999,253.536,146.999"/>
					<path fill="#4C4948" d="M253.537,146.999l3.282,0.341c-0.01,0.101-0.025,0.2-0.044,0.298L253.537,146.999
						C253.537,146.999,253.537,146.999,253.537,146.999"/>
					<path fill="#484544" d="M253.537,147l3.237,0.639c-0.021,0.107-0.047,0.212-0.078,0.316L253.537,147
						C253.537,147,253.537,147,253.537,147"/>
					<path fill="#434140" d="M253.768,147l3.044,0.954c-0.036,0.118,0.096,0.234,0.048,0.346l-2.86-1.299c0,0,0-0.001,0-0.001"/>
					<path fill="#3E3C3B" d="M253.536,147.001l3.034,1.299c-0.056,0.13-0.12,0.256-0.191,0.377l-2.845-1.674
						C253.535,147.002,253.535,147.002,253.536,147.001"/>
					<path fill="#302F2F" d="M253.535,147.003l2.845,1.674c-0.085,0.144-0.181,0.281-0.286,0.411l-2.561-2.082
						C253.533,147.004,253.534,147.004,253.535,147.003"/>
					<path fill="#302F2F" d="M253.533,147.005l2.561,2.082c-0.134,0.165-0.284,0.316-0.446,0.452l-2.117-2.532
						C253.531,147.007,253.532,147.006,253.533,147.005"/>
					<path fill="#302F2F" d="M253.53,147.008l2.117,2.532c-0.238,0.199-0.504,0.365-0.791,0.492l-1.329-3.021
						C253.528,147.01,253.529,147.009,253.53,147.008"/>
					<path fill="#302F2F" d="M253.527,147.011l1.329,3.021c-0.408,0.18-0.858,0.279-1.332,0.279s-0.924-0.1-1.332-0.279l1.329-3.021
						c0.001,0.001,0.003,0.002,0.003,0.001C253.524,147.012,253.525,147.012,253.527,147.011"/>
					<path fill="#302F2F" d="M253.521,147.011l-1.329,3.021c-0.287-0.127-0.553-0.293-0.791-0.492l2.117-2.532
						C253.519,147.009,253.52,147.01,253.521,147.011"/>
					<path fill="#302F2F" d="M253.518,147.008l-2.117,2.532c-0.163-0.136-0.312-0.288-0.446-0.452l2.561-2.082
						C253.516,147.006,253.517,147.007,253.518,147.008"/>
					<path fill="#302F2F" d="M253.515,147.005l-2.561,2.082c-0.105-0.129-0.201-0.266-0.286-0.411l2.845-1.674
						C253.514,147.004,253.515,147.004,253.515,147.005"/>
					<path fill="#3E3C3B" d="M253.513,147.003l-2.845,1.674c-0.071-0.121-0.135-0.247-0.191-0.377l3.034-1.299
						C253.513,147.002,253.513,147.002,253.513,147.003"/>
					<path fill="#434140" d="M254,147.001l-3.278,1.299c-0.048-0.112,0.032-0.228-0.004-0.346L254,147c0,0,0,0,0,0"/>
					<path fill="#484544" d="M253.512,147l-3.159,0.954c-0.031-0.103-0.057-0.209-0.078-0.316L253.512,147
						C253.511,147,253.511,147,253.512,147"/>
					<path fill="#4C4948" d="M253.511,147l-3.237,0.639c-0.019-0.098-0.034-0.198-0.044-0.298L253.511,147
						C253.511,146.999,253.511,146.999,253.511,147"/>
					<path fill="#4F4C4B" d="M253.511,146.999l-3.282,0.341c-0.01-0.093-0.015-0.186-0.017-0.281L253.511,146.999
						C253.511,146.999,253.511,146.999,253.511,146.999"/>
					<path fill="#524F4E" d="M253.405,147L250,147.059c0-0.02,0-0.04,0-0.06c0-0.074,0.108-0.148,0.113-0.221l3.345,0.222
						c0,0-0.026,0-0.026,0c0,0-0.432,0-0.432,0"/>
					<path fill="#555251" d="M253.511,146.999l-3.292-0.222c0.006-0.084,0.014-0.166,0.026-0.248L253.511,146.999
						C253.511,146.999,253.511,146.999,253.511,146.999"/>
					<path fill="#585554" d="M253.511,146.999l-3.266-0.469c0.011-0.078,0.025-0.156,0.042-0.232L253.511,146.999
						C253.511,146.998,253.511,146.999,253.511,146.999"/>
					<path fill="#5B5757" d="M253.511,146.998l-3.225-0.701c0.016-0.074,0.034-0.146,0.055-0.218L253.511,146.998
						C253.511,146.998,253.511,146.998,253.511,146.998"/>
					<path fill="#5D5A59" d="M253.512,146.998l-3.17-0.918c0.02-0.071,0.043-0.14,0.068-0.209L253.512,146.998
						C253.512,146.997,253.512,146.998,253.512,146.998"/>
					<path fill="#605C5C" d="M253.512,146.997l-3.102-1.126c0.025-0.069,0.052-0.137,0.082-0.204L253.512,146.997
						C253.512,146.997,253.512,146.997,253.512,146.997"/>
					<path fill="#625F5E" d="M253.512,146.996l-3.021-1.33c0.029-0.066,0.061-0.132,0.094-0.196L253.512,146.996
						C253.513,146.996,253.513,146.996,253.512,146.996"/>
					<path fill="#646161" d="M253.513,146.996l-2.927-1.525c0.032-0.062,0.066-0.122,0.102-0.181L253.513,146.996
						C253.513,146.995,253.513,146.995,253.513,146.996"/>
					<path fill="#676363" d="M253.514,146.995l-2.826-1.705c0.037-0.061,0.076-0.121,0.117-0.18L253.514,146.995
						C253.514,146.994,253.514,146.995,253.514,146.995"/>
					<path fill="#696565" d="M253.514,146.994l-2.71-1.884c0.04-0.058,0.082-0.114,0.126-0.169L253.514,146.994
						C253.515,146.993,253.515,146.994,253.514,146.994"/>
					<path fill="#6B6867" d="M253.515,146.993l-2.584-2.053c0.044-0.056,0.09-0.11,0.138-0.163L253.515,146.993
						C253.516,146.993,253.515,146.993,253.515,146.993"/>
					<path fill="#6D6A6A" d="M253.516,146.992l-2.447-2.214c0.05-0.055,0.101-0.108,0.154-0.16L253.516,146.992
						C253.517,146.992,253.516,146.992,253.516,146.992"/>
					<path fill="#6F6C6C" d="M253.517,146.991l-2.294-2.373c0.055-0.053,0.111-0.104,0.17-0.153L253.517,146.991
						C253.517,146.991,253.517,146.991,253.517,146.991"/>
					<path fill="#716E6E" d="M253.759,146.995l-2.246-2.528c0.063-0.053,0.068-0.1,0.135-0.148l1.871,2.681c0,0,0.481,0,0.481,0"/>
					<path fill="#737070" d="M253.519,146.99l-1.931-2.677c0.067-0.048,0.135-0.094,0.205-0.137L253.519,146.99
						C253.519,146.989,253.519,146.989,253.519,146.99"/>
					<path fill="#757272" d="M253.76,146.994l-1.847-2.816c0.08-0.049,0.101-0.09,0.185-0.132l1.423,2.953c0,0,0.479,0,0.479,0"/>
					<path fill="#777474" d="M253.76,146.994l-1.603-2.952c0.095-0.048,0.132-0.086,0.231-0.124l1.133,3.082c0,0,0.478,0,0.478,0"/>
					<path fill="#797676" d="M253.761,146.993l-1.312-3.081c0.132-0.051,0.209-0.089,0.349-0.123l0.725,3.21c0,0,0.477,0,0.477,0"/>
					<path fill="#7B7878" d="M253.643,146.993l-0.607-3.209c0.252-0.062-0.036-0.098,0.964-0.098V147l0,0"/>
				</g>
			</g>
			<g>
				<path fill="#302F2F" d="M253.524,147.687c-0.388-0.004-0.684-0.3-0.688-0.688c0.004-0.388,0.3-0.684,0.688-0.688
					c0.388,0.004,0.684,0.3,0.688,0.688C254.208,147.387,253.912,147.683,253.524,147.687z"/>
			</g>
		</g>
	</g>
</g>
<g>
	<g>
		<g enable-background="new    ">
			<g enable-background="new    ">
				<defs>
					<path id="SVGID_7_" enable-background="new    " d="M253.546,18.002c-0.007-0.013-0.019-0.01-0.021-0.004
						c0,0.001,0,0.002,0,0.002v0.69c-0.381-0.002-0.688-0.308-0.688-0.688c0.003-0.394,0.309-0.695,0.688-0.697
						c0.379,0.002,0.685,0.303,0.688,0.697c0,0.38-0.307,0.686-0.688,0.688V18c0,0,0,0,0,0c0,0,0,0,0,0c0,0.001,0,0.002,0.002,0.002
						c-0.001-0.003-0.001-0.007-0.001-0.01C253.524,17.992,253.546,18.002,253.546,18.002z"/>
				</defs>
				<clipPath id="SVGID_8_">
					<use xlink:href="#SVGID_7_"  overflow="visible"/>
				</clipPath>
				<g clip-path="url(#SVGID_8_)" enable-background="new    ">
					<path fill="#302F2F" d="M253.524,17.98v0.71c-0.381-0.002-0.688-0.308-0.688-0.688c0.003-0.394,0.309-0.695,0.688-0.697
						c0.379,0.002,0.685,0.303,0.688,0.697c0,0.38-0.307,0.686-0.688,0.688V17.98c-0.011-0.002-0.022,0.009-0.022,0.022
						c-0.003,0,0.009,0.014,0.022,0.013c0.013,0.001,0.024-0.013,0.022-0.013C253.546,17.989,253.535,17.979,253.524,17.98"/>
				</g>
			</g>
			<g enable-background="new    ">
				<defs>
					<path id="SVGID_9_" enable-background="new    " d="M253.783,18.002c-0.007-0.013,0.217-0.01,0.217-0.004
						c0,0.001,0,0.002,0,0.002v-3.31c1,0,3.074,1.476,3.074,3.312c0,1.827-1.604,3.303-3.431,3.303s-3.133-1.476-3.133-3.303
						c0-1.836,1.491-3.312,3.491-3.312V18h-0.238c0,0-0.119,0-0.119,0c0,0-0.059,0.002-0.058,0.002
						c-0.001-0.003,0.088-0.007,0.088-0.01C253.673,17.992,253.783,18.002,253.783,18.002z"/>
				</defs>
				<clipPath id="SVGID_10_">
					<use xlink:href="#SVGID_9_"  overflow="visible"/>
				</clipPath>
				<g clip-path="url(#SVGID_10_)" enable-background="new    ">
					<path fill="#7B7878" d="M254,18v-3.31c0,0,0.297,0.031,0.55,0.093L253.88,18C253.88,18,254,18,254,18"/>
					<path fill="#797676" d="M253.523,18.003l0.789-3.219c0.14,0.034,0.277,0.077,0.409,0.128L253.523,18.003
						C253.523,18.003,253.523,18.003,253.523,18.003"/>
					<path fill="#777474" d="M253.523,18.003l1.198-3.09c0.099,0.038,0.197,0.082,0.291,0.129L253.523,18.003
						C253.523,18.003,253.523,18.003,253.523,18.003"/>
					<path fill="#757272" d="M253.523,18.003l1.489-2.961c0.084,0.042,0.165,0.088,0.245,0.136L253.523,18.003
						C253.523,18.002,253.523,18.002,253.523,18.003"/>
					<path fill="#737070" d="M253.523,18.002l1.734-2.824c0.074,0.046,0.146,0.094,0.216,0.145L253.523,18.002
						C253.523,18.002,253.523,18.002,253.523,18.002"/>
					<path fill="#716E6E" d="M253.523,18.002l1.951-2.679c0.063,0.046,0.125,0.094,0.184,0.144L253.523,18.002
						C253.523,18.002,253.523,18.002,253.523,18.002"/>
					<path fill="#6F6C6C" d="M253.523,18.002l2.135-2.535c0.058,0.049,0.114,0.099,0.168,0.152L253.523,18.002
						C253.523,18.002,253.523,18.002,253.523,18.002"/>
					<path fill="#6D6A6A" d="M253.523,18.002l2.303-2.383c0.053,0.051,0.104,0.104,0.154,0.159L253.523,18.002
						C253.523,18.002,253.523,18.002,253.523,18.002"/>
					<path fill="#6B6867" d="M253.523,18.002l2.457-2.224c0.048,0.052,0.093,0.107,0.138,0.162L253.523,18.002
						C253.523,18.002,253.523,18.002,253.523,18.002"/>
					<path fill="#696565" d="M253.523,18.002l2.595-2.062c0.044,0.055,0.086,0.111,0.126,0.169L253.523,18.002
						C253.523,18.002,253.523,18.002,253.523,18.002"/>
					<path fill="#676363" d="M253.523,18.002l2.721-1.894c0.041,0.058,0.08,0.118,0.117,0.179L253.523,18.002
						C253.523,18.002,253.523,18.002,253.523,18.002"/>
					<path fill="#646161" d="M253.523,18.002l2.837-1.714c0.036,0.059,0.07,0.12,0.102,0.181L253.523,18.002
						C253.523,18.002,253.523,18.002,253.523,18.002"/>
					<path fill="#625F5E" d="M253.523,18.002l2.939-1.533c0.033,0.064,0.065,0.129,0.094,0.196L253.523,18.002
						C253.523,18.002,253.523,18.002,253.523,18.002"/>
					<path fill="#605C5C" d="M253.523,18.002l3.033-1.338c0.029,0.065,0.056,0.132,0.08,0.199L253.523,18.002
						C253.523,18.002,253.523,18.002,253.523,18.002"/>
					<path fill="#5D5A59" d="M253.523,18.002l3.113-1.138c0.025,0.069,0.048,0.139,0.069,0.21L253.523,18.002
						C253.523,18.002,253.523,18.002,253.523,18.002"/>
					<path fill="#5B5757" d="M253.523,18.002l3.182-0.928c0.021,0.073,0.04,0.148,0.056,0.223L253.523,18.002
						C253.523,18.002,253.523,18.002,253.523,18.002"/>
					<path fill="#585554" d="M253.523,18.002l3.239-0.705c0.017,0.077,0.031,0.156,0.042,0.235L253.523,18.002
						C253.523,18.002,253.523,18.002,253.523,18.002"/>
					<path fill="#555251" d="M253.523,18.002l3.281-0.47c0.012,0.084,0.021,0.169,0.026,0.254L253.523,18.002
						C253.523,18.002,253.523,18.002,253.523,18.002"/>
					<path fill="#524F4E" d="M253.523,18l3.389-0.214c0.005,0.071,0.089,0.144,0.089,0.216c0,0.02,0,0.04,0,0.059L253.605,18
						c0,0-0.041,0-0.041,0c0,0,0.436,0,0.436,0"/>
					<path fill="#4F4C4B" d="M253.761,18.001l3.194,0.06c-0.002,0.094,0.172,0.188,0.162,0.28L254,18c0,0.001,0,0,0,0"/>
					<path fill="#4C4948" d="M253.761,18l3.177,0.341c-0.01,0.1,0.154,0.198,0.135,0.295L254,17.998c0,0.001,0,0.002,0,0.002"/>
					<path fill="#484544" d="M253.762,17.999l3.133,0.638c-0.021,0.109,0.131,0.215,0.099,0.319L254,17.997c0,0,0,0.003,0,0.003"/>
					<path fill="#434140" d="M253.762,17.998l3.053,0.959c-0.036,0.118,0.101,0.233,0.053,0.345L254,17.995c0,0,0,0.005,0,0.005"/>
					<path fill="#3E3C3B" d="M253.762,17.998l2.927,1.305c-0.055,0.128,0.061,0.251-0.009,0.37L254,17.994c0,0,0,0.006,0,0.006"/>
					<path fill="#302F2F" d="M253.762,17.997l2.74,1.676c-0.085,0.145-0.003,0.282-0.109,0.412L254,17.993c0,0,0,0.007,0,0.007"/>
					<path fill="#302F2F" d="M253.524,17.993l2.571,2.091c-0.132,0.161-0.278,0.31-0.438,0.444L253.524,17.993
						C253.524,17.992,253.524,17.993,253.524,17.993"/>
					<path fill="#302F2F" d="M253.524,17.992l2.134,2.536c-0.239,0.201-0.506,0.368-0.795,0.496L253.524,17.992
						C253.524,17.992,253.524,17.992,253.524,17.992"/>
					<path fill="#302F2F" d="M253.524,17.992l1.339,3.032c-0.41,0.181-0.863,0.281-1.339,0.281s-0.929-0.1-1.339-0.281
						L253.524,17.992C253.524,17.992,253.524,17.992,253.524,17.992C253.524,17.992,253.524,17.992,253.524,17.992"/>
					<path fill="#302F2F" d="M253.524,17.992l-1.339,3.032c-0.289-0.128-0.556-0.295-0.795-0.496L253.524,17.992
						C253.524,17.992,253.524,17.992,253.524,17.992"/>
					<path fill="#302F2F" d="M253.524,17.992l-2.134,2.536c-0.159-0.134-0.306-0.283-0.438-0.444L253.524,17.992
						C253.524,17.993,253.524,17.992,253.524,17.992"/>
					<path fill="#302F2F" d="M254,17.993l-2.809,2.091c-0.106-0.13-0.083-0.268-0.168-0.413L254,17.994c0,0,0,0.006,0,0.006"/>
					<path fill="#3E3C3B" d="M254,17.994l-3.097,1.678c-0.07-0.119-0.014-0.243-0.069-0.371L254,17.995c0,0,0,0.005,0,0.005"/>
					<path fill="#434140" d="M254,17.995l-3.284,1.306c-0.048-0.112,0.029-0.227-0.007-0.345l3.291-0.96c0-0.001,0,0.003,0,0.003"/>
					<path fill="#484544" d="M254,17.997l-3.41,0.96c-0.032-0.104,0.061-0.211,0.04-0.32L254,17.998c0-0.001,0,0.002,0,0.002"/>
					<path fill="#4C4948" d="M254,17.998l-3.489,0.638c-0.019-0.097,0.085-0.196,0.075-0.296L254,18c0-0.001,0,0,0,0"/>
					<path fill="#4F4C4B" d="M254,18l-3.533,0.341c-0.009-0.092,0.104-0.185,0.102-0.279l3.431-0.06C254,18.001,254,18,254,18"/>
					<path fill="#524F4E" d="M253.419,18L250,18.061c0-0.02,0-0.04,0-0.059c0-0.072,0.108-0.145,0.113-0.216l3.36,0.214
						c0,0-0.027,0-0.027,0c0,0-0.446,0-0.446,0"/>
					<path fill="#555251" d="M253.525,18.002l-3.307-0.215c0.005-0.086,0.014-0.171,0.026-0.254L253.525,18.002
						C253.525,18.002,253.525,18.002,253.525,18.002"/>
					<path fill="#585554" d="M253.525,18.002l-3.281-0.47c0.011-0.079,0.025-0.158,0.042-0.235L253.525,18.002
						C253.525,18.002,253.525,18.002,253.525,18.002"/>
					<path fill="#5B5757" d="M253.525,18.002l-3.239-0.705c0.016-0.075,0.035-0.15,0.056-0.223L253.525,18.002
						C253.525,18.002,253.525,18.002,253.525,18.002"/>
					<path fill="#5D5A59" d="M253.525,18.002l-3.182-0.928c0.021-0.071,0.044-0.141,0.069-0.21L253.525,18.002
						C253.525,18.002,253.525,18.002,253.525,18.002"/>
					<path fill="#605C5C" d="M253.525,18.002l-3.113-1.138c0.025-0.068,0.051-0.134,0.08-0.199L253.525,18.002
						C253.525,18.002,253.525,18.002,253.525,18.002"/>
					<path fill="#625F5E" d="M253.525,18.002l-3.033-1.338c0.029-0.066,0.061-0.132,0.094-0.196L253.525,18.002
						C253.525,18.002,253.525,18.002,253.525,18.002"/>
					<path fill="#646161" d="M253.525,18.002l-2.939-1.533c0.032-0.062,0.066-0.122,0.102-0.181L253.525,18.002
						C253.525,18.002,253.525,18.002,253.525,18.002"/>
					<path fill="#676363" d="M253.525,18.002l-2.837-1.714c0.037-0.061,0.076-0.121,0.117-0.179L253.525,18.002
						C253.525,18.002,253.525,18.002,253.525,18.002"/>
					<path fill="#696565" d="M253.525,18.002l-2.721-1.894c0.04-0.058,0.082-0.114,0.126-0.169L253.525,18.002
						C253.525,18.002,253.525,18.002,253.525,18.002"/>
					<path fill="#6B6867" d="M253.525,18.002l-2.595-2.062c0.044-0.055,0.09-0.11,0.138-0.162L253.525,18.002
						C253.525,18.002,253.525,18.002,253.525,18.002"/>
					<path fill="#6D6A6A" d="M253.525,18.002l-2.457-2.224c0.05-0.055,0.101-0.108,0.154-0.159L253.525,18.002
						C253.525,18.002,253.525,18.002,253.525,18.002"/>
					<path fill="#6F6C6C" d="M253.525,18.002l-2.303-2.383c0.054-0.052,0.11-0.103,0.168-0.152L253.525,18.002
						C253.525,18.002,253.525,18.002,253.525,18.002"/>
					<path fill="#716E6E" d="M253.525,18.002l-2.135-2.535c0.06-0.05,0.121-0.098,0.184-0.144L253.525,18.002
						C253.525,18.002,253.525,18.002,253.525,18.002"/>
					<path fill="#737070" d="M253.525,18.002l-1.951-2.679c0.07-0.051,0.142-0.099,0.216-0.145L253.525,18.002
						C253.525,18.002,253.525,18.002,253.525,18.002"/>
					<path fill="#757272" d="M253.525,18.002l-1.734-2.824c0.079-0.049,0.161-0.094,0.245-0.136L253.525,18.002
						C253.525,18.002,253.525,18.002,253.525,18.002"/>
					<path fill="#777474" d="M253.525,18.003l-1.489-2.961c0.095-0.048,0.192-0.091,0.291-0.129L253.525,18.003
						C253.525,18.003,253.525,18.003,253.525,18.003"/>
					<path fill="#797676" d="M253.525,18.003l-1.198-3.09c0.132-0.051,0.269-0.094,0.409-0.128L253.525,18.003
						C253.525,18.003,253.525,18.003,253.525,18.003"/>
					<path fill="#7B7878" d="M253.643,18.001l-0.61-3.218C253.286,14.722,253,14.69,254,14.69V18l0,0"/>
				</g>
			</g>
			<g>
				<path fill="#302F2F" d="M253.524,18.69c-0.381-0.002-0.688-0.308-0.688-0.688c0.003-0.394,0.309-0.695,0.688-0.697
					c0.379,0.002,0.685,0.303,0.688,0.697C254.212,18.382,253.905,18.688,253.524,18.69z"/>
			</g>
		</g>
	</g>
</g>
<g>
	<g>
		<g enable-background="new    ">
			<g>
				<path fill="#302F2F" d="M113.529,39.307c6.453-0.001,11.69,5.236,11.689,11.689c0.001,6.453-5.236,11.69-11.689,11.689
					c-6.463,0.001-11.699-5.236-11.698-11.689C101.83,44.543,107.066,39.306,113.529,39.307z"/>
			</g>
			<g enable-background="new    ">
				<defs>
					<path id="SVGID_11_" enable-background="new    " d="M114,39.307v-2c7,0,13.453,6.129,13.453,13.689
						s-6.247,13.689-13.807,13.689c-7.569,0-13.521-6.129-13.521-13.689S106,37.307,114,37.307V39.307
						c-7-0.001-11.935,5.236-11.934,11.689c-0.001,6.453,5.117,11.69,11.58,11.689c6.453,0.001,11.867-5.236,11.866-11.689
						C125.514,44.543,120,39.306,114,39.307z"/>
				</defs>
				<clipPath id="SVGID_12_">
					<use xlink:href="#SVGID_11_"  overflow="visible"/>
				</clipPath>
				<g clip-path="url(#SVGID_12_)" enable-background="new    ">
					<path fill="#302F2F" d="M114,39v-1.693c2,0,3.651,0.426,5.359,1.192l-0.7,1.826C117.2,39.67,115,39.307,114,39.307"/>
					<path fill="#302F2F" d="M118.305,40.324l0.818-1.826c1.415,0.634,2.702,1.502,3.813,2.553l-1.375,1.453
						C120.613,41.607,119.513,40.866,118.305,40.324"/>
					<path fill="#302F2F" d="M121.562,42.505l1.375-1.453c0.724,0.685,1.373,1.448,1.933,2.275l-1.657,1.121
						C122.734,43.742,122.18,43.09,121.562,42.505"/>
					<path fill="#302F2F" d="M123.213,44.448l1.657-1.121c0.439,0.648,0.825,1.337,1.149,2.058l-1.825,0.821
						C123.917,45.59,123.588,45.002,123.213,44.448"/>
					<path fill="#302F2F" d="M124.194,46.206l1.825-0.821c0.269,0.597,0.496,1.216,0.677,1.855l-1.923,0.549
						C124.618,47.244,124.424,46.715,124.194,46.206"/>
					<path fill="#302F2F" d="M124.773,47.79l1.923-0.549c0.156,0.549,0.279,1.112,0.366,1.687l-1.977,0.303
						C125.011,48.739,124.906,48.258,124.773,47.79"/>
					<path fill="#302F2F" d="M125.086,49.23l1.977-0.303c0.076,0.499,0.124,1.007,0.145,1.522l-1.998,0.08
						C125.192,50.09,125.15,49.656,125.086,49.23"/>
					<path fill="#302F2F" d="M125.209,50.529l1.998-0.08c0.007,0.181,0.011,0.364,0.011,0.547c0,0.283-0.009,0.564-0.025,0.842
						l-1.996-0.123c0.014-0.238,0.022-0.478,0.022-0.719C125.218,50.84,125.215,50.684,125.209,50.529"/>
					<path fill="#302F2F" d="M125.196,51.715l1.996,0.123c-0.025,0.414-0.069,0.823-0.13,1.226l-1.977-0.303
						C125.138,52.418,125.175,52.069,125.196,51.715"/>
					<path fill="#302F2F" d="M125.086,52.762l1.977,0.303c-0.055,0.365-0.125,0.726-0.209,1.081l-1.947-0.461
						C124.979,53.381,125.038,53.074,125.086,52.762"/>
					<path fill="#302F2F" d="M124.907,53.685l1.947,0.461c-0.077,0.327-0.166,0.65-0.266,0.968l-1.908-0.602
						C124.766,54.24,124.842,53.964,124.907,53.685"/>
					<path fill="#302F2F" d="M124.68,54.511l1.908,0.602c-0.093,0.296-0.196,0.587-0.308,0.874l-1.863-0.73
						C124.513,55.013,124.601,54.764,124.68,54.511"/>
					<path fill="#302F2F" d="M124.417,55.258l1.863,0.73c-0.105,0.267-0.218,0.531-0.338,0.79l-1.813-0.845
						C124.231,55.711,124.327,55.486,124.417,55.258"/>
					<path fill="#302F2F" d="M124.128,55.932l1.813,0.845c-0.114,0.245-0.235,0.485-0.363,0.722l-1.76-0.951
						C123.927,56.346,124.03,56.141,124.128,55.932"/>
					<path fill="#302F2F" d="M123.817,56.548l1.76,0.951c-0.122,0.226-0.25,0.447-0.384,0.665l-1.704-1.048
						C123.604,56.93,123.713,56.741,123.817,56.548"/>
					<path fill="#3E3C3B" d="M123.489,57.116l1.704,1.048c-0.125,0.203-0.256,0.403-0.391,0.599l-1.647-1.135
						C123.271,57.46,123.382,57.29,123.489,57.116"/>
					<path fill="#434140" d="M123.155,57.628l1.647,1.135c-0.131,0.19-0.267,0.377-0.408,0.56l-1.588-1.217
						C122.927,57.95,123.043,57.79,123.155,57.628"/>
					<path fill="#484544" d="M122.807,58.106l1.588,1.217c-0.136,0.178-0.277,0.352-0.421,0.522l-1.526-1.293
						C122.57,58.407,122.69,58.258,122.807,58.106"/>
					<path fill="#4C4948" d="M122.447,58.552l1.526,1.293c-0.137,0.161-0.278,0.32-0.422,0.475l-1.465-1.363
						C122.21,58.825,122.33,58.69,122.447,58.552"/>
					<path fill="#4F4C4B" d="M122.087,58.958l1.465,1.363c-0.142,0.152-0.287,0.302-0.436,0.448l-1.401-1.428
						C121.841,59.215,121.965,59.088,122.087,58.958"/>
					<path fill="#524F4E" d="M121.714,59.34l1.401,1.428c-0.144,0.141-0.291,0.279-0.441,0.414l-1.337-1.488
						C121.466,59.578,121.591,59.46,121.714,59.34"/>
					<path fill="#555251" d="M121.337,59.694l1.337,1.488c-0.148,0.133-0.299,0.263-0.453,0.39l-1.27-1.545
						C121.082,59.918,121.211,59.807,121.337,59.694"/>
					<path fill="#585554" d="M120.95,60.027l1.27,1.545c-0.152,0.125-0.306,0.247-0.463,0.365l-1.203-1.599
						C120.689,60.237,120.821,60.133,120.95,60.027"/>
					<path fill="#5B5757" d="M120.555,60.338l1.203,1.599c-0.158,0.119-0.318,0.235-0.482,0.347l-1.132-1.649
						C120.283,60.539,120.42,60.44,120.555,60.338"/>
					<path fill="#5D5A59" d="M120.143,60.634l1.132,1.649c-0.163,0.112-0.329,0.221-0.498,0.327l-1.06-1.697
						C119.862,60.823,120.004,60.73,120.143,60.634"/>
					<path fill="#605C5C" d="M119.718,60.913l1.06,1.697c-0.166,0.104-0.335,0.204-0.505,0.301l-0.986-1.741
						C119.432,61.088,119.576,61.002,119.718,60.913"/>
					<path fill="#625F5E" d="M119.287,61.171l0.986,1.741c-0.172,0.097-0.346,0.191-0.522,0.281l-0.91-1.782
						C118.991,61.334,119.14,61.254,119.287,61.171"/>
					<path fill="#646161" d="M118.841,61.411l0.91,1.782c-0.184,0.094-0.37,0.184-0.558,0.269l-0.828-1.821
						C118.525,61.568,118.684,61.491,118.841,61.411"/>
					<path fill="#676363" d="M118.365,61.641l0.828,1.821c-0.195,0.089-0.392,0.173-0.592,0.253l-0.742-1.858
						C118.03,61.788,118.198,61.717,118.365,61.641"/>
					<path fill="#696565" d="M117.859,61.856l0.742,1.858c-0.209,0.083-0.421,0.162-0.635,0.235l-0.649-1.892
						C117.5,61.995,117.681,61.928,117.859,61.856"/>
					<path fill="#6B6867" d="M117.317,62.057l0.649,1.892c-0.237,0.081-0.477,0.156-0.72,0.224l-0.544-1.925
						C116.91,62.191,117.115,62.127,117.317,62.057"/>
					<path fill="#6D6A6A" d="M116.703,62.249l0.544,1.925c-0.268,0.076-0.54,0.143-0.814,0.202l-0.425-1.955
						C116.242,62.371,116.474,62.313,116.703,62.249"/>
					<path fill="#6F6C6C" d="M116.008,62.422l0.425,1.955c-0.333,0.072-0.67,0.132-1.011,0.179l-0.277-1.981
						C115.436,62.534,115.724,62.483,116.008,62.422"/>
					<path fill="#716E6E" d="M115.144,62.574l0.277,1.981c-0.531,0.073-1.071,0.116-1.62,0.127l-0.04-2
						C114.23,62.674,114.691,62.637,115.144,62.574"/>
					<path fill="#737070" d="M113.762,62.683l0.04,2c-0.091,0.002-0.182,0.003-0.273,0.003c-0.787,0-1.558-0.066-2.308-0.193
						l0.337-1.972c0.641,0.109,1.299,0.165,1.971,0.165C113.607,62.685,113.684,62.684,113.762,62.683"/>
					<path fill="#716E6E" d="M111.558,62.52l-0.337,1.972c-0.504-0.085-0.999-0.198-1.483-0.337l0.554-1.922
						C110.705,62.351,111.128,62.447,111.558,62.52"/>
					<path fill="#6F6C6C" d="M110.292,62.232l-0.554,1.922c-0.336-0.096-0.666-0.205-0.99-0.326l0.698-1.875
						C109.724,62.057,110.006,62.15,110.292,62.232"/>
					<path fill="#6D6A6A" d="M109.447,61.954l-0.698,1.875c-0.267-0.099-0.529-0.206-0.788-0.321l0.813-1.828
						C108.995,61.778,109.219,61.869,109.447,61.954"/>
					<path fill="#6B6867" d="M108.774,61.679l-0.813,1.828c-0.225-0.1-0.446-0.206-0.664-0.317l0.91-1.782
						C108.393,61.504,108.582,61.594,108.774,61.679"/>
					<path fill="#696565" d="M108.206,61.408l-0.91,1.782c-0.202-0.103-0.402-0.212-0.598-0.325l0.998-1.734
						C107.863,61.227,108.034,61.32,108.206,61.408"/>
					<path fill="#676363" d="M107.696,61.131l-0.998,1.734c-0.188-0.109-0.374-0.221-0.557-0.338l1.079-1.685
						C107.376,60.942,107.535,61.038,107.696,61.131"/>
					<path fill="#646161" d="M107.22,60.842l-1.079,1.685c-0.17-0.109-0.338-0.222-0.503-0.338l1.152-1.635
						C106.931,60.652,107.075,60.748,107.22,60.842"/>
					<path fill="#625F5E" d="M106.79,60.553l-1.152,1.635c-0.165-0.116-0.327-0.236-0.487-0.36l1.223-1.583
						C106.511,60.351,106.649,60.453,106.79,60.553"/>
					<path fill="#605C5C" d="M106.375,60.245l-1.223,1.583c-0.159-0.123-0.316-0.25-0.47-0.38l1.292-1.528
						C106.105,60.032,106.238,60.14,106.375,60.245"/>
					<path fill="#5D5A59" d="M105.973,59.921l-1.292,1.528c-0.15-0.127-0.298-0.258-0.442-0.391l1.356-1.47
						C105.719,59.701,105.845,59.812,105.973,59.921"/>
					<path fill="#5B5757" d="M105.595,59.587l-1.356,1.47c-0.144-0.133-0.285-0.269-0.424-0.408l1.418-1.411
						C105.352,59.357,105.472,59.473,105.595,59.587"/>
					<path fill="#585554" d="M105.234,59.238l-1.418,1.411c-0.14-0.141-0.277-0.284-0.411-0.431l1.478-1.348
						C104.997,58.995,105.114,59.118,105.234,59.238"/>
					<path fill="#555251" d="M104.883,58.87l-1.478,1.348c-0.134-0.147-0.265-0.297-0.393-0.45l1.535-1.282
						C104.656,58.617,104.768,58.745,104.883,58.87"/>
					<path fill="#524F4E" d="M104.547,58.486l-1.535,1.282c-0.129-0.154-0.254-0.311-0.376-0.471l1.59-1.214
						C104.33,58.22,104.437,58.354,104.547,58.486"/>
					<path fill="#4F4C4B" d="M104.226,58.084l-1.59,1.214c-0.126-0.165-0.248-0.332-0.366-0.503l1.644-1.14
						C104.014,57.8,104.118,57.943,104.226,58.084"/>
					<path fill="#4C4948" d="M103.913,57.655l-1.644,1.14c-0.121-0.175-0.239-0.352-0.352-0.532l1.695-1.063
						C103.709,57.354,103.809,57.506,103.913,57.655"/>
					<path fill="#484544" d="M103.612,57.2l-1.695,1.063c-0.118-0.188-0.232-0.38-0.341-0.574l1.745-0.979
						C103.414,56.876,103.511,57.039,103.612,57.2"/>
					<path fill="#434140" d="M103.321,56.71l-1.745,0.979c-0.112-0.199-0.219-0.401-0.321-0.606l1.792-0.89
						C103.134,56.367,103.225,56.54,103.321,56.71"/>
					<path fill="#3E3C3B" d="M103.047,56.192l-1.792,0.89c-0.106-0.213-0.207-0.429-0.302-0.649l1.836-0.795
						C102.87,55.825,102.956,56.01,103.047,56.192"/>
					<path fill="#302F2F" d="M102.789,55.638l-1.836,0.795c-0.1-0.232-0.195-0.467-0.282-0.705l1.877-0.692
						C102.623,55.24,102.704,55.44,102.789,55.638"/>
					<path fill="#302F2F" d="M102.548,55.036l-1.877,0.692c-0.092-0.249-0.177-0.502-0.254-0.758l1.914-0.581
						C102.397,54.607,102.47,54.823,102.548,55.036"/>
					<path fill="#302F2F" d="M102.331,54.389l-1.914,0.581c-0.082-0.271-0.156-0.546-0.222-0.825l1.946-0.461
						C102.197,53.922,102.261,54.157,102.331,54.389"/>
					<path fill="#302F2F" d="M102.142,53.684l-1.946,0.461c-0.071-0.3-0.131-0.604-0.182-0.911l1.973-0.328
						C102.029,53.169,102.081,53.428,102.142,53.684"/>
					<path fill="#302F2F" d="M101.986,52.907l-1.973,0.328c-0.054-0.331-0.097-0.666-0.127-1.005l1.992-0.181
						C101.903,52.338,101.94,52.624,101.986,52.907"/>
					<path fill="#302F2F" d="M101.878,52.049l-1.992,0.181c-0.033-0.37-0.051-0.744-0.054-1.122l2-0.016
						C101.834,51.414,101.849,51.733,101.878,52.049"/>
					<path fill="#302F2F" d="M102,51.091l-2,0.016c0-0.037,0-0.074,0-0.112c0-0.38-0.069-0.757-0.039-1.129l2.035,0.165
						C101.971,50.35,102,50.672,102,50.996c0,0.032,0,0.004,0,0.004"/>
					<path fill="#302F2F" d="M101.87,50.032l-1.993-0.165c0.038-0.46,0.098-0.914,0.18-1.361l1.967,0.364
						C101.954,49.252,101.902,49.639,101.87,50.032"/>
					<path fill="#302F2F" d="M102.024,48.871l-1.967-0.364c0.092-0.502,0.212-0.995,0.358-1.477l1.914,0.58
						C102.205,48.021,102.102,48.442,102.024,48.871"/>
					<path fill="#302F2F" d="M102.329,47.61l-1.914-0.58c0.166-0.551,0.367-1.086,0.598-1.605l1.827,0.815
						C102.642,46.682,102.471,47.14,102.329,47.61"/>
					<path fill="#302F2F" d="M102.84,46.239l-1.827-0.815c0.271-0.607,0.585-1.19,0.937-1.747l1.69,1.07
						C103.339,45.223,103.071,45.721,102.84,46.239"/>
					<path fill="#302F2F" d="M103.64,44.747l-1.69-1.07c0.425-0.67,0.906-1.301,1.438-1.885l1.48,1.345
						C104.415,43.637,104.003,44.175,103.64,44.747"/>
					<path fill="#302F2F" d="M104.869,43.137l-1.48-1.345c0.671-0.738,1.421-1.402,2.237-1.979l1.154,1.634
						C106.082,41.94,105.441,42.507,104.869,43.137"/>
					<path fill="#302F2F" d="M106.78,41.447l-1.154-1.634c1.238-0.876,2.629-1.551,4.124-1.979l0.552,1.923
						C109.025,40.122,107.837,40.699,106.78,41.447"/>
					<path fill="#302F2F" d="M110.302,39.757l-0.317-1.923c1.2-0.343,2.015-0.527,4.015-0.527v2c-2,0-2.438,0.157-3.463,0.45"/>
				</g>
			</g>
		</g>
	</g>
</g>
<g>
	<g>
		<g enable-background="new    ">
			<g enable-background="new    ">
				<defs>
					<path id="SVGID_13_" enable-background="new    " d="M113.519,50.996c0,0,0.01-0.022,0.01-0.022v0.71
						c-0.394-0.003-0.695-0.309-0.697-0.688c0.002-0.379,0.303-0.685,0.697-0.688c0.38,0,0.686,0.307,0.688,0.688
						c-0.002,0.381-0.308,0.688-0.688,0.688v-0.687c0-0.001-0.001-0.002-0.002-0.001c0,0,0,0,0,0c0,0,0,0,0,0
						c0.001,0,0.002,0,0.002-0.002C113.526,50.995,113.522,50.996,113.519,50.996z"/>
				</defs>
				<clipPath id="SVGID_14_">
					<use xlink:href="#SVGID_13_"  overflow="visible"/>
				</clipPath>
				<g clip-path="url(#SVGID_14_)" enable-background="new    ">
					<path fill="#302F2F" d="M113.529,50.974v0.71c-0.394-0.003-0.695-0.309-0.697-0.688c0.002-0.379,0.303-0.685,0.697-0.688
						c0.38,0,0.686,0.307,0.688,0.688c-0.002,0.381-0.308,0.688-0.688,0.688V50.974c-0.013,0-0.023,0.011-0.022,0.022
						c-0.002,0.011,0.009,0.022,0.022,0.022c0,0.003,0.014-0.009,0.013-0.022C113.543,50.983,113.529,50.972,113.529,50.974"/>
				</g>
			</g>
			<g enable-background="new    ">
				<defs>
					<path id="SVGID_15_" enable-background="new    " d="M113.754,50.996c0,0,0.246-0.022,0.246-0.022v-3.29
						c1,0,3.068,1.485,3.068,3.312s-1.594,3.312-3.421,3.312c-1.836,0-3.135-1.485-3.135-3.312S112,47.684,114,47.684v3.313
						c0-0.001-0.237,0.003-0.238,0.003c0,0-0.118,0-0.118,0c0,0-0.059,0-0.059,0c0.001,0,0.091-0.002,0.091-0.004
						C113.673,50.997,113.758,50.996,113.754,50.996z"/>
				</defs>
				<clipPath id="SVGID_16_">
					<use xlink:href="#SVGID_15_"  overflow="visible"/>
				</clipPath>
				<g clip-path="url(#SVGID_16_)" enable-background="new    ">
					<path fill="#7B7878" d="M114,51v-3.316c0,0,0.298,0.034,0.55,0.096L113.524,51C113.526,51,114,51,114,51"/>
					<path fill="#797676" d="M113.524,51l0.79-3.22c0.14,0.034,0.276,0.078,0.408,0.129l-1.2,3.091c0.001,0,0.478,0,0.478,0"/>
					<path fill="#777474" d="M113.522,51l1.2-3.092c0.099,0.039,0.196,0.083,0.29,0.13L113.521,51c0,0,0.479,0,0.479,0"/>
					<path fill="#757272" d="M113.521,50.996l1.491-2.96c0.083,0.042,0.165,0.088,0.244,0.136L113.521,50.996
						C113.521,50.996,113.521,50.996,113.521,50.996"/>
					<path fill="#737070" d="M113.521,50.996l1.736-2.824c0.07,0.043,0.138,0.089,0.205,0.137L113.521,50.996
						C113.52,50.996,113.52,50.996,113.521,50.996"/>
					<path fill="#716E6E" d="M113.52,50.996l1.941-2.687c0.063,0.046,0.125,0.094,0.185,0.144L113.52,50.996
						C113.52,50.996,113.52,50.996,113.52,50.996"/>
					<path fill="#6F6C6C" d="M113.52,50.996l2.126-2.543c0.058,0.049,0.114,0.099,0.169,0.152L113.52,50.996
						C113.52,50.996,113.52,50.996,113.52,50.996"/>
					<path fill="#6D6A6A" d="M113.519,50.996l2.295-2.391c0.053,0.051,0.105,0.104,0.155,0.159L113.519,50.996
						C113.519,50.996,113.519,50.996,113.519,50.996"/>
					<path fill="#6B6867" d="M113.519,50.996l2.45-2.232c0.049,0.054,0.096,0.109,0.142,0.166L113.519,50.996
						C113.519,50.996,113.519,50.996,113.519,50.996"/>
					<path fill="#696565" d="M113.519,50.996l2.592-2.065c0.044,0.056,0.087,0.113,0.128,0.171L113.519,50.996
						C113.519,50.996,113.519,50.996,113.519,50.996"/>
					<path fill="#676363" d="M113.519,50.996l2.72-1.894c0.04,0.057,0.078,0.115,0.114,0.175L113.519,50.996
						C113.519,50.996,113.519,50.996,113.519,50.996"/>
					<path fill="#646161" d="M113.519,50.996l2.834-1.719c0.037,0.061,0.073,0.124,0.106,0.188L113.519,50.996
						C113.519,50.996,113.519,50.996,113.519,50.996"/>
					<path fill="#625F5E" d="M113.519,50.996l2.94-1.531c0.032,0.062,0.063,0.125,0.091,0.19L113.519,50.996
						C113.519,50.996,113.519,50.996,113.519,50.996"/>
					<path fill="#605C5C" d="M113.519,50.996l3.031-1.341c0.029,0.066,0.057,0.134,0.082,0.203L113.519,50.996
						C113.519,50.996,113.519,50.996,113.519,50.996"/>
					<path fill="#5D5A59" d="M113.519,50.996l3.113-1.139c0.026,0.07,0.049,0.141,0.07,0.213L113.519,50.996
						C113.519,50.996,113.519,50.996,113.519,50.996"/>
					<path fill="#5B5757" d="M113.519,50.996l3.182-0.926c0.021,0.073,0.04,0.147,0.056,0.223L113.519,50.996
						C113.519,50.996,113.519,50.996,113.519,50.996"/>
					<path fill="#585554" d="M113.519,50.996l3.239-0.703c0.017,0.077,0.031,0.156,0.042,0.235L113.519,50.996
						C113.519,50.996,113.519,50.996,113.519,50.996"/>
					<path fill="#555251" d="M113.519,50.996l3.28-0.469c0.012,0.084,0.02,0.168,0.026,0.253L113.519,50.996
						C113.519,50.996,113.519,50.996,113.519,50.996"/>
					<path fill="#524F4E" d="M113.519,51l3.391-0.217c0.005,0.071,0.091,0.141,0.091,0.213c0,0.02,0,0.039,0,0.058L113.603,51
						c0,0-0.042,0-0.042,0c0,0,0.439,0,0.439,0"/>
					<path fill="#4F4C4B" d="M113.519,50.996l3.313,0.058c-0.002,0.095-0.007,0.19-0.017,0.283L113.519,50.996
						C113.519,50.996,113.519,50.996,113.519,50.996"/>
					<path fill="#4C4948" d="M113.519,50.996l3.296,0.341c-0.01,0.102-0.026,0.203-0.045,0.303L113.519,50.996
						C113.519,50.996,113.519,50.996,113.519,50.996"/>
					<path fill="#484544" d="M113.519,50.996l3.251,0.644c-0.021,0.109-0.048,0.216-0.08,0.321L113.519,50.996
						C113.519,50.996,113.519,50.996,113.519,50.996"/>
					<path fill="#434140" d="M113.519,50.996l3.171,0.965c-0.036,0.119-0.078,0.235-0.127,0.347L113.519,50.996
						C113.519,50.996,113.519,50.996,113.519,50.996"/>
					<path fill="#3E3C3B" d="M113.519,50.996l3.044,1.312c-0.056,0.13-0.12,0.256-0.192,0.376L113.519,50.996
						C113.519,50.996,113.519,50.996,113.519,50.996"/>
					<path fill="#302F2F" d="M113.519,50.996l2.852,1.689c-0.085,0.144-0.181,0.281-0.286,0.41L113.519,50.996
						C113.519,50.996,113.519,50.996,113.519,50.996"/>
					<path fill="#302F2F" d="M113.519,50.996l2.565,2.099c-0.134,0.164-0.284,0.315-0.447,0.451L113.519,50.996
						C113.519,50.996,113.519,50.996,113.519,50.996"/>
					<path fill="#302F2F" d="M113.76,50.998l1.998,2.549c-0.235,0.195-0.557,0.36-0.84,0.485L113.522,51c-0.001,0,0.478,0,0.478,0"
						/>
					<path fill="#302F2F" d="M113.522,50.996l1.336,3.033c-0.406,0.179-0.856,0.279-1.329,0.279c-0.476,0-0.928-0.1-1.337-0.28
						l1.337-3.034c0,0,0,0,0,0C113.526,50.995,113.523,50.996,113.522,50.996"/>
					<path fill="#302F2F" d="M113.529,50.995l-1.337,3.034c-0.287-0.126-0.552-0.292-0.789-0.491L113.529,50.995
						C113.529,50.995,113.529,50.995,113.529,50.995"/>
					<path fill="#302F2F" d="M113.529,50.995l-2.126,2.543c-0.16-0.134-0.307-0.283-0.439-0.444L113.529,50.995
						C113.529,50.995,113.529,50.995,113.529,50.995"/>
					<path fill="#302F2F" d="M113.529,50.995l-2.565,2.098c-0.105-0.129-0.201-0.265-0.286-0.409L113.529,50.995
						C113.529,50.995,113.529,50.995,113.529,50.995"/>
					<path fill="#3E3C3B" d="M113.529,50.995l-2.852,1.689c-0.071-0.121-0.135-0.246-0.191-0.376L113.529,50.995
						C113.53,50.995,113.529,50.995,113.529,50.995"/>
					<path fill="#434140" d="M113.53,50.995l-3.043,1.313c-0.049-0.113-0.091-0.228-0.127-0.347L113.53,50.995
						C113.53,50.995,113.53,50.995,113.53,50.995"/>
					<path fill="#484544" d="M113.53,50.995l-3.17,0.966c-0.032-0.105-0.059-0.212-0.08-0.321L113.53,50.995
						C113.53,50.995,113.53,50.995,113.53,50.995"/>
					<path fill="#4C4948" d="M113.53,50.995l-3.251,0.645c-0.02-0.099-0.035-0.2-0.045-0.303L113.53,50.995
						C113.53,50.996,113.53,50.995,113.53,50.995"/>
					<path fill="#4F4C4B" d="M113.53,50.996l-3.296,0.342c-0.01-0.093-0.015-0.188-0.017-0.283L113.53,50.996
						C113.53,50.996,113.53,50.996,113.53,50.996"/>
					<path fill="#524F4E" d="M113.422,51L110,51.055c0-0.02,0-0.039,0-0.059c0-0.075,0.111-0.147,0.116-0.22l3.36,0.224
						c0,0-0.027,0-0.027,0c0,0-0.449,0-0.449,0"/>
					<path fill="#555251" d="M113.53,50.996l-3.306-0.222c0.006-0.084,0.014-0.167,0.026-0.249L113.53,50.996
						C113.53,50.996,113.53,50.996,113.53,50.996"/>
					<path fill="#585554" d="M113.53,50.996l-3.28-0.471c0.011-0.079,0.025-0.156,0.042-0.233L113.53,50.996
						C113.53,50.997,113.53,50.997,113.53,50.996"/>
					<path fill="#5B5757" d="M113.53,50.997l-3.238-0.704c0.016-0.075,0.035-0.149,0.056-0.222L113.53,50.997
						C113.53,50.997,113.53,50.997,113.53,50.997"/>
					<path fill="#5D5A59" d="M113.53,50.997l-3.182-0.927c0.021-0.072,0.044-0.143,0.07-0.213L113.53,50.997
						C113.53,50.997,113.53,50.997,113.53,50.997"/>
					<path fill="#605C5C" d="M113.53,50.997l-3.112-1.14c0.025-0.069,0.052-0.136,0.082-0.202L113.53,50.997
						C113.53,50.997,113.53,50.997,113.53,50.997"/>
					<path fill="#625F5E" d="M113.53,50.997l-3.03-1.342c0.028-0.064,0.059-0.128,0.091-0.19L113.53,50.997
						C113.53,50.997,113.53,50.997,113.53,50.997"/>
					<path fill="#646161" d="M113.53,50.997l-2.939-1.532c0.033-0.064,0.069-0.127,0.106-0.188L113.53,50.997
						C113.529,50.997,113.529,50.997,113.53,50.997"/>
					<path fill="#676363" d="M113.529,50.997l-2.833-1.72c0.036-0.059,0.074-0.118,0.114-0.175L113.529,50.997
						C113.529,50.997,113.529,50.997,113.529,50.997"/>
					<path fill="#696565" d="M113.529,50.997l-2.719-1.895c0.041-0.058,0.083-0.115,0.127-0.171L113.529,50.997
						C113.529,50.997,113.529,50.997,113.529,50.997"/>
					<path fill="#6B6867" d="M113.529,50.997l-2.592-2.066c0.044-0.056,0.091-0.11,0.139-0.163L113.529,50.997
						C113.529,50.997,113.529,50.997,113.529,50.997"/>
					<path fill="#6D6A6A" d="M113.529,50.997l-2.453-2.229c0.048-0.053,0.098-0.104,0.149-0.154L113.529,50.997
						C113.529,50.997,113.529,50.997,113.529,50.997"/>
					<path fill="#6F6C6C" d="M113.529,50.997l-2.304-2.383c0.054-0.052,0.11-0.103,0.168-0.152L113.529,50.997
						C113.529,50.997,113.529,50.997,113.529,50.997"/>
					<path fill="#716E6E" d="M113.529,50.997l-2.136-2.534c0.06-0.05,0.121-0.099,0.184-0.145L113.529,50.997
						C113.529,50.997,113.529,50.997,113.529,50.997"/>
					<path fill="#737070" d="M113.529,50.997l-1.952-2.679c0.07-0.051,0.142-0.1,0.216-0.145L113.529,50.997
						C113.529,50.997,113.529,50.997,113.529,50.997"/>
					<path fill="#757272" d="M113.529,50.997l-1.736-2.824c0.079-0.049,0.161-0.095,0.245-0.137L113.529,50.997
						C113.529,50.997,113.529,50.997,113.529,50.997"/>
					<path fill="#777474" d="M113.529,50.997l-1.491-2.961c0.095-0.048,0.192-0.091,0.291-0.129L113.529,50.997
						C113.529,50.997,113.529,50.997,113.529,50.997"/>
					<path fill="#797676" d="M113.529,50.997l-1.2-3.09c0.133-0.051,0.27-0.095,0.41-0.129L113.529,50.997
						C113.529,50.997,113.529,50.997,113.529,50.997"/>
					<path fill="#7B7878" d="M113.647,50.999l-0.613-3.22c0.253-0.062-0.034-0.095,0.966-0.095V51l0,0"/>
				</g>
			</g>
			<g>
				<path fill="#302F2F" d="M113.529,51.684c-0.394-0.003-0.695-0.309-0.697-0.688c0.002-0.379,0.303-0.685,0.697-0.688
					c0.38,0,0.686,0.307,0.688,0.688C114.215,51.377,113.909,51.684,113.529,51.684z"/>
			</g>
		</g>
	</g>
</g>
<g>
</g>
<g>
</g>
<g>
</g>
<g>
</g>
<g>
</g>
<g>
</g>
</svg>
