<?xml version="1.0" encoding="utf-8"?>
<!-- Generator: Adobe Illustrator 17.0.2, SVG Export Plug-In . SVG Version: 6.00 Build 0)  -->
<!DOCTYPE svg PUBLIC "-//W3C//DTD SVG 1.0//EN" "http://www.w3.org/TR/2001/REC-SVG-20010904/DTD/svg10.dtd">
<svg version="1.0" id="Layer_1" xmlns="http://www.w3.org/2000/svg" xmlns:xlink="http://www.w3.org/1999/xlink" x="0px" y="0px"
	 width="54.1px" height="48.6px" viewBox="0 0 54.1 48.6" enable-background="new 0 0 54.1 48.6" xml:space="preserve">
<path fill="#FFFFFF" d="M48.9,37.2c-0.5-1-0.8-1.8-1.8-1.8c1,0,1.8-0.8,1.8-1.8V2c0-1-0.8-1.8-1.8-1.8h-40c-1,0-1.8,0.8-1.8,1.8
	v31.5c0,1,0.8,1.8,1.8,1.8c-1,0-1.2,0.7-1.8,1.8l-5,9.3c0,1,0.8,1.8,1.8,1.8h50c1,0,1.8-0.8,1.8-1.8L48.9,37.2z"/>
<path fill="none" stroke="#2D3E4F" stroke-width="0.5" stroke-miterlimit="10" d="M48.9,37.2c-0.5-1-0.8-1.8-1.8-1.8
	c1,0,1.8-0.8,1.8-1.8V2c0-1-0.8-1.8-1.8-1.8h-40c-1,0-1.8,0.8-1.8,1.8v31.5c0,1,0.8,1.8,1.8,1.8c-1,0-1.2,0.7-1.8,1.8l-5,9.3
	c0,1,0.8,1.8,1.8,1.8h50c1,0,1.8-0.8,1.8-1.8L48.9,37.2z"/>
<path fill="#2D3E4F" d="M20.7,16.7c0,0.7-0.6,1.4-1.4,1.4c-0.7,0-1.3-0.6-1.3-1.4v-4.2c0-0.7,0.6-1.4,1.3-1.4c0.7,0,1.4,0.6,1.4,1.4
	V16.7z"/>
<path fill="#2D3E4F" d="M36.1,16.7c0,0.7-0.6,1.4-1.4,1.4c-0.7,0-1.3-0.6-1.3-1.4v-4.2c0-0.7,0.6-1.4,1.3-1.4c0.7,0,1.4,0.6,1.4,1.4
	V16.7z"/>
<path fill="none" stroke="#2D3E4F" stroke-width="0.5" stroke-linecap="round" stroke-linejoin="round" stroke-miterlimit="10" d="
	M20.3,24.2c1.6,1.8,3.9,2.9,6.5,2.9c2.6,0,4.9-1.1,6.5-2.9"/>
<path fill="none" stroke="#2D3E4F" stroke-width="0.5" stroke-miterlimit="10" d="M23.5,41.9c0,0.4,0.4,0.8,0.8,0.8h5.6
	c0.4,0,0.8-0.4,0.8-0.8c0-0.4-0.4-0.8-0.8-0.8h-5.6C23.8,41.1,23.5,41.4,23.5,41.9z"/>
<path fill="none" stroke="#2D3E4F" stroke-width="0.5" stroke-miterlimit="10" d="M53.9,46.5c0,1-0.8,1.8-1.8,1.8h-50
	c-1,0-1.8-0.8-1.8-1.8l5-9.3c0.6-1.1,0.8-1.8,1.8-1.8h40c1,0,1.3,0.8,1.8,1.8L53.9,46.5z"/>
<line fill="none" stroke="#2D3E4F" stroke-width="0.5" stroke-linecap="round" stroke-linejoin="round" stroke-miterlimit="10" x1="28.3" y1="33" x2="25.8" y2="33"/>
<path fill="none" stroke="#2D3E4F" stroke-width="0.5" stroke-miterlimit="10" d="M48.9,33.6c0,1-0.8,1.8-1.8,1.8h-40
	c-1,0-1.8-0.8-1.8-1.8V2.1c0-1,0.8-1.8,1.8-1.8h40c1,0,1.8,0.8,1.8,1.8V33.6z"/>
<rect x="9.6" y="4.6" fill="none" stroke="#2D3E4F" stroke-width="0.5" stroke-miterlimit="10" width="35" height="26.5"/>
<path fill="none" stroke="#2D3E4F" stroke-width="0.5" stroke-miterlimit="10" d="M1.1,44.9l-0.9,1.6c0,1,0.8,1.8,1.8,1.8h50
	c1,0,1.8-0.8,1.8-1.8L53,44.9H1.1z"/>
<path fill="none" stroke="#2D3E4F" stroke-width="0.5" stroke-miterlimit="10" d="M46.3,39.3c0,1-0.8,1.7-1.7,1.7H9.5
	c-1,0-1.7-0.8-1.7-1.7c0-1,0.8-1.7,1.7-1.7h35.1C45.5,37.6,46.3,38.4,46.3,39.3z"/>
</svg>
