<?xml version="1.0" encoding="utf-8"?>
<!-- Generator: Adobe Illustrator 17.0.2, SVG Export Plug-In . SVG Version: 6.00 Build 0)  -->
<!DOCTYPE svg PUBLIC "-//W3C//DTD SVG 1.1//EN" "http://www.w3.org/Graphics/SVG/1.1/DTD/svg11.dtd">
<svg version="1.1" id="Layer_1" xmlns="http://www.w3.org/2000/svg" xmlns:xlink="http://www.w3.org/1999/xlink" x="0px" y="0px"
	 width="111.1px" height="78.7px" viewBox="0 0 111.1 78.7" enable-background="new 0 0 111.1 78.7" xml:space="preserve">
<path fill="#08A650" d="M47.9,42.3"/>
<path fill="#08A650" d="M47.9,44.1"/>
<path fill="none" stroke="#231F20" stroke-width="0.25" stroke-miterlimit="10" d="M47.9,44.1"/>
<path fill="none" stroke="#231F20" stroke-width="0.25" stroke-miterlimit="10" d="M47.9,42.3"/>
<path fill="#FFFFFF" d="M111.1,40.4"/>
<path fill="#FFFFFF" d="M111.1,30.8"/>
<path fill="none" stroke="#EF3925" stroke-width="1.425" stroke-linecap="round" stroke-linejoin="round" stroke-miterlimit="10" d="
	M111.1,30.8"/>
<path fill="none" stroke="#EF3925" stroke-width="1.425" stroke-linecap="round" stroke-linejoin="round" stroke-miterlimit="10" d="
	M111.1,40.4"/>
<rect x="18.5" y="59.5" fill="#BDBEC0" width="67.4" height="2.1"/>
<rect x="18.5" y="59.5" fill="none" stroke="#231F20" stroke-width="0.409" stroke-linecap="round" stroke-linejoin="round" width="67.4" height="2.1"/>
<rect x="18.5" y="53.3" fill="#BDBEC0" width="67.4" height="2.1"/>
<rect x="18.5" y="53.3" fill="none" stroke="#231F20" stroke-width="0.409" stroke-linecap="round" stroke-linejoin="round" width="67.4" height="2.1"/>
<rect x="18.5" y="47.2" fill="#BDBEC0" width="67.4" height="2.1"/>
<rect x="18.5" y="47.2" fill="none" stroke="#231F20" stroke-width="0.409" stroke-linecap="round" stroke-linejoin="round" width="67.4" height="2.1"/>
<g>
	<path fill="#6E6F72" d="M42.8,27h3v0.9h-1.9v1.3h1.8V30h-1.8v2.3h-1.1V27z"/>
	<path fill="#6E6F72" d="M46.3,27h2c0.9,0,1.4,0.5,1.4,1.4c0,0.7-0.3,1.2-0.9,1.3v0c0.7,0.1,0.8,0.5,0.9,1.6c0,0.6,0,0.8,0.2,1v0
		h-1.2c-0.1-0.2-0.1-0.4-0.1-0.6l0-1c0-0.4-0.2-0.7-0.6-0.7h-0.6v2.3h-1.1V27z M47.3,29.3h0.5c0.5,0,0.8-0.2,0.8-0.8
		c0-0.5-0.2-0.7-0.8-0.7h-0.5V29.3z"/>
	<path fill="#6E6F72" d="M52.2,26.9c1.6,0,1.8,1.2,1.8,2.8s-0.2,2.8-1.8,2.8s-1.8-1.2-1.8-2.8S50.5,26.9,52.2,26.9z M52.2,31.7
		c0.6,0,0.7-0.5,0.7-2c0-1.4-0.1-2-0.7-2c-0.6,0-0.7,0.6-0.7,2C51.4,31.1,51.5,31.7,52.2,31.7z"/>
	<path fill="#6E6F72" d="M55.9,27l1.3,3.7h0V27h1v5.4H57l-1.3-3.8h0v3.8h-1V27H55.9z"/>
	<path fill="#6E6F72" d="M62.1,27v0.9h-1.2v4.5h-1.1v-4.5h-1.2V27H62.1z"/>
</g>
<g>
	<path fill="#6E6F72" d="M44.4,71.6h1.8c0.9,0,1.5,0.3,1.5,1.4c0,0.6-0.3,1-0.8,1.2v0c0.6,0.1,1,0.5,1,1.2c0,0.8-0.4,1.6-1.7,1.6
		h-1.8V71.6z M45.5,73.8h0.3c0.6,0,0.9-0.2,0.9-0.7s-0.2-0.7-0.8-0.7h-0.4V73.8z M45.5,76.2H46c0.5,0,0.9-0.2,0.9-0.8
		c0-0.6-0.4-0.8-0.8-0.8h-0.5V76.2z"/>
	<path fill="#6E6F72" d="M49.7,71.6H51l1.4,5.4h-1.1l-0.2-1.1h-1.4L49.4,77h-1.1L49.7,71.6z M49.8,75h1.1l-0.5-2.4h0L49.8,75z"/>
	<path fill="#6E6F72" d="M55.1,73.4c0-0.8-0.2-1.1-0.6-1.1c-0.5,0-0.7,0.5-0.7,2.1c0,1.6,0.2,1.9,0.7,1.9c0.4,0,0.7-0.2,0.7-1.4h1.1
		c0,1.2-0.3,2.2-1.7,2.2c-1.6,0-1.8-1.2-1.8-2.8s0.2-2.8,1.8-2.8c1.5,0,1.7,1.1,1.7,1.9H55.1z"/>
	<path fill="#6E6F72" d="M57.9,71.6v2.2h0l1.4-2.2h1.2L59,73.9l1.6,3.1h-1.2l-1.1-2.2l-0.4,0.6V77h-1.1v-5.4H57.9z"/>
</g>
<line fill="none" stroke="#BDBEC0" stroke-width="0.627" stroke-linecap="round" stroke-linejoin="round" stroke-miterlimit="10" x1="2.6" y1="35.7" x2="102" y2="35.7"/>
<rect x="13.4" y="57.3" fill="#424143" width="6" height="6.7"/>
<rect x="13.4" y="57.3" fill="none" stroke="#231F20" stroke-width="0.409" stroke-linecap="round" stroke-linejoin="round" width="6" height="6.7"/>
<polygon fill="#6E6F72" points="16.4,59.2 18.1,62.7 14.6,62.7 "/>
<polygon fill="none" stroke="#231F20" stroke-width="0.409" stroke-linecap="round" stroke-linejoin="round" points="16.4,59.2 
	18.1,62.7 14.6,62.7 "/>
<polygon fill="#231F20" points="14.7,53.4 15.4,53.4 15.4,54.2 18.4,54.2 18.4,54.9 15.4,54.9 15.4,55.7 14.7,55.7 "/>
<polygon fill="#231F20" points="14.7,53.1 14.7,52 17.3,51.4 17.3,51.4 14.7,50.9 14.7,49.8 18.4,49.8 18.4,50.5 15.5,50.5 
	15.5,50.5 18.4,51.1 18.4,51.7 15.5,52.4 15.5,52.4 18.4,52.4 18.4,53.1 "/>
<path fill="#231F20" d="M14.7,49.3V48c0-0.8,0.6-1,1.1-1c0.8,0,1.1,0.5,1.1,1.2v0.4h1.5v0.7H14.7z M16.4,48.5v-0.3
	c0-0.3-0.2-0.5-0.6-0.5c-0.4,0-0.6,0.1-0.6,0.5v0.3H16.4z"/>
<polygon fill="#BDBEC0" points="64.5,17.6 18.2,17.6 18.2,15.5 85.6,15.5 85.6,17.6 "/>
<polyline fill="none" stroke="#231F20" stroke-width="0.409" stroke-linecap="round" stroke-linejoin="round" points="64.5,17.6 
	18.2,17.6 18.2,15.5 85.6,15.5 85.6,17.6 64.5,17.6 "/>
<rect x="18.2" y="9.3" fill="#BDBEC0" width="67.4" height="2.1"/>
<rect x="18.2" y="9.3" fill="none" stroke="#231F20" stroke-width="0.409" stroke-linecap="round" stroke-linejoin="round" width="67.4" height="2.1"/>
<rect x="18.2" y="3.2" fill="#BDBEC0" width="67.4" height="2.1"/>
<rect x="18.2" y="3.2" fill="none" stroke="#231F20" stroke-width="0.409" stroke-linecap="round" stroke-linejoin="round" width="67.4" height="2.1"/>
<rect x="0.2" y="0.2" fill="#818285" width="24.8" height="20.3"/>
<rect x="0.2" y="0.2" fill="none" stroke="#231F20" stroke-width="0.409" stroke-linecap="round" stroke-linejoin="round" width="24.8" height="20.3"/>
<rect x="2" y="12.4" fill="#424143" width="6" height="6.7"/>
<rect x="2" y="12.4" fill="none" stroke="#231F20" stroke-width="0.409" stroke-linecap="round" stroke-linejoin="round" width="6" height="6.7"/>
<polygon fill="#6E6F72" points="5,14.4 6.7,17.9 3.2,17.9 "/>
<polygon fill="none" stroke="#231F20" stroke-width="0.409" stroke-linecap="round" stroke-linejoin="round" points="5,14.4 
	6.7,17.9 3.2,17.9 "/>
<polygon fill="#231F20" points="3.4,8.5 4,8.5 4,9.3 7,9.3 7,10.1 4,10.1 4,10.9 3.4,10.9 "/>
<polygon fill="#231F20" points="3.4,8.2 3.4,7.1 6,6.6 6,6.6 3.4,6.1 3.4,5 7,5 7,5.6 4.1,5.6 4.1,5.6 7,6.3 7,6.9 4.1,7.5 4.1,7.5 
	7,7.5 7,8.2 "/>
<path fill="#231F20" d="M3.4,4.4V3.1c0-0.8,0.6-1,1.1-1c0.8,0,1.1,0.5,1.1,1.2v0.4H7v0.7H3.4z M5,3.7V3.4c0-0.3-0.2-0.5-0.6-0.5
	C4.1,2.9,3.9,3,3.9,3.4v0.3H5z"/>
<rect x="0.5" y="44.2" fill="#818285" width="24.8" height="20.3"/>
<rect x="0.5" y="44.2" fill="none" stroke="#231F20" stroke-width="0.409" stroke-linecap="round" stroke-linejoin="round" width="24.8" height="20.3"/>
<circle fill="none" stroke="#231F20" stroke-width="0.409" stroke-linecap="round" stroke-linejoin="round" cx="12.9" cy="54.4" r="3.3"/>
<path fill="#231F20" d="M10.9,55.6v-1.7c0-1.1,0.7-1.3,1.2-1.3c0.5,0,1.2,0.2,1.2,1.3v1h1.5v0.7H10.9z M12.8,54.9v-1
	c0-0.3-0.2-0.7-0.7-0.7c-0.5,0-0.7,0.3-0.7,0.7v1H12.8z"/>
<g>
	<path fill="#231F20" d="M90.3,11c0,0.1,0.1,0.1,0.1,0.2c0.1,0,0.1,0.1,0.2,0.1s0.2,0,0.2,0c0.1,0,0.1,0,0.2,0c0.1,0,0.1,0,0.2-0.1
		c0.1,0,0.1-0.1,0.1-0.1c0,0,0.1-0.1,0.1-0.2c0-0.1,0-0.1-0.1-0.2c0,0-0.1-0.1-0.2-0.1s-0.2-0.1-0.3-0.1c-0.1,0-0.2-0.1-0.3-0.1
		c-0.1,0-0.2-0.1-0.3-0.1c-0.1,0-0.2-0.1-0.3-0.1c-0.1-0.1-0.1-0.1-0.2-0.2c0-0.1-0.1-0.2-0.1-0.3c0-0.1,0-0.3,0.1-0.4
		S89.9,9,90.1,9c0.1-0.1,0.2-0.1,0.3-0.2s0.3-0.1,0.4-0.1c0.1,0,0.3,0,0.4,0c0.1,0,0.3,0.1,0.4,0.2c0.1,0.1,0.2,0.2,0.3,0.3
		c0.1,0.1,0.1,0.3,0.1,0.4h-0.6c0-0.1,0-0.2-0.1-0.2c0-0.1-0.1-0.1-0.1-0.1c-0.1,0-0.1-0.1-0.2-0.1s-0.1,0-0.2,0c-0.1,0-0.1,0-0.2,0
		s-0.1,0-0.1,0.1c0,0-0.1,0.1-0.1,0.1s0,0.1,0,0.2c0,0.1,0,0.1,0,0.1s0.1,0.1,0.1,0.1s0.1,0.1,0.3,0.1c0.1,0,0.3,0.1,0.4,0.1
		c0.1,0,0.1,0,0.2,0.1s0.2,0.1,0.3,0.1c0.1,0.1,0.2,0.1,0.2,0.2c0.1,0.1,0.1,0.2,0.1,0.4c0,0.1,0,0.3-0.1,0.4
		c-0.1,0.1-0.1,0.2-0.2,0.3c-0.1,0.1-0.2,0.1-0.4,0.2c-0.1,0-0.3,0.1-0.5,0.1c-0.2,0-0.3,0-0.5-0.1c-0.1,0-0.3-0.1-0.4-0.2
		c-0.1-0.1-0.2-0.2-0.3-0.3c-0.1-0.1-0.1-0.3-0.1-0.5h0.6C90.2,10.8,90.2,10.9,90.3,11z"/>
	<path fill="#231F20" d="M93,8.8v2.9h-0.6V8.8H93z"/>
	<path fill="#231F20" d="M95.3,11.7c-0.1,0.1-0.3,0.1-0.4,0.1c-0.2,0-0.4,0-0.6-0.1c-0.2-0.1-0.3-0.2-0.4-0.3
		c-0.1-0.1-0.2-0.3-0.3-0.5c-0.1-0.2-0.1-0.4-0.1-0.6c0-0.2,0-0.4,0.1-0.6c0.1-0.2,0.2-0.3,0.3-0.5c0.1-0.1,0.3-0.2,0.4-0.3
		c0.2-0.1,0.4-0.1,0.6-0.1c0.1,0,0.3,0,0.4,0.1c0.1,0,0.3,0.1,0.4,0.2c0.1,0.1,0.2,0.2,0.3,0.3C96,9.5,96,9.6,96.1,9.8h-0.6
		c0-0.2-0.1-0.3-0.2-0.4c-0.1-0.1-0.2-0.1-0.4-0.1c-0.1,0-0.3,0-0.4,0.1s-0.2,0.1-0.2,0.2c-0.1,0.1-0.1,0.2-0.1,0.3
		c0,0.1,0,0.2,0,0.4c0,0.1,0,0.2,0,0.4c0,0.1,0.1,0.2,0.1,0.3c0.1,0.1,0.1,0.2,0.2,0.2s0.2,0.1,0.4,0.1c0.2,0,0.4-0.1,0.5-0.2
		c0.1-0.1,0.2-0.3,0.2-0.5h-0.6v-0.5h1.2v1.5h-0.4l-0.1-0.3C95.5,11.5,95.4,11.6,95.3,11.7z"/>
	<path fill="#231F20" d="M97.2,8.8l1.2,1.9h0V8.8H99v2.9h-0.6l-1.2-1.9h0v1.9h-0.6V8.8H97.2z"/>
	<path fill="#231F20" d="M101,8.8l1.1,2.9h-0.7l-0.2-0.6h-1.1l-0.2,0.6h-0.6l1.1-2.9H101z M101,10.6l-0.4-1h0l-0.4,1H101z"/>
	<path fill="#231F20" d="M102.9,8.8v2.3h1.4v0.5h-2V8.8H102.9z"/>
</g>
<g>
	<path fill="#231F20" d="M91.7,16.8v0.4h-0.8v0.8h-0.4v-0.8h-0.8v-0.4h0.8V16h0.4v0.8H91.7z"/>
	<path fill="#231F20" d="M92.8,18.1l-0.9-2.9h0.6l0.6,2h0l0.6-2h0.6l-0.9,2.9H92.8z"/>
</g>
<g>
	<path fill="#231F20" d="M91.4,5.4c-0.1,0.1-0.3,0.1-0.4,0.1c-0.2,0-0.4,0-0.6-0.1c-0.2-0.1-0.3-0.2-0.4-0.3
		c-0.1-0.1-0.2-0.3-0.3-0.5c-0.1-0.2-0.1-0.4-0.1-0.6c0-0.2,0-0.4,0.1-0.6C89.8,3.3,89.9,3.1,90,3c0.1-0.1,0.3-0.2,0.4-0.3
		c0.2-0.1,0.4-0.1,0.6-0.1c0.1,0,0.3,0,0.4,0.1c0.1,0,0.3,0.1,0.4,0.2C91.9,2.9,92,3,92.1,3.1c0.1,0.1,0.1,0.3,0.1,0.4h-0.6
		c0-0.2-0.1-0.3-0.2-0.4c-0.1-0.1-0.2-0.1-0.4-0.1c-0.1,0-0.3,0-0.4,0.1s-0.2,0.1-0.2,0.2c-0.1,0.1-0.1,0.2-0.1,0.3
		c0,0.1,0,0.2,0,0.4c0,0.1,0,0.2,0,0.4c0,0.1,0.1,0.2,0.1,0.3c0.1,0.1,0.1,0.2,0.2,0.2S90.9,5,91,5c0.2,0,0.4-0.1,0.5-0.2
		c0.1-0.1,0.2-0.3,0.2-0.5h-0.6V3.9h1.2v1.5h-0.4l-0.1-0.3C91.7,5.3,91.6,5.4,91.4,5.4z"/>
	<path fill="#231F20" d="M93.4,2.6l1.2,1.9h0V2.6h0.6v2.9h-0.6l-1.2-1.9h0v1.9h-0.6V2.6H93.4z"/>
	<path fill="#231F20" d="M97,2.6c0.2,0,0.4,0,0.5,0.1c0.2,0.1,0.3,0.1,0.4,0.3c0.1,0.1,0.2,0.3,0.3,0.4c0.1,0.2,0.1,0.4,0.1,0.6
		c0,0.2,0,0.4-0.1,0.6C98.1,4.8,98,4.9,97.9,5c-0.1,0.1-0.2,0.2-0.4,0.3S97.2,5.5,97,5.5h-1.2V2.6H97z M96.9,4.9c0.1,0,0.2,0,0.3,0
		c0.1,0,0.2-0.1,0.2-0.1c0.1-0.1,0.1-0.2,0.2-0.3s0.1-0.2,0.1-0.4c0-0.1,0-0.3,0-0.4c0-0.1-0.1-0.2-0.1-0.3
		c-0.1-0.1-0.1-0.1-0.3-0.2c-0.1,0-0.2-0.1-0.4-0.1h-0.4v1.8H96.9z"/>
</g>
<g>
	<path fill="#231F20" d="M90.3,54.9c0,0.1,0.1,0.1,0.1,0.2c0.1,0,0.1,0.1,0.2,0.1c0.1,0,0.2,0,0.2,0c0.1,0,0.1,0,0.2,0
		c0.1,0,0.1,0,0.2-0.1c0.1,0,0.1-0.1,0.1-0.1c0,0,0.1-0.1,0.1-0.2c0-0.1,0-0.1-0.1-0.2c0,0-0.1-0.1-0.2-0.1s-0.2-0.1-0.3-0.1
		c-0.1,0-0.2-0.1-0.3-0.1c-0.1,0-0.2-0.1-0.3-0.1c-0.1,0-0.2-0.1-0.3-0.2s-0.1-0.1-0.2-0.2c0-0.1-0.1-0.2-0.1-0.3
		c0-0.1,0-0.3,0.1-0.4c0.1-0.1,0.1-0.2,0.2-0.3s0.2-0.1,0.3-0.2c0.1,0,0.3-0.1,0.4-0.1c0.1,0,0.3,0,0.4,0c0.1,0,0.3,0.1,0.4,0.2
		c0.1,0.1,0.2,0.2,0.3,0.3c0.1,0.1,0.1,0.3,0.1,0.4h-0.6c0-0.1,0-0.2-0.1-0.2c0-0.1-0.1-0.1-0.1-0.1c-0.1,0-0.1-0.1-0.2-0.1
		s-0.1,0-0.2,0c-0.1,0-0.1,0-0.2,0s-0.1,0-0.1,0.1c0,0-0.1,0.1-0.1,0.1s0,0.1,0,0.2c0,0.1,0,0.1,0,0.1c0,0,0.1,0.1,0.1,0.1
		s0.1,0.1,0.3,0.1c0.1,0,0.3,0.1,0.4,0.1c0.1,0,0.1,0,0.2,0.1s0.2,0.1,0.3,0.1c0.1,0.1,0.2,0.1,0.2,0.2c0.1,0.1,0.1,0.2,0.1,0.4
		c0,0.1,0,0.3-0.1,0.4c-0.1,0.1-0.1,0.2-0.2,0.3c-0.1,0.1-0.2,0.1-0.4,0.2c-0.1,0-0.3,0.1-0.5,0.1c-0.2,0-0.3,0-0.5-0.1
		c-0.1,0-0.3-0.1-0.4-0.2c-0.1-0.1-0.2-0.2-0.3-0.3c-0.1-0.1-0.1-0.3-0.1-0.5h0.6C90.2,54.7,90.2,54.8,90.3,54.9z"/>
	<path fill="#231F20" d="M93,52.7v2.9h-0.6v-2.9H93z"/>
	<path fill="#231F20" d="M95.3,55.6c-0.1,0.1-0.3,0.1-0.4,0.1c-0.2,0-0.4,0-0.6-0.1s-0.3-0.2-0.4-0.3c-0.1-0.1-0.2-0.3-0.3-0.5
		c-0.1-0.2-0.1-0.4-0.1-0.6c0-0.2,0-0.4,0.1-0.6c0.1-0.2,0.2-0.3,0.3-0.5c0.1-0.1,0.3-0.2,0.4-0.3c0.2-0.1,0.4-0.1,0.6-0.1
		c0.1,0,0.3,0,0.4,0.1c0.1,0,0.3,0.1,0.4,0.2c0.1,0.1,0.2,0.2,0.3,0.3c0.1,0.1,0.1,0.3,0.1,0.4h-0.6c0-0.2-0.1-0.3-0.2-0.4
		c-0.1-0.1-0.2-0.1-0.4-0.1c-0.1,0-0.3,0-0.4,0.1c-0.1,0.1-0.2,0.1-0.2,0.2s-0.1,0.2-0.1,0.3c0,0.1,0,0.2,0,0.4c0,0.1,0,0.2,0,0.3
		c0,0.1,0.1,0.2,0.1,0.3s0.1,0.2,0.2,0.2s0.2,0.1,0.4,0.1c0.2,0,0.4-0.1,0.5-0.2s0.2-0.3,0.2-0.5h-0.6V54h1.2v1.5h-0.4l-0.1-0.3
		C95.5,55.4,95.4,55.5,95.3,55.6z"/>
	<path fill="#231F20" d="M97.2,52.7l1.2,1.9h0v-1.9H99v2.9h-0.6l-1.2-1.9h0v1.9h-0.6v-2.9H97.2z"/>
	<path fill="#231F20" d="M101,52.7l1.1,2.9h-0.7l-0.2-0.6h-1.1l-0.2,0.6h-0.6l1.1-2.9H101z M101,54.5l-0.4-1h0l-0.4,1H101z"/>
	<path fill="#231F20" d="M102.9,52.7v2.3h1.4v0.5h-2v-2.9H102.9z"/>
</g>
<g>
	<path fill="#231F20" d="M91.5,61.9C91.4,62,91.2,62,91.1,62c-0.2,0-0.4,0-0.6-0.1s-0.3-0.2-0.4-0.3c-0.1-0.1-0.2-0.3-0.3-0.5
		c-0.1-0.2-0.1-0.4-0.1-0.6c0-0.2,0-0.4,0.1-0.6c0.1-0.2,0.2-0.3,0.3-0.5c0.1-0.1,0.3-0.2,0.4-0.3c0.2-0.1,0.4-0.1,0.6-0.1
		c0.1,0,0.3,0,0.4,0.1c0.1,0,0.3,0.1,0.4,0.2c0.1,0.1,0.2,0.2,0.3,0.3c0.1,0.1,0.1,0.3,0.1,0.4h-0.6c0-0.2-0.1-0.3-0.2-0.4
		c-0.1-0.1-0.2-0.1-0.4-0.1c-0.1,0-0.3,0-0.4,0.1c-0.1,0.1-0.2,0.1-0.2,0.2s-0.1,0.2-0.1,0.3c0,0.1,0,0.2,0,0.4c0,0.1,0,0.2,0,0.3
		c0,0.1,0.1,0.2,0.1,0.3s0.1,0.2,0.2,0.2s0.2,0.1,0.4,0.1c0.2,0,0.4-0.1,0.5-0.2s0.2-0.3,0.2-0.5h-0.6v-0.5h1.2V62h-0.4l-0.1-0.3
		C91.7,61.8,91.6,61.9,91.5,61.9z"/>
	<path fill="#231F20" d="M93.5,59.1l1.2,1.9h0v-1.9h0.6V62h-0.6l-1.2-1.9h0V62h-0.6v-2.9H93.5z"/>
	<path fill="#231F20" d="M97,59.1c0.2,0,0.4,0,0.5,0.1c0.2,0.1,0.3,0.1,0.4,0.3c0.1,0.1,0.2,0.3,0.3,0.4c0.1,0.2,0.1,0.4,0.1,0.6
		c0,0.2,0,0.4-0.1,0.6c-0.1,0.2-0.1,0.3-0.2,0.5c-0.1,0.1-0.2,0.2-0.4,0.3S97.2,62,97,62h-1.2v-2.9H97z M97,61.4c0.1,0,0.2,0,0.3,0
		c0.1,0,0.2-0.1,0.2-0.1c0.1-0.1,0.1-0.2,0.2-0.3s0.1-0.2,0.1-0.4c0-0.1,0-0.3,0-0.4c0-0.1-0.1-0.2-0.1-0.3
		c-0.1-0.1-0.1-0.1-0.3-0.2s-0.2-0.1-0.4-0.1h-0.4v1.8H97z"/>
</g>
<g>
	<path fill="#231F20" d="M91.7,48.3v0.4h-0.8v0.8h-0.4v-0.8h-0.8v-0.4h0.8v-0.8h0.4v0.8H91.7z"/>
	<path fill="#231F20" d="M92.8,49.5l-0.9-2.9h0.6l0.6,2h0l0.6-2h0.6l-0.9,2.9H92.8z"/>
</g>
</svg>
