<?xml version="1.0" encoding="utf-8"?>
<!-- Generator: Adobe Illustrator 17.0.2, SVG Export Plug-In . SVG Version: 6.00 Build 0)  -->
<!DOCTYPE svg PUBLIC "-//W3C//DTD SVG 1.0//EN" "http://www.w3.org/TR/2001/REC-SVG-20010904/DTD/svg10.dtd">
<svg version="1.0" id="Layer_1" xmlns="http://www.w3.org/2000/svg" xmlns:xlink="http://www.w3.org/1999/xlink" x="0px" y="0px"
	 width="42.6px" height="108.7px" viewBox="0 0 42.6 108.7" enable-background="new 0 0 42.6 108.7" xml:space="preserve">
<line fill="none" stroke="#08A650" stroke-width="0.826" stroke-linecap="round" stroke-linejoin="round" stroke-dasharray="3.304,3.304" x1="25.2" y1="73.5" x2="26.8" y2="101.8"/>
<line fill="none" stroke="#303030" stroke-width="0.826" stroke-linecap="round" stroke-linejoin="round" stroke-dasharray="3.304,3.304" x1="16.4" y1="77.9" x2="14.6" y2="99.5"/>
<line fill="none" stroke="#A21D21" stroke-width="0.826" stroke-linecap="round" stroke-linejoin="round" stroke-dasharray="3.304,3.304" x1="11.8" y1="63.1" x2="6.8" y2="93"/>
<line fill="none" stroke="#18479D" stroke-width="0.826" stroke-linecap="round" stroke-linejoin="round" stroke-dasharray="3.304,3.304" x1="29.5" y1="68" x2="32.2" y2="100.7"/>
<path fill="#A8AAAD" d="M12,61.7l0.7-0.7l5.2-33.4c0-0.4-0.3-0.7-0.7-0.7c-0.4,0-0.7,0.3-0.7,0.7l-5.2,33.4L12,61.7z"/>
<path fill="none" stroke="#231F20" stroke-width="0.207" stroke-linecap="round" stroke-linejoin="round" stroke-miterlimit="10" d="
	M12,61.7l0.7-0.7l5.2-33.4c0-0.4-0.3-0.7-0.7-0.7c-0.4,0-0.7,0.3-0.7,0.7l-5.2,33.4L12,61.7z"/>
<path fill="#A8AAAD" d="M15.8,32.4L15.7,33c-0.1,0.4,0.2,0.7,0.6,0.7c0.4,0,0.7-0.2,0.7-0.6l0.1-0.5c0.2,0.2,0.3,0.5,0.3,0.8
	l-0.4,2.8c-0.1,0.6-0.6,1-1.2,0.9c-0.6-0.1-1-0.6-0.9-1.2l0.4-2.8C15.3,32.8,15.5,32.6,15.8,32.4"/>
<path fill="none" stroke="#231F20" stroke-width="0.207" stroke-linecap="round" stroke-linejoin="round" stroke-miterlimit="10" d="
	M15.8,32.4L15.7,33c-0.1,0.4,0.2,0.7,0.6,0.7c0.4,0,0.7-0.2,0.7-0.6l0.1-0.5c0.2,0.2,0.3,0.5,0.3,0.8l-0.4,2.8
	c-0.1,0.6-0.6,1-1.2,0.9c-0.6-0.1-1-0.6-0.9-1.2l0.4-2.8C15.3,32.8,15.5,32.6,15.8,32.4z"/>
<path fill="#A8AAAD" d="M16.7,76.7l0.7-0.7l3.9-49.3c0-0.4-0.3-0.7-0.7-0.7c-0.4,0-0.7,0.3-0.7,0.7L16,76L16.7,76.7z"/>
<path fill="none" stroke="#231F20" stroke-width="0.207" stroke-linecap="round" stroke-linejoin="round" stroke-miterlimit="10" d="
	M16.7,76.7l0.7-0.7l3.9-49.3c0-0.4-0.3-0.7-0.7-0.7c-0.4,0-0.7,0.3-0.7,0.7L16,76L16.7,76.7z"/>
<path fill="#A8AAAD" d="M19.4,33.3l0,0.5c0,0.4,0.2,0.7,0.6,0.7c0.4,0,0.7-0.2,0.7-0.6l0-0.5c0.2,0.2,0.3,0.5,0.3,0.8l-0.2,2.8
	c0,0.6-0.5,1-1.1,0.9c-0.6,0-1-0.5-0.9-1.1l0.2-2.8C18.9,33.8,19.1,33.5,19.4,33.3"/>
<path fill="none" stroke="#231F20" stroke-width="0.207" stroke-linecap="round" stroke-linejoin="round" stroke-miterlimit="10" d="
	M19.4,33.3l0,0.5c0,0.4,0.2,0.7,0.6,0.7c0.4,0,0.7-0.2,0.7-0.6l0-0.5c0.2,0.2,0.3,0.5,0.3,0.8l-0.2,2.8c0,0.6-0.5,1-1.1,0.9
	c-0.6,0-1-0.5-0.9-1.1l0.2-2.8C18.9,33.8,19.1,33.5,19.4,33.3z"/>
<path fill="#A8AAAD" d="M25.2,72.1l-0.7-0.7L23,25.9c0-0.4,0.3-0.7,0.7-0.7c0.4,0,0.7,0.3,0.7,0.3l1.5,45.9L25.2,72.1z"/>
<path fill="none" stroke="#231F20" stroke-width="0.207" stroke-linecap="round" stroke-linejoin="round" stroke-miterlimit="10" d="
	M25.2,72.1l-0.7-0.7L23,25.9c0-0.4,0.3-0.7,0.7-0.7c0.4,0,0.7,0.3,0.7,0.3l1.5,45.9L25.2,72.1z"/>
<path fill="#A8AAAD" d="M23.3,34.4l0,0.5c0,0.4,0.3,0.7,0.7,0.7c0.4,0,0.7-0.3,0.7-0.7v-0.5c0.2,0.2,0.4,0.5,0.4,0.8l0,2.9
	c0,0.6-0.5,1-1,1c-0.6,0-1-0.5-1-1l0-2.9C22.9,34.9,23,34.6,23.3,34.4"/>
<path fill="none" stroke="#231F20" stroke-width="0.207" stroke-linecap="round" stroke-linejoin="round" stroke-miterlimit="10" d="
	M23.3,34.4l0,0.5c0,0.4,0.3,0.7,0.7,0.7c0.4,0,0.7-0.3,0.7-0.7v-0.5c0.2,0.2,0.4,0.5,0.4,0.8l0,2.9c0,0.6-0.5,1-1,1
	c-0.6,0-1-0.5-1-1l0-2.9C22.9,34.9,23,34.6,23.3,34.4z"/>
<path fill="#A8AAAD" d="M29.3,66.8l0.7-0.7l-2.7-41.4c0-0.4-0.3-0.7-0.7-0.7c-0.4,0-0.7,0.3-0.7,0.7l2.7,41.4L29.3,66.8z"/>
<path fill="none" stroke="#231F20" stroke-width="0.207" stroke-linecap="round" stroke-linejoin="round" stroke-miterlimit="10" d="
	M29.3,66.8l0.7-0.7l-2.7-41.4c0-0.4-0.3-0.7-0.7-0.7c-0.4,0-0.7,0.3-0.7,0.7l2.7,41.4L29.3,66.8z"/>
<path fill="#A8AAAD" d="M26.7,35.7l0,0.5c0,0.4,0.3,0.6,0.7,0.6c0.4,0,0.6-0.3,0.6-0.7l0-0.5c0.2,0.2,0.4,0.4,0.4,0.8l0.2,2.8
	c0,0.6-0.4,1.1-1,1.1c-0.6,0-1.1-0.4-1.1-1l-0.2-2.8C26.4,36.2,26.5,35.9,26.7,35.7"/>
<path fill="none" stroke="#231F20" stroke-width="0.207" stroke-linecap="round" stroke-linejoin="round" stroke-miterlimit="10" d="
	M26.7,35.7l0,0.5c0,0.4,0.3,0.6,0.7,0.6c0.4,0,0.6-0.3,0.6-0.7l0-0.5c0.2,0.2,0.4,0.4,0.4,0.8l0.2,2.8c0,0.6-0.4,1.1-1,1.1
	c-0.6,0-1.1-0.4-1.1-1l-0.2-2.8C26.4,36.2,26.5,35.9,26.7,35.7z"/>
<path fill="#F2F2F2" d="M13.5,20.9l0,5.2c3.5,2.9,10.5,2,10.5,2l6-3.8l0-4.1c0.9,0.6,1.4,1.5,1.6,2.7l0,2.9L24,30.7
	c0,0-11.1,1.4-12.4-5.1C11.6,25.6,10.9,22.4,13.5,20.9"/>
<path fill="none" stroke="#231F20" stroke-width="0.207" stroke-linecap="round" stroke-linejoin="round" stroke-miterlimit="10" d="
	M13.5,20.9l0,5.2c3.5,2.9,10.5,2,10.5,2l6-3.8l0-4.1c0.9,0.6,1.4,1.5,1.6,2.7l0,2.9L24,30.7c0,0-11.1,1.4-12.4-5.1
	C11.6,25.6,10.9,22.4,13.5,20.9z"/>
<path fill="#FFFFFF" d="M22.6,28.2c0,0,0.1,0,0.1,0C22.7,28.2,22.7,28.2,22.6,28.2"/>
<path fill="none" stroke="#231F20" stroke-width="0.207" stroke-linecap="round" stroke-linejoin="round" stroke-miterlimit="10" d="
	M22.6,28.2c0,0,0.1,0,0.1,0C22.7,28.2,22.7,28.2,22.6,28.2z"/>
<path fill="#FFFFFF" d="M22.9,28.2c0,0,0.1,0,0.1,0C23,28.2,23,28.2,22.9,28.2"/>
<path fill="none" stroke="#231F20" stroke-width="0.207" stroke-linecap="round" stroke-linejoin="round" stroke-miterlimit="10" d="
	M22.9,28.2c0,0,0.1,0,0.1,0C23,28.2,23,28.2,22.9,28.2z"/>
<path fill="#FFFFFF" d="M22.3,28.2c0,0,0.1,0,0.1,0C22.3,28.2,22.3,28.2,22.3,28.2"/>
<path fill="none" stroke="#231F20" stroke-width="0.207" stroke-linecap="round" stroke-linejoin="round" stroke-miterlimit="10" d="
	M22.3,28.2c0,0,0.1,0,0.1,0C22.3,28.2,22.3,28.2,22.3,28.2z"/>
<path fill="#FFFFFF" d="M21.5,28.2c-0.1,0-0.1,0-0.2,0C21.4,28.2,21.5,28.2,21.5,28.2"/>
<path fill="none" stroke="#231F20" stroke-width="0.207" stroke-linecap="round" stroke-linejoin="round" stroke-miterlimit="10" d="
	M21.5,28.2c-0.1,0-0.1,0-0.2,0C21.4,28.2,21.5,28.2,21.5,28.2z"/>
<path fill="#FFFFFF" d="M23.2,28.2C23.2,28.2,23.3,28.2,23.2,28.2C23.3,28.2,23.2,28.2,23.2,28.2"/>
<path fill="none" stroke="#231F20" stroke-width="0.207" stroke-linecap="round" stroke-linejoin="round" stroke-miterlimit="10" d="
	M23.2,28.2C23.2,28.2,23.3,28.2,23.2,28.2C23.3,28.2,23.2,28.2,23.2,28.2z"/>
<path fill="#FFFFFF" d="M21.8,28.2h0.1H21.8z"/>
<path fill="none" stroke="#231F20" stroke-width="0.207" stroke-linecap="round" stroke-linejoin="round" stroke-miterlimit="10" d="
	M21.8,28.2h0.1H21.8z"/>
<path fill="#FFFFFF" d="M23.9,28.1C23.9,28.1,23.9,28.1,23.9,28.1L23.9,28.1z"/>
<path fill="none" stroke="#231F20" stroke-width="0.207" stroke-linecap="round" stroke-linejoin="round" stroke-miterlimit="10" d="
	M23.9,28.1C23.9,28.1,23.9,28.1,23.9,28.1L23.9,28.1z"/>
<path fill="#F2F2F2" d="M29.9,20.3c0.9,0.6,1.4,1.5,1.6,2.7v0.3l-1.6,1L29.9,20.3z"/>
<path fill="none" stroke="#231F20" stroke-width="0.207" stroke-linecap="round" stroke-linejoin="round" stroke-miterlimit="10" d="
	M29.9,20.3c0.9,0.6,1.4,1.5,1.6,2.7v0.3l-1.6,1L29.9,20.3z"/>
<path fill="#FFFFFF" d="M14.4,26.8c-0.1,0-0.1-0.1-0.2-0.1C14.3,26.7,14.4,26.7,14.4,26.8"/>
<path fill="none" stroke="#231F20" stroke-width="0.207" stroke-linecap="round" stroke-linejoin="round" stroke-miterlimit="10" d="
	M14.4,26.8c-0.1,0-0.1-0.1-0.2-0.1C14.3,26.7,14.4,26.7,14.4,26.8z"/>
<path fill="#FFFFFF" d="M14.9,27c-0.1,0-0.1-0.1-0.2-0.1C14.8,26.9,14.8,27,14.9,27"/>
<path fill="none" stroke="#231F20" stroke-width="0.207" stroke-linecap="round" stroke-linejoin="round" stroke-miterlimit="10" d="
	M14.9,27c-0.1,0-0.1-0.1-0.2-0.1C14.8,26.9,14.8,27,14.9,27z"/>
<path fill="#FFFFFF" d="M23.8,28.1C23.8,28.1,23.9,28.1,23.8,28.1C23.9,28.1,23.8,28.1,23.8,28.1"/>
<path fill="none" stroke="#231F20" stroke-width="0.207" stroke-linecap="round" stroke-linejoin="round" stroke-miterlimit="10" d="
	M23.8,28.1C23.8,28.1,23.9,28.1,23.8,28.1C23.9,28.1,23.8,28.1,23.8,28.1z"/>
<path fill="#FFFFFF" d="M23.7,28.1C23.7,28.1,23.7,28.1,23.7,28.1C23.7,28.1,23.7,28.1,23.7,28.1"/>
<path fill="none" stroke="#231F20" stroke-width="0.207" stroke-linecap="round" stroke-linejoin="round" stroke-miterlimit="10" d="
	M23.7,28.1C23.7,28.1,23.7,28.1,23.7,28.1C23.7,28.1,23.7,28.1,23.7,28.1z"/>
<path fill="#FFFFFF" d="M23.5,28.1C23.5,28.1,23.5,28.1,23.5,28.1C23.5,28.1,23.5,28.1,23.5,28.1"/>
<path fill="none" stroke="#231F20" stroke-width="0.207" stroke-linecap="round" stroke-linejoin="round" stroke-miterlimit="10" d="
	M23.5,28.1C23.5,28.1,23.5,28.1,23.5,28.1C23.5,28.1,23.5,28.1,23.5,28.1z"/>
<path fill="#FFFFFF" d="M19.6,28.1c-0.1,0-0.1,0-0.2,0C19.5,28.1,19.5,28.1,19.6,28.1"/>
<path fill="none" stroke="#231F20" stroke-width="0.207" stroke-linecap="round" stroke-linejoin="round" stroke-miterlimit="10" d="
	M19.6,28.1c-0.1,0-0.1,0-0.2,0C19.5,28.1,19.5,28.1,19.6,28.1z"/>
<path fill="#FFFFFF" d="M20.7,28.2c-0.1,0-0.1,0-0.2,0C20.5,28.2,20.6,28.2,20.7,28.2"/>
<path fill="none" stroke="#231F20" stroke-width="0.207" stroke-linecap="round" stroke-linejoin="round" stroke-miterlimit="10" d="
	M20.7,28.2c-0.1,0-0.1,0-0.2,0C20.5,28.2,20.6,28.2,20.7,28.2z"/>
<path fill="#FFFFFF" d="M20.1,28.2c0,0-0.1,0-0.1,0C20,28.2,20,28.2,20.1,28.2"/>
<path fill="none" stroke="#231F20" stroke-width="0.207" stroke-linecap="round" stroke-linejoin="round" stroke-miterlimit="10" d="
	M20.1,28.2c0,0-0.1,0-0.1,0C20,28.2,20,28.2,20.1,28.2z"/>
<path fill="#FFFFFF" d="M15.3,27.2c-0.1,0-0.1,0-0.1-0.1C15.2,27.2,15.3,27.2,15.3,27.2"/>
<path fill="none" stroke="#231F20" stroke-width="0.207" stroke-linecap="round" stroke-linejoin="round" stroke-miterlimit="10" d="
	M15.3,27.2c0,0-0.1,0-0.1-0.1C15.2,27.2,15.3,27.2,15.3,27.2z"/>
<path fill="#FFFFFF" d="M13.8,26.4c0.1,0,0.1,0.1,0.1,0.1C13.9,26.5,13.9,26.4,13.8,26.4"/>
<path fill="none" stroke="#231F20" stroke-width="0.207" stroke-linecap="round" stroke-linejoin="round" stroke-miterlimit="10" d="
	M13.8,26.4c0.1,0,0.1,0.1,0.1,0.1C13.9,26.5,13.9,26.4,13.8,26.4z"/>
<path fill="#FFFFFF" d="M19.1,28.1c-0.1,0-0.1,0-0.2,0C19,28.1,19,28.1,19.1,28.1"/>
<path fill="none" stroke="#231F20" stroke-width="0.207" stroke-linecap="round" stroke-linejoin="round" stroke-miterlimit="10" d="
	M19.1,28.1c-0.1,0-0.1,0-0.2,0C19,28.1,19,28.1,19.1,28.1z"/>
<path fill="#F2F2F2" d="M13.5,21l0,5.2c-0.8-0.7-1.4-1.5-1.8-2.7C11.9,22.7,12.4,21.5,13.5,21"/>
<path fill="none" stroke="#231F20" stroke-width="0.207" stroke-linecap="round" stroke-linejoin="round" stroke-miterlimit="10" d="
	M13.5,21l0,5.2c-0.8-0.7-1.5-1.5-1.8-2.7C11.9,22.7,12.4,21.5,13.5,21z"/>
<path fill="#FFFFFF" d="M21.1,28.2c-0.1,0-0.1,0-0.2,0C21,28.2,21,28.2,21.1,28.2"/>
<path fill="none" stroke="#231F20" stroke-width="0.207" stroke-linecap="round" stroke-linejoin="round" stroke-miterlimit="10" d="
	M21.1,28.2c-0.1,0-0.1,0-0.2,0C21,28.2,21,28.2,21.1,28.2z"/>
<path fill="#FFFFFF" d="M16.9,27.7c-0.1,0-0.1,0-0.2-0.1C16.8,27.7,16.9,27.7,16.9,27.7"/>
<path fill="none" stroke="#231F20" stroke-width="0.207" stroke-linecap="round" stroke-linejoin="round" stroke-miterlimit="10" d="
	M16.9,27.7c-0.1,0-0.1,0-0.2-0.1C16.8,27.7,16.9,27.7,16.9,27.7z"/>
<path fill="#FFFFFF" d="M16.4,27.6c-0.1,0-0.1,0-0.2-0.1C16.3,27.6,16.4,27.6,16.4,27.6"/>
<path fill="none" stroke="#231F20" stroke-width="0.207" stroke-linecap="round" stroke-linejoin="round" stroke-miterlimit="10" d="
	M16.4,27.6c-0.1,0-0.1,0-0.2-0.1C16.3,27.6,16.4,27.6,16.4,27.6z"/>
<path fill="#FFFFFF" d="M18.6,28c-0.1,0-0.1,0-0.2,0C18.5,28,18.5,28,18.6,28"/>
<path fill="none" stroke="#231F20" stroke-width="0.207" stroke-linecap="round" stroke-linejoin="round" stroke-miterlimit="10" d="
	M18.6,28c-0.1,0-0.1,0-0.2,0C18.5,28,18.5,28,18.6,28z"/>
<path fill="#FFFFFF" d="M15.9,27.4c-0.1,0-0.1,0-0.2-0.1C15.8,27.4,15.9,27.4,15.9,27.4"/>
<path fill="none" stroke="#231F20" stroke-width="0.207" stroke-linecap="round" stroke-linejoin="round" stroke-miterlimit="10" d="
	M15.9,27.4c-0.1,0-0.1,0-0.2-0.1C15.8,27.4,15.9,27.4,15.9,27.4z"/>
<path fill="#FFFFFF" d="M18.1,28c0,0-0.1,0-0.1,0C18,27.9,18,27.9,18.1,28"/>
<path fill="none" stroke="#231F20" stroke-width="0.207" stroke-linecap="round" stroke-linejoin="round" stroke-miterlimit="10" d="
	M18.1,28c0,0-0.1,0-0.1,0C18,27.9,18,27.9,18.1,28z"/>
<path fill="#FFFFFF" d="M17.4,27.8c-0.1,0-0.1,0-0.2,0C17.3,27.8,17.4,27.8,17.4,27.8"/>
<path fill="none" stroke="#231F20" stroke-width="0.207" stroke-linecap="round" stroke-linejoin="round" stroke-miterlimit="10" d="
	M17.4,27.8c-0.1,0-0.1,0-0.2,0C17.3,27.8,17.4,27.8,17.4,27.8z"/>
<path fill="#F2F2F2" d="M13.5,8.5c0-4.7,3.7-8.4,8.2-8.4c4.6,0,8.2,3.8,8.2,8.4c0,0.1,0,1.3,0,1.3l0,14.5l-6,3.8c0,0-7,0.9-10.5-2
	l0-15C13.5,10.5,13.5,8.9,13.5,8.5"/>
<path fill="none" stroke="#231F20" stroke-width="0.207" stroke-linecap="round" stroke-linejoin="round" stroke-miterlimit="10" d="
	M13.5,8.5c0-4.7,3.7-8.4,8.2-8.4c4.6,0,8.2,3.8,8.2,8.4c0,0.1,0,1.3,0,1.3l0,14.5l-6,3.8c0,0-7,0.9-10.5-2l0-15
	C13.5,10.5,13.5,8.9,13.5,8.5z"/>
<g>
	<path fill="#231F20" d="M0.8,82.3v0.4h0c0-0.1,0.1-0.1,0.1-0.2c0-0.1,0.1-0.1,0.2-0.1s0.1-0.1,0.2-0.1s0.1,0,0.2,0c0,0,0.1,0,0.1,0
		v0.5c0,0-0.1,0-0.1,0s-0.1,0-0.1,0c-0.1,0-0.2,0-0.3,0.1C1,82.9,1,82.9,0.9,83c0,0.1-0.1,0.1-0.1,0.2c0,0.1,0,0.2,0,0.3v0.9H0.2
		v-2.1H0.8z"/>
	<path fill="#231F20" d="M2.3,83.9C2.4,83.9,2.5,84,2.7,84c0.1,0,0.2,0,0.3-0.1c0.1-0.1,0.1-0.1,0.2-0.2h0.5
		c-0.1,0.2-0.2,0.4-0.4,0.5c-0.2,0.1-0.4,0.2-0.6,0.2c-0.2,0-0.3,0-0.4-0.1c-0.1-0.1-0.2-0.1-0.3-0.2c-0.1-0.1-0.2-0.2-0.2-0.3
		c0-0.1-0.1-0.3-0.1-0.4c0-0.2,0-0.3,0.1-0.4c0-0.1,0.1-0.2,0.2-0.3c0.1-0.1,0.2-0.2,0.3-0.2c0.1-0.1,0.3-0.1,0.4-0.1
		c0.2,0,0.3,0,0.5,0.1c0.1,0.1,0.2,0.2,0.3,0.3s0.1,0.2,0.2,0.4c0,0.1,0.1,0.3,0,0.5H2.2C2.2,83.6,2.2,83.8,2.3,83.9z M3,82.8
		c-0.1-0.1-0.2-0.1-0.3-0.1c-0.1,0-0.2,0-0.2,0c-0.1,0-0.1,0.1-0.1,0.1c0,0-0.1,0.1-0.1,0.1c0,0,0,0.1,0,0.1h0.9
		C3.1,83,3,82.9,3,82.8z"/>
	<path fill="#231F20" d="M5.5,84.1c-0.1,0.1-0.2,0.2-0.3,0.2c-0.1,0-0.2,0.1-0.4,0.1c-0.2,0-0.3,0-0.4-0.1c-0.1-0.1-0.2-0.1-0.3-0.2
		C4.1,84,4,83.9,4,83.7c0-0.1-0.1-0.3-0.1-0.4c0-0.1,0-0.3,0.1-0.4c0-0.1,0.1-0.2,0.2-0.3c0.1-0.1,0.2-0.2,0.3-0.2
		c0.1-0.1,0.2-0.1,0.4-0.1c0.1,0,0.2,0,0.3,0.1c0.1,0.1,0.2,0.1,0.3,0.2h0v-1H6v2.9H5.5L5.5,84.1L5.5,84.1z M5.4,83.1
		c0-0.1,0-0.1-0.1-0.2c0-0.1-0.1-0.1-0.2-0.1c-0.1,0-0.1-0.1-0.2-0.1c-0.1,0-0.2,0-0.2,0.1c-0.1,0-0.1,0.1-0.2,0.1
		c0,0.1-0.1,0.1-0.1,0.2c0,0.1,0,0.2,0,0.2c0,0.1,0,0.2,0,0.2s0,0.2,0.1,0.2c0,0.1,0.1,0.1,0.2,0.2C4.8,84,4.9,84,5,84
		c0.1,0,0.2,0,0.2-0.1s0.1-0.1,0.2-0.2s0.1-0.1,0.1-0.2c0-0.1,0-0.2,0-0.2S5.5,83.2,5.4,83.1z"/>
</g>
<g>
	<path fill="#231F20" d="M5.6,102.1c-0.1,0-0.2,0-0.2,0.1c-0.1,0-0.1,0.1-0.1,0.2c0,0.1-0.1,0.1-0.1,0.2c0,0.1,0,0.2,0,0.2
		c0,0.1,0,0.2,0,0.2c0,0.1,0,0.1,0.1,0.2s0.1,0.1,0.1,0.2s0.1,0.1,0.2,0.1c0.1,0,0.2,0,0.3-0.1C6,103.2,6,103.1,6,103h0.5
		c0,0.3-0.1,0.5-0.3,0.6c-0.2,0.1-0.4,0.2-0.7,0.2c-0.2,0-0.3,0-0.4-0.1c-0.1-0.1-0.2-0.1-0.3-0.2c-0.1-0.1-0.2-0.2-0.2-0.3
		c0-0.1-0.1-0.3-0.1-0.4c0-0.2,0-0.3,0.1-0.4c0-0.1,0.1-0.3,0.2-0.4c0.1-0.1,0.2-0.2,0.3-0.2s0.3-0.1,0.4-0.1c0.1,0,0.2,0,0.4,0
		c0.1,0,0.2,0.1,0.3,0.1c0.1,0.1,0.2,0.1,0.2,0.2c0.1,0.1,0.1,0.2,0.1,0.3H6C6,102.2,5.8,102.1,5.6,102.1z"/>
	<path fill="#231F20" d="M6.9,102.3c0.1-0.1,0.1-0.2,0.2-0.3c0.1-0.1,0.2-0.2,0.3-0.2c0.1-0.1,0.3-0.1,0.4-0.1c0.2,0,0.3,0,0.4,0.1
		s0.2,0.1,0.3,0.2s0.2,0.2,0.2,0.3c0.1,0.1,0.1,0.3,0.1,0.5c0,0.2,0,0.3-0.1,0.4s-0.1,0.2-0.2,0.3s-0.2,0.2-0.3,0.2
		c-0.1,0.1-0.3,0.1-0.4,0.1c-0.2,0-0.3,0-0.4-0.1c-0.1,0-0.2-0.1-0.3-0.2c-0.1-0.1-0.2-0.2-0.2-0.3c0-0.1-0.1-0.3-0.1-0.4
		C6.8,102.6,6.9,102.5,6.9,102.3z M7.4,103c0,0.1,0,0.1,0.1,0.2c0,0.1,0.1,0.1,0.2,0.2c0.1,0,0.1,0.1,0.2,0.1c0.1,0,0.2,0,0.2-0.1
		s0.1-0.1,0.2-0.2c0-0.1,0.1-0.1,0.1-0.2c0-0.1,0-0.2,0-0.2c0-0.1,0-0.2,0-0.2c0-0.1,0-0.2-0.1-0.2c0-0.1-0.1-0.1-0.2-0.1
		c-0.1,0-0.1-0.1-0.2-0.1c-0.1,0-0.2,0-0.2,0.1c-0.1,0-0.1,0.1-0.2,0.1c0,0.1-0.1,0.1-0.1,0.2c0,0.1,0,0.2,0,0.2
		C7.4,102.9,7.4,102.9,7.4,103z"/>
	<path fill="#231F20" d="M9.9,101.7v0.3h0c0.1-0.1,0.2-0.2,0.3-0.2s0.2-0.1,0.4-0.1c0.1,0,0.2,0,0.4,0.1c0.1,0.1,0.2,0.1,0.2,0.3
		c0.1-0.1,0.1-0.2,0.2-0.2s0.2-0.1,0.4-0.1c0.1,0,0.2,0,0.3,0c0.1,0,0.2,0.1,0.2,0.1c0.1,0.1,0.1,0.1,0.2,0.2s0.1,0.2,0.1,0.3v1.4
		h-0.6v-1.2c0-0.1,0-0.1,0-0.2c0-0.1,0-0.1,0-0.2c0,0-0.1-0.1-0.1-0.1c0,0-0.1,0-0.2,0c-0.1,0-0.1,0-0.2,0c0,0-0.1,0.1-0.1,0.1
		c0,0,0,0.1-0.1,0.2c0,0.1,0,0.1,0,0.2v1.2h-0.6v-1.2c0-0.1,0-0.1,0-0.2c0-0.1,0-0.1,0-0.2c0-0.1-0.1-0.1-0.1-0.1c0,0-0.1,0-0.2,0
		c0,0-0.1,0-0.1,0s-0.1,0-0.1,0.1c0,0-0.1,0.1-0.1,0.1s0,0.1,0,0.2v1.2H9.4v-2.1H9.9z"/>
	<path fill="#231F20" d="M13.5,101.7v0.3h0c0.1-0.1,0.2-0.2,0.3-0.2s0.2-0.1,0.4-0.1c0.1,0,0.2,0,0.4,0.1c0.1,0.1,0.2,0.1,0.2,0.3
		c0.1-0.1,0.1-0.2,0.2-0.2s0.2-0.1,0.4-0.1c0.1,0,0.2,0,0.3,0c0.1,0,0.2,0.1,0.2,0.1c0.1,0.1,0.1,0.1,0.2,0.2s0.1,0.2,0.1,0.3v1.4
		h-0.6v-1.2c0-0.1,0-0.1,0-0.2c0-0.1,0-0.1,0-0.2c0,0-0.1-0.1-0.1-0.1c0,0-0.1,0-0.2,0c-0.1,0-0.1,0-0.2,0c0,0-0.1,0.1-0.1,0.1
		c0,0,0,0.1-0.1,0.2c0,0.1,0,0.1,0,0.2v1.2h-0.6v-1.2c0-0.1,0-0.1,0-0.2c0-0.1,0-0.1,0-0.2c0-0.1-0.1-0.1-0.1-0.1c0,0-0.1,0-0.2,0
		c0,0-0.1,0-0.1,0s-0.1,0-0.1,0.1c0,0-0.1,0.1-0.1,0.1s0,0.1,0,0.2v1.2H13v-2.1H13.5z"/>
	<path fill="#231F20" d="M16.6,102.3c0.1-0.1,0.1-0.2,0.2-0.3c0.1-0.1,0.2-0.2,0.3-0.2c0.1-0.1,0.3-0.1,0.4-0.1c0.2,0,0.3,0,0.4,0.1
		s0.2,0.1,0.3,0.2s0.2,0.2,0.2,0.3c0.1,0.1,0.1,0.3,0.1,0.5c0,0.2,0,0.3-0.1,0.4s-0.1,0.2-0.2,0.3s-0.2,0.2-0.3,0.2
		c-0.1,0.1-0.3,0.1-0.4,0.1c-0.2,0-0.3,0-0.4-0.1c-0.1,0-0.2-0.1-0.3-0.2c-0.1-0.1-0.2-0.2-0.2-0.3c0-0.1-0.1-0.3-0.1-0.4
		C16.5,102.6,16.5,102.5,16.6,102.3z M17.1,103c0,0.1,0,0.1,0.1,0.2c0,0.1,0.1,0.1,0.2,0.2c0.1,0,0.1,0.1,0.2,0.1
		c0.1,0,0.2,0,0.2-0.1s0.1-0.1,0.2-0.2c0-0.1,0.1-0.1,0.1-0.2c0-0.1,0-0.2,0-0.2c0-0.1,0-0.2,0-0.2c0-0.1,0-0.2-0.1-0.2
		c0-0.1-0.1-0.1-0.2-0.1c-0.1,0-0.1-0.1-0.2-0.1c-0.1,0-0.2,0-0.2,0.1c-0.1,0-0.1,0.1-0.2,0.1c0,0.1-0.1,0.1-0.1,0.2
		c0,0.1,0,0.2,0,0.2C17.1,102.9,17.1,102.9,17.1,103z"/>
	<path fill="#231F20" d="M19.6,101.7v0.3h0c0.1-0.1,0.2-0.2,0.3-0.3c0.1-0.1,0.2-0.1,0.4-0.1c0.2,0,0.3,0,0.4,0.1
		c0.1,0,0.2,0.1,0.2,0.2s0.1,0.2,0.1,0.3s0,0.2,0,0.3v1.3h-0.6v-1.2c0-0.2,0-0.3-0.1-0.4c-0.1-0.1-0.1-0.1-0.3-0.1
		c-0.2,0-0.3,0-0.3,0.1s-0.1,0.2-0.1,0.5v1.1H19v-2.1H19.6z"/>
</g>
<g>
	<path fill="#231F20" d="M26.1,106.9c0,0.1-0.1,0.2-0.1,0.3c-0.1,0.1-0.2,0.2-0.3,0.2c-0.1,0.1-0.3,0.1-0.6,0.1c-0.1,0-0.2,0-0.3,0
		s-0.2-0.1-0.3-0.1s-0.2-0.1-0.2-0.2c-0.1-0.1-0.1-0.2-0.1-0.3h0.6c0,0.1,0.1,0.2,0.2,0.2c0.1,0,0.2,0.1,0.3,0.1
		c0.2,0,0.3,0,0.3-0.1s0.1-0.2,0.1-0.4v-0.3h0c-0.1,0.1-0.1,0.2-0.3,0.2c-0.1,0.1-0.2,0.1-0.4,0.1c-0.2,0-0.3,0-0.4-0.1
		c-0.1-0.1-0.2-0.1-0.3-0.2c-0.1-0.1-0.1-0.2-0.2-0.3c0-0.1,0-0.3,0-0.4c0-0.1,0-0.3,0.1-0.4s0.1-0.2,0.2-0.3
		c0.1-0.1,0.2-0.2,0.3-0.2c0.1-0.1,0.2-0.1,0.4-0.1c0.1,0,0.3,0,0.4,0.1c0.1,0.1,0.2,0.1,0.3,0.3h0v-0.3h0.5v1.9
		C26.1,106.7,26.1,106.8,26.1,106.9z M25.3,106.2c0.1,0,0.1-0.1,0.2-0.1s0.1-0.1,0.1-0.2c0-0.1,0-0.1,0-0.2c0-0.1,0-0.2,0-0.2
		c0-0.1,0-0.1-0.1-0.2c0-0.1-0.1-0.1-0.1-0.1c-0.1,0-0.1-0.1-0.2-0.1c-0.1,0-0.1,0-0.2,0c-0.1,0-0.1,0.1-0.1,0.1
		c0,0.1-0.1,0.1-0.1,0.2s0,0.1,0,0.2c0,0.1,0,0.1,0,0.2s0,0.1,0.1,0.2c0,0.1,0.1,0.1,0.1,0.1s0.1,0.1,0.2,0.1
		C25.2,106.3,25.3,106.3,25.3,106.2z"/>
	<path fill="#231F20" d="M27.1,104.7v0.4h0c0-0.1,0.1-0.1,0.1-0.2c0-0.1,0.1-0.1,0.2-0.1s0.1-0.1,0.2-0.1s0.1,0,0.2,0
		c0,0,0.1,0,0.1,0v0.5c0,0-0.1,0-0.1,0s-0.1,0-0.1,0c-0.1,0-0.2,0-0.3,0.1c-0.1,0-0.1,0.1-0.2,0.1c0,0.1-0.1,0.1-0.1,0.2
		c0,0.1,0,0.2,0,0.3v0.9h-0.6v-2.1H27.1z"/>
	<path fill="#231F20" d="M28.7,106.3c0.1,0.1,0.2,0.1,0.4,0.1c0.1,0,0.2,0,0.3-0.1c0.1-0.1,0.1-0.1,0.2-0.2H30
		c-0.1,0.2-0.2,0.4-0.4,0.5c-0.2,0.1-0.4,0.2-0.6,0.2c-0.2,0-0.3,0-0.4-0.1c-0.1-0.1-0.2-0.1-0.3-0.2c-0.1-0.1-0.2-0.2-0.2-0.3
		c0-0.1-0.1-0.3-0.1-0.4c0-0.2,0-0.3,0.1-0.4c0-0.1,0.1-0.2,0.2-0.3c0.1-0.1,0.2-0.2,0.3-0.2c0.1-0.1,0.3-0.1,0.4-0.1
		c0.2,0,0.3,0,0.5,0.1c0.1,0.1,0.2,0.2,0.3,0.3s0.1,0.2,0.2,0.4c0,0.1,0.1,0.3,0,0.5h-1.5C28.5,106.1,28.6,106.2,28.7,106.3z
		 M29.3,105.2c-0.1-0.1-0.2-0.1-0.3-0.1c-0.1,0-0.2,0-0.2,0c-0.1,0-0.1,0.1-0.1,0.1c0,0-0.1,0.1-0.1,0.1c0,0,0,0.1,0,0.1h0.9
		C29.4,105.4,29.4,105.3,29.3,105.2z"/>
	<path fill="#231F20" d="M31,106.3c0.1,0.1,0.2,0.1,0.4,0.1c0.1,0,0.2,0,0.3-0.1c0.1-0.1,0.1-0.1,0.2-0.2h0.5
		c-0.1,0.2-0.2,0.4-0.4,0.5c-0.2,0.1-0.4,0.2-0.6,0.2c-0.2,0-0.3,0-0.4-0.1c-0.1-0.1-0.2-0.1-0.3-0.2c-0.1-0.1-0.2-0.2-0.2-0.3
		c0-0.1-0.1-0.3-0.1-0.4c0-0.2,0-0.3,0.1-0.4c0-0.1,0.1-0.2,0.2-0.3c0.1-0.1,0.2-0.2,0.3-0.2c0.1-0.1,0.3-0.1,0.4-0.1
		c0.2,0,0.3,0,0.5,0.1c0.1,0.1,0.2,0.2,0.3,0.3s0.1,0.2,0.2,0.4c0,0.1,0.1,0.3,0,0.5h-1.5C30.8,106.1,30.9,106.2,31,106.3z
		 M31.6,105.2c-0.1-0.1-0.2-0.1-0.3-0.1c-0.1,0-0.2,0-0.2,0c-0.1,0-0.1,0.1-0.1,0.1c0,0-0.1,0.1-0.1,0.1c0,0,0,0.1,0,0.1h0.9
		C31.7,105.4,31.7,105.3,31.6,105.2z"/>
	<path fill="#231F20" d="M33.2,104.7v0.3h0c0.1-0.1,0.2-0.2,0.3-0.3c0.1-0.1,0.2-0.1,0.4-0.1c0.2,0,0.3,0,0.4,0.1
		c0.1,0,0.2,0.1,0.2,0.2s0.1,0.2,0.1,0.3s0,0.2,0,0.3v1.3H34v-1.2c0-0.2,0-0.3-0.1-0.4c-0.1-0.1-0.1-0.1-0.3-0.1
		c-0.2,0-0.3,0-0.3,0.1s-0.1,0.2-0.1,0.5v1.1h-0.6v-2.1H33.2z"/>
</g>
<g>
	<path fill="#231F20" d="M35.2,80.4v1h0c0.1-0.1,0.2-0.2,0.3-0.2c0.1,0,0.2-0.1,0.4-0.1c0.1,0,0.2,0,0.3,0.1c0.1,0,0.2,0.1,0.3,0.2
		c0.1,0.1,0.1,0.2,0.2,0.3c0.1,0.1,0.1,0.3,0.1,0.5s0,0.4-0.1,0.5s-0.1,0.2-0.2,0.3c-0.1,0.1-0.2,0.2-0.3,0.2
		c-0.1,0-0.2,0.1-0.3,0.1c-0.2,0-0.3,0-0.4-0.1c-0.1,0-0.2-0.1-0.3-0.2h0v0.3h-0.5v-2.9H35.2z M36.1,82c0-0.1,0-0.2-0.1-0.2
		s-0.1-0.1-0.2-0.1c-0.1,0-0.1-0.1-0.2-0.1c-0.1,0-0.2,0-0.2,0.1c-0.1,0-0.1,0.1-0.2,0.1s-0.1,0.1-0.1,0.2s0,0.2,0,0.3
		c0,0.1,0,0.2,0,0.2s0,0.2,0.1,0.2s0.1,0.1,0.2,0.1s0.1,0.1,0.2,0.1c0.1,0,0.2,0,0.2-0.1c0.1,0,0.1-0.1,0.2-0.1s0.1-0.1,0.1-0.2
		s0-0.2,0-0.2C36.2,82.2,36.2,82.1,36.1,82z"/>
	<path fill="#231F20" d="M37.7,80.4v2.9h-0.6v-2.9H37.7z"/>
	<path fill="#231F20" d="M39.5,83.3V83h0c-0.1,0.1-0.2,0.2-0.3,0.3c-0.1,0.1-0.2,0.1-0.4,0.1c-0.2,0-0.3,0-0.4-0.1
		c-0.1,0-0.2-0.1-0.2-0.2c-0.1-0.1-0.1-0.2-0.1-0.3s0-0.2,0-0.3v-1.3h0.6v1.2c0,0.2,0,0.3,0.1,0.4c0.1,0.1,0.1,0.1,0.3,0.1
		c0.2,0,0.3,0,0.3-0.1s0.1-0.2,0.1-0.5v-1.1h0.6v2.1H39.5z"/>
	<path fill="#231F20" d="M41.1,82.8c0.1,0.1,0.2,0.1,0.4,0.1c0.1,0,0.2,0,0.3-0.1c0.1-0.1,0.1-0.1,0.2-0.2h0.5
		c-0.1,0.2-0.2,0.4-0.4,0.5c-0.2,0.1-0.4,0.2-0.6,0.2c-0.2,0-0.3,0-0.4-0.1c-0.1-0.1-0.2-0.1-0.3-0.2c-0.1-0.1-0.2-0.2-0.2-0.3
		c0-0.1-0.1-0.3-0.1-0.4c0-0.2,0-0.3,0.1-0.4c0-0.1,0.1-0.2,0.2-0.3c0.1-0.1,0.2-0.2,0.3-0.2c0.1-0.1,0.3-0.1,0.4-0.1
		c0.2,0,0.3,0,0.5,0.1c0.1,0.1,0.2,0.2,0.3,0.3s0.1,0.2,0.2,0.4c0,0.1,0.1,0.3,0,0.5H41C41,82.6,41,82.7,41.1,82.8z M41.7,81.7
		c-0.1-0.1-0.2-0.1-0.3-0.1c-0.1,0-0.2,0-0.2,0c-0.1,0-0.1,0.1-0.1,0.1c0,0-0.1,0.1-0.1,0.1c0,0,0,0.1,0,0.1h0.9
		C41.9,81.9,41.8,81.8,41.7,81.7z"/>
</g>
</svg>
