<svg xmlns="http://www.w3.org/2000/svg" xmlns:xlink="http://www.w3.org/1999/xlink" version="1.1" id="Your_Icon" x="0px" y="0px" width="100px" height="100px" viewBox="0 0 100 100" enable-background="new 0 0 100 100" xml:space="preserve">
<g>
	<path d="M94.719,88.632c-0.005,0-0.012,0-0.018,0H5.491c-1.589,0-3.053-0.859-3.83-2.246c-0.774-1.388-0.738-3.085,0.095-4.438   L46.36,9.455c0.798-1.297,2.213-2.088,3.736-2.088s2.938,0.791,3.736,2.088l44.418,72.19c0.538,0.726,0.854,1.628,0.854,2.602   C99.105,86.669,97.142,88.632,94.719,88.632z M13.341,79.858h73.512L50.097,20.123L13.341,79.858z"/>
</g>
<g>
	<g>
		<path d="M50.097,63.19c-2.423,0-4.387-1.962-4.387-4.386v-19.3c0-2.423,1.964-4.386,4.387-4.386c2.422,0,4.387,1.963,4.387,4.386    v19.3C54.483,61.229,52.519,63.19,50.097,63.19z"/>
	</g>
</g>
<g>
	<g>
		<path d="M50.097,75.473c-1.159,0-2.282-0.464-3.106-1.279c-0.815-0.817-1.281-1.949-1.281-3.106c0-1.158,0.465-2.29,1.281-3.104    c0.816-0.817,1.947-1.283,3.106-1.283c1.157,0,2.28,0.466,3.105,1.283c0.815,0.823,1.281,1.946,1.281,3.104    c0,1.157-0.466,2.279-1.281,3.106C52.377,75.009,51.245,75.473,50.097,75.473z"/>
	</g>
</g>
</svg>