<?xml version="1.0" encoding="utf-8"?>
<!-- Generator: Adobe Illustrator 17.0.2, SVG Export Plug-In . SVG Version: 6.00 Build 0)  -->
<!DOCTYPE svg PUBLIC "-//W3C//DTD SVG 1.0//EN" "http://www.w3.org/TR/2001/REC-SVG-20010904/DTD/svg10.dtd">
<svg version="1.0" id="Your_Icon" xmlns="http://www.w3.org/2000/svg" xmlns:xlink="http://www.w3.org/1999/xlink" x="0px" y="0px"
	 width="100px" height="100px" viewBox="0 0 100 100" enable-background="new 0 0 100 100" xml:space="preserve">
<g>
	<path fill="#DFD584" d="M94.7,88.6C94.7,88.6,94.7,88.6,94.7,88.6H5.5c-1.6,0-3.1-0.9-3.8-2.2c-0.8-1.4-0.7-3.1,0.1-4.4L46.4,9.5
		c0.8-1.3,2.2-2.1,3.7-2.1s2.9,0.8,3.7,2.1l44.4,72.2c0.5,0.7,0.9,1.6,0.9,2.6C99.1,86.7,97.1,88.6,94.7,88.6z M13.3,79.9h73.5
		L50.1,20.1L13.3,79.9z"/>
</g>
<g>
	<g>
		<path fill="#DFD584" d="M50.1,63.2c-2.4,0-4.4-2-4.4-4.4V39.5c0-2.4,2-4.4,4.4-4.4c2.4,0,4.4,2,4.4,4.4v19.3
			C54.5,61.2,52.5,63.2,50.1,63.2z"/>
	</g>
</g>
<g>
	<g>
		<path fill="#DFD584" d="M50.1,75.5c-1.2,0-2.3-0.5-3.1-1.3c-0.8-0.8-1.3-1.9-1.3-3.1c0-1.2,0.5-2.3,1.3-3.1
			c0.8-0.8,1.9-1.3,3.1-1.3c1.2,0,2.3,0.5,3.1,1.3c0.8,0.8,1.3,1.9,1.3,3.1c0,1.2-0.5,2.3-1.3,3.1C52.4,75,51.2,75.5,50.1,75.5z"/>
	</g>
</g>
</svg>
