<?xml version="1.0" encoding="utf-8"?>
<!-- Generator: Adobe Illustrator 17.0.2, SVG Export Plug-In . SVG Version: 6.00 Build 0)  -->
<!DOCTYPE svg PUBLIC "-//W3C//DTD SVG 1.0//EN" "http://www.w3.org/TR/2001/REC-SVG-20010904/DTD/svg10.dtd">
<svg version="1.0" id="Layer_1" xmlns="http://www.w3.org/2000/svg" xmlns:xlink="http://www.w3.org/1999/xlink" x="0px" y="0px"
	 width="113.4px" height="76.1px" viewBox="0 0 113.4 76.1" enable-background="new 0 0 113.4 76.1" xml:space="preserve">
<rect x="12.5" y="55.4" fill="#424143" width="5.8" height="6.5"/>
<rect x="12.5" y="55.4" fill="none" stroke="#231F20" stroke-width="0.395" stroke-linecap="round" stroke-linejoin="round" width="5.8" height="6.5"/>
<polygon fill="#6E6F72" points="15.4,57.3 17.1,60.7 13.7,60.7 "/>
<polygon fill="none" stroke="#231F20" stroke-width="0.395" stroke-linecap="round" stroke-linejoin="round" points="15.4,57.3 
	17.1,60.7 13.7,60.7 "/>
<polygon fill="#231F20" points="13.8,51.6 14.4,51.6 14.4,52.4 17.4,52.4 17.4,53.1 14.4,53.1 14.4,53.9 13.8,53.9 "/>
<polygon fill="#231F20" points="13.8,51.3 13.8,50.3 16.3,49.8 16.3,49.8 13.8,49.2 13.8,48.2 17.4,48.2 17.4,48.8 14.5,48.8 
	14.5,48.8 17.4,49.5 17.4,50 14.5,50.7 14.5,50.7 17.4,50.7 17.4,51.3 "/>
<path fill="#231F20" d="M13.8,47.7v-1.3c0-0.7,0.5-1,1.1-1c0.7,0,1.1,0.5,1.1,1.1V47h1.4v0.7H13.8z M15.4,47v-0.3
	c0-0.3-0.2-0.5-0.5-0.5c-0.4,0-0.5,0.1-0.5,0.5V47H15.4z"/>
<rect x="17.6" y="15" fill="#BDBEC0" width="65.3" height="2"/>
<rect x="17.6" y="15" fill="none" stroke="#231F20" stroke-width="0.395" stroke-linecap="round" stroke-linejoin="round" width="65.3" height="2"/>
<rect x="17.6" y="9" fill="#BDBEC0" width="65.3" height="2"/>
<rect x="17.6" y="9" fill="none" stroke="#231F20" stroke-width="0.395" stroke-linecap="round" stroke-linejoin="round" width="65.3" height="2"/>
<rect x="17.6" y="3.1" fill="#BDBEC0" width="65.3" height="2"/>
<rect x="17.6" y="3.1" fill="none" stroke="#231F20" stroke-width="0.395" stroke-linecap="round" stroke-linejoin="round" width="65.3" height="2"/>
<rect x="0.2" y="0.2" fill="#595A5C" width="24" height="19.7"/>
<rect x="0.2" y="0.2" fill="none" stroke="#231F20" stroke-width="0.395" stroke-linecap="round" stroke-linejoin="round" width="24" height="19.7"/>
<rect x="0.2" y="0.2" fill="#818285" width="24" height="19.7"/>
<rect x="0.2" y="0.2" fill="none" stroke="#231F20" stroke-width="0.395" stroke-linecap="round" stroke-linejoin="round" width="24" height="19.7"/>
<g>
	
		<text transform="matrix(-1.225054e-05 -1 1 -4.485046e-08 7.726 5.594)" fill="#FFFFFF" font-family="'HelveticaNeueLTPro-BdCn'" font-size="8.1929">2</text>
	
		<text transform="matrix(-1.225054e-05 -1 1 -4.485046e-08 7.7261 10.2718)" fill="#FFFFFF" font-family="'HelveticaNeueLTPro-BdCn'" font-size="8.1929">N</text>
	
		<text transform="matrix(-1.225054e-05 -1 1 -4.485046e-08 7.7264 14.18)" fill="#FFFFFF" font-family="'HelveticaNeueLTPro-BdCn'" font-size="8.1929">2</text>
	
		<text transform="matrix(-1.225054e-05 -1 1 -4.485046e-08 7.7265 18.4075)" fill="#FFFFFF" font-family="'HelveticaNeueLTPro-BdCn'" font-size="8.1929">P</text>
</g>
<g>
	
		<text transform="matrix(-1.225054e-05 -1 1 -4.485046e-08 15.2717 6.4456)" fill="#FFFFFF" font-family="'HelveticaNeueLTPro-BdCn'" font-size="8.1929">A</text>
	
		<text transform="matrix(-1.225054e-05 -1 1 -4.485046e-08 15.272 10.3538)" fill="#FFFFFF" font-family="'HelveticaNeueLTPro-BdCn'" font-size="8.1929">2</text>
	
		<text transform="matrix(-1.225054e-05 -1 1 -4.485046e-08 15.2713 14.262)" fill="#FFFFFF" font-family="'HelveticaNeueLTPro-BdCn'" font-size="8.1929">2</text>
	
		<text transform="matrix(-1.225054e-05 -1 1 -4.485046e-08 15.2716 18.1702)" fill="#FFFFFF" font-family="'HelveticaNeueLTPro-BdCn'" font-size="8.1929">2</text>
</g>
<g>
	<text transform="matrix(1 0 0 1 42.5119 31.3093)" fill="#6E6F72" font-family="'HelveticaNeueLTPro-BdCn'" font-size="7.2807">FRONT</text>
	<text transform="matrix(1 0 0 1 44.1208 74.4919)" fill="#6E6F72" font-family="'HelveticaNeueLTPro-BdCn'" font-size="7.2807">BACK</text>
</g>
<line fill="none" stroke="#BDBEC0" stroke-width="0.607" stroke-linecap="round" stroke-linejoin="round" stroke-miterlimit="10" x1="4" y1="34.5" x2="100.1" y2="34.5"/>
<polygon fill="#BDBEC0" points="62.9,60.4 18.1,60.4 18.1,58.4 83.3,58.4 83.3,60.4 "/>
<polyline fill="none" stroke="#231F20" stroke-width="0.395" stroke-linecap="round" stroke-linejoin="round" points="62.9,60.4 
	18.1,60.4 18.1,58.4 83.3,58.4 83.3,60.4 62.9,60.4 "/>
<rect x="18.1" y="52.4" fill="#BDBEC0" width="65.3" height="2"/>
<rect x="18.1" y="52.4" fill="none" stroke="#231F20" stroke-width="0.395" stroke-linecap="round" stroke-linejoin="round" width="65.3" height="2"/>
<rect x="18.1" y="46.5" fill="#BDBEC0" width="65.3" height="2"/>
<rect x="18.1" y="46.5" fill="none" stroke="#231F20" stroke-width="0.395" stroke-linecap="round" stroke-linejoin="round" width="65.3" height="2"/>
<rect x="0.7" y="43.6" fill="#818285" width="24" height="19.7"/>
<rect x="0.7" y="43.6" fill="none" stroke="#231F20" stroke-width="0.395" stroke-linecap="round" stroke-linejoin="round" width="24" height="19.7"/>
<circle fill="none" stroke="#231F20" stroke-width="0.395" stroke-linecap="round" stroke-linejoin="round" cx="12.7" cy="53.4" r="3.2"/>
<polygon fill="#231F20" points="12.1,55.1 13,54.2 11.9,53 11,54 10.7,53.7 13,51.4 13.3,51.7 12.2,52.8 13.3,53.9 14.4,52.8 
	14.7,53.1 12.4,55.4 "/>
<g>
	<text transform="matrix(1 0 0 1 88.5842 17.1305)" fill="#231F20" font-family="'HelveticaNeue-Bold'" font-size="4">COLLECTOR</text>
	<text transform="matrix(1 0 0 1 88.5842 11.0905)" fill="#231F20" font-family="'HelveticaNeue-Bold'" font-size="4">BASE</text>
	<text transform="matrix(1 0 0 1 88.5202 5.1945)" fill="#231F20" font-family="'HelveticaNeue-Bold'" font-size="4">EMITTER</text>
	<text transform="matrix(1 0 0 1 88.612 60.1823)" fill="#231F20" font-family="'HelveticaNeue-Bold'" font-size="4">EMITTER</text>
	<text transform="matrix(1 0 0 1 88.612 54.1423)" fill="#231F20" font-family="'HelveticaNeue-Bold'" font-size="4">BASE</text>
	<text transform="matrix(1 0 0 1 88.548 48.2468)" fill="#231F20" font-family="'HelveticaNeue-Bold'" font-size="4">COLLECTOR</text>
</g>
</svg>
