<?xml version="1.0" encoding="utf-8"?>
<!-- Generator: Adobe Illustrator 17.0.2, SVG Export Plug-In . SVG Version: 6.00 Build 0)  -->
<!DOCTYPE svg PUBLIC "-//W3C//DTD SVG 1.1//EN" "http://www.w3.org/Graphics/SVG/1.1/DTD/svg11.dtd">
<svg version="1.1" id="Layer_1" xmlns="http://www.w3.org/2000/svg" xmlns:xlink="http://www.w3.org/1999/xlink" x="0px" y="0px"
	 width="154px" height="161px" viewBox="0 0 154 161" enable-background="new 0 0 154 161" xml:space="preserve">
<g id="backer">
	<g opacity="0.25">
		<polygon fill="#010101" points="154,161 142,161 140.896,155.635 14.03,155.297 12,161 0,161 0,10 154,10 		"/>
	</g>
	<g>
		<polygon fill="#144A94" points="154,151 142,151 140.896,145.635 14.03,145.297 12,151 0,151 0,0 154,0 		"/>
	</g>
</g>
<g id="knob_1_">
	<path fill="#6096C6" d="M124.549,100.583c14.36,8.99,6.626,19.234-5.954,7.887c12.58,11.347,3.186,20.092-7.233,6.733
		c10.419,13.359-0.352,20.34-8.292,5.375c7.941,14.966-3.878,19.97-9.099,3.853c5.221,16.117-7.287,18.993-9.63,2.214
		c2.343,16.779-10.475,17.439-9.869,0.509c-0.606,16.931-13.344,15.356-9.807-1.213c-3.537,16.568-15.808,12.805-9.447-2.897
		c-6.36,15.703-17.791,9.866-8.801-4.494c-8.99,14.36-19.234,6.626-7.887-5.954c-11.347,12.58-20.092,3.186-6.733-7.233
		c-13.359,10.419-20.34-0.352-5.375-8.292c-14.966,7.941-19.97-3.878-3.853-9.099c-16.117,5.221-18.993-7.287-2.214-9.63
		c-16.779,2.343-17.439-10.475-0.509-9.869c-16.931-0.606-15.356-13.344,1.213-9.807c-16.568-3.537-12.805-15.808,2.897-9.447
		c-15.703-6.36-9.866-17.791,4.494-8.801c-14.36-8.99-6.626-19.234,5.954-7.887c-12.58-11.347-3.186-20.092,7.233-6.733
		c-10.419-13.359,0.352-20.34,8.292-5.375c-7.941-14.966,3.878-19.97,9.099-3.853c-5.221-16.117,7.287-18.993,9.63-2.214
		c-2.343-16.779,10.475-17.439,9.869-0.509c0.606-16.931,13.344-15.356,9.807,1.213c3.537-16.568,15.808-12.805,9.447,2.897
		c6.36-15.703,17.791-9.866,8.801,4.494c8.99-14.36,19.234-6.626,7.887,5.954c11.347-12.58,20.092-3.186,6.733,7.233
		c13.359-10.419,20.34,0.352,5.375,8.292c14.966-7.941,19.97,3.878,3.853,9.099c16.117-5.221,18.993,7.287,2.214,9.63
		c16.779-2.343,17.439,10.475,0.509,9.869c16.931,0.606,15.356,13.344-1.213,9.807c16.568,3.537,12.805,15.808-2.897,9.447
		C144.746,98.143,138.909,109.573,124.549,100.583z"/>
</g>
<polygon id="knob_ring" fill="#1C69AB" points="127.902,102.682 121.533,111.119 113.795,118.322 104.925,124.072 95.19,128.194 
	84.888,130.563 74.33,131.107 63.839,129.809 53.733,126.71 44.318,121.902 35.881,115.533 28.678,107.795 22.928,98.925 
	18.806,89.19 16.437,78.888 15.893,68.33 17.191,57.839 20.29,47.733 25.098,38.318 31.467,29.881 39.205,22.678 48.075,16.928 
	57.81,12.806 68.112,10.437 78.67,9.893 89.161,11.191 99.267,14.29 108.682,19.098 117.119,25.467 124.322,33.205 130.072,42.075 
	134.194,51.81 136.563,62.112 137.107,72.67 135.809,83.161 132.71,93.267 "/>
<radialGradient id="outer_1_" cx="76.5" cy="70.5" r="54.7159" gradientUnits="userSpaceOnUse">
	<stop  offset="0" style="stop-color:#1072BA"/>
	<stop  offset="0.94" style="stop-color:#1072BA"/>
	<stop  offset="1" style="stop-color:#CDCCCC"/>
</radialGradient>
<polygon id="outer" fill="url(#outer_1_)" points="122.906,99.554 117.156,107.171 110.17,113.674 102.162,118.865 93.373,122.586 
	84.072,124.725 74.541,125.216 65.07,124.044 55.946,121.246 47.446,116.906 39.829,111.156 33.326,104.17 28.135,96.162 
	24.414,87.373 22.275,78.072 21.784,68.541 22.956,59.07 25.754,49.946 30.094,41.446 35.844,33.829 42.83,27.326 50.838,22.135 
	59.627,18.414 68.928,16.275 78.459,15.784 87.93,16.956 97.054,19.754 105.554,24.094 113.171,29.844 119.674,36.83 
	124.865,44.838 128.586,53.627 130.725,62.928 131.216,72.459 130.044,81.93 127.246,91.054 "/>
<radialGradient id="inner_2_" cx="144.8573" cy="-19.8278" r="50.6089" gradientTransform="matrix(-0.0096 -1 0.9728 -0.0094 97.1803 215.1652)" gradientUnits="userSpaceOnUse">
	<stop  offset="0" style="stop-color:#0C75BC"/>
	<stop  offset="0.9182" style="stop-color:#005C97"/>
	<stop  offset="1" style="stop-color:#CCE0F4"/>
</radialGradient>
<polygon id="inner_1_" fill="url(#inner_2_)" points="126.977,66.429 126.917,75.257 125.326,83.939 122.25,92.214 117.784,99.828 
	112.065,106.552 105.264,112.18 97.589,116.541 89.274,119.504 80.571,120.977 71.743,120.917 63.061,119.326 54.786,116.25 
	47.172,111.784 40.448,106.065 34.82,99.264 30.459,91.589 27.496,83.274 26.023,74.571 26.083,65.743 27.674,57.061 30.75,48.786 
	35.216,41.172 40.935,34.448 47.736,28.82 55.411,24.459 63.726,21.496 72.429,20.023 81.257,20.083 89.939,21.674 98.214,24.75 
	105.828,29.216 112.552,34.935 118.18,41.736 122.541,49.411 125.504,57.726 "/>
<rect x="67.5" y="25" fill="#1E427E" width="16" height="91"/>
<polygon fill="#1E427E" points="65,57 52.5,57 65,27.691 "/>
<polygon fill="#1E427E" points="85,57 98.896,57 85,27.691 "/>
<polygon fill="#2D6B9A" points="65,28 67,25 67,116 65,116 "/>
<polygon fill="#2D6B9A" points="85,28 83,25 83,116 85,116 "/>
<g>
</g>
<g>
</g>
<g>
</g>
<g>
</g>
<g>
</g>
<g>
</g>
</svg>
