<?xml version="1.0" encoding="utf-8"?>
<!-- Generator: Adobe Illustrator 17.0.2, SVG Export Plug-In . SVG Version: 6.00 Build 0)  -->
<!DOCTYPE svg PUBLIC "-//W3C//DTD SVG 1.1//EN" "http://www.w3.org/Graphics/SVG/1.1/DTD/svg11.dtd">
<svg version="1.1" id="Layer_1" xmlns="http://www.w3.org/2000/svg" xmlns:xlink="http://www.w3.org/1999/xlink" x="0px" y="0px"
	 width="100px" height="100px" viewBox="0 0 100 100" enable-background="new 0 0 100 100" xml:space="preserve">
<path fill="#FFFFFF" d="M42.3,10.6c-0.6,0.3-0.9,0.9-0.9,1.5c0,0,0,18.9,0,24.1C36.8,32.7,7.7,10.7,7.7,10.7
	c-0.5-0.4-1.2-0.4-1.8-0.2C5.4,10.9,5,11.5,5,12.1v75.8c0,0.6,0.4,1.2,0.9,1.5c0.6,0.3,1.3,0.2,1.8-0.2c0,0,29.1-22,33.7-25.5
	c0,5.2,0,24.1,0,24.1c0,0.6,0.4,1.2,0.9,1.5c0.6,0.3,1.2,0.2,1.8-0.2l50.2-37.9C94.7,51,95,50.5,95,50c0-0.5-0.3-1-0.7-1.3
	L44.1,10.7C43.6,10.4,42.9,10.3,42.3,10.6z M8.3,15.5c4.6,3.5,33.7,25.4,33.7,25.4c0.5,0.4,1.2,0.4,1.8,0.2c0.6-0.3,0.9-0.9,0.9-1.5
	c0,0,0-18.9,0-24.1c4.6,3.5,42.7,32.2,45.8,34.5c-3.1,2.3-41.2,31.1-45.8,34.5c0-5.2,0-24.1,0-24.1c0-0.6-0.4-1.2-0.9-1.5
	c-0.6-0.3-1.2-0.2-1.8,0.2c0,0-29.1,22-33.7,25.5C8.3,78.7,8.3,21.3,8.3,15.5z"/>
</svg>
