<?xml version="1.0" encoding="utf-8"?>
<!-- Generator: Adobe Illustrator 17.0.2, SVG Export Plug-In . SVG Version: 6.00 Build 0)  -->
<!DOCTYPE svg PUBLIC "-//W3C//DTD SVG 1.0//EN" "http://www.w3.org/TR/2001/REC-SVG-20010904/DTD/svg10.dtd">
<svg version="1.0" id="Layer_1" xmlns="http://www.w3.org/2000/svg" xmlns:xlink="http://www.w3.org/1999/xlink" x="0px" y="0px"
	 width="108.1px" height="67.7px" viewBox="0 0 108.1 67.7" enable-background="new 0 0 108.1 67.7" xml:space="preserve">
<g>
	<text transform="matrix(-1 0 0 -1 72.2639 11.9648)" fill="#221F1F" font-family="'Futura-Medium'" font-size="4.7723">2</text>
	<text transform="matrix(-1 0 0 -1 69.7044 11.9648)" fill="#221F1F" font-family="'Futura-Medium'" font-size="4.7723">2</text>
	<path fill="#736960" d="M14.1,48.1V19.8h45.1c2.7,0,3.8-2,3.8-4.5V5.9h38.5L89.2,62H63.1v-9.1c0-1.4-1.6-4.7-3.7-4.7
		C57.3,48.2,14.1,48.1,14.1,48.1"/>
	<path fill="none" stroke="#191819" stroke-width="0.623" stroke-miterlimit="10" d="M14.1,48.1V19.8h45.1c2.7,0,3.8-2,3.8-4.5V5.9
		h38.5L89.2,62H63.1v-9.1c0-1.4-1.6-4.7-3.7-4.7C57.3,48.2,14.1,48.1,14.1,48.1z"/>
	<path fill="#6881AF" d="M59.3,19.8H14.3v28.3c0,0,43.2,0.1,45.3,0.1c2.1,0,3.7,3.3,3.7,4.7v2.3h11.1V12.9H63.2v2.3
		C63.2,17.8,62,19.8,59.3,19.8"/>
	<line fill="none" stroke="#221F1F" stroke-width="2.364" stroke-miterlimit="10" x1="106.9" y1="0.2" x2="92.8" y2="67.5"/>
	<rect x="0" y="40" fill="#BDBEBF" width="14.2" height="2.2"/>
	<rect x="0" y="32.9" fill="#BDBEBF" width="14.2" height="2.2"/>
	<rect x="0" y="25.8" fill="#BDBEBF" width="14.2" height="2.2"/>
	<g>
		<g>
			<defs>
				<rect id="SVGID_1_" x="39.9" y="39.2" width="52.5" height="13.6"/>
			</defs>
			<clipPath id="SVGID_2_">
				<use xlink:href="#SVGID_1_"  overflow="visible"/>
			</clipPath>
			<polygon clip-path="url(#SVGID_2_)" fill="#BDBEBF" points="42.2,42.8 76,42.8 84.1,52.6 91.3,52.6 92.2,48.9 84.2,48.9 
				75.9,39.4 40.2,39.4 			"/>
		</g>
		<g>
			<defs>
				<rect id="SVGID_3_" x="39.9" y="39.2" width="52.5" height="13.6"/>
			</defs>
			<clipPath id="SVGID_4_">
				<use xlink:href="#SVGID_3_"  overflow="visible"/>
			</clipPath>
			
				<polygon clip-path="url(#SVGID_4_)" fill="none" stroke="#221F1F" stroke-width="0.623" stroke-linecap="round" stroke-linejoin="round" points="
				42.2,42.8 76,42.8 84.1,52.6 91.3,52.6 92.2,48.9 84.2,48.9 75.9,39.4 40.2,39.4 			"/>
		</g>
	</g>
	<rect x="39.2" y="38.6" fill="none" width="53.2" height="14.4"/>
	<g>
		<g>
			<defs>
				<rect id="SVGID_5_" x="40.9" y="24.8" width="43" height="4"/>
			</defs>
			<clipPath id="SVGID_6_">
				<use xlink:href="#SVGID_5_"  overflow="visible"/>
			</clipPath>
			<polygon clip-path="url(#SVGID_6_)" fill="#BDBEBF" points="41.2,28.5 83.7,28.5 83.7,25 41.3,25 			"/>
		</g>
		<g>
			<defs>
				<rect id="SVGID_7_" x="40.9" y="24.8" width="43" height="4"/>
			</defs>
			<clipPath id="SVGID_8_">
				<use xlink:href="#SVGID_7_"  overflow="visible"/>
			</clipPath>
			
				<polygon clip-path="url(#SVGID_8_)" fill="none" stroke="#221F1F" stroke-width="0.623" stroke-linecap="round" stroke-linejoin="round" points="
				41.2,28.5 83.7,28.5 83.7,25 41.3,25 			"/>
		</g>
	</g>
	<rect x="40.7" y="24.2" fill="none" width="43.9" height="5"/>
	<rect x="14.2" y="38.3" fill="#BDBEBF" width="27.9" height="5.5"/>
	
		<rect x="14.2" y="38.3" fill="none" stroke="#221F1F" stroke-width="0.623" stroke-linecap="round" stroke-linejoin="round" width="27.9" height="5.5"/>
	<rect x="14.2" y="24.1" fill="#BDBEBF" width="27.9" height="5.5"/>
	
		<rect x="14.2" y="24.1" fill="none" stroke="#221F1F" stroke-width="0.623" stroke-linecap="round" stroke-linejoin="round" width="27.9" height="5.5"/>
	<polygon fill="#BDBEBF" points="40.9,35.3 82.8,35.3 82.8,44.3 93.2,44.3 97.7,23.3 82.8,23.3 82.8,31.9 41,31.9 	"/>
	<polygon fill="none" stroke="#221F1F" stroke-width="0.623" stroke-linecap="round" stroke-linejoin="round" points="40.9,35.3 
		82.8,35.3 82.8,44.3 93.2,44.3 97.7,23.3 82.8,23.3 82.8,31.9 41,31.9 	"/>
	<rect x="14.2" y="31.1" fill="#BDBEBF" width="27.9" height="5.5"/>
	
		<rect x="14.2" y="31.1" fill="none" stroke="#221F1F" stroke-width="0.623" stroke-linecap="round" stroke-linejoin="round" width="27.9" height="5.5"/>
	<path fill="none" stroke="#191819" stroke-width="0.623" stroke-miterlimit="10" d="M14.1,48.1V19.8h45.1c2.7,0,3.8-2,3.8-4.5V5.9
		h38.5L89.2,62H63.1v-9.1c0-1.4-1.6-4.7-3.7-4.7C57.3,48.2,14.1,48.1,14.1,48.1z"/>
	<line fill="none" stroke="#221F1F" stroke-width="2.364" stroke-miterlimit="10" x1="89" y1="67.1" x2="103.5" y2="0.4"/>
</g>
</svg>
