<?xml version="1.0" encoding="utf-8"?>
<!-- Generator: Adobe Illustrator 17.0.2, SVG Export Plug-In . SVG Version: 6.00 Build 0)  -->
<!DOCTYPE svg PUBLIC "-//W3C//DTD SVG 1.0//EN" "http://www.w3.org/TR/2001/REC-SVG-20010904/DTD/svg10.dtd">
<svg version="1.0" id="Layer_1" xmlns="http://www.w3.org/2000/svg" xmlns:xlink="http://www.w3.org/1999/xlink" x="0px" y="0px"
	 width="269.5px" height="174.2px" viewBox="0 0 269.5 174.2" enable-background="new 0 0 269.5 174.2" xml:space="preserve">
<rect x="0.1" y="0.1" fill="#F1F1F2" width="269.3" height="174"/>
<rect x="61.5" y="130.1" fill="#BCBEC0" width="37.9" height="19.5"/>
<rect x="55.8" y="130.1" fill="#FFF200" width="38.6" height="19.5"/>
<g enable-background="new    ">
	<path fill="#231F20" d="M72.3,155.1c0,0.7-0.3,1.4-0.8,1.8c-0.5,0.5-1.3,0.8-1.8,0.8c-0.1,0-0.1-0.2,0-0.2c1.2-0.3,1.8-1.3,1.8-2.4
		c0-0.5-0.1-1.3-0.6-1.3c-0.3,0-0.4,0.3-0.4,0.7c0,0.5,0.2,1,0.6,1.1c0.1,0,0.1,0,0.2,0c0,0,0,0.1,0,0.1c-0.1,0.1-0.4,0.2-0.6,0.2
		c-0.6,0-1-0.5-1-1.1c0-0.8,0.6-1.3,1.3-1.3C71.7,153.5,72.3,154.2,72.3,155.1z"/>
	<path fill="#231F20" d="M75.4,155.5c0,1-0.4,2-1.4,2s-1.4-1-1.4-2c0-0.9,0.4-2,1.4-2S75.4,154.6,75.4,155.5z M74,157.2
		c0.5,0,0.5-1.2,0.5-1.7c0-0.5-0.1-1.7-0.5-1.7s-0.5,1.2-0.5,1.7C73.5,156,73.6,157.2,74,157.2z"/>
	<path fill="#231F20" d="M75.9,154.7c0-0.5,0.3-1.2,1-1.2c0.7,0,1,0.7,1,1.2c0,0.5-0.3,1.2-1,1.2C76.1,155.9,75.9,155.2,75.9,154.7z
		 M76.8,155.6c0.3,0,0.4-0.6,0.4-0.9c0-0.3,0-0.9-0.4-0.9c-0.3,0-0.4,0.6-0.4,0.9C76.5,155,76.5,155.6,76.8,155.6z M77,157.5
		c0.8-1.4,1.5-2.7,2.2-4.1c0.1,0,0.2,0,0.3,0.1c-0.8,1.4-1.5,2.7-2.2,4.1C77.1,157.7,77,157.6,77,157.5z M78.6,156.3
		c0-0.5,0.3-1.2,1-1.2s1,0.7,1,1.2c0,0.5-0.3,1.2-1,1.2S78.6,156.8,78.6,156.3z M79.6,157.2c0.3,0,0.4-0.6,0.4-0.9s0-0.9-0.4-0.9
		c-0.3,0-0.4,0.6-0.4,0.9C79.2,156.6,79.3,157.2,79.6,157.2z"/>
</g>
<rect x="55.8" y="22.3" fill="#FFF200" width="5.7" height="19.5"/>
<rect x="61.5" y="22.3" fill="#BCBEC0" width="37.9" height="19.5"/>
<g enable-background="new    ">
	<path fill="#FFFFFF" d="M78.7,30.8c0,0.7-0.3,1.4-0.8,1.8c-0.5,0.5-1.3,0.8-1.8,0.8c-0.1,0-0.1-0.2,0-0.2c1.2-0.3,1.8-1.3,1.8-2.4
		c0-0.5-0.1-1.3-0.6-1.3c-0.3,0-0.4,0.3-0.4,0.7c0,0.5,0.2,1,0.6,1.1c0.1,0,0.1,0,0.2,0c0,0,0,0.1,0,0.1c-0.1,0.1-0.4,0.2-0.6,0.2
		c-0.6,0-1-0.5-1-1.1c0-0.8,0.6-1.3,1.3-1.3C78.1,29.3,78.7,30,78.7,30.8z"/>
	<path fill="#FFFFFF" d="M81.8,31.2c0,1-0.4,2-1.4,2s-1.4-1-1.4-2c0-0.9,0.4-2,1.4-2S81.8,30.3,81.8,31.2z M80.4,32.9
		c0.5,0,0.5-1.2,0.5-1.7c0-0.5-0.1-1.7-0.5-1.7s-0.5,1.2-0.5,1.7C79.9,31.8,80,32.9,80.4,32.9z"/>
	<path fill="#FFFFFF" d="M82.3,30.4c0-0.5,0.3-1.2,1-1.2c0.7,0,1,0.7,1,1.2c0,0.5-0.3,1.2-1,1.2C82.5,31.6,82.3,30.9,82.3,30.4z
		 M83.3,31.4c0.3,0,0.4-0.6,0.4-0.9c0-0.3,0-0.9-0.4-0.9c-0.3,0-0.4,0.6-0.4,0.9C82.9,30.8,82.9,31.4,83.3,31.4z M83.4,33.2
		c0.8-1.4,1.5-2.7,2.2-4.1c0.1,0,0.2,0,0.3,0.1c-0.8,1.4-1.5,2.7-2.2,4.1C83.5,33.4,83.4,33.3,83.4,33.2z M85,32
		c0-0.5,0.3-1.2,1-1.2s1,0.7,1,1.2c0,0.5-0.3,1.2-1,1.2S85,32.5,85,32z M86,33c0.3,0,0.4-0.6,0.4-0.9s0-0.9-0.4-0.9
		c-0.3,0-0.4,0.6-0.4,0.9C85.7,32.4,85.7,33,86,33z"/>
</g>
<rect x="61.5" y="76.2" fill="#BCBEC0" width="37.9" height="19.5"/>
<rect x="55.8" y="76.2" fill="#FFF200" width="22.4" height="19.5"/>
<g enable-background="new    ">
	<path fill="#231F20" d="M63.8,99.5C63.9,99.5,63.9,99.6,63.8,99.5c0,0.3-0.1,0.6-0.3,0.7l-1.4,0.2c-0.1,0-0.1,0.1-0.1,0.2l0,0.1
		c0,0.1,0,0.2,0.2,0.2c0.3,0,0.9,0.1,1.2,0.3c0.3,0.2,0.6,0.5,0.6,1c0,0.6-0.4,1-0.9,1.3c-0.5,0.3-1.1,0.4-1.6,0.4
		c-0.1,0-0.1-0.2,0-0.3c0.4,0,0.9-0.1,1.2-0.3c0.4-0.2,0.6-0.5,0.6-0.8c0-0.9-0.9-1-1.5-1c-0.2,0-0.2-0.1-0.2-0.2l0.4-1.4
		c0-0.2,0.1-0.2,0.3-0.2L63.8,99.5z"/>
	<path fill="#231F20" d="M67.3,101.6c0,1-0.4,2-1.4,2s-1.4-1-1.4-2c0-0.9,0.4-2,1.4-2S67.3,100.7,67.3,101.6z M65.9,103.3
		c0.5,0,0.5-1.2,0.5-1.7c0-0.5-0.1-1.7-0.5-1.7s-0.5,1.2-0.5,1.7C65.4,102.1,65.5,103.3,65.9,103.3z"/>
	<path fill="#231F20" d="M67.8,100.8c0-0.5,0.3-1.2,1-1.2c0.7,0,1,0.7,1,1.2c0,0.5-0.3,1.2-1,1.2C68,102,67.8,101.3,67.8,100.8z
		 M68.8,101.7c0.3,0,0.4-0.6,0.4-0.9c0-0.3,0-0.9-0.4-0.9c-0.3,0-0.4,0.6-0.4,0.9C68.4,101.1,68.4,101.7,68.8,101.7z M68.9,103.6
		c0.8-1.4,1.5-2.7,2.2-4.1c0.1,0,0.2,0,0.3,0.1c-0.8,1.4-1.5,2.7-2.2,4.1C69,103.8,68.9,103.7,68.9,103.6z M70.6,102.4
		c0-0.5,0.3-1.2,1-1.2s1,0.7,1,1.2c0,0.5-0.3,1.2-1,1.2S70.6,102.9,70.6,102.4z M71.6,103.3c0.3,0,0.4-0.6,0.4-0.9s0-0.9-0.4-0.9
		c-0.3,0-0.4,0.6-0.4,0.9C71.2,102.7,71.2,103.3,71.6,103.3z"/>
</g>
<g enable-background="new    ">
	<path fill="#FFFFFF" d="M86.3,83.4C86.4,83.4,86.4,83.5,86.3,83.4c0,0.3-0.1,0.6-0.3,0.7l-1.4,0.2c-0.1,0-0.1,0.1-0.1,0.2l0,0.1
		c0,0.1,0,0.2,0.2,0.2c0.3,0,0.9,0.1,1.2,0.3c0.3,0.2,0.6,0.5,0.6,1c0,0.6-0.4,1-0.9,1.3c-0.5,0.3-1.1,0.4-1.6,0.4
		c-0.1,0-0.1-0.2,0-0.3c0.4,0,0.9-0.1,1.2-0.3c0.4-0.2,0.6-0.5,0.6-0.8c0-0.9-0.9-1-1.5-1c-0.2,0-0.2-0.1-0.2-0.2l0.4-1.4
		c0-0.2,0.1-0.2,0.3-0.2L86.3,83.4z"/>
	<path fill="#FFFFFF" d="M89.9,85.5c0,1-0.4,2-1.4,2s-1.4-1-1.4-2c0-0.9,0.4-2,1.4-2S89.9,84.6,89.9,85.5z M88.5,87.2
		c0.5,0,0.5-1.2,0.5-1.7c0-0.5-0.1-1.7-0.5-1.7s-0.5,1.2-0.5,1.7C87.9,86.1,88,87.2,88.5,87.2z"/>
	<path fill="#FFFFFF" d="M90.3,84.7c0-0.5,0.3-1.2,1-1.2c0.7,0,1,0.7,1,1.2c0,0.5-0.3,1.2-1,1.2C90.6,85.9,90.3,85.2,90.3,84.7z
		 M91.3,85.6c0.3,0,0.4-0.6,0.4-0.9c0-0.3,0-0.9-0.4-0.9c-0.3,0-0.4,0.6-0.4,0.9C90.9,85,90.9,85.6,91.3,85.6z M91.4,87.5
		c0.8-1.4,1.5-2.7,2.2-4.1c0.1,0,0.2,0,0.3,0.1c-0.8,1.4-1.5,2.7-2.2,4.1C91.6,87.7,91.4,87.6,91.4,87.5z M93.1,86.3
		c0-0.5,0.3-1.2,1-1.2s1,0.7,1,1.2c0,0.5-0.3,1.2-1,1.2S93.1,86.8,93.1,86.3z M94.1,87.2c0.3,0,0.4-0.6,0.4-0.9s0-0.9-0.4-0.9
		c-0.3,0-0.4,0.6-0.4,0.9C93.7,86.6,93.7,87.2,94.1,87.2z"/>
</g>
<line fill="none" stroke="#BCBEC0" stroke-width="1.028" stroke-miterlimit="10" stroke-dasharray="3.033,3.033" x1="99.4" y1="0.1" x2="99.4" y2="174.1"/>
<line fill="none" stroke="#BCBEC0" stroke-width="1.028" stroke-miterlimit="10" stroke-dasharray="3.033,3.033" x1="142.9" y1="0.1" x2="142.9" y2="174.1"/>
<line fill="none" stroke="#BCBEC0" stroke-width="1.028" stroke-miterlimit="10" stroke-dasharray="3.033,3.033" x1="186.5" y1="0.1" x2="186.5" y2="174.1"/>
<line fill="none" stroke="#BCBEC0" stroke-width="1.028" stroke-miterlimit="10" stroke-dasharray="3.033,3.033" x1="231.9" y1="0.1" x2="231.9" y2="174.1"/>
<line fill="none" stroke="#BCBEC0" stroke-width="1.028" stroke-miterlimit="10" stroke-dasharray="3.033,3.033" x1="55.8" y1="0.1" x2="55.8" y2="174.1"/>
<g enable-background="new    ">
	<path fill="#231F20" d="M244.3,27.5c1.7,0,2.2,0.9,2.2,3.4c0,2-0.1,3.8-2.2,3.8c-1.7,0-2.2-0.9-2.2-3.4
		C242.1,29.3,242.2,27.5,244.3,27.5z M243.6,31.6c0,1.8,0.2,2.2,0.8,2.2c0.6,0,0.8-0.6,0.8-2.4v-0.8c0-1.8-0.2-2.2-0.8-2.2
		c-0.6,0-0.8,0.6-0.8,2.4V31.6z"/>
	<path fill="#231F20" d="M248.6,33v1.6h-1.3V33H248.6z"/>
	<path fill="#231F20" d="M253.4,28.7h-2.6l-0.2,1.6h0c0.3-0.4,0.7-0.5,1.3-0.5c1.4,0,1.7,1.1,1.7,2.3c0,1.6-0.5,2.6-2.3,2.6
		c-1.8,0-2.1-1.2-2.1-2v-0.2h1.4c0,0.5,0.1,1.2,0.7,1.2c0.6,0,0.8-0.5,0.8-1.4c0-1.2-0.2-1.5-0.8-1.5c-0.4,0-0.6,0.2-0.7,0.7h-1.3
		l0.3-3.8h3.7V28.7z"/>
</g>
<g enable-background="new    ">
	<path fill="#231F20" d="M255.1,27.4l1,5.3h0l1.1-5.3h1.5l-1.6,7.1h-1.8l-1.6-7.1H255.1z"/>
</g>
<g enable-background="new    ">
	<path fill="#231F20" d="M246.5,92.5h-4.4c0-1.3,0.5-2.1,1.6-3.1l0.6-0.5c0.6-0.6,0.7-0.9,0.7-1.6c0-0.6-0.2-0.9-0.7-0.9
		c-0.7,0-0.8,0.6-0.8,1.4h-1.4v-0.3c0-1.3,0.7-2,2.2-2c1.4,0,2.1,0.7,2.1,1.9c0,0.9-0.3,1.5-1.1,2.2l-0.8,0.7
		c-0.4,0.4-0.7,0.8-0.7,1h2.7V92.5z"/>
	<path fill="#231F20" d="M248.6,90.9v1.6h-1.3v-1.6H248.6z"/>
	<path fill="#231F20" d="M253.4,86.7h-2.6l-0.2,1.6h0c0.3-0.4,0.7-0.5,1.3-0.5c1.4,0,1.7,1.1,1.7,2.3c0,1.6-0.5,2.6-2.3,2.6
		c-1.8,0-2.1-1.2-2.1-2v-0.2h1.4c0,0.5,0.1,1.2,0.7,1.2c0.6,0,0.8-0.5,0.8-1.4c0-1.2-0.2-1.5-0.8-1.5c-0.4,0-0.6,0.2-0.7,0.7h-1.3
		l0.3-3.8h3.7V86.7z"/>
</g>
<g enable-background="new    ">
	<path fill="#231F20" d="M255.1,85.3l1,5.3h0l1.1-5.3h1.5l-1.6,7.1h-1.8l-1.6-7.1H255.1z"/>
</g>
<g enable-background="new    ">
	<path fill="#231F20" d="M242.1,144.3l2.3-4.4h1.5v4.5h0.7v1.1h-0.7v1.5h-1.3v-1.5h-2.5V144.3z M244.6,141.7L244.6,141.7l-1.4,2.7
		h1.4V141.7z"/>
	<path fill="#231F20" d="M248.6,145.4v1.6h-1.3v-1.6H248.6z"/>
	<path fill="#231F20" d="M253.4,141.2h-2.6l-0.1,1.6h0c0.3-0.4,0.7-0.5,1.3-0.5c1.4,0,1.7,1.1,1.7,2.3c0,1.6-0.5,2.6-2.3,2.6
		c-1.8,0-2.1-1.2-2.1-2V145h1.4c0,0.5,0.1,1.2,0.7,1.2c0.6,0,0.8-0.5,0.8-1.4c0-1.2-0.2-1.5-0.8-1.5c-0.4,0-0.6,0.2-0.7,0.7h-1.3
		l0.3-3.8h3.7V141.2z"/>
</g>
<g enable-background="new    ">
	<path fill="#231F20" d="M255.1,139.8l1,5.3h0l1.1-5.3h1.5l-1.6,7.1h-1.8l-1.6-7.1H255.1z"/>
</g>
<polyline fill="none" stroke="#231F20" stroke-width="2.147" stroke-miterlimit="10" points="49.4,95.7 55.8,95.7 55.8,76.2 
	78.2,76.2 78.2,95.7 99.4,95.7 99.4,76.2 121.8,76.2 121.8,95.7 143,95.7 143,76.2 165.4,76.2 165.4,95.7 186.5,95.7 186.5,76.2 
	209,76.2 209,95.7 231.9,95.7 "/>
<g enable-background="new    ">
	<path fill="#231F20" d="M9.1,42.3c0,0.2,0,0.4,0.1,0.5c0.1,0.1,0.2,0.1,0.5,0.1c0.5,0,0.6,0,0.9-0.6c0,0,0.2,0,0.2,0
		c0,0.3-0.1,0.7-0.2,0.8c-0.3,0-0.7,0-1.2,0H8.8c-0.2,0-0.5,0-0.8,0c0,0-0.1-0.1,0-0.2l0.2,0c0.2,0,0.3-0.1,0.3-0.5v-1.9
		c0-0.5,0-0.5-0.3-0.5L8,40c0,0,0-0.1,0-0.2c0.3,0,0.5,0,0.8,0s0.5,0,0.7,0c0,0,0,0.1,0,0.2l-0.1,0c-0.2,0-0.3,0.1-0.3,0.5V42.3z"/>
	<path fill="#231F20" d="M14.3,41.5c0,1.1-0.7,1.7-1.8,1.7c-1,0-1.7-0.7-1.7-1.7c0-1,0.7-1.8,1.8-1.8C13.6,39.8,14.3,40.5,14.3,41.5
		z M12.5,40c-0.6,0-0.9,0.6-0.9,1.4c0,0.6,0.2,1.6,1,1.6c0.7,0,0.9-0.6,0.9-1.5C13.5,40.7,13.2,40,12.5,40z"/>
	<path fill="#231F20" d="M19.2,40.1c-0.1,0-0.2,0.1-0.2,0.1c-0.1,0.1-0.1,0.2-0.3,0.6c-0.2,0.6-0.8,1.8-1,2.5c0,0-0.1,0-0.2,0
		c-0.1,0-0.1,0-0.1,0c-0.1-0.1-0.1-0.3-0.2-0.4L17,42.3c-0.1-0.2-0.1-0.3-0.2-0.4c0,0.1-0.1,0.2-0.2,0.3l-0.2,0.5
		c-0.1,0.2-0.1,0.3-0.2,0.5c0,0-0.1,0-0.2,0c-0.1,0-0.1,0-0.1,0c-0.1-0.2-0.3-0.7-0.5-1l-0.8-1.8c-0.1-0.3-0.2-0.3-0.3-0.4l-0.1,0
		c0-0.1,0-0.2,0-0.2c0.2,0,0.4,0,0.7,0c0.2,0,0.4,0,0.6,0c0,0,0.1,0.1,0,0.2l-0.1,0c-0.1,0-0.1,0-0.1,0.1s0.1,0.3,0.3,0.6l0.5,1.1
		c0.1,0.3,0.2,0.5,0.3,0.6c0.1-0.1,0.2-0.3,0.3-0.5l0.1-0.1c0-0.1,0-0.1,0-0.2c0,0,0-0.1-0.1-0.2l-0.5-1.1c-0.1-0.2-0.2-0.3-0.3-0.3
		l0,0c0,0,0-0.2,0-0.2c0.2,0,0.4,0,0.6,0c0.3,0,0.4,0,0.6,0c0.1,0,0.1,0.2,0,0.2l-0.1,0c-0.1,0-0.1,0-0.1,0.1c0,0,0,0.1,0,0.2
		l0.2,0.3c0,0.1,0.1,0.2,0.2,0.3l0.2-0.3l0-0.1c0.1-0.2,0.1-0.3,0.1-0.4c0,0,0,0-0.1-0.1l-0.2,0c0,0,0-0.2,0-0.2c0.1,0,0.3,0,0.5,0
		c0.2,0,0.4,0,0.5,0c0,0,0,0.1,0,0.2l-0.1,0c-0.2,0-0.2,0-0.4,0.3c-0.1,0.2-0.2,0.5-0.3,0.6c0,0.1-0.1,0.2-0.1,0.3c0,0,0,0,0,0.1
		l0.2,0.5c0.1,0.3,0.2,0.4,0.2,0.5c0.2-0.6,0.5-1.2,0.8-1.8c0-0.1,0.1-0.4,0.1-0.4c0,0-0.1-0.1-0.1-0.1l-0.1,0c0,0,0-0.2,0-0.2
		c0.2,0,0.4,0,0.5,0c0.2,0,0.3,0,0.5,0c0,0,0,0.1,0,0.2L19.2,40.1z"/>
	<path fill="#231F20" d="M21.9,43.9C21.9,43.9,21.9,44,21.9,43.9c-0.9-0.3-1.2-1.2-1.2-2.1c0-0.9,0.4-1.7,1.1-2.2
		c0.1,0,0.1,0,0.1,0.1c-0.5,0.5-0.7,1.3-0.7,2.1S21.4,43.4,21.9,43.9z"/>
	<path fill="#231F20" d="M24.4,41.6c0,0.8-0.3,1.6-1.2,1.6s-1.2-0.8-1.2-1.6c0-0.8,0.3-1.6,1.2-1.6S24.4,40.8,24.4,41.6z M23.3,43
		c0.4,0,0.4-1,0.4-1.4s0-1.4-0.4-1.4c-0.4,0-0.4,1-0.4,1.4S22.9,43,23.3,43z"/>
	<path fill="#231F20" d="M25.8,41.3c0,0-0.1-0.2,0-0.2c0.2,0,0.4,0,0.6,0c0.2,0,0.4,0,0.6,0c0,0,0,0.1,0,0.2l-0.1,0
		c-0.1,0-0.1,0-0.1,0.1c0,0,0,0.1,0,0.2c0.1,0.3,0.2,0.5,0.3,0.8c0.1-0.3,0.2-0.5,0.3-0.8c0,0,0-0.1,0-0.1c0,0,0,0-0.1-0.1l-0.1,0
		c0,0,0-0.2,0-0.2c0.2,0,0.3,0,0.4,0c0.2,0,0.3,0,0.4,0c0.1,0,0,0.1,0,0.2l-0.1,0c-0.2,0-0.2,0.1-0.3,0.3c-0.3,0.5-0.5,1.1-0.7,1.6
		c0,0-0.1,0-0.1,0c0,0-0.1,0-0.1,0c-0.3-0.6-0.4-0.9-0.7-1.5c-0.1-0.2-0.2-0.3-0.3-0.3L25.8,41.3z"/>
	<path fill="#231F20" d="M28,42.2c0-0.7,0.6-1.1,1.2-1.1s1.1,0.4,1.1,1.1c0,0.7-0.5,1.1-1.2,1.1C28.6,43.2,28,42.9,28,42.2z
		 M28.8,42.1c0,0.5,0.2,0.9,0.5,0.9c0.3,0,0.4-0.3,0.4-0.8c0-0.5-0.1-0.9-0.4-0.9C28.9,41.3,28.8,41.6,28.8,42.1z"/>
	<path fill="#231F20" d="M30.8,40.4c0-0.2,0-0.3-0.1-0.3L30.7,40c0,0,0-0.1,0-0.1c0.2-0.1,0.5-0.2,0.8-0.3c0,0,0.1,0,0.1,0
		c0,0.2,0,0.4,0,0.7v2.2c0,0.3,0,0.4,0.2,0.4l0.1,0c0,0,0,0.1,0,0.2c-0.2,0-0.4,0-0.6,0c-0.2,0-0.4,0-0.6,0c0,0,0-0.1,0-0.2l0.1,0
		c0.2,0,0.2-0.1,0.2-0.4V40.4z"/>
	<path fill="#231F20" d="M33,41.4c-0.1,0-0.1,0-0.1,0.1v0.8c0,0.3,0,0.6,0.3,0.6c0.1,0,0.2,0,0.2-0.1c0,0,0.1,0.1,0.1,0.1
		c-0.1,0.2-0.4,0.3-0.7,0.3c-0.4,0-0.6-0.2-0.6-0.6v-1.1c0-0.1,0-0.1-0.1-0.1H32c-0.1,0-0.1-0.1,0-0.2c0.2-0.1,0.3-0.1,0.4-0.2
		c0.1-0.1,0.2-0.2,0.4-0.4c0,0,0.1,0,0.2,0v0.4c0,0.1,0,0.1,0.1,0.1h0.4c0,0,0,0,0,0.1c0,0.1,0,0.1-0.1,0.2H33z"/>
	<path fill="#231F20" d="M33.7,43.1c-0.1-0.1-0.1-0.3-0.1-0.6c0-0.1,0.1-0.1,0.2,0c0.1,0.2,0.3,0.5,0.5,0.5c0.2,0,0.3-0.1,0.3-0.3
		c0-0.2-0.2-0.3-0.3-0.4c-0.3-0.2-0.5-0.3-0.5-0.6c0-0.4,0.4-0.6,0.8-0.6c0.3,0,0.5,0.1,0.5,0.1c0,0.1,0.1,0.3,0.1,0.5
		c0,0.1-0.1,0.1-0.2,0c-0.1-0.3-0.2-0.4-0.4-0.4c-0.1,0-0.3,0.1-0.3,0.2c0,0.1,0.1,0.2,0.3,0.3c0.3,0.2,0.6,0.4,0.6,0.7
		c0,0.4-0.4,0.7-0.9,0.7C34,43.2,33.8,43.2,33.7,43.1z"/>
	<path fill="#231F20" d="M35.3,39.7C35.3,39.7,35.3,39.7,35.3,39.7c0.9,0.3,1.2,1.2,1.2,2.1c0,0.9-0.4,1.7-1.1,2.2
		c-0.1,0-0.1,0-0.1-0.1c0.5-0.5,0.7-1.3,0.7-2.1S35.8,40.2,35.3,39.7z"/>
</g>
<g enable-background="new    ">
	<path fill="#231F20" d="M7.4,21.8c-0.2,0-0.2,0-0.2,0.1v0.7c0,0.5,0,0.5,0.3,0.5l0.2,0c0,0,0,0.1,0,0.2c-0.3,0-0.5,0-0.8,0
		c-0.2,0-0.5,0-0.7,0c0,0,0-0.1,0-0.2l0.1,0c0.2,0,0.3-0.1,0.3-0.5v-1.9c0-0.5,0-0.5-0.3-0.5l-0.1,0c0,0,0-0.1,0-0.2
		c0.2,0,0.5,0,0.7,0c0.2,0,0.5,0,0.7,0c0,0,0,0.1,0,0.2l-0.1,0c-0.2,0-0.2,0.1-0.2,0.5v0.6c0,0.1,0,0.2,0.2,0.2h1
		c0.2,0,0.2,0,0.2-0.2v-0.6c0-0.5,0-0.5-0.3-0.5l-0.1,0c0,0,0-0.1,0-0.2c0.3,0,0.5,0,0.8,0c0.2,0,0.5,0,0.7,0c0,0,0,0.1,0,0.2
		l-0.1,0c-0.2,0-0.3,0.1-0.3,0.5v1.9c0,0.5,0,0.5,0.3,0.5l0.1,0c0,0,0,0.1,0,0.2c-0.2,0-0.5,0-0.7,0c-0.3,0-0.5,0-0.7,0
		c0,0,0-0.1,0-0.2l0.1,0c0.2,0,0.3-0.1,0.3-0.5v-0.7c0-0.1,0-0.1-0.2-0.1H7.4z"/>
	<path fill="#231F20" d="M11.2,22.6c0,0.5,0,0.5,0.3,0.5l0.1,0c0,0,0,0.1,0,0.2c-0.3,0-0.5,0-0.8,0c-0.2,0-0.5,0-0.8,0
		c0,0,0-0.1,0-0.2l0.1,0c0.2,0,0.3-0.1,0.3-0.5v-1.8c0-0.5,0-0.5-0.3-0.5l-0.1,0c0,0,0-0.1,0-0.2c0.3,0,0.5,0,0.8,0
		c0.2,0,0.5,0,0.8,0c0,0,0,0.1,0,0.2l-0.1,0c-0.2,0-0.3,0.1-0.3,0.5V22.6z"/>
	<path fill="#231F20" d="M15.1,22.8c0,0.2,0,0.3,0.1,0.3c0,0,0,0.1,0,0.1c-0.1,0-0.2,0-0.4,0.1c-0.2,0.1-0.6,0.1-0.9,0.1
		c-0.3,0-0.6,0-1-0.2c-0.6-0.2-1-0.8-1-1.5c0-0.6,0.3-1.2,0.9-1.5c0.3-0.2,0.7-0.3,1.2-0.3c0.6,0,0.8,0.1,1,0.1c0,0.2,0,0.5,0.1,0.8
		c0,0.1-0.2,0.1-0.2,0c-0.2-0.5-0.5-0.7-0.9-0.7c-0.8,0-1.2,0.7-1.2,1.5c0,0.7,0.2,1.1,0.6,1.4c0.2,0.2,0.5,0.2,0.7,0.2
		c0.3,0,0.3-0.1,0.3-0.4v-0.3c0-0.3,0-0.3-0.3-0.3l-0.2,0c-0.1,0-0.1-0.1,0-0.2c0.4,0,0.6,0,0.8,0c0.2,0,0.5,0,0.7,0
		c0,0,0,0.1,0,0.2l-0.1,0c-0.2,0-0.2,0.1-0.2,0.3V22.8z"/>
	<path fill="#231F20" d="M17,21.8c-0.2,0-0.2,0-0.2,0.1v0.7c0,0.5,0,0.5,0.3,0.5l0.2,0c0,0,0,0.1,0,0.2c-0.3,0-0.5,0-0.8,0
		c-0.2,0-0.5,0-0.7,0c0,0,0-0.1,0-0.2l0.1,0c0.2,0,0.3-0.1,0.3-0.5v-1.9c0-0.5,0-0.5-0.3-0.5l-0.1,0c0,0,0-0.1,0-0.2
		c0.2,0,0.5,0,0.7,0c0.2,0,0.5,0,0.7,0c0,0,0,0.1,0,0.2l-0.1,0c-0.2,0-0.2,0.1-0.2,0.5v0.6c0,0.1,0,0.2,0.2,0.2h1
		c0.2,0,0.2,0,0.2-0.2v-0.6c0-0.5,0-0.5-0.3-0.5l-0.1,0c0,0,0-0.1,0-0.2c0.3,0,0.5,0,0.8,0c0.2,0,0.5,0,0.7,0c0,0,0,0.1,0,0.2
		l-0.1,0c-0.2,0-0.3,0.1-0.3,0.5v1.9c0,0.5,0,0.5,0.3,0.5l0.1,0c0,0,0,0.1,0,0.2c-0.2,0-0.5,0-0.7,0c-0.3,0-0.5,0-0.7,0
		c0,0,0-0.1,0-0.2l0.1,0c0.2,0,0.3-0.1,0.3-0.5v-0.7c0-0.1,0-0.1-0.2-0.1H17z"/>
	<path fill="#231F20" d="M22.3,24.1C22.3,24.1,22.3,24.2,22.3,24.1c-0.9-0.3-1.2-1.2-1.2-2.1c0-0.9,0.4-1.7,1.1-2.2
		c0.1,0,0.1,0,0.1,0.1c-0.5,0.5-0.7,1.3-0.7,2.1S21.8,23.6,22.3,24.1z"/>
	<path fill="#231F20" d="M24.5,20.1C24.6,20.1,24.6,20.1,24.5,20.1c0,0.2-0.1,0.5-0.2,0.6l-1.1,0.1c-0.1,0-0.1,0.1-0.1,0.1l0,0.1
		c0,0.1,0,0.1,0.1,0.1c0.3,0,0.7,0.1,1,0.2c0.3,0.1,0.5,0.4,0.5,0.8c0,0.5-0.3,0.9-0.7,1.1s-0.9,0.3-1.4,0.3c-0.1,0-0.1-0.2,0-0.2
		c0.4,0,0.8-0.1,1-0.2c0.3-0.2,0.5-0.4,0.5-0.7c0-0.7-0.8-0.8-1.3-0.8c-0.2,0-0.2-0.1-0.1-0.2l0.3-1.2c0-0.1,0.1-0.1,0.2-0.2
		L24.5,20.1z"/>
	<path fill="#231F20" d="M26.2,21.5c0,0-0.1-0.2,0-0.2c0.2,0,0.4,0,0.6,0c0.2,0,0.4,0,0.6,0c0,0,0,0.1,0,0.2l-0.1,0
		c-0.1,0-0.1,0-0.1,0.1c0,0,0,0.1,0,0.2c0.1,0.3,0.2,0.5,0.3,0.8c0.1-0.3,0.2-0.5,0.3-0.8c0,0,0-0.1,0-0.1c0,0,0,0-0.1-0.1l-0.1,0
		c0,0,0-0.2,0-0.2c0.2,0,0.3,0,0.4,0c0.2,0,0.3,0,0.4,0c0.1,0,0,0.1,0,0.2l-0.1,0c-0.2,0-0.2,0.1-0.3,0.3c-0.3,0.5-0.5,1.1-0.7,1.6
		c0,0-0.1,0-0.1,0c0,0-0.1,0-0.1,0c-0.3-0.6-0.4-0.9-0.7-1.5c-0.1-0.2-0.2-0.3-0.3-0.3L26.2,21.5z"/>
	<path fill="#231F20" d="M28.4,22.4c0-0.7,0.6-1.1,1.2-1.1c0.6,0,1.1,0.4,1.1,1.1c0,0.7-0.5,1.1-1.2,1.1
		C29,23.4,28.5,23.1,28.4,22.4z M29.2,22.3c0,0.5,0.2,0.9,0.5,0.9c0.3,0,0.4-0.3,0.4-0.8c0-0.5-0.1-0.9-0.4-0.9
		C29.3,21.5,29.2,21.8,29.2,22.3z"/>
	<path fill="#231F20" d="M31.3,20.6c0-0.2,0-0.3-0.1-0.3l-0.1-0.1c0,0,0-0.1,0-0.1c0.2-0.1,0.5-0.2,0.8-0.3c0,0,0.1,0,0.1,0
		c0,0.2,0,0.4,0,0.7v2.2c0,0.3,0,0.4,0.2,0.4l0.1,0c0,0,0,0.1,0,0.2c-0.2,0-0.4,0-0.6,0c-0.2,0-0.4,0-0.6,0c0,0,0-0.1,0-0.2l0.1,0
		c0.2,0,0.2-0.1,0.2-0.4V20.6z"/>
	<path fill="#231F20" d="M33.4,21.6c-0.1,0-0.1,0-0.1,0.1v0.8c0,0.3,0,0.6,0.4,0.6c0.1,0,0.2,0,0.2-0.1c0,0,0.1,0.1,0.1,0.1
		c-0.1,0.2-0.4,0.3-0.7,0.3c-0.4,0-0.6-0.2-0.6-0.6v-1.1c0-0.1,0-0.1-0.1-0.1h-0.2c-0.1,0-0.1-0.1,0-0.2c0.2-0.1,0.3-0.1,0.4-0.2
		c0.1-0.1,0.2-0.2,0.4-0.4c0,0,0.1,0,0.1,0v0.4c0,0.1,0,0.1,0.1,0.1h0.4c0,0,0,0,0,0.1c0,0.1,0,0.1-0.1,0.2H33.4z"/>
	<path fill="#231F20" d="M34.1,23.3C34,23.2,34,22.9,34,22.7c0-0.1,0.1-0.1,0.2,0c0.1,0.2,0.3,0.5,0.5,0.5c0.1,0,0.3-0.1,0.3-0.3
		c0-0.2-0.2-0.3-0.3-0.4c-0.3-0.2-0.5-0.3-0.5-0.6c0-0.4,0.4-0.6,0.8-0.6c0.3,0,0.5,0.1,0.5,0.1c0.1,0.1,0.1,0.3,0.1,0.5
		c0,0.1-0.1,0.1-0.2,0c-0.1-0.3-0.2-0.4-0.4-0.4c-0.1,0-0.3,0.1-0.3,0.2c0,0.1,0.1,0.2,0.3,0.3c0.3,0.2,0.6,0.4,0.6,0.7
		c0,0.4-0.4,0.7-0.9,0.7C34.4,23.4,34.2,23.4,34.1,23.3z"/>
	<path fill="#231F20" d="M35.7,19.9C35.7,19.9,35.7,19.9,35.7,19.9c0.9,0.3,1.2,1.2,1.2,2.1c0,0.9-0.4,1.7-1.1,2.2
		c-0.1,0-0.1,0-0.1-0.1c0.5-0.5,0.7-1.3,0.7-2.1S36.3,20.4,35.7,19.9z"/>
</g>
<line fill="none" stroke="#00A651" stroke-width="1.028" stroke-miterlimit="10" x1="43.7" y1="41.8" x2="39.7" y2="41.8"/>
<polygon fill="#00A651" points="47.1,41.8 42.3,39.8 43.4,41.8 42.3,43.7 "/>
<line fill="none" stroke="#00A651" stroke-width="1.028" stroke-miterlimit="10" x1="48.7" y1="22.3" x2="39.7" y2="22.3"/>
<polygon fill="#00A651" points="52.2,22.3 47.4,20.3 48.5,22.3 47.4,24.3 "/>
<g enable-background="new    ">
	<path fill="#231F20" d="M9.1,96.5c0,0.2,0,0.4,0.1,0.5c0.1,0.1,0.2,0.1,0.5,0.1c0.5,0,0.6,0,0.9-0.6c0,0,0.2,0,0.2,0
		c0,0.3-0.1,0.7-0.2,0.8c-0.3,0-0.7,0-1.2,0H8.8c-0.2,0-0.5,0-0.8,0c0,0-0.1-0.1,0-0.2l0.2,0c0.2,0,0.3-0.1,0.3-0.5v-1.9
		c0-0.5,0-0.5-0.3-0.5l-0.1,0c0,0,0-0.1,0-0.2c0.3,0,0.5,0,0.8,0s0.5,0,0.7,0c0,0,0,0.1,0,0.2l-0.1,0c-0.2,0-0.3,0.1-0.3,0.5V96.5z"
		/>
	<path fill="#231F20" d="M14.3,95.7c0,1.1-0.7,1.7-1.8,1.7c-1,0-1.7-0.7-1.7-1.7c0-1,0.7-1.8,1.8-1.8C13.6,94,14.3,94.7,14.3,95.7z
		 M12.5,94.2c-0.6,0-0.9,0.6-0.9,1.4c0,0.6,0.2,1.6,1,1.6c0.7,0,0.9-0.6,0.9-1.5C13.5,94.9,13.2,94.2,12.5,94.2z"/>
	<path fill="#231F20" d="M19.2,94.3c-0.1,0-0.2,0.1-0.2,0.1c-0.1,0.1-0.1,0.2-0.3,0.6c-0.2,0.6-0.8,1.8-1,2.5c0,0-0.1,0-0.2,0
		c-0.1,0-0.1,0-0.1,0c-0.1-0.1-0.1-0.3-0.2-0.4L17,96.5c-0.1-0.2-0.1-0.3-0.2-0.4c0,0.1-0.1,0.2-0.2,0.3l-0.2,0.5
		c-0.1,0.2-0.1,0.3-0.2,0.5c0,0-0.1,0-0.2,0c-0.1,0-0.1,0-0.1,0c-0.1-0.2-0.3-0.7-0.5-1l-0.8-1.8c-0.1-0.3-0.2-0.3-0.3-0.4l-0.1,0
		c0-0.1,0-0.2,0-0.2c0.2,0,0.4,0,0.7,0c0.2,0,0.4,0,0.6,0c0,0,0.1,0.1,0,0.2l-0.1,0c-0.1,0-0.1,0-0.1,0.1s0.1,0.3,0.3,0.6l0.5,1.1
		c0.1,0.3,0.2,0.5,0.3,0.6c0.1-0.1,0.2-0.3,0.3-0.5l0.1-0.1c0-0.1,0-0.1,0-0.2c0,0,0-0.1-0.1-0.2l-0.5-1.1c-0.1-0.2-0.2-0.3-0.3-0.3
		l0,0c0,0,0-0.2,0-0.2c0.2,0,0.4,0,0.6,0c0.3,0,0.4,0,0.6,0c0.1,0,0.1,0.2,0,0.2l-0.1,0c-0.1,0-0.1,0-0.1,0.1c0,0,0,0.1,0,0.2
		l0.2,0.3c0,0.1,0.1,0.2,0.2,0.3l0.2-0.3l0-0.1c0.1-0.2,0.1-0.3,0.1-0.4c0,0,0,0-0.1-0.1l-0.2,0c0,0,0-0.2,0-0.2c0.1,0,0.3,0,0.5,0
		c0.2,0,0.4,0,0.5,0c0,0,0,0.1,0,0.2l-0.1,0c-0.2,0-0.2,0-0.4,0.3c-0.1,0.2-0.2,0.5-0.3,0.6c0,0.1-0.1,0.2-0.1,0.3c0,0,0,0,0,0.1
		l0.2,0.5c0.1,0.3,0.2,0.4,0.2,0.5c0.2-0.6,0.5-1.2,0.8-1.8c0-0.1,0.1-0.4,0.1-0.4c0,0-0.1-0.1-0.1-0.1l-0.1,0c0,0,0-0.2,0-0.2
		c0.2,0,0.4,0,0.5,0c0.2,0,0.3,0,0.5,0c0,0,0,0.1,0,0.2L19.2,94.3z"/>
	<path fill="#231F20" d="M21.9,98.1C21.9,98.1,21.9,98.2,21.9,98.1c-0.9-0.3-1.2-1.2-1.2-2.1c0-0.9,0.4-1.7,1.1-2.2
		c0.1,0,0.1,0,0.1,0.1c-0.5,0.5-0.7,1.3-0.7,2.1S21.4,97.6,21.9,98.1z"/>
	<path fill="#231F20" d="M24.4,95.8c0,0.8-0.3,1.6-1.2,1.6s-1.2-0.8-1.2-1.6c0-0.8,0.3-1.6,1.2-1.6S24.4,95,24.4,95.8z M23.3,97.2
		c0.4,0,0.4-1,0.4-1.4s0-1.4-0.4-1.4c-0.4,0-0.4,1-0.4,1.4S22.9,97.2,23.3,97.2z"/>
	<path fill="#231F20" d="M25.8,95.5c0,0-0.1-0.2,0-0.2c0.2,0,0.4,0,0.6,0c0.2,0,0.4,0,0.6,0c0,0,0,0.1,0,0.2l-0.1,0
		c-0.1,0-0.1,0-0.1,0.1c0,0,0,0.1,0,0.2c0.1,0.3,0.2,0.5,0.3,0.8c0.1-0.3,0.2-0.5,0.3-0.8c0,0,0-0.1,0-0.1c0,0,0,0-0.1-0.1l-0.1,0
		c0,0,0-0.2,0-0.2c0.2,0,0.3,0,0.4,0c0.2,0,0.3,0,0.4,0c0.1,0,0,0.1,0,0.2l-0.1,0c-0.2,0-0.2,0.1-0.3,0.3c-0.3,0.5-0.5,1.1-0.7,1.6
		c0,0-0.1,0-0.1,0c0,0-0.1,0-0.1,0c-0.3-0.6-0.4-0.9-0.7-1.5c-0.1-0.2-0.2-0.3-0.3-0.3L25.8,95.5z"/>
	<path fill="#231F20" d="M28,96.4c0-0.7,0.6-1.1,1.2-1.1s1.1,0.4,1.1,1.1c0,0.7-0.5,1.1-1.2,1.1C28.6,97.4,28,97.1,28,96.4z
		 M28.8,96.3c0,0.5,0.2,0.9,0.5,0.9c0.3,0,0.4-0.3,0.4-0.8c0-0.5-0.1-0.9-0.4-0.9C28.9,95.5,28.8,95.8,28.8,96.3z"/>
	<path fill="#231F20" d="M30.8,94.6c0-0.2,0-0.3-0.1-0.3l-0.1-0.1c0,0,0-0.1,0-0.1c0.2-0.1,0.5-0.2,0.8-0.3c0,0,0.1,0,0.1,0
		c0,0.2,0,0.4,0,0.7v2.2c0,0.3,0,0.4,0.2,0.4l0.1,0c0,0,0,0.1,0,0.2c-0.2,0-0.4,0-0.6,0c-0.2,0-0.4,0-0.6,0c0,0,0-0.1,0-0.2l0.1,0
		c0.2,0,0.2-0.1,0.2-0.4V94.6z"/>
	<path fill="#231F20" d="M33,95.6c-0.1,0-0.1,0-0.1,0.1v0.8c0,0.3,0,0.6,0.3,0.6c0.1,0,0.2,0,0.2-0.1c0,0,0.1,0.1,0.1,0.1
		c-0.1,0.2-0.4,0.3-0.7,0.3c-0.4,0-0.6-0.2-0.6-0.6v-1.1c0-0.1,0-0.1-0.1-0.1H32c-0.1,0-0.1-0.1,0-0.2c0.2-0.1,0.3-0.1,0.4-0.2
		c0.1-0.1,0.2-0.2,0.4-0.4c0,0,0.1,0,0.2,0v0.4c0,0.1,0,0.1,0.1,0.1h0.4c0,0,0,0,0,0.1c0,0.1,0,0.1-0.1,0.2H33z"/>
	<path fill="#231F20" d="M33.7,97.3c-0.1-0.1-0.1-0.3-0.1-0.6c0-0.1,0.1-0.1,0.2,0c0.1,0.2,0.3,0.5,0.5,0.5c0.2,0,0.3-0.1,0.3-0.3
		c0-0.2-0.2-0.3-0.3-0.4c-0.3-0.2-0.5-0.3-0.5-0.6c0-0.4,0.4-0.6,0.8-0.6c0.3,0,0.5,0.1,0.5,0.1c0,0.1,0.1,0.3,0.1,0.5
		c0,0.1-0.1,0.1-0.2,0c-0.1-0.3-0.2-0.4-0.4-0.4c-0.1,0-0.3,0.1-0.3,0.2c0,0.1,0.1,0.2,0.3,0.3c0.3,0.2,0.6,0.4,0.6,0.7
		c0,0.4-0.4,0.7-0.9,0.7C34,97.4,33.8,97.4,33.7,97.3z"/>
	<path fill="#231F20" d="M35.3,94C35.3,93.9,35.3,93.9,35.3,94c0.9,0.3,1.2,1.2,1.2,2.1c0,0.9-0.4,1.7-1.1,2.2c-0.1,0-0.1,0-0.1-0.1
		c0.5-0.5,0.7-1.3,0.7-2.1S35.8,94.4,35.3,94z"/>
</g>
<g enable-background="new    ">
	<path fill="#231F20" d="M7.4,76c-0.2,0-0.2,0-0.2,0.1v0.7c0,0.5,0,0.5,0.3,0.5l0.2,0c0,0,0,0.1,0,0.2c-0.3,0-0.5,0-0.8,0
		c-0.2,0-0.5,0-0.7,0c0,0,0-0.1,0-0.2l0.1,0c0.2,0,0.3-0.1,0.3-0.5V75c0-0.5,0-0.5-0.3-0.5l-0.1,0c0,0,0-0.1,0-0.2
		c0.2,0,0.5,0,0.7,0c0.2,0,0.5,0,0.7,0c0,0,0,0.1,0,0.2l-0.1,0c-0.2,0-0.2,0.1-0.2,0.5v0.6c0,0.1,0,0.2,0.2,0.2h1
		c0.2,0,0.2,0,0.2-0.2V75c0-0.5,0-0.5-0.3-0.5l-0.1,0c0,0,0-0.1,0-0.2c0.3,0,0.5,0,0.8,0c0.2,0,0.5,0,0.7,0c0,0,0,0.1,0,0.2l-0.1,0
		c-0.2,0-0.3,0.1-0.3,0.5v1.9c0,0.5,0,0.5,0.3,0.5l0.1,0c0,0,0,0.1,0,0.2c-0.2,0-0.5,0-0.7,0c-0.3,0-0.5,0-0.7,0c0,0,0-0.1,0-0.2
		l0.1,0c0.2,0,0.3-0.1,0.3-0.5v-0.7c0-0.1,0-0.1-0.2-0.1H7.4z"/>
	<path fill="#231F20" d="M11.2,76.8c0,0.5,0,0.5,0.3,0.5l0.1,0c0,0,0,0.1,0,0.2c-0.3,0-0.5,0-0.8,0c-0.2,0-0.5,0-0.8,0
		c0,0,0-0.1,0-0.2l0.1,0c0.2,0,0.3-0.1,0.3-0.5V75c0-0.5,0-0.5-0.3-0.5l-0.1,0c0,0,0-0.1,0-0.2c0.3,0,0.5,0,0.8,0c0.2,0,0.5,0,0.8,0
		c0,0,0,0.1,0,0.2l-0.1,0c-0.2,0-0.3,0.1-0.3,0.5V76.8z"/>
	<path fill="#231F20" d="M15.1,77c0,0.2,0,0.3,0.1,0.3c0,0,0,0.1,0,0.1c-0.1,0-0.2,0-0.4,0.1c-0.2,0.1-0.6,0.1-0.9,0.1
		c-0.3,0-0.6,0-1-0.2c-0.6-0.2-1-0.8-1-1.5c0-0.6,0.3-1.2,0.9-1.5c0.3-0.2,0.7-0.3,1.2-0.3c0.6,0,0.8,0.1,1,0.1c0,0.2,0,0.5,0.1,0.8
		c0,0.1-0.2,0.1-0.2,0c-0.2-0.5-0.5-0.7-0.9-0.7c-0.8,0-1.2,0.7-1.2,1.5c0,0.7,0.2,1.1,0.6,1.4c0.2,0.2,0.5,0.2,0.7,0.2
		c0.3,0,0.3-0.1,0.3-0.4v-0.3c0-0.3,0-0.3-0.3-0.3l-0.2,0c-0.1,0-0.1-0.1,0-0.2c0.4,0,0.6,0,0.8,0c0.2,0,0.5,0,0.7,0
		c0,0,0,0.1,0,0.2l-0.1,0c-0.2,0-0.2,0.1-0.2,0.3V77z"/>
	<path fill="#231F20" d="M17,76c-0.2,0-0.2,0-0.2,0.1v0.7c0,0.5,0,0.5,0.3,0.5l0.2,0c0,0,0,0.1,0,0.2c-0.3,0-0.5,0-0.8,0
		c-0.2,0-0.5,0-0.7,0c0,0,0-0.1,0-0.2l0.1,0c0.2,0,0.3-0.1,0.3-0.5V75c0-0.5,0-0.5-0.3-0.5l-0.1,0c0,0,0-0.1,0-0.2
		c0.2,0,0.5,0,0.7,0c0.2,0,0.5,0,0.7,0c0,0,0,0.1,0,0.2l-0.1,0c-0.2,0-0.2,0.1-0.2,0.5v0.6c0,0.1,0,0.2,0.2,0.2h1
		c0.2,0,0.2,0,0.2-0.2V75c0-0.5,0-0.5-0.3-0.5l-0.1,0c0,0,0-0.1,0-0.2c0.3,0,0.5,0,0.8,0c0.2,0,0.5,0,0.7,0c0,0,0,0.1,0,0.2l-0.1,0
		c-0.2,0-0.3,0.1-0.3,0.5v1.9c0,0.5,0,0.5,0.3,0.5l0.1,0c0,0,0,0.1,0,0.2c-0.2,0-0.5,0-0.7,0c-0.3,0-0.5,0-0.7,0c0,0,0-0.1,0-0.2
		l0.1,0c0.2,0,0.3-0.1,0.3-0.5v-0.7c0-0.1,0-0.1-0.2-0.1H17z"/>
	<path fill="#231F20" d="M22.3,78.3C22.3,78.3,22.3,78.4,22.3,78.3c-0.9-0.3-1.2-1.2-1.2-2.1c0-0.9,0.4-1.7,1.1-2.2
		c0.1,0,0.1,0,0.1,0.1c-0.5,0.5-0.7,1.3-0.7,2.1S21.8,77.8,22.3,78.3z"/>
	<path fill="#231F20" d="M24.5,74.3C24.6,74.3,24.6,74.3,24.5,74.3c0,0.2-0.1,0.5-0.2,0.6L23.2,75c-0.1,0-0.1,0.1-0.1,0.1l0,0.1
		c0,0.1,0,0.1,0.1,0.1c0.3,0,0.7,0.1,1,0.2c0.3,0.1,0.5,0.4,0.5,0.8c0,0.5-0.3,0.9-0.7,1.1s-0.9,0.3-1.4,0.3c-0.1,0-0.1-0.2,0-0.2
		c0.4,0,0.8-0.1,1-0.2c0.3-0.2,0.5-0.4,0.5-0.7c0-0.7-0.8-0.8-1.3-0.8c-0.2,0-0.2-0.1-0.1-0.2l0.3-1.2c0-0.1,0.1-0.1,0.2-0.2
		L24.5,74.3z"/>
	<path fill="#231F20" d="M26.2,75.7c0,0-0.1-0.2,0-0.2c0.2,0,0.4,0,0.6,0c0.2,0,0.4,0,0.6,0c0,0,0,0.1,0,0.2l-0.1,0
		c-0.1,0-0.1,0-0.1,0.1c0,0,0,0.1,0,0.2c0.1,0.3,0.2,0.5,0.3,0.8c0.1-0.3,0.2-0.5,0.3-0.8c0,0,0-0.1,0-0.1c0,0,0,0-0.1-0.1l-0.1,0
		c0,0,0-0.2,0-0.2c0.2,0,0.3,0,0.4,0c0.2,0,0.3,0,0.4,0c0.1,0,0,0.1,0,0.2l-0.1,0c-0.2,0-0.2,0.1-0.3,0.3c-0.3,0.5-0.5,1.1-0.7,1.6
		c0,0-0.1,0-0.1,0c0,0-0.1,0-0.1,0c-0.3-0.6-0.4-0.9-0.7-1.5c-0.1-0.2-0.2-0.3-0.3-0.3L26.2,75.7z"/>
	<path fill="#231F20" d="M28.4,76.6c0-0.7,0.6-1.1,1.2-1.1c0.6,0,1.1,0.4,1.1,1.1c0,0.7-0.5,1.1-1.2,1.1
		C29,77.6,28.5,77.3,28.4,76.6z M29.2,76.5c0,0.5,0.2,0.9,0.5,0.9c0.3,0,0.4-0.3,0.4-0.8c0-0.5-0.1-0.9-0.4-0.9
		C29.3,75.7,29.2,76,29.2,76.5z"/>
	<path fill="#231F20" d="M31.3,74.8c0-0.2,0-0.3-0.1-0.3l-0.1-0.1c0,0,0-0.1,0-0.1c0.2-0.1,0.5-0.2,0.8-0.3c0,0,0.1,0,0.1,0
		c0,0.2,0,0.4,0,0.7V77c0,0.3,0,0.4,0.2,0.4l0.1,0c0,0,0,0.1,0,0.2c-0.2,0-0.4,0-0.6,0c-0.2,0-0.4,0-0.6,0c0,0,0-0.1,0-0.2l0.1,0
		c0.2,0,0.2-0.1,0.2-0.4V74.8z"/>
	<path fill="#231F20" d="M33.4,75.8c-0.1,0-0.1,0-0.1,0.1v0.8c0,0.3,0,0.6,0.4,0.6c0.1,0,0.2,0,0.2-0.1c0,0,0.1,0.1,0.1,0.1
		c-0.1,0.2-0.4,0.3-0.7,0.3c-0.4,0-0.6-0.2-0.6-0.6V76c0-0.1,0-0.1-0.1-0.1h-0.2c-0.1,0-0.1-0.1,0-0.2c0.2-0.1,0.3-0.1,0.4-0.2
		c0.1-0.1,0.2-0.2,0.4-0.4c0,0,0.1,0,0.1,0v0.4c0,0.1,0,0.1,0.1,0.1h0.4c0,0,0,0,0,0.1c0,0.1,0,0.1-0.1,0.2H33.4z"/>
	<path fill="#231F20" d="M34.1,77.5C34,77.4,34,77.2,34,76.9c0-0.1,0.1-0.1,0.2,0c0.1,0.2,0.3,0.5,0.5,0.5c0.1,0,0.3-0.1,0.3-0.3
		c0-0.2-0.2-0.3-0.3-0.4c-0.3-0.2-0.5-0.3-0.5-0.6c0-0.4,0.4-0.6,0.8-0.6c0.3,0,0.5,0.1,0.5,0.1c0.1,0.1,0.1,0.3,0.1,0.5
		c0,0.1-0.1,0.1-0.2,0c-0.1-0.3-0.2-0.4-0.4-0.4c-0.1,0-0.3,0.1-0.3,0.2c0,0.1,0.1,0.2,0.3,0.3c0.3,0.2,0.6,0.4,0.6,0.7
		c0,0.4-0.4,0.7-0.9,0.7C34.4,77.6,34.2,77.6,34.1,77.5z"/>
	<path fill="#231F20" d="M35.7,74.2C35.7,74.1,35.7,74.1,35.7,74.2c0.9,0.3,1.2,1.2,1.2,2.1c0,0.9-0.4,1.7-1.1,2.2
		c-0.1,0-0.1,0-0.1-0.1c0.5-0.5,0.7-1.3,0.7-2.1S36.3,74.6,35.7,74.2z"/>
</g>
<line fill="none" stroke="#00A651" stroke-width="1.028" stroke-miterlimit="10" x1="43.7" y1="96" x2="39.7" y2="96"/>
<polygon fill="#00A651" points="47.1,96 42.3,94 43.4,96 42.3,97.9 "/>
<line fill="none" stroke="#00A651" stroke-width="1.028" stroke-miterlimit="10" x1="48.7" y1="76.5" x2="39.7" y2="76.5"/>
<polygon fill="#00A651" points="52.2,76.5 47.4,74.6 48.5,76.5 47.4,78.5 "/>
<g enable-background="new    ">
	<path fill="#231F20" d="M9.1,150c0,0.2,0,0.4,0.1,0.5c0.1,0.1,0.2,0.1,0.5,0.1c0.5,0,0.6,0,0.9-0.6c0,0,0.2,0,0.2,0
		c0,0.3-0.1,0.7-0.2,0.8c-0.3,0-0.7,0-1.2,0H8.8c-0.2,0-0.5,0-0.8,0c0,0-0.1-0.1,0-0.2l0.2,0c0.2,0,0.3-0.1,0.3-0.5v-1.9
		c0-0.5,0-0.5-0.3-0.5l-0.1,0c0,0,0-0.1,0-0.2c0.3,0,0.5,0,0.8,0s0.5,0,0.7,0c0,0,0,0.1,0,0.2l-0.1,0c-0.2,0-0.3,0.1-0.3,0.5V150z"
		/>
	<path fill="#231F20" d="M14.3,149.1c0,1.1-0.7,1.7-1.8,1.7c-1,0-1.7-0.7-1.7-1.7c0-1,0.7-1.8,1.8-1.8
		C13.6,147.4,14.3,148.1,14.3,149.1z M12.5,147.6c-0.6,0-0.9,0.6-0.9,1.4c0,0.6,0.2,1.6,1,1.6c0.7,0,0.9-0.6,0.9-1.5
		C13.5,148.3,13.2,147.6,12.5,147.6z"/>
	<path fill="#231F20" d="M19.2,147.7c-0.1,0-0.2,0.1-0.2,0.1c-0.1,0.1-0.1,0.2-0.3,0.6c-0.2,0.6-0.8,1.8-1,2.5c0,0-0.1,0-0.2,0
		c-0.1,0-0.1,0-0.1,0c-0.1-0.1-0.1-0.3-0.2-0.4l-0.2-0.5c-0.1-0.2-0.1-0.3-0.2-0.4c0,0.1-0.1,0.2-0.2,0.3l-0.2,0.5
		c-0.1,0.2-0.1,0.3-0.2,0.5c0,0-0.1,0-0.2,0c-0.1,0-0.1,0-0.1,0c-0.1-0.2-0.3-0.7-0.5-1l-0.8-1.8c-0.1-0.3-0.2-0.3-0.3-0.4l-0.1,0
		c0-0.1,0-0.2,0-0.2c0.2,0,0.4,0,0.7,0c0.2,0,0.4,0,0.6,0c0,0,0.1,0.1,0,0.2l-0.1,0c-0.1,0-0.1,0-0.1,0.1s0.1,0.3,0.3,0.6l0.5,1.1
		c0.1,0.3,0.2,0.5,0.3,0.6c0.1-0.1,0.2-0.3,0.3-0.5l0.1-0.1c0-0.1,0-0.1,0-0.2c0,0,0-0.1-0.1-0.2l-0.5-1.1c-0.1-0.2-0.2-0.3-0.3-0.3
		l0,0c0,0,0-0.2,0-0.2c0.2,0,0.4,0,0.6,0c0.3,0,0.4,0,0.6,0c0.1,0,0.1,0.2,0,0.2l-0.1,0c-0.1,0-0.1,0-0.1,0.1c0,0,0,0.1,0,0.2
		l0.2,0.3c0,0.1,0.1,0.2,0.2,0.3l0.2-0.3l0-0.1c0.1-0.2,0.1-0.3,0.1-0.4c0,0,0,0-0.1-0.1l-0.2,0c0,0,0-0.2,0-0.2c0.1,0,0.3,0,0.5,0
		c0.2,0,0.4,0,0.5,0c0,0,0.1,0.1,0,0.2l-0.1,0c-0.2,0-0.2,0-0.4,0.3c-0.1,0.2-0.2,0.5-0.3,0.6c0,0.1-0.1,0.2-0.1,0.3c0,0,0,0,0,0.1
		l0.2,0.5c0.1,0.3,0.2,0.4,0.2,0.5c0.2-0.6,0.5-1.2,0.8-1.8c0-0.1,0.1-0.4,0.1-0.4c0,0-0.1-0.1-0.1-0.1l-0.1,0c0,0,0-0.2,0-0.2
		c0.2,0,0.4,0,0.5,0c0.2,0,0.3,0,0.5,0c0,0,0,0.1,0,0.2L19.2,147.7z"/>
	<path fill="#231F20" d="M21.9,151.5C21.9,151.6,21.9,151.6,21.9,151.5c-0.9-0.3-1.2-1.2-1.2-2.1c0-0.9,0.4-1.7,1.1-2.2
		c0.1,0,0.1,0,0.1,0.1c-0.5,0.5-0.7,1.3-0.7,2.1S21.4,151,21.9,151.5z"/>
	<path fill="#231F20" d="M24.4,149.2c0,0.8-0.3,1.6-1.2,1.6s-1.2-0.8-1.2-1.6c0-0.8,0.3-1.6,1.2-1.6S24.4,148.4,24.4,149.2z
		 M23.3,150.6c0.4,0,0.4-1,0.4-1.4s0-1.4-0.4-1.4c-0.4,0-0.4,1-0.4,1.4S22.9,150.6,23.3,150.6z"/>
	<path fill="#231F20" d="M25.8,148.9c0,0,0-0.2,0-0.2c0.2,0,0.4,0,0.6,0c0.2,0,0.4,0,0.6,0c0,0,0,0.1,0,0.2l-0.1,0
		c-0.1,0-0.1,0-0.1,0.1c0,0,0,0.1,0,0.2c0.1,0.3,0.2,0.5,0.3,0.8c0.1-0.3,0.2-0.5,0.3-0.8c0,0,0-0.1,0-0.1c0,0,0,0-0.1-0.1l-0.1,0
		c0,0,0-0.2,0-0.2c0.2,0,0.3,0,0.4,0c0.2,0,0.3,0,0.4,0c0.1,0,0,0.1,0,0.2l-0.1,0c-0.2,0-0.2,0.1-0.3,0.3c-0.3,0.5-0.5,1.1-0.7,1.6
		c0,0-0.1,0-0.1,0c0,0-0.1,0-0.1,0c-0.3-0.6-0.4-0.9-0.7-1.5C26,149,26,149,25.9,149L25.8,148.9z"/>
	<path fill="#231F20" d="M28,149.8c0-0.7,0.6-1.1,1.2-1.1c0.6,0,1.1,0.4,1.1,1.1c0,0.7-0.5,1.1-1.2,1.1
		C28.6,150.9,28,150.5,28,149.8z M28.8,149.7c0,0.5,0.2,0.9,0.5,0.9c0.3,0,0.4-0.3,0.4-0.8c0-0.5-0.1-0.9-0.4-0.9
		C28.9,148.9,28.8,149.2,28.8,149.7z"/>
	<path fill="#231F20" d="M30.8,148c0-0.2,0-0.3-0.1-0.3l-0.1-0.1c0,0,0-0.1,0-0.1c0.2-0.1,0.5-0.2,0.8-0.3c0,0,0.1,0,0.1,0
		c0,0.2,0,0.4,0,0.7v2.2c0,0.3,0,0.4,0.2,0.4l0.1,0c0,0,0,0.1,0,0.2c-0.2,0-0.4,0-0.6,0c-0.2,0-0.4,0-0.6,0c0,0,0-0.1,0-0.2l0.1,0
		c0.2,0,0.2-0.1,0.2-0.4V148z"/>
	<path fill="#231F20" d="M33,149.1c-0.1,0-0.1,0-0.1,0.1v0.8c0,0.3,0,0.6,0.4,0.6c0.1,0,0.2,0,0.2-0.1c0,0,0.1,0.1,0.1,0.1
		c-0.1,0.2-0.4,0.3-0.7,0.3c-0.4,0-0.6-0.2-0.6-0.6v-1.1c0-0.1,0-0.1-0.1-0.1H32c-0.1,0-0.1-0.1,0-0.2c0.2-0.1,0.3-0.1,0.4-0.2
		c0.1-0.1,0.2-0.2,0.4-0.4c0,0,0.1,0,0.2,0v0.4c0,0.1,0,0.1,0.1,0.1h0.4c0,0,0,0,0,0.1c0,0.1,0,0.1-0.1,0.2H33z"/>
	<path fill="#231F20" d="M33.7,150.7c-0.1-0.1-0.1-0.3-0.1-0.6c0-0.1,0.1-0.1,0.2,0c0.1,0.2,0.3,0.5,0.5,0.5c0.1,0,0.3-0.1,0.3-0.3
		c0-0.2-0.2-0.3-0.3-0.4c-0.3-0.2-0.5-0.3-0.5-0.6c0-0.4,0.4-0.6,0.8-0.6c0.3,0,0.5,0.1,0.5,0.1c0.1,0.1,0.1,0.3,0.1,0.5
		c0,0.1-0.1,0.1-0.2,0c-0.1-0.3-0.2-0.4-0.4-0.4c-0.1,0-0.2,0.1-0.2,0.2c0,0.1,0.1,0.2,0.3,0.3c0.3,0.2,0.6,0.4,0.6,0.7
		c0,0.4-0.4,0.7-0.9,0.7C34,150.9,33.8,150.8,33.7,150.7z"/>
	<path fill="#231F20" d="M35.3,147.4C35.3,147.3,35.3,147.3,35.3,147.4c0.9,0.3,1.2,1.2,1.2,2.1c0,0.9-0.4,1.7-1.1,2.2
		c-0.1,0-0.1,0-0.1-0.1c0.5-0.5,0.7-1.3,0.7-2.1S35.8,147.9,35.3,147.4z"/>
</g>
<g enable-background="new    ">
	<path fill="#231F20" d="M7.4,129.4c-0.2,0-0.2,0-0.2,0.1v0.7c0,0.5,0,0.5,0.3,0.5l0.2,0c0,0,0,0.1,0,0.2c-0.3,0-0.5,0-0.8,0
		c-0.2,0-0.5,0-0.7,0c0,0,0-0.1,0-0.2l0.1,0c0.2,0,0.3-0.1,0.3-0.5v-1.9c0-0.5,0-0.5-0.3-0.5l-0.1,0c0,0,0-0.1,0-0.2
		c0.2,0,0.5,0,0.7,0c0.2,0,0.5,0,0.7,0c0,0,0,0.1,0,0.2l-0.1,0c-0.2,0-0.2,0.1-0.2,0.5v0.6c0,0.1,0,0.2,0.2,0.2h1
		c0.2,0,0.2,0,0.2-0.2v-0.6c0-0.5,0-0.5-0.3-0.5l-0.1,0c0,0,0-0.1,0-0.2c0.3,0,0.5,0,0.8,0c0.2,0,0.5,0,0.7,0c0,0,0,0.1,0,0.2
		l-0.1,0c-0.2,0-0.3,0.1-0.3,0.5v1.9c0,0.5,0,0.5,0.3,0.5l0.1,0c0,0,0,0.1,0,0.2c-0.2,0-0.5,0-0.7,0c-0.3,0-0.5,0-0.7,0
		c0,0,0-0.1,0-0.2l0.1,0c0.2,0,0.3-0.1,0.3-0.5v-0.7c0-0.1,0-0.1-0.2-0.1H7.4z"/>
	<path fill="#231F20" d="M11.2,130.3c0,0.5,0,0.5,0.3,0.5l0.1,0c0,0,0,0.1,0,0.2c-0.3,0-0.5,0-0.8,0c-0.2,0-0.5,0-0.8,0
		c0,0,0-0.1,0-0.2l0.1,0c0.2,0,0.3-0.1,0.3-0.5v-1.8c0-0.5,0-0.5-0.3-0.5l-0.1,0c0,0,0-0.1,0-0.2c0.3,0,0.5,0,0.8,0
		c0.2,0,0.5,0,0.8,0c0,0,0,0.1,0,0.2l-0.1,0c-0.2,0-0.3,0.1-0.3,0.5V130.3z"/>
	<path fill="#231F20" d="M15.1,130.4c0,0.2,0,0.3,0.1,0.3c0,0,0,0.1,0,0.1c-0.1,0-0.2,0-0.4,0.1c-0.2,0.1-0.6,0.1-0.9,0.1
		c-0.3,0-0.6,0-1-0.2c-0.6-0.2-1-0.8-1-1.5c0-0.6,0.3-1.2,0.9-1.5c0.3-0.2,0.7-0.3,1.2-0.3c0.6,0,0.8,0.1,1,0.1c0,0.2,0,0.5,0.1,0.8
		c0,0.1-0.2,0.1-0.2,0c-0.2-0.5-0.5-0.7-0.9-0.7c-0.8,0-1.2,0.7-1.2,1.5c0,0.7,0.2,1.1,0.6,1.4c0.2,0.2,0.5,0.2,0.7,0.2
		c0.3,0,0.3-0.1,0.3-0.4v-0.3c0-0.3,0-0.3-0.3-0.3l-0.2,0c-0.1,0-0.1-0.1,0-0.2c0.4,0,0.6,0,0.8,0c0.2,0,0.5,0,0.7,0
		c0,0,0,0.1,0,0.2l-0.1,0c-0.2,0-0.2,0.1-0.2,0.3V130.4z"/>
	<path fill="#231F20" d="M17,129.4c-0.2,0-0.2,0-0.2,0.1v0.7c0,0.5,0,0.5,0.3,0.5l0.2,0c0,0,0,0.1,0,0.2c-0.3,0-0.5,0-0.8,0
		c-0.2,0-0.5,0-0.7,0c0,0,0-0.1,0-0.2l0.1,0c0.2,0,0.3-0.1,0.3-0.5v-1.9c0-0.5,0-0.5-0.3-0.5l-0.1,0c0,0,0-0.1,0-0.2
		c0.2,0,0.5,0,0.7,0c0.2,0,0.5,0,0.7,0c0,0,0,0.1,0,0.2l-0.1,0c-0.2,0-0.2,0.1-0.2,0.5v0.6c0,0.1,0,0.2,0.2,0.2h1
		c0.2,0,0.2,0,0.2-0.2v-0.6c0-0.5,0-0.5-0.3-0.5l-0.1,0c0,0,0-0.1,0-0.2c0.3,0,0.5,0,0.8,0c0.2,0,0.5,0,0.7,0c0,0,0,0.1,0,0.2
		l-0.1,0c-0.2,0-0.3,0.1-0.3,0.5v1.9c0,0.5,0,0.5,0.3,0.5l0.1,0c0,0,0,0.1,0,0.2c-0.2,0-0.5,0-0.7,0c-0.3,0-0.5,0-0.7,0
		c0,0,0-0.1,0-0.2l0.1,0c0.2,0,0.3-0.1,0.3-0.5v-0.7c0-0.1,0-0.1-0.2-0.1H17z"/>
	<path fill="#231F20" d="M22.3,131.7C22.3,131.8,22.3,131.8,22.3,131.7c-0.9-0.3-1.2-1.2-1.2-2.1c0-0.9,0.4-1.7,1.1-2.2
		c0.1,0,0.1,0,0.1,0.1c-0.5,0.5-0.7,1.3-0.7,2.1S21.8,131.2,22.3,131.7z"/>
	<path fill="#231F20" d="M24.5,127.7C24.6,127.7,24.6,127.7,24.5,127.7c0,0.2-0.1,0.5-0.2,0.6l-1.1,0.1c-0.1,0-0.1,0.1-0.1,0.1
		l0,0.1c0,0.1,0,0.1,0.1,0.1c0.3,0,0.7,0.1,1,0.2c0.3,0.1,0.5,0.4,0.5,0.8c0,0.5-0.3,0.9-0.7,1.1s-0.9,0.3-1.4,0.3
		c-0.1,0-0.1-0.2,0-0.2c0.4,0,0.8-0.1,1-0.2c0.3-0.2,0.5-0.4,0.5-0.7c0-0.7-0.8-0.8-1.3-0.8c-0.2,0-0.2-0.1-0.1-0.2L23,128
		c0-0.1,0.1-0.1,0.2-0.2L24.5,127.7z"/>
	<path fill="#231F20" d="M26.2,129.1c0,0-0.1-0.2,0-0.2c0.2,0,0.4,0,0.6,0c0.2,0,0.4,0,0.6,0c0,0,0,0.1,0,0.2l-0.1,0
		c-0.1,0-0.1,0-0.1,0.1c0,0,0,0.1,0,0.2c0.1,0.3,0.2,0.5,0.3,0.8c0.1-0.3,0.2-0.5,0.3-0.8c0,0,0-0.1,0-0.1c0,0,0,0-0.1-0.1l-0.1,0
		c0,0,0-0.2,0-0.2c0.2,0,0.3,0,0.4,0c0.2,0,0.3,0,0.4,0c0.1,0,0,0.1,0,0.2l-0.1,0c-0.2,0-0.2,0.1-0.3,0.3c-0.3,0.5-0.5,1.1-0.7,1.6
		c0,0-0.1,0-0.1,0c0,0-0.1,0-0.1,0c-0.3-0.6-0.4-0.9-0.7-1.5c-0.1-0.2-0.2-0.3-0.3-0.3L26.2,129.1z"/>
	<path fill="#231F20" d="M28.4,130c0-0.7,0.6-1.1,1.2-1.1c0.6,0,1.1,0.4,1.1,1.1c0,0.7-0.5,1.1-1.2,1.1
		C29,131.1,28.5,130.7,28.4,130z M29.2,129.9c0,0.5,0.2,0.9,0.5,0.9c0.3,0,0.4-0.3,0.4-0.8c0-0.5-0.1-0.9-0.4-0.9
		C29.3,129.1,29.2,129.4,29.2,129.9z"/>
	<path fill="#231F20" d="M31.3,128.2c0-0.2,0-0.3-0.1-0.3l-0.1-0.1c0,0,0-0.1,0-0.1c0.2-0.1,0.5-0.2,0.8-0.3c0,0,0.1,0,0.1,0
		c0,0.2,0,0.4,0,0.7v2.2c0,0.3,0,0.4,0.2,0.4l0.1,0c0,0,0,0.1,0,0.2c-0.2,0-0.4,0-0.6,0c-0.2,0-0.4,0-0.6,0c0,0,0-0.1,0-0.2l0.1,0
		c0.2,0,0.2-0.1,0.2-0.4V128.2z"/>
	<path fill="#231F20" d="M33.4,129.3c-0.1,0-0.1,0-0.1,0.1v0.8c0,0.3,0,0.6,0.4,0.6c0.1,0,0.2,0,0.2-0.1c0,0,0.1,0.1,0.1,0.1
		c-0.1,0.2-0.4,0.3-0.7,0.3c-0.4,0-0.6-0.2-0.6-0.6v-1.1c0-0.1,0-0.1-0.1-0.1h-0.2c-0.1,0-0.1-0.1,0-0.2c0.2-0.1,0.3-0.1,0.4-0.2
		c0.1-0.1,0.2-0.2,0.4-0.4c0,0,0.1,0,0.1,0v0.4c0,0.1,0,0.1,0.1,0.1h0.4c0,0,0,0,0,0.1c0,0.1,0,0.1-0.1,0.2H33.4z"/>
	<path fill="#231F20" d="M34.1,130.9c-0.1-0.1-0.1-0.3-0.1-0.6c0-0.1,0.1-0.1,0.2,0c0.1,0.2,0.3,0.5,0.5,0.5c0.1,0,0.3-0.1,0.3-0.3
		c0-0.2-0.2-0.3-0.3-0.4c-0.3-0.2-0.5-0.3-0.5-0.6c0-0.4,0.4-0.6,0.8-0.6c0.3,0,0.5,0.1,0.5,0.1c0.1,0.1,0.1,0.3,0.1,0.5
		c0,0.1-0.1,0.1-0.2,0c-0.1-0.3-0.2-0.4-0.4-0.4c-0.1,0-0.3,0.1-0.3,0.2c0,0.1,0.1,0.2,0.3,0.3c0.3,0.2,0.6,0.4,0.6,0.7
		c0,0.4-0.4,0.7-0.9,0.7C34.4,131.1,34.2,131,34.1,130.9z"/>
	<path fill="#231F20" d="M35.7,127.6C35.7,127.5,35.7,127.5,35.7,127.6c0.9,0.3,1.2,1.2,1.2,2.1c0,0.9-0.4,1.7-1.1,2.2
		c-0.1,0-0.1,0-0.1-0.1c0.5-0.5,0.7-1.3,0.7-2.1S36.3,128.1,35.7,127.6z"/>
</g>
<line fill="none" stroke="#00A651" stroke-width="1.028" stroke-miterlimit="10" x1="43.7" y1="149.4" x2="39.7" y2="149.4"/>
<polygon fill="#00A651" points="47.1,149.4 42.3,147.4 43.4,149.4 42.3,151.3 "/>
<line fill="none" stroke="#00A651" stroke-width="1.028" stroke-miterlimit="10" x1="48.7" y1="129.9" x2="39.7" y2="129.9"/>
<polygon fill="#00A651" points="52.2,129.9 47.4,128 48.5,129.9 47.4,131.9 "/>
<rect x="54.2" y="41.8" fill="#F1F1F2" width="11.3" height="13"/>
<g enable-background="new    ">
	<path fill="#231F20" d="M56.1,49.6c0,0.5,0,0.5,0.3,0.6l0.2,0c0.1,0,0,0.2,0,0.2c-0.2,0-0.6,0-1,0c-0.4,0-0.8,0-1,0
		c-0.1,0-0.1-0.2,0-0.2l0.2,0c0.3,0,0.3-0.1,0.3-0.6v-2c0-0.4,0-0.5-0.3-0.5l-0.3,0c-0.1,0-0.1-0.2,0-0.2c0.2,0,0.5-0.1,0.8-0.2
		c0.3-0.1,0.5-0.2,0.5-0.2c0,0,0.1,0,0.1,0.1c0,0.1,0,0.4,0,0.7V49.6z"/>
	<path fill="#231F20" d="M60.2,48.5c0,1-0.4,2-1.4,2s-1.4-1-1.4-2c0-0.9,0.4-2,1.4-2S60.2,47.5,60.2,48.5z M58.8,50.2
		c0.5,0,0.5-1.2,0.5-1.7c0-0.5-0.1-1.7-0.5-1.7s-0.5,1.2-0.5,1.7C58.3,49,58.4,50.2,58.8,50.2z"/>
	<path fill="#231F20" d="M60.7,47.7c0-0.5,0.3-1.2,1-1.2c0.7,0,1,0.7,1,1.2c0,0.5-0.3,1.2-1,1.2C60.9,48.9,60.7,48.2,60.7,47.7z
		 M61.7,48.6c0.3,0,0.4-0.6,0.4-0.9c0-0.3,0-0.9-0.4-0.9c-0.3,0-0.4,0.6-0.4,0.9C61.3,48,61.3,48.6,61.7,48.6z M61.8,50.5
		c0.8-1.4,1.5-2.7,2.2-4.1c0.1,0,0.2,0,0.3,0.1c-0.8,1.4-1.5,2.7-2.2,4.1C61.9,50.7,61.8,50.6,61.8,50.5z M63.5,49.3
		c0-0.5,0.3-1.2,1-1.2s1,0.7,1,1.2c0,0.5-0.3,1.2-1,1.2S63.5,49.8,63.5,49.3z M64.5,50.2c0.3,0,0.4-0.6,0.4-0.9s0-0.9-0.4-0.9
		c-0.3,0-0.4,0.6-0.4,0.9C64.1,49.6,64.1,50.2,64.5,50.2z"/>
</g>
<line fill="none" stroke="#231F20" stroke-width="0.25" stroke-miterlimit="10" x1="269.4" y1="62.8" x2="0.1" y2="62.8"/>
<line fill="none" stroke="#231F20" stroke-width="0.25" stroke-miterlimit="10" x1="269.4" y1="113.8" x2="0.1" y2="113.8"/>
<rect x="97.5" y="120.7" fill="#F1F1F2" width="4.6" height="8.6"/>
<g enable-background="new    ">
	<path fill="#231F20" d="M93.3,125.4c0,0.5,0,0.5,0.3,0.6l0.2,0c0.1,0,0,0.2,0,0.2c-0.2,0-0.6,0-1,0c-0.4,0-0.8,0-1,0
		c-0.1,0-0.1-0.2,0-0.2l0.2,0c0.3,0,0.3-0.1,0.3-0.6v-2c0-0.4,0-0.5-0.3-0.5l-0.3,0c-0.1,0-0.1-0.2,0-0.2c0.2,0,0.5-0.1,0.8-0.2
		c0.3-0.1,0.5-0.2,0.5-0.2c0,0,0.1,0,0.1,0.1c0,0.1,0,0.4,0,0.7V125.4z"/>
	<path fill="#231F20" d="M97.5,124.3c0,1-0.4,2-1.4,2c-1,0-1.4-1-1.4-2c0-0.9,0.4-2,1.4-2C97,122.3,97.5,123.4,97.5,124.3z
		 M96.1,126c0.5,0,0.5-1.2,0.5-1.7c0-0.5-0.1-1.7-0.5-1.7c-0.5,0-0.5,1.2-0.5,1.7C95.5,124.8,95.6,126,96.1,126z"/>
	<path fill="#231F20" d="M97.9,123.5c0-0.5,0.3-1.2,1-1.2c0.7,0,1,0.7,1,1.2c0,0.5-0.3,1.2-1,1.2C98.2,124.7,97.9,124,97.9,123.5z
		 M98.9,124.4c0.3,0,0.4-0.6,0.4-0.9c0-0.3,0-0.9-0.4-0.9c-0.3,0-0.4,0.6-0.4,0.9C98.5,123.8,98.6,124.4,98.9,124.4z M99,126.3
		c0.8-1.4,1.5-2.7,2.2-4.1c0.1,0,0.2,0,0.3,0.1c-0.8,1.4-1.5,2.7-2.2,4.1C99.2,126.5,99,126.4,99,126.3z M100.7,125.1
		c0-0.5,0.3-1.2,1-1.2s1,0.7,1,1.2c0,0.5-0.3,1.2-1,1.2S100.7,125.6,100.7,125.1z M101.7,126c0.3,0,0.4-0.6,0.4-0.9s0-0.9-0.4-0.9
		c-0.3,0-0.4,0.6-0.4,0.9C101.3,125.4,101.3,126,101.7,126z"/>
</g>
<polyline fill="none" stroke="#231F20" stroke-width="2.147" stroke-miterlimit="10" points="49.4,149.6 55.8,149.6 55.8,130.1 
	94.4,130.1 94.4,149.6 99.4,149.6 99.4,130.1 138,130.1 138,149.6 143,149.6 143,130.1 181.5,130.1 181.5,149.6 186.5,149.6 
	186.5,130.1 225.1,130.1 225.1,149.6 231.9,149.6 "/>
<polyline fill="none" stroke="#231F20" stroke-width="2.147" stroke-miterlimit="10" points="49.4,41.8 55.8,41.8 55.8,22.3 
	61.5,22.3 61.5,41.8 99.4,41.8 99.4,22.3 105.1,22.3 105.1,41.8 143,41.8 143,22.3 148.7,22.3 148.7,41.8 186.5,41.8 186.5,22.3 
	192.3,22.3 192.3,41.8 231.9,41.8 "/>
<rect x="0.1" y="0.1" fill="none" stroke="#231F20" stroke-width="0.25" stroke-miterlimit="10" width="269.3" height="174"/>
</svg>
