<?xml version="1.0" encoding="utf-8"?>
<!-- Generator: Adobe Illustrator 17.0.2, SVG Export Plug-In . SVG Version: 6.00 Build 0)  -->
<!DOCTYPE svg PUBLIC "-//W3C//DTD SVG 1.0//EN" "http://www.w3.org/TR/2001/REC-SVG-20010904/DTD/svg10.dtd">
<svg version="1.0" id="Layer_1" xmlns="http://www.w3.org/2000/svg" xmlns:xlink="http://www.w3.org/1999/xlink" x="0px" y="0px"
	 width="237.4px" height="36.3px" viewBox="0 0 237.4 36.3" enable-background="new 0 0 237.4 36.3" xml:space="preserve">
<rect x="57.1" y="0.1" fill="#E7E7E7" width="77.6" height="18"/>
<rect x="57.1" y="0.1" fill="none" stroke="#595A5C" stroke-width="0.179" width="77.6" height="18"/>
<g>
	<path fill="#231F20" d="M86.3,6.6c1.6,0,2.1,0.9,2.1,3.2c0,1.8-0.1,3.5-2.1,3.5c-1.6,0-2.1-0.9-2.1-3.2C84.3,8.3,84.4,6.6,86.3,6.6
		z M85.6,10.4c0,1.7,0.2,2,0.7,2c0.6,0,0.7-0.5,0.7-2.2V9.6c0-1.7-0.2-2-0.7-2c-0.6,0-0.7,0.5-0.7,2.2V10.4z"/>
	<path fill="#231F20" d="M93.4,8.2h1.3l-1.3,5h-1.5l-1.3-5H92l0.7,3.6h0L93.4,8.2z"/>
	<path fill="#231F20" d="M96.8,8.1c1.5,0,2,0.9,2,2.6c0,1.7-0.5,2.6-2,2.6c-1.5,0-2-0.9-2-2.6C94.8,9,95.4,8.1,96.8,8.1z M96.8,12.5
		c0.5,0,0.7-0.5,0.7-1.8c0-1.3-0.2-1.8-0.7-1.8c-0.6,0-0.7,0.7-0.7,1.8C96.1,11.7,96.2,12.5,96.8,12.5z"/>
	<path fill="#231F20" d="M99.4,6.6h1.3v6.6h-1.3V6.6z"/>
	<path fill="#231F20" d="M101.8,6.8h1.3v1.4h0.7v0.9H103v2.7c0,0.4,0.1,0.5,0.5,0.5c0.1,0,0.2,0,0.3,0v0.9c-0.3,0-0.5,0.1-0.8,0.1
		c-1,0-1.2-0.3-1.2-1.3V9.1h-0.7V8.2h0.7V6.8z"/>
	<path fill="#231F20" d="M105.1,11.6v0.2c0,0.4,0.2,0.7,0.7,0.7c0.4,0,0.7-0.2,0.7-0.6c0-0.3-0.2-0.5-0.5-0.6L105,11
		c-0.7-0.3-1.1-0.7-1.1-1.4c0-0.8,0.5-1.5,1.8-1.5c1.2,0,1.7,0.5,1.7,1.4v0.2h-1.2c0-0.5-0.1-0.8-0.6-0.8c-0.3,0-0.6,0.2-0.6,0.5
		c0,0.3,0.1,0.4,0.6,0.6l0.8,0.3c0.8,0.3,1.1,0.7,1.1,1.4c0,1.1-0.8,1.6-1.9,1.6c-1.4,0-1.8-0.6-1.8-1.6v-0.2H105.1z"/>
</g>
<rect x="57.1" y="18.1" fill="none" stroke="#595A5C" stroke-width="0.25" width="77.6" height="18"/>
<g>
	<path fill="#231F20" d="M95.9,24.7c1.6,0,2.1,0.9,2.1,3.2c0,1.8-0.1,3.5-2.1,3.5c-1.6,0-2.1-0.9-2.1-3.2
		C93.9,26.4,94,24.7,95.9,24.7z M95.2,28.5c0,1.7,0.2,2,0.7,2c0.6,0,0.7-0.5,0.7-2.2v-0.7c0-1.7-0.2-2-0.7-2c-0.6,0-0.7,0.5-0.7,2.2
		V28.5z"/>
</g>
<rect x="159.6" y="0.1" fill="#E7E7E7" width="77.6" height="18"/>
<rect x="159.6" y="0.1" fill="none" stroke="#595A5C" stroke-width="0.179" width="77.6" height="18"/>
<g>
	<path fill="#231F20" d="M190.6,7.8h-2.4L188,9.3h0c0.3-0.3,0.6-0.5,1.2-0.5c1.3,0,1.6,1.1,1.6,2.1c0,1.4-0.4,2.4-2.1,2.4
		c-1.7,0-1.9-1.1-1.9-1.8v-0.2h1.3c0,0.4,0.1,1.1,0.7,1.1c0.5,0,0.8-0.4,0.8-1.3c0-1.1-0.2-1.4-0.8-1.4c-0.4,0-0.6,0.2-0.6,0.6h-1.2
		l0.2-3.6h3.4V7.8z"/>
	<path fill="#231F20" d="M195.9,8.2h1.3l-1.3,5h-1.5l-1.3-5h1.3l0.7,3.6h0L195.9,8.2z"/>
	<path fill="#231F20" d="M199.3,8.1c1.5,0,2,0.9,2,2.6c0,1.7-0.5,2.6-2,2.6c-1.5,0-2-0.9-2-2.6C197.3,9,197.8,8.1,199.3,8.1z
		 M199.3,12.5c0.5,0,0.7-0.5,0.7-1.8c0-1.3-0.2-1.8-0.7-1.8c-0.6,0-0.7,0.7-0.7,1.8C198.6,11.7,198.7,12.5,199.3,12.5z"/>
	<path fill="#231F20" d="M201.9,6.6h1.3v6.6h-1.3V6.6z"/>
	<path fill="#231F20" d="M204.2,6.8h1.3v1.4h0.7v0.9h-0.7v2.7c0,0.4,0.1,0.5,0.5,0.5c0.1,0,0.2,0,0.3,0v0.9c-0.3,0-0.5,0.1-0.8,0.1
		c-1,0-1.2-0.3-1.2-1.3V9.1h-0.7V8.2h0.7V6.8z"/>
	<path fill="#231F20" d="M207.5,11.6v0.2c0,0.4,0.2,0.7,0.7,0.7c0.4,0,0.7-0.2,0.7-0.6c0-0.3-0.2-0.5-0.5-0.6l-0.9-0.3
		c-0.7-0.3-1.1-0.7-1.1-1.4c0-0.8,0.5-1.5,1.8-1.5c1.2,0,1.7,0.5,1.7,1.4v0.2h-1.2c0-0.5-0.1-0.8-0.6-0.8c-0.3,0-0.6,0.2-0.6,0.5
		c0,0.3,0.1,0.4,0.6,0.6l0.8,0.3c0.8,0.3,1.1,0.7,1.1,1.4c0,1.1-0.8,1.6-1.9,1.6c-1.4,0-1.8-0.6-1.8-1.6v-0.2H207.5z"/>
</g>
<rect x="159.6" y="18.1" fill="none" stroke="#595A5C" stroke-width="0.25" width="77.6" height="18"/>
<g>
	<path fill="#231F20" d="M191.4,31.2v-4.6h-1.3v-0.9h0.1c0.9,0,1.4-0.3,1.5-1.1h1v6.6H191.4z"/>
	<path fill="#231F20" d="M196.3,24.7c1.6,0,2.1,0.9,2.1,3.2c0,1.8-0.1,3.5-2.1,3.5c-1.6,0-2.1-0.9-2.1-3.2
		C194.2,26.4,194.3,24.7,196.3,24.7z M195.5,28.5c0,1.7,0.2,2,0.7,2c0.6,0,0.7-0.5,0.7-2.2v-0.7c0-1.7-0.2-2-0.7-2
		c-0.6,0-0.7,0.5-0.7,2.2V28.5z"/>
	<path fill="#231F20" d="M202.6,31.2h-4.1c0-1.2,0.5-2,1.5-2.9l0.5-0.5c0.6-0.5,0.7-0.8,0.7-1.5c0-0.5-0.2-0.8-0.7-0.8
		c-0.7,0-0.7,0.6-0.7,1.3h-1.3v-0.3c0-1.2,0.6-1.9,2-1.9c1.3,0,2,0.7,2,1.8c0,0.9-0.3,1.4-1,2.1l-0.7,0.7c-0.4,0.4-0.6,0.7-0.7,1
		h2.5V31.2z"/>
	<path fill="#231F20" d="M204.2,29.3c0,0.8,0.1,1.2,0.7,1.2c0.6,0,0.7-0.5,0.7-1.1c0-0.6-0.1-1.1-0.9-1.1h-0.4v-0.9h0.4
		c0.6,0,0.8-0.5,0.8-1c0-0.6-0.2-0.9-0.6-0.9c-0.6,0-0.7,0.4-0.7,1.1H203c0-1.3,0.7-1.9,1.9-1.9c1.2,0,1.9,0.5,1.9,1.7
		c0,0.8-0.4,1.3-1,1.4v0c0.9,0.1,1.2,0.7,1.2,1.6c0,0.9-0.4,2-2.2,2c-1.3,0-1.9-0.8-1.9-2v0H204.2z"/>
</g>
<g>
	<path fill="#231F20" d="M144.2,14.2h1.3v1.4h0.7v0.9h-0.7v2.7c0,0.4,0.1,0.5,0.5,0.5c0.1,0,0.2,0,0.3,0v0.9c-0.3,0-0.5,0.1-0.8,0.1
		c-1,0-1.2-0.3-1.2-1.3v-2.9h-0.7v-0.9h0.7V14.2z"/>
	<path fill="#231F20" d="M148.3,15.5c1.5,0,2,0.9,2,2.6c0,1.7-0.5,2.6-2,2.6c-1.5,0-2-0.9-2-2.6C146.4,16.4,146.9,15.5,148.3,15.5z
		 M148.3,19.8c0.5,0,0.7-0.5,0.7-1.8c0-1.3-0.2-1.8-0.7-1.8c-0.6,0-0.7,0.7-0.7,1.8C147.6,19.1,147.7,19.8,148.3,19.8z"/>
</g>
<g>
	<path fill="#231F20" d="M2.5,13.1h2.3l2.5,9.3h-2l-0.4-2H2.4l-0.4,2H0L2.5,13.1z M2.7,18.9h1.8l-0.9-4.2h0L2.7,18.9z"/>
	<path fill="#231F20" d="M9.9,13.1l2.3,6.4h0v-6.4h1.7v9.3h-2.1l-2.3-6.5h0v6.5H7.7v-9.3H9.9z"/>
	<path fill="#231F20" d="M16.8,13.1h2.3l2.5,9.3h-2l-0.4-2h-2.5l-0.4,2h-2L16.8,13.1z M17.1,18.9h1.8L18,14.7h0L17.1,18.9z"/>
	<path fill="#231F20" d="M22.1,22.4v-9.3H24v7.7h3.3v1.5H22.1z"/>
	<path fill="#231F20" d="M30.9,12.9c2.8,0,3.2,2,3.2,4.8c0,2.8-0.4,4.8-3.2,4.8c-2.8,0-3.2-2-3.2-4.8C27.7,14.9,28.1,12.9,30.9,12.9
		z M30.9,21.2c1.1,0,1.3-0.9,1.3-3.4c0-2.5-0.2-3.4-1.3-3.4c-1.1,0-1.3,1-1.3,3.4C29.6,20.3,29.8,21.2,30.9,21.2z"/>
	<path fill="#231F20" d="M39.1,15.9c0-0.7-0.3-1.6-1.1-1.6c-0.9,0-1.3,0.9-1.3,3.2c0,2.2,0.2,3.6,1.3,3.6c0.5,0,1.2-0.5,1.2-1.5
		v-0.9H38v-1.4h3v5h-1.4v-0.9h0c-0.5,0.7-1.1,1-2,1c-2.3,0-2.8-1.7-2.8-4.9c0-3.1,0.7-4.7,3.1-4.7c2,0,2.9,1.1,2.9,2.9H39.1z"/>
</g>
<line fill="none" stroke="#BDBEC0" stroke-width="0.25" stroke-miterlimit="10" x1="48.6" y1="12.4" x2="48.6" y2="24.8"/>
</svg>
