<?xml version="1.0" encoding="utf-8"?>
<!-- Generator: Adobe Illustrator 17.0.2, SVG Export Plug-In . SVG Version: 6.00 Build 0)  -->
<!DOCTYPE svg PUBLIC "-//W3C//DTD SVG 1.0//EN" "http://www.w3.org/TR/2001/REC-SVG-20010904/DTD/svg10.dtd">
<svg version="1.0" id="Layer_1" xmlns="http://www.w3.org/2000/svg" xmlns:xlink="http://www.w3.org/1999/xlink" x="0px" y="0px"
	 width="237.3px" height="54.3px" viewBox="0 0 237.3 54.3" enable-background="new 0 0 237.3 54.3" xml:space="preserve">
<g enable-background="new    ">
	<path fill="#231F20" d="M0.7,21.1h3.1c2.6,0,3.1,1.8,3.1,4.5c0,3.3-0.7,4.8-3.2,4.8h-3V21.1z M2.6,29h0.8C4.7,29,5,28.2,5,25.6
		c0-2.1-0.2-3.2-1.6-3.2H2.6V29z"/>
</g>
<g enable-background="new    ">
	<path fill="#231F20" d="M8,30.4v-9.3h1.9v9.3H8z"/>
</g>
<g enable-background="new    ">
	<path fill="#231F20" d="M15.3,23.8c0-0.7-0.3-1.6-1.1-1.6c-0.9,0-1.3,0.9-1.3,3.2c0,2.2,0.2,3.6,1.3,3.6c0.5,0,1.2-0.5,1.2-1.5
		v-0.9h-1.2v-1.4h3v5h-1.4v-0.9h0c-0.5,0.7-1.1,1-2,1c-2.3,0-2.8-1.7-2.8-4.9c0-3.1,0.7-4.7,3.1-4.7c2,0,2.9,1.1,2.9,2.9H15.3z"/>
</g>
<g enable-background="new    ">
	<path fill="#231F20" d="M18.3,30.4v-9.3h1.9v9.3H18.3z"/>
</g>
<g enable-background="new    ">
	<path fill="#231F20" d="M26.8,21.1v1.5h-2v7.7h-1.9v-7.7h-2v-1.5H26.8z"/>
</g>
<g enable-background="new    ">
	<path fill="#231F20" d="M29.3,21.1h2.3l2.5,9.3h-2l-0.4-2h-2.5l-0.4,2h-2L29.3,21.1z M29.5,26.9h1.8l-0.9-4.2h0L29.5,26.9z"/>
</g>
<g enable-background="new    ">
	<path fill="#231F20" d="M34.6,30.4v-9.3h1.9v7.7h3.3v1.5H34.6z"/>
</g>
<g enable-background="new    ">
	<path fill="#231F20" d="M145.5,25.8c1.5,0,2,0.9,2,2.6c0,1.7-0.5,2.6-2,2.6c-1.5,0-2-0.9-2-2.6C143.5,26.8,144.1,25.8,145.5,25.8z
		 M145.5,30.2c0.5,0,0.7-0.5,0.7-1.8c0-1.3-0.2-1.8-0.7-1.8c-0.6,0-0.7,0.7-0.7,1.8C144.8,29.5,144.9,30.2,145.5,30.2z"/>
</g>
<g enable-background="new    ">
	<path fill="#231F20" d="M148,26h1.2v0.7h0c0.3-0.5,0.6-0.8,1.2-0.8c0.1,0,0.2,0,0.2,0v1.2c-0.1,0-0.3,0-0.4,0
		c-0.4,0-0.9,0.2-0.9,0.9v3H148V26z"/>
</g>
<line fill="none" stroke="#BDBEC0" stroke-width="0.25" stroke-miterlimit="10" x1="48.6" y1="20.2" x2="48.6" y2="32.5"/>
<rect x="159.6" y="0.1" fill="none" stroke="#595A5C" stroke-width="0.179" width="77.6" height="18"/>
<g enable-background="new    ">
	<path fill="#231F20" d="M192.6,6.6h1.3v2.5h1.6V6.6h1.3v6.6h-1.3v-2.9H194v2.9h-1.3V6.6z"/>
</g>
<g enable-background="new    ">
	<path fill="#231F20" d="M197.7,13.2V6.6h1.3v6.6H197.7z"/>
</g>
<g enable-background="new    ">
	<path fill="#231F20" d="M202.9,8.6c0-0.5-0.2-1.1-0.8-1.1c-0.6,0-0.9,0.7-0.9,2.3c0,1.6,0.1,2.6,0.9,2.6c0.3,0,0.8-0.3,0.8-1.1
		v-0.7h-0.9v-1h2.2v3.6h-1v-0.6h0c-0.3,0.5-0.8,0.7-1.4,0.7c-1.6,0-2-1.2-2-3.5c0-2.2,0.5-3.4,2.2-3.4c1.5,0,2.1,0.8,2.1,2.1H202.9z
		"/>
</g>
<g enable-background="new    ">
	<path fill="#231F20" d="M205,6.6h1.3v2.5h1.6V6.6h1.3v6.6h-1.3v-2.9h-1.6v2.9H205V6.6z"/>
</g>
<rect x="159.6" y="18.1" fill="#E7E7E7" width="77.6" height="18"/>
<rect x="159.6" y="18.1" fill="none" stroke="#595A5C" stroke-width="0.179" width="77.6" height="18"/>
<g enable-background="new    ">
	<path fill="#231F20" d="M194.4,26.1c1.5,0,2,0.9,2,2.6c0,1.7-0.5,2.6-2,2.6c-1.5,0-2-0.9-2-2.6C192.4,27,192.9,26.1,194.4,26.1z
		 M194.4,30.5c0.5,0,0.7-0.5,0.7-1.8c0-1.3-0.2-1.8-0.7-1.8c-0.6,0-0.7,0.7-0.7,1.8C193.7,29.8,193.8,30.5,194.4,30.5z"/>
</g>
<g enable-background="new    ">
	<path fill="#231F20" d="M196.9,26.2h1.2v0.6h0c0.3-0.5,0.7-0.7,1.3-0.7c0.8,0,1.3,0.4,1.3,1.4v3.7h-1.3v-3.4c0-0.5-0.2-0.7-0.5-0.7
		c-0.5,0-0.7,0.3-0.7,0.8v3.3h-1.3V26.2z"/>
</g>
<rect x="159.6" y="36.1" fill="#E7E7E7" width="77.6" height="18"/>
<rect x="159.6" y="36.1" fill="none" stroke="#595A5C" stroke-width="0.179" width="77.6" height="18"/>
<g enable-background="new    ">
	<path fill="#231F20" d="M196.1,43.9h-2.4l-0.1,1.5h0c0.3-0.3,0.6-0.5,1.2-0.5c1.3,0,1.6,1.1,1.6,2.1c0,1.5-0.4,2.4-2.1,2.4
		c-1.7,0-1.9-1.1-1.9-1.8v-0.2h1.3c0,0.4,0.1,1.1,0.7,1.1c0.5,0,0.8-0.4,0.8-1.3c0-1.1-0.2-1.4-0.8-1.4c-0.4,0-0.6,0.2-0.6,0.6h-1.2
		l0.2-3.6h3.4V43.9z"/>
</g>
<g enable-background="new    ">
	<path fill="#231F20" d="M201.5,44.3h1.3l-1.3,5H200l-1.3-5h1.3l0.7,3.6h0L201.5,44.3z"/>
</g>
<g enable-background="new    ">
	<path fill="#231F20" d="M204.9,44.1c1.5,0,2,0.9,2,2.6c0,1.7-0.5,2.6-2,2.6c-1.5,0-2-0.9-2-2.6C202.9,45.1,203.4,44.1,204.9,44.1z
		 M204.9,48.5c0.5,0,0.7-0.5,0.7-1.8c0-1.3-0.2-1.8-0.7-1.8c-0.6,0-0.7,0.7-0.7,1.8C204.2,47.8,204.3,48.5,204.9,48.5z"/>
</g>
<g enable-background="new    ">
	<path fill="#231F20" d="M207.4,42.6h1.3v6.6h-1.3V42.6z"/>
	<path fill="#231F20" d="M209.9,42.8h1.3v1.4h0.7v0.9h-0.7v2.7c0,0.4,0.1,0.5,0.5,0.5c0.1,0,0.2,0,0.3,0v0.9c-0.3,0-0.5,0.1-0.8,0.1
		c-1,0-1.2-0.3-1.2-1.3v-2.9h-0.7v-0.9h0.7V42.8z"/>
</g>
<g enable-background="new    ">
	<path fill="#231F20" d="M213.1,47.6v0.2c0,0.4,0.2,0.7,0.7,0.7c0.4,0,0.7-0.2,0.7-0.6c0-0.3-0.2-0.5-0.5-0.6l-0.9-0.3
		c-0.7-0.3-1.1-0.7-1.1-1.4c0-0.8,0.5-1.5,1.8-1.5c1.2,0,1.7,0.5,1.7,1.4v0.2h-1.2c0-0.5-0.1-0.8-0.6-0.8c-0.3,0-0.6,0.2-0.6,0.5
		c0,0.3,0.1,0.4,0.6,0.6l0.8,0.3c0.8,0.3,1.1,0.7,1.1,1.4c0,1-0.8,1.6-1.9,1.6c-1.5,0-1.8-0.6-1.8-1.6v-0.2H213.1z"/>
</g>
<path fill="#FCEE23" d="M174.8,11.6c0,0.4-0.4,0.8-0.8,0.8c-0.4,0-0.8-0.4-0.8-0.8V6.3c0-0.4,0.4-0.8,0.8-0.8c0.4,0,0.8,0.4,0.8,0.8
	V11.6z"/>
<path fill="none" stroke="#231F20" stroke-width="0.161" d="M174.8,11.6c0,0.4-0.4,0.8-0.8,0.8c-0.4,0-0.8-0.4-0.8-0.8V6.3
	c0-0.4,0.4-0.8,0.8-0.8c0.4,0,0.8,0.4,0.8,0.8V11.6z"/>
<path fill="#FCEE23" d="M179.1,14.9c-0.3,0.3-0.8,0.3-1.1,0s-0.3-0.8,0-1.1l3.7-3.7c0.3-0.3,0.8-0.3,1.1,0s0.3,0.8,0,1.1L179.1,14.9
	z"/>
<path fill="none" stroke="#231F20" stroke-width="0.161" d="M179.1,14.9c-0.3,0.3-0.8,0.3-1.1,0s-0.3-0.8,0-1.1l3.7-3.7
	c0.3-0.3,0.8-0.3,1.1,0s0.3,0.8,0,1.1L179.1,14.9z"/>
<path fill="#FCEE23" d="M166.4,10c-0.3-0.3-0.8-0.3-1.1,0s-0.3,0.8,0,1.1l3.7,3.7c0.3,0.3,0.8,0.3,1.1,0s0.3-0.8,0-1.1L166.4,10z"/>
<path fill="none" stroke="#231F20" stroke-width="0.161" d="M166.4,10c-0.3-0.3-0.8-0.3-1.1,0s-0.3,0.8,0,1.1l3.7,3.7
	c0.3,0.3,0.8,0.3,1.1,0s0.3-0.8,0-1.1L166.4,10z"/>
<path fill="#FCEE23" d="M180.8,24.6c-0.3-0.3-0.8-0.3-1.1,0s-0.3,0.8,0,1.1l3.7,3.7c0.3,0.3,0.8,0.3,1.1,0s0.3-0.8,0-1.1L180.8,24.6
	z"/>
<path fill="none" stroke="#231F20" stroke-width="0.161" d="M180.8,24.6c-0.3-0.3-0.8-0.3-1.1,0s-0.3,0.8,0,1.1l3.7,3.7
	c0.3,0.3,0.8,0.3,1.1,0s0.3-0.8,0-1.1L180.8,24.6z"/>
<path fill="#FCEE23" d="M164.6,29.5c-0.3,0.3-0.8,0.3-1.1,0s-0.3-0.8,0-1.1l3.7-3.7c0.3-0.3,0.8-0.3,1.1,0s0.3,0.8,0,1.1L164.6,29.5
	z"/>
<path fill="none" stroke="#231F20" stroke-width="0.161" d="M164.6,29.5c-0.3,0.3-0.8,0.3-1.1,0s-0.3-0.8,0-1.1l3.7-3.7
	c0.3-0.3,0.8-0.3,1.1,0s0.3,0.8,0,1.1L164.6,29.5z"/>
<path fill="#FCEE23" d="M162.4,19c-0.4,0-0.8,0.4-0.8,0.8s0.4,0.8,0.8,0.8h5.3c0.4,0,0.8-0.4,0.8-0.8s-0.4-0.8-0.8-0.8H162.4z"/>
<path fill="none" stroke="#231F20" stroke-width="0.161" d="M162.4,19c-0.4,0-0.8,0.4-0.8,0.8s0.4,0.8,0.8,0.8h5.3
	c0.4,0,0.8-0.4,0.8-0.8s-0.4-0.8-0.8-0.8H162.4z"/>
<path fill="#FCEE23" d="M180.4,19c-0.4,0-0.8,0.4-0.8,0.8s0.4,0.8,0.8,0.8h5.3c0.4,0,0.8-0.4,0.8-0.8s-0.4-0.8-0.8-0.8H180.4z"/>
<path fill="none" stroke="#231F20" stroke-width="0.161" d="M180.4,19c-0.4,0-0.8,0.4-0.8,0.8s0.4,0.8,0.8,0.8h5.3
	c0.4,0,0.8-0.4,0.8-0.8s-0.4-0.8-0.8-0.8H180.4z"/>
<g>
	<g>
		<defs>
			<rect id="SVGID_1_" x="159.6" y="0.1" width="77.6" height="54.1"/>
		</defs>
		<clipPath id="SVGID_2_">
			<use xlink:href="#SVGID_1_"  overflow="visible"/>
		</clipPath>
		<rect x="175.5" y="28" clip-path="url(#SVGID_2_)" fill="#BDBEC0" width="0.9" height="33.4"/>
	</g>
	<g>
		<defs>
			<rect id="SVGID_3_" x="159.6" y="0.1" width="77.6" height="54.1"/>
		</defs>
		<clipPath id="SVGID_4_">
			<use xlink:href="#SVGID_3_"  overflow="visible"/>
		</clipPath>
		
			<rect x="175.5" y="28" clip-path="url(#SVGID_4_)" fill="none" stroke="#231F20" stroke-width="0.161" width="0.9" height="33.4"/>
	</g>
	<g>
		<defs>
			<rect id="SVGID_5_" x="159.6" y="0.1" width="77.6" height="54.1"/>
		</defs>
		<clipPath id="SVGID_6_">
			<use xlink:href="#SVGID_5_"  overflow="visible"/>
		</clipPath>
		<rect x="171.7" y="28" clip-path="url(#SVGID_6_)" fill="#BDBEC0" width="0.9" height="26.1"/>
	</g>
	<g>
		<defs>
			<rect id="SVGID_7_" x="159.6" y="0.1" width="77.6" height="54.1"/>
		</defs>
		<clipPath id="SVGID_8_">
			<use xlink:href="#SVGID_7_"  overflow="visible"/>
		</clipPath>
		
			<rect x="171.7" y="28" clip-path="url(#SVGID_8_)" fill="none" stroke="#231F20" stroke-width="0.161" width="0.9" height="26.1"/>
	</g>
	<g>
		<defs>
			<rect id="SVGID_9_" x="159.6" y="0.1" width="77.6" height="54.1"/>
		</defs>
		<clipPath id="SVGID_10_">
			<use xlink:href="#SVGID_9_"  overflow="visible"/>
		</clipPath>
		<rect x="170.4" y="26.5" clip-path="url(#SVGID_10_)" fill="#FCEE23" width="8.1" height="1.6"/>
	</g>
	<g>
		<defs>
			<rect id="SVGID_11_" x="159.6" y="0.1" width="77.6" height="54.1"/>
		</defs>
		<clipPath id="SVGID_12_">
			<use xlink:href="#SVGID_11_"  overflow="visible"/>
		</clipPath>
		
			<rect x="170.4" y="26.5" clip-path="url(#SVGID_12_)" fill="none" stroke="#231F20" stroke-width="0.161" width="8.1" height="1.6"/>
	</g>
	<g>
		<defs>
			<rect id="SVGID_13_" x="159.6" y="0.1" width="77.6" height="54.1"/>
		</defs>
		<clipPath id="SVGID_14_">
			<use xlink:href="#SVGID_13_"  overflow="visible"/>
		</clipPath>
		<path clip-path="url(#SVGID_14_)" fill="#FCEE23" d="M174.5,15.4h-1c-1.7,0-3.1,1.4-3.1,3.1v3.8v0.9v3.1h3.1h1h3.1v-3.1v-0.9v-3.8
			C177.6,16.8,176.2,15.4,174.5,15.4"/>
	</g>
	<g>
		<defs>
			<rect id="SVGID_15_" x="159.6" y="0.1" width="77.6" height="54.1"/>
		</defs>
		<clipPath id="SVGID_16_">
			<use xlink:href="#SVGID_15_"  overflow="visible"/>
		</clipPath>
		<path clip-path="url(#SVGID_16_)" fill="none" stroke="#231F20" stroke-width="0.161" d="M174.5,15.4h-1c-1.7,0-3.1,1.4-3.1,3.1
			v3.8v0.9v3.1h3.1h1h3.1v-3.1v-0.9v-3.8C177.6,16.8,176.2,15.4,174.5,15.4z"/>
	</g>
	<g>
		<defs>
			<rect id="SVGID_17_" x="159.6" y="0.1" width="77.6" height="54.1"/>
		</defs>
		<clipPath id="SVGID_18_">
			<use xlink:href="#SVGID_17_"  overflow="visible"/>
		</clipPath>
		<rect x="175.3" y="29.6" clip-path="url(#SVGID_18_)" fill="#FFFFFF" width="1.2" height="2.3"/>
	</g>
	<g>
		<defs>
			<rect id="SVGID_19_" x="159.6" y="0.1" width="77.6" height="54.1"/>
		</defs>
		<clipPath id="SVGID_20_">
			<use xlink:href="#SVGID_19_"  overflow="visible"/>
		</clipPath>
		<rect x="175.3" y="29.6" clip-path="url(#SVGID_20_)" fill="#BDBEC0" width="1.2" height="2.3"/>
	</g>
	<g>
		<defs>
			<rect id="SVGID_21_" x="159.6" y="0.1" width="77.6" height="54.1"/>
		</defs>
		<clipPath id="SVGID_22_">
			<use xlink:href="#SVGID_21_"  overflow="visible"/>
		</clipPath>
		
			<rect x="175.3" y="29.6" clip-path="url(#SVGID_22_)" fill="none" stroke="#231F20" stroke-width="0.161" width="1.2" height="2.3"/>
	</g>
	<g>
		<defs>
			<rect id="SVGID_23_" x="159.6" y="0.1" width="77.6" height="54.1"/>
		</defs>
		<clipPath id="SVGID_24_">
			<use xlink:href="#SVGID_23_"  overflow="visible"/>
		</clipPath>
		<rect x="171.5" y="29.6" clip-path="url(#SVGID_24_)" fill="#FFFFFF" width="1.2" height="2.3"/>
	</g>
	<g>
		<defs>
			<rect id="SVGID_25_" x="159.6" y="0.1" width="77.6" height="54.1"/>
		</defs>
		<clipPath id="SVGID_26_">
			<use xlink:href="#SVGID_25_"  overflow="visible"/>
		</clipPath>
		<rect x="171.5" y="29.6" clip-path="url(#SVGID_26_)" fill="#BDBEC0" width="1.2" height="2.3"/>
	</g>
	<g>
		<defs>
			<rect id="SVGID_27_" x="159.6" y="0.1" width="77.6" height="54.1"/>
		</defs>
		<clipPath id="SVGID_28_">
			<use xlink:href="#SVGID_27_"  overflow="visible"/>
		</clipPath>
		
			<rect x="171.5" y="29.6" clip-path="url(#SVGID_28_)" fill="none" stroke="#231F20" stroke-width="0.161" width="1.2" height="2.3"/>
	</g>
</g>
<rect x="57.1" y="0.1" fill="none" stroke="#595A5C" stroke-width="0.179" width="77.6" height="18"/>
<g enable-background="new    ">
	<path fill="#231F20" d="M90.1,13.2V6.6h1.3v5.5h2.4v1.1H90.1z"/>
	<path fill="#231F20" d="M96.5,6.5c2,0,2.3,1.4,2.3,3.4s-0.3,3.4-2.3,3.4c-2,0-2.3-1.4-2.3-3.4S94.5,6.5,96.5,6.5z M96.5,12.4
		c0.8,0,0.9-0.7,0.9-2.5c0-1.8-0.1-2.5-0.9-2.5c-0.8,0-0.9,0.7-0.9,2.5C95.6,11.7,95.7,12.4,96.5,12.4z"/>
</g>
<g enable-background="new    ">
	<path fill="#231F20" d="M98.9,6.6h1.3l0.7,4.9h0l0.8-4.9h1.3l0.8,4.9h0l0.7-4.9h1.3l-1.2,6.6h-1.5l-0.7-4.8h0l-0.7,4.8h-1.5
		L98.9,6.6z"/>
</g>
<rect x="57.1" y="18.1" fill="#E7E7E7" width="77.6" height="18"/>
<rect x="57.1" y="18.1" fill="none" stroke="#595A5C" stroke-width="0.179" width="77.6" height="18"/>
<g enable-background="new    ">
	<path fill="#231F20" d="M91.9,26.1c1.5,0,2,0.9,2,2.6c0,1.7-0.5,2.6-2,2.6c-1.5,0-2-0.9-2-2.6C89.9,27,90.4,26.1,91.9,26.1z
		 M91.9,30.5c0.5,0,0.7-0.5,0.7-1.8c0-1.3-0.2-1.8-0.7-1.8c-0.6,0-0.7,0.7-0.7,1.8C91.2,29.8,91.3,30.5,91.9,30.5z"/>
	<path fill="#231F20" d="M94.8,27.1h-0.7v-0.9h0.7v-0.6c0-0.9,0.5-1.2,1.3-1.2c0.2,0,0.5,0,0.7,0v0.9c0,0-0.1,0-0.1,0h-0.1
		c-0.4,0-0.5,0.1-0.5,0.4v0.4h0.7v0.9h-0.7v4.1h-1.3V27.1z"/>
</g>
<g enable-background="new    ">
	<path fill="#231F20" d="M97.4,27.1h-0.7v-0.9h0.7v-0.6c0-0.9,0.5-1.2,1.3-1.2c0.2,0,0.5,0,0.7,0v0.9c0,0-0.1,0-0.1,0h-0.1
		c-0.4,0-0.5,0.1-0.5,0.4v0.4h0.7v0.9h-0.7v4.1h-1.3V27.1z"/>
</g>
<rect x="57.1" y="36.1" fill="#E7E7E7" width="77.6" height="18"/>
<rect x="57.1" y="36.1" fill="none" stroke="#595A5C" stroke-width="0.179" width="77.6" height="18"/>
<g enable-background="new    ">
	<path fill="#231F20" d="M91.9,42.7c1.6,0,2.1,0.9,2.1,3.2c0,1.8-0.1,3.5-2.1,3.5c-1.6,0-2.1-0.9-2.1-3.2
		C89.8,44.4,89.9,42.7,91.9,42.7z M91.2,46.5c0,1.7,0.2,2,0.7,2c0.6,0,0.7-0.5,0.7-2.2v-0.7c0-1.7-0.2-2-0.7-2
		c-0.6,0-0.7,0.5-0.7,2.2V46.5z"/>
	<path fill="#231F20" d="M99.1,44.3h1.3l-1.3,5h-1.5l-1.3-5h1.3l0.7,3.6h0L99.1,44.3z"/>
	<path fill="#231F20" d="M102.7,44.1c1.5,0,2,0.9,2,2.6c0,1.7-0.5,2.6-2,2.6c-1.5,0-2-0.9-2-2.6C100.7,45.1,101.2,44.1,102.7,44.1z
		 M102.7,48.5c0.5,0,0.7-0.5,0.7-1.8c0-1.3-0.2-1.8-0.7-1.8c-0.6,0-0.7,0.7-0.7,1.8C102,47.8,102.1,48.5,102.7,48.5z"/>
	<path fill="#231F20" d="M105.4,42.6h1.3v6.6h-1.3V42.6z"/>
	<path fill="#231F20" d="M107.9,42.8h1.3v1.4h0.7v0.9h-0.7v2.7c0,0.4,0.1,0.5,0.5,0.5c0.1,0,0.2,0,0.3,0v0.9c-0.3,0-0.5,0.1-0.8,0.1
		c-1,0-1.2-0.3-1.2-1.3v-2.9h-0.7v-0.9h0.7V42.8z"/>
</g>
<g enable-background="new    ">
	<path fill="#231F20" d="M110.6,47.6v0.2c0,0.4,0.2,0.7,0.7,0.7c0.4,0,0.7-0.2,0.7-0.6c0-0.3-0.2-0.5-0.5-0.6l-0.9-0.3
		c-0.7-0.3-1.1-0.7-1.1-1.4c0-0.8,0.5-1.5,1.8-1.5c1.2,0,1.7,0.5,1.7,1.4v0.2h-1.2c0-0.5-0.1-0.8-0.6-0.8c-0.3,0-0.6,0.2-0.6,0.5
		c0,0.3,0.1,0.4,0.6,0.6l0.8,0.3c0.8,0.3,1.1,0.7,1.1,1.4c0,1-0.8,1.6-1.9,1.6c-1.4,0-1.8-0.6-1.8-1.6v-0.2H110.6z"/>
</g>
<g>
	<g>
		<defs>
			<rect id="SVGID_29_" x="57.1" y="0.1" width="77.6" height="54.1"/>
		</defs>
		<clipPath id="SVGID_30_">
			<use xlink:href="#SVGID_29_"  overflow="visible"/>
		</clipPath>
		<rect x="73" y="28" clip-path="url(#SVGID_30_)" fill="#BDBEC0" width="0.9" height="33.4"/>
	</g>
	<g>
		<defs>
			<rect id="SVGID_31_" x="57.1" y="0.1" width="77.6" height="54.1"/>
		</defs>
		<clipPath id="SVGID_32_">
			<use xlink:href="#SVGID_31_"  overflow="visible"/>
		</clipPath>
		<rect x="73" y="28" clip-path="url(#SVGID_32_)" fill="none" stroke="#231F20" stroke-width="0.161" width="0.9" height="33.4"/>
	</g>
	<g>
		<defs>
			<rect id="SVGID_33_" x="57.1" y="0.1" width="77.6" height="54.1"/>
		</defs>
		<clipPath id="SVGID_34_">
			<use xlink:href="#SVGID_33_"  overflow="visible"/>
		</clipPath>
		<rect x="69.2" y="28" clip-path="url(#SVGID_34_)" fill="#BDBEC0" width="0.9" height="26.1"/>
	</g>
	<g>
		<defs>
			<rect id="SVGID_35_" x="57.1" y="0.1" width="77.6" height="54.1"/>
		</defs>
		<clipPath id="SVGID_36_">
			<use xlink:href="#SVGID_35_"  overflow="visible"/>
		</clipPath>
		
			<rect x="69.2" y="28" clip-path="url(#SVGID_36_)" fill="none" stroke="#231F20" stroke-width="0.161" width="0.9" height="26.1"/>
	</g>
	<g>
		<defs>
			<rect id="SVGID_37_" x="57.1" y="0.1" width="77.6" height="54.1"/>
		</defs>
		<clipPath id="SVGID_38_">
			<use xlink:href="#SVGID_37_"  overflow="visible"/>
		</clipPath>
		<rect x="67.9" y="26.5" clip-path="url(#SVGID_38_)" fill="#BDBEC0" width="8.1" height="1.6"/>
	</g>
	<g>
		<defs>
			<rect id="SVGID_39_" x="57.1" y="0.1" width="77.6" height="54.1"/>
		</defs>
		<clipPath id="SVGID_40_">
			<use xlink:href="#SVGID_39_"  overflow="visible"/>
		</clipPath>
		
			<rect x="67.9" y="26.5" clip-path="url(#SVGID_40_)" fill="none" stroke="#231F20" stroke-width="0.161" width="8.1" height="1.6"/>
	</g>
	<g>
		<defs>
			<rect id="SVGID_41_" x="57.1" y="0.1" width="77.6" height="54.1"/>
		</defs>
		<clipPath id="SVGID_42_">
			<use xlink:href="#SVGID_41_"  overflow="visible"/>
		</clipPath>
		<path clip-path="url(#SVGID_42_)" fill="#BDBEC0" d="M72,15.4h-1c-1.7,0-3.1,1.4-3.1,3.1v3.8v0.9v3.1H71h1h3.1v-3.1v-0.9v-3.8
			C75.1,16.8,73.7,15.4,72,15.4"/>
	</g>
	<g>
		<defs>
			<rect id="SVGID_43_" x="57.1" y="0.1" width="77.6" height="54.1"/>
		</defs>
		<clipPath id="SVGID_44_">
			<use xlink:href="#SVGID_43_"  overflow="visible"/>
		</clipPath>
		<path clip-path="url(#SVGID_44_)" fill="none" stroke="#231F20" stroke-width="0.161" d="M72,15.4h-1c-1.7,0-3.1,1.4-3.1,3.1v3.8
			v0.9v3.1H71h1h3.1v-3.1v-0.9v-3.8C75.1,16.8,73.7,15.4,72,15.4z"/>
	</g>
	<g>
		<defs>
			<rect id="SVGID_45_" x="57.1" y="0.1" width="77.6" height="54.1"/>
		</defs>
		<clipPath id="SVGID_46_">
			<use xlink:href="#SVGID_45_"  overflow="visible"/>
		</clipPath>
		<rect x="72.8" y="29.6" clip-path="url(#SVGID_46_)" fill="#FFFFFF" width="1.2" height="2.3"/>
	</g>
	<g>
		<defs>
			<rect id="SVGID_47_" x="57.1" y="0.1" width="77.6" height="54.1"/>
		</defs>
		<clipPath id="SVGID_48_">
			<use xlink:href="#SVGID_47_"  overflow="visible"/>
		</clipPath>
		<rect x="72.8" y="29.6" clip-path="url(#SVGID_48_)" fill="#BDBEC0" width="1.2" height="2.3"/>
	</g>
	<g>
		<defs>
			<rect id="SVGID_49_" x="57.1" y="0.1" width="77.6" height="54.1"/>
		</defs>
		<clipPath id="SVGID_50_">
			<use xlink:href="#SVGID_49_"  overflow="visible"/>
		</clipPath>
		
			<rect x="72.8" y="29.6" clip-path="url(#SVGID_50_)" fill="none" stroke="#231F20" stroke-width="0.161" width="1.2" height="2.3"/>
	</g>
	<g>
		<defs>
			<rect id="SVGID_51_" x="57.1" y="0.1" width="77.6" height="54.1"/>
		</defs>
		<clipPath id="SVGID_52_">
			<use xlink:href="#SVGID_51_"  overflow="visible"/>
		</clipPath>
		<rect x="69" y="29.6" clip-path="url(#SVGID_52_)" fill="#FFFFFF" width="1.2" height="2.3"/>
	</g>
	<g>
		<defs>
			<rect id="SVGID_53_" x="57.1" y="0.1" width="77.6" height="54.1"/>
		</defs>
		<clipPath id="SVGID_54_">
			<use xlink:href="#SVGID_53_"  overflow="visible"/>
		</clipPath>
		<rect x="69" y="29.6" clip-path="url(#SVGID_54_)" fill="#BDBEC0" width="1.2" height="2.3"/>
	</g>
	<g>
		<defs>
			<rect id="SVGID_55_" x="57.1" y="0.1" width="77.6" height="54.1"/>
		</defs>
		<clipPath id="SVGID_56_">
			<use xlink:href="#SVGID_55_"  overflow="visible"/>
		</clipPath>
		<rect x="69" y="29.6" clip-path="url(#SVGID_56_)" fill="none" stroke="#231F20" stroke-width="0.161" width="1.2" height="2.3"/>
	</g>
</g>
</svg>
