<?xml version="1.0" encoding="utf-8"?>
<!-- Generator: Adobe Illustrator 17.0.2, SVG Export Plug-In . SVG Version: 6.00 Build 0)  -->
<!DOCTYPE svg PUBLIC "-//W3C//DTD SVG 1.0//EN" "http://www.w3.org/TR/2001/REC-SVG-20010904/DTD/svg10.dtd">
<svg version="1.0" id="Layer_1" xmlns="http://www.w3.org/2000/svg" xmlns:xlink="http://www.w3.org/1999/xlink" x="0px" y="0px"
	 width="241.5px" height="118.8px" viewBox="0 0 241.5 118.8" enable-background="new 0 0 241.5 118.8" xml:space="preserve">
<rect x="0.1" y="0.1" fill="#FFFFFF" width="241.2" height="21.8"/>
<rect x="0.1" y="0.1" fill="none" stroke="#231F20" stroke-width="0.25" stroke-miterlimit="10" width="241.2" height="21.8"/>
<rect x="0.1" y="0.1" fill="#FFFFFF" width="106.8" height="21.8"/>
<rect x="0.1" y="0.1" fill="none" stroke="#231F20" stroke-width="0.25" stroke-miterlimit="10" width="106.8" height="21.8"/>
<rect x="0.1" y="0.1" fill="#FFFFFF" width="29.4" height="21.8"/>
<rect x="0.1" y="0.1" fill="none" stroke="#231F20" stroke-width="0.25" stroke-miterlimit="10" width="29.4" height="21.8"/>
<g>
	<path fill="#231F20" d="M9.1,10.1h4.7v1.2H9.1V10.1z M9.1,12.2h4.7v1.2H9.1V12.2z"/>
	<path fill="#231F20" d="M15.3,10.1H20v1.2h-4.7V10.1z M15.3,12.2H20v1.2h-4.7V12.2z"/>
</g>
<g>
	<path fill="#231F20" d="M47.7,7.4v1.1h-2.4v1.6h2.2v1.1h-2.2V13h2.5v1.1H44V7.4H47.7z"/>
	<path fill="#231F20" d="M52.1,14.9l-0.8-0.8c-0.1,0-0.3,0.1-0.4,0.1c-0.1,0-0.3,0-0.5,0c-2,0-2.3-1.4-2.3-3.4s0.3-3.4,2.3-3.4
		c2,0,2.3,1.4,2.3,3.4c0,1.1-0.1,2.1-0.5,2.7l0.7,0.7L52.1,14.9z M50.5,13.2c0.8,0,0.9-0.7,0.9-2.5c0-1.8-0.1-2.5-0.9-2.5
		c-0.8,0-0.9,0.7-0.9,2.5C49.5,12.5,49.7,13.2,50.5,13.2z"/>
	<path fill="#231F20" d="M54.7,7.4v4.6c0,0.7,0.1,1.2,0.8,1.2c0.6,0,0.8-0.5,0.8-1.2V7.4h1.3v4.6c0,1.7-1,2.1-2.1,2.1
		c-1.1,0-2.1-0.4-2.1-2.1V7.4H54.7z"/>
	<path fill="#231F20" d="M58.3,14.1V7.4h1.3v6.6H58.3z"/>
	<path fill="#231F20" d="M61.6,7.4l0.9,4.9h0l1-4.9h1.4l-1.5,6.6h-1.7l-1.5-6.6H61.6z"/>
	<path fill="#231F20" d="M66.6,7.4h1.7l1.8,6.6h-1.4l-0.3-1.4h-1.8l-0.3,1.4h-1.4L66.6,7.4z M66.7,11.6H68l-0.6-3h0L66.7,11.6z"/>
	<path fill="#231F20" d="M70.3,14.1V7.4h1.3V13H74v1.1H70.3z"/>
	<path fill="#231F20" d="M78.2,7.4v1.1h-2.4v1.6h2.2v1.1h-2.2V13h2.5v1.1h-3.8V7.4H78.2z"/>
	<path fill="#231F20" d="M80.4,7.4L82,12h0V7.4h1.2v6.6h-1.5l-1.6-4.6h0v4.6h-1.2V7.4H80.4z"/>
	<path fill="#231F20" d="M86.9,9.7c0-1-0.2-1.4-0.8-1.4c-0.7,0-0.8,0.7-0.8,2.6c0,2,0.3,2.4,0.9,2.4c0.5,0,0.8-0.2,0.8-1.7h1.3
		c0,1.4-0.4,2.7-2.1,2.7c-2,0-2.3-1.4-2.3-3.4s0.3-3.4,2.3-3.4c1.9,0,2.1,1.4,2.1,2.4H86.9z"/>
	<path fill="#231F20" d="M92.7,7.4v1.1h-2.4v1.6h2.2v1.1h-2.2V13h2.5v1.1H89V7.4H92.7z"/>
</g>
<g>
	<path fill="#231F20" d="M115.9,9.1h1.5l1.2,5h-1.2l-0.2-1H116l-0.2,1h-1.2L115.9,9.1z M116.6,10.1L116.6,10.1l-0.4,2.2h0.9
		L116.6,10.1z"/>
	<path fill="#231F20" d="M120.6,11.2h3.5v0.9h-3.5V11.2z M120.6,12.7h3.5v0.9h-3.5V12.7z"/>
	<path fill="#231F20" d="M124.7,11.2h3.5v0.9h-3.5V11.2z M124.7,12.7h3.5v0.9h-3.5V12.7z"/>
	<path fill="#231F20" d="M130.6,9.1h1.8c0.9,0,1.4,0.4,1.4,1.2c0,0.6-0.3,1-0.8,1.1v0c0.4,0.1,0.9,0.2,0.9,1.2
		c0,0.6-0.3,1.4-1.7,1.4h-1.7V9.1z M131.8,11.1h0.3c0.4,0,0.6-0.2,0.6-0.6c0-0.3-0.1-0.5-0.6-0.5h-0.3V11.1z M131.8,13.3h0.4
		c0.5,0,0.6-0.3,0.6-0.7c0-0.5-0.3-0.7-0.6-0.7h-0.4V13.3z"/>
</g>
<g>
	<path fill="#231F20" d="M136.1,9.1h0.8v0.8h-0.8V9.1z M136.1,10.4h0.8v3.8h-0.8V10.4z"/>
	<path fill="#231F20" d="M139.2,11.5L139.2,11.5c0-0.4-0.1-0.7-0.5-0.7c-0.3,0-0.5,0.1-0.5,0.5c0,0.3,0.1,0.4,0.5,0.6l0.5,0.2
		c0.6,0.2,0.8,0.5,0.8,1.1c0,0.8-0.6,1.1-1.4,1.1c-1,0-1.2-0.4-1.2-1.2v-0.1h0.7v0.1c0,0.4,0.1,0.7,0.6,0.7c0.4,0,0.6-0.2,0.6-0.6
		c0-0.3-0.1-0.5-0.4-0.6l-0.6-0.2c-0.6-0.2-0.8-0.5-0.8-1.1c0-0.7,0.5-1,1.3-1c1,0,1.2,0.6,1.2,1v0.2H139.2z"/>
	<path fill="#231F20" d="M141.7,10.4h0.5V9.3h0.8v1.1h0.6v0.6H143v2.2c0,0.3,0.1,0.4,0.3,0.4c0.1,0,0.2,0,0.3,0v0.6
		c-0.2,0-0.4,0.1-0.6,0.1c-0.5,0-0.8-0.1-0.8-0.9v-2.3h-0.5V10.4z"/>
	<path fill="#231F20" d="M143.9,10.4h0.8V11h0c0.2-0.4,0.4-0.7,0.9-0.7c0.1,0,0.1,0,0.2,0v0.8c-0.1,0-0.2,0-0.3,0
		c-0.3,0-0.8,0.2-0.8,0.9v2.3h-0.8V10.4z"/>
	<path fill="#231F20" d="M147.9,13.7L147.9,13.7c-0.2,0.3-0.6,0.5-1,0.5c-0.6,0-0.9-0.3-0.9-1.2v-2.6h0.8v2.7c0,0.4,0.2,0.6,0.5,0.6
		s0.6-0.2,0.6-0.6v-2.6h0.8v3.8h-0.7V13.7z"/>
	<path fill="#231F20" d="M149.9,12.4v0.2c0,0.5,0.1,1.1,0.6,1.1c0.5,0,0.6-0.6,0.6-0.8h0.7c0,0.8-0.5,1.4-1.3,1.4
		c-0.6,0-1.4-0.2-1.4-1.9c0-1,0.2-2,1.4-2c1.1,0,1.3,0.6,1.3,1.7v0.4H149.9z M151.2,11.8v-0.2c0-0.5-0.2-0.8-0.6-0.8
		c-0.5,0-0.6,0.5-0.6,1v0.1H151.2z"/>
	<path fill="#231F20" d="M154.1,9.1h0.8v0.8h-0.8V9.1z M154.1,10.4h0.8v3.8h-0.8V10.4z"/>
	<path fill="#231F20" d="M155.7,10.9h-0.5v-0.6h0.5V10c0-0.7,0.3-0.9,1-0.9c0.2,0,0.3,0,0.4,0v0.6h-0.2c-0.3,0-0.4,0.1-0.4,0.4v0.3
		h0.6v0.6h-0.6v3.2h-0.8V10.9z"/>
	<path fill="#231F20" d="M160,9.1h1l1.3,5h-0.8l-0.3-1.2h-1.5l-0.3,1.2h-0.8L160,9.1z M161,12.3l-0.6-2.5h0l-0.6,2.5H161z"/>
	<path fill="#231F20" d="M166.6,13.4c0,0.1,0.1,0.3,0.2,0.3c0.1,0,0.1,0,0.1,0v0.5c-0.1,0-0.2,0.1-0.4,0.1c-0.3,0-0.6-0.1-0.6-0.5h0
		c-0.2,0.4-0.5,0.6-0.9,0.6c-0.6,0-1-0.3-1-1.1c0-0.8,0.4-1,0.9-1.2l0.6-0.2c0.3-0.1,0.4-0.2,0.4-0.5c0-0.3-0.1-0.6-0.5-0.6
		c-0.5,0-0.6,0.4-0.6,0.7h-0.7c0-0.8,0.3-1.2,1.3-1.2c0.7,0,1.2,0.3,1.2,0.9V13.4z M165.9,12.2c-0.2,0.2-0.6,0.2-0.8,0.4
		c-0.2,0.1-0.3,0.3-0.3,0.6c0,0.3,0.2,0.6,0.5,0.6c0.5,0,0.7-0.3,0.7-0.9V12.2z"/>
	<path fill="#231F20" d="M167.3,10.4h0.7v0.4h0c0.2-0.3,0.5-0.5,1-0.5c0.6,0,0.9,0.3,0.9,1v2.8h-0.8v-2.6c0-0.5-0.1-0.7-0.5-0.7
		c-0.3,0-0.6,0.2-0.6,0.7v2.5h-0.8V10.4z"/>
	<path fill="#231F20" d="M172.5,13.7L172.5,13.7c-0.1,0.2-0.3,0.6-0.8,0.6c-0.9,0-1.2-0.7-1.2-2c0-1.7,0.6-1.9,1.2-1.9
		c0.4,0,0.7,0.2,0.9,0.5h0V9.1h0.8v5h-0.7V13.7z M171.8,10.9c-0.4,0-0.6,0.4-0.6,1.4c0,0.9,0.1,1.4,0.6,1.4c0.5,0,0.6-0.5,0.6-1.3
		C172.5,11.4,172.4,10.9,171.8,10.9z"/>
	<path fill="#231F20" d="M175.5,9.1h1.6c0.7,0,1.3,0.3,1.3,1.2c0,0.6-0.2,1-0.7,1.1v0c0.5,0.1,0.9,0.4,0.9,1.3
		c0,0.8-0.6,1.4-1.5,1.4h-1.6V9.1z M176.9,11.3c0.5,0,0.7-0.3,0.7-0.8c0-0.6-0.4-0.7-0.8-0.7h-0.6v1.5H176.9z M177.1,13.5
		c0.5,0,0.7-0.3,0.7-0.9c0-0.5-0.3-0.8-0.8-0.8h-0.7v1.7H177.1z"/>
	<path fill="#231F20" d="M183.2,13.4c0,0.1,0.1,0.3,0.2,0.3c0.1,0,0.1,0,0.1,0v0.5c-0.1,0-0.2,0.1-0.4,0.1c-0.3,0-0.6-0.1-0.6-0.5h0
		c-0.2,0.4-0.5,0.6-0.9,0.6c-0.6,0-1-0.3-1-1.1c0-0.8,0.4-1,0.9-1.2l0.6-0.2c0.3-0.1,0.4-0.2,0.4-0.5c0-0.3-0.1-0.6-0.5-0.6
		c-0.5,0-0.6,0.4-0.6,0.7h-0.7c0-0.8,0.3-1.2,1.3-1.2c0.7,0,1.2,0.3,1.2,0.9V13.4z M182.5,12.2c-0.2,0.2-0.6,0.2-0.8,0.4
		c-0.2,0.1-0.3,0.3-0.3,0.6c0,0.3,0.2,0.6,0.5,0.6c0.5,0,0.7-0.3,0.7-0.9V12.2z"/>
	<path fill="#231F20" d="M183.9,10.4h0.8V11h0c0.2-0.4,0.4-0.7,0.9-0.7c0.1,0,0.1,0,0.2,0v0.8c-0.1,0-0.2,0-0.3,0
		c-0.3,0-0.8,0.2-0.8,0.9v2.3h-0.8V10.4z"/>
	<path fill="#231F20" d="M186.6,12.4v0.2c0,0.5,0.1,1.1,0.6,1.1c0.5,0,0.6-0.6,0.6-0.8h0.7c0,0.8-0.5,1.4-1.3,1.4
		c-0.6,0-1.4-0.2-1.4-1.9c0-1,0.2-2,1.4-2c1.1,0,1.3,0.6,1.3,1.7v0.4H186.6z M187.8,11.8v-0.2c0-0.5-0.2-0.8-0.6-0.8
		c-0.5,0-0.6,0.5-0.6,1v0.1H187.8z"/>
	<path fill="#231F20" d="M190.4,10.4h0.5V9.3h0.8v1.1h0.6v0.6h-0.6v2.2c0,0.3,0.1,0.4,0.3,0.4c0.1,0,0.2,0,0.3,0v0.6
		c-0.2,0-0.4,0.1-0.6,0.1c-0.5,0-0.8-0.1-0.8-0.9v-2.3h-0.5V10.4z"/>
	<path fill="#231F20" d="M192.6,9.1h0.8v1.6l0,0c0.2-0.3,0.5-0.5,0.9-0.5c0.6,0,0.9,0.3,0.9,1v2.8h-0.8v-2.6c0-0.5-0.1-0.7-0.5-0.7
		c-0.3,0-0.6,0.2-0.6,0.7v2.5h-0.8V9.1z"/>
	<path fill="#231F20" d="M196.5,12.4v0.2c0,0.5,0.1,1.1,0.6,1.1c0.5,0,0.6-0.6,0.6-0.8h0.7c0,0.8-0.5,1.4-1.3,1.4
		c-0.6,0-1.4-0.2-1.4-1.9c0-1,0.2-2,1.4-2c1.1,0,1.3,0.6,1.3,1.7v0.4H196.5z M197.7,11.8v-0.2c0-0.5-0.2-0.8-0.6-0.8
		c-0.5,0-0.6,0.5-0.6,1v0.1H197.7z"/>
</g>
<g>
	<path fill="#231F20" d="M201.4,12.6v0.2c0,0.4,0.1,0.7,0.5,0.7c0.4,0,0.5-0.3,0.5-0.6c0-1.1-2.2-0.5-2.2-2.3c0-0.8,0.4-1.5,1.6-1.5
		c1.2,0,1.6,0.6,1.6,1.4v0.1h-1.1c0-0.2,0-0.4-0.1-0.5c-0.1-0.1-0.2-0.2-0.4-0.2c-0.3,0-0.5,0.2-0.5,0.5c0,1.1,2.2,0.5,2.2,2.3
		c0,1.1-0.6,1.6-1.7,1.6c-0.9,0-1.6-0.3-1.6-1.3v-0.3H201.4z"/>
	<path fill="#231F20" d="M205,9.1h1.5l1.2,5h-1.2l-0.2-1h-1.2l-0.2,1h-1.2L205,9.1z M205.8,10.1L205.8,10.1l-0.4,2.2h0.9L205.8,10.1
		z"/>
	<path fill="#231F20" d="M208.1,9.1h1.7l0.6,3.3h0l0.6-3.3h1.7v5h-1.1v-3.9h0l-0.8,3.9H210l-0.8-3.9h0v3.9h-1V9.1z"/>
	<path fill="#231F20" d="M213.4,9.1h2.9v1h-1.7v1h1.6v1h-1.6v1.1h1.8v1h-3V9.1z"/>
</g>
<g>
	<path fill="#231F20" d="M216.9,13.2h0.8v0.9h-0.8V13.2z"/>
</g>
<rect x="0.1" y="22" fill="#FFFFFF" width="241.2" height="21.8"/>
<rect x="0.1" y="22" fill="none" stroke="#231F20" stroke-width="0.25" stroke-miterlimit="10" width="241.2" height="21.8"/>
<rect x="0.1" y="22" fill="#FFFFFF" width="106.8" height="21.8"/>
<rect x="0.1" y="22" fill="none" stroke="#231F20" stroke-width="0.25" stroke-miterlimit="10" width="106.8" height="21.8"/>
<rect x="0.1" y="22" fill="#FFFFFF" width="29.4" height="21.8"/>
<rect x="0.1" y="22" fill="none" stroke="#231F20" stroke-width="0.25" stroke-miterlimit="10" width="29.4" height="21.8"/>
<g>
	<path fill="#231F20" d="M10.9,34.1l-0.2-2.6v-2.2h1.3v2.2l-0.2,2.6H10.9z M12.1,34.7v1.2h-1.3v-1.2H12.1z"/>
	<path fill="#231F20" d="M13.9,32h4.7v1.2h-4.7V32z M13.9,34h4.7v1.2h-4.7V34z"/>
</g>
<g>
	<path fill="#231F20" d="M46.7,29.3h2.2c1.8,0,2.2,1.3,2.2,3.2c0,2.3-0.5,3.4-2.3,3.4h-2.1V29.3z M48,34.9h0.6
		c0.9,0,1.1-0.6,1.1-2.4c0-1.5-0.1-2.3-1.1-2.3H48V34.9z"/>
	<path fill="#231F20" d="M51.9,35.9v-6.6h1.3v6.6H51.9z"/>
	<path fill="#231F20" d="M54.1,29.3h3.7v1.1h-2.4v1.6h2.2V33h-2.2v2.9h-1.3V29.3z"/>
	<path fill="#231F20" d="M58.3,29.3H62v1.1h-2.4v1.6h2.2V33h-2.2v2.9h-1.3V29.3z"/>
	<path fill="#231F20" d="M66.2,29.3v1.1h-2.4v1.6h2.2V33h-2.2v1.8h2.5v1.1h-3.8v-6.6H66.2z"/>
	<path fill="#231F20" d="M66.8,29.3h2.5c1.1,0,1.8,0.6,1.8,1.7c0,0.9-0.4,1.5-1.1,1.6v0c0.9,0.1,1,0.6,1.1,2c0,0.7,0,1,0.3,1.2v0.1
		h-1.4c-0.1-0.2-0.2-0.4-0.2-0.7l0-1.3c0-0.5-0.2-0.8-0.8-0.8h-0.7v2.8h-1.3V29.3z M68.2,32.2h0.6c0.6,0,1-0.3,1-1
		c0-0.6-0.3-0.9-0.9-0.9h-0.6V32.2z"/>
	<path fill="#231F20" d="M75.6,29.3v1.1h-2.4v1.6h2.2V33h-2.2v1.8h2.5v1.1h-3.8v-6.6H75.6z"/>
	<path fill="#231F20" d="M77.8,29.3l1.6,4.5h0v-4.5h1.2v6.6h-1.5l-1.6-4.6h0v4.6h-1.2v-6.6H77.8z"/>
	<path fill="#231F20" d="M84.3,31.5c0-1-0.2-1.4-0.8-1.4c-0.7,0-0.8,0.7-0.8,2.6c0,2,0.3,2.4,0.9,2.4c0.5,0,0.8-0.2,0.8-1.7h1.3
		c0,1.4-0.4,2.7-2.1,2.7c-2,0-2.3-1.4-2.3-3.4s0.3-3.4,2.3-3.4c1.9,0,2.1,1.4,2.1,2.4H84.3z"/>
	<path fill="#231F20" d="M90.1,29.3v1.1h-2.4v1.6h2.2V33h-2.2v1.8h2.5v1.1h-3.8v-6.6H90.1z"/>
</g>
<g>
	<path fill="#231F20" d="M115.9,31h1.5l1.2,5h-1.2l-0.2-1H116l-0.2,1h-1.2L115.9,31z M116.6,31.9L116.6,31.9l-0.4,2.2h0.9
		L116.6,31.9z"/>
	<path fill="#231F20" d="M120.8,31h1.1v1.6l-0.1,1.9H121l-0.1-1.9V31z M120.9,34.9h1.1V36h-1.1V34.9z"/>
	<path fill="#231F20" d="M122.8,33h3.5v0.9h-3.5V33z M122.8,34.5h3.5v0.9h-3.5V34.5z"/>
	<path fill="#231F20" d="M128.7,31h1.8c0.9,0,1.4,0.4,1.4,1.2c0,0.6-0.3,1-0.8,1.1v0c0.4,0.1,0.9,0.2,0.9,1.2c0,0.6-0.3,1.4-1.7,1.4
		h-1.7V31z M129.9,33h0.3c0.4,0,0.6-0.2,0.6-0.6c0-0.3-0.1-0.5-0.6-0.5h-0.3V33z M129.9,35.1h0.4c0.5,0,0.6-0.3,0.6-0.7
		c0-0.5-0.3-0.7-0.6-0.7h-0.4V35.1z"/>
</g>
<g>
	<path fill="#231F20" d="M134.2,30.9h0.8v0.8h-0.8V30.9z M134.2,32.2h0.8V36h-0.8V32.2z"/>
	<path fill="#231F20" d="M137.3,33.3L137.3,33.3c0-0.4-0.1-0.7-0.5-0.7c-0.3,0-0.5,0.1-0.5,0.5c0,0.3,0.1,0.4,0.5,0.6l0.5,0.2
		c0.6,0.2,0.8,0.5,0.8,1.1c0,0.8-0.6,1.1-1.4,1.1c-1,0-1.2-0.4-1.2-1.2v-0.1h0.7v0.1c0,0.4,0.1,0.7,0.6,0.7c0.4,0,0.6-0.2,0.6-0.6
		c0-0.3-0.1-0.5-0.4-0.6l-0.6-0.2c-0.6-0.2-0.8-0.5-0.8-1.1c0-0.7,0.5-1,1.3-1c1,0,1.2,0.6,1.2,1v0.2H137.3z"/>
	<path fill="#231F20" d="M139.8,32.2h0.5v-1.1h0.8v1.1h0.6v0.6h-0.6V35c0,0.3,0.1,0.4,0.3,0.4c0.1,0,0.2,0,0.3,0V36
		c-0.2,0-0.4,0.1-0.6,0.1c-0.5,0-0.8-0.1-0.8-0.9v-2.3h-0.5V32.2z"/>
	<path fill="#231F20" d="M142,32.2h0.8v0.6h0c0.2-0.4,0.4-0.7,0.9-0.7c0.1,0,0.1,0,0.2,0v0.8c-0.1,0-0.2,0-0.3,0
		c-0.3,0-0.8,0.2-0.8,0.9V36H142V32.2z"/>
	<path fill="#231F20" d="M146.1,35.6L146.1,35.6c-0.2,0.3-0.6,0.5-1,0.5c-0.6,0-0.9-0.3-0.9-1.2v-2.6h0.8v2.7c0,0.4,0.2,0.6,0.5,0.6
		s0.6-0.2,0.6-0.6v-2.6h0.8V36h-0.7V35.6z"/>
	<path fill="#231F20" d="M148.1,34.2v0.2c0,0.5,0.1,1.1,0.6,1.1c0.5,0,0.6-0.6,0.6-0.8h0.7c0,0.8-0.5,1.4-1.3,1.4
		c-0.6,0-1.4-0.2-1.4-1.9c0-1,0.2-2,1.4-2c1.1,0,1.3,0.6,1.3,1.7v0.4H148.1z M149.3,33.7v-0.2c0-0.5-0.2-0.8-0.6-0.8
		c-0.5,0-0.6,0.5-0.6,1v0.1H149.3z"/>
	<path fill="#231F20" d="M152.2,30.9h0.8v0.8h-0.8V30.9z M152.2,32.2h0.8V36h-0.8V32.2z"/>
	<path fill="#231F20" d="M153.9,32.8h-0.5v-0.6h0.5v-0.4c0-0.7,0.3-0.9,1-0.9c0.2,0,0.3,0,0.4,0v0.6H155c-0.3,0-0.4,0.1-0.4,0.4v0.3
		h0.6v0.6h-0.6V36h-0.8V32.8z"/>
	<path fill="#231F20" d="M158.1,31h1l1.3,5h-0.8l-0.3-1.2h-1.5l-0.3,1.2h-0.8L158.1,31z M159.2,34.1l-0.6-2.5h0l-0.6,2.5H159.2z"/>
	<path fill="#231F20" d="M164.7,35.2c0,0.1,0.1,0.3,0.2,0.3c0.1,0,0.1,0,0.1,0v0.5c-0.1,0-0.2,0.1-0.4,0.1c-0.3,0-0.6-0.1-0.6-0.5h0
		c-0.2,0.4-0.5,0.6-0.9,0.6c-0.6,0-1-0.3-1-1.1c0-0.8,0.4-1,0.9-1.2l0.6-0.2c0.3-0.1,0.4-0.2,0.4-0.5c0-0.3-0.1-0.6-0.5-0.6
		c-0.5,0-0.6,0.4-0.6,0.7h-0.7c0-0.8,0.3-1.2,1.3-1.2c0.7,0,1.2,0.3,1.2,0.9V35.2z M164,34c-0.2,0.2-0.6,0.2-0.8,0.4
		c-0.2,0.1-0.3,0.3-0.3,0.6c0,0.3,0.2,0.6,0.5,0.6c0.5,0,0.7-0.3,0.7-0.9V34z"/>
	<path fill="#231F20" d="M165.4,32.2h0.7v0.4h0c0.2-0.3,0.5-0.5,1-0.5c0.6,0,0.9,0.3,0.9,1V36h-0.8v-2.6c0-0.5-0.1-0.7-0.5-0.7
		c-0.3,0-0.6,0.2-0.6,0.7V36h-0.8V32.2z"/>
	<path fill="#231F20" d="M170.6,35.5L170.6,35.5c-0.1,0.2-0.3,0.6-0.8,0.6c-0.9,0-1.2-0.7-1.2-2c0-1.7,0.6-1.9,1.2-1.9
		c0.4,0,0.7,0.2,0.9,0.5h0V31h0.8v5h-0.7V35.5z M169.9,32.7c-0.4,0-0.6,0.4-0.6,1.4c0,0.9,0.1,1.4,0.6,1.4c0.5,0,0.6-0.5,0.6-1.3
		C170.6,33.2,170.5,32.7,169.9,32.7z"/>
	<path fill="#231F20" d="M173.6,31h1.6c0.7,0,1.3,0.3,1.3,1.2c0,0.6-0.2,1-0.7,1.1v0c0.5,0.1,0.9,0.4,0.9,1.3c0,0.8-0.6,1.4-1.5,1.4
		h-1.6V31z M175,33.1c0.5,0,0.7-0.3,0.7-0.8c0-0.6-0.4-0.7-0.8-0.7h-0.6v1.5H175z M175.2,35.4c0.5,0,0.7-0.3,0.7-0.9
		c0-0.5-0.3-0.8-0.8-0.8h-0.7v1.7H175.2z"/>
	<path fill="#231F20" d="M181.3,35.2c0,0.1,0.1,0.3,0.2,0.3c0.1,0,0.1,0,0.1,0v0.5c-0.1,0-0.2,0.1-0.4,0.1c-0.3,0-0.6-0.1-0.6-0.5h0
		c-0.2,0.4-0.5,0.6-0.9,0.6c-0.6,0-1-0.3-1-1.1c0-0.8,0.4-1,0.9-1.2l0.6-0.2c0.3-0.1,0.4-0.2,0.4-0.5c0-0.3-0.1-0.6-0.5-0.6
		c-0.5,0-0.6,0.4-0.6,0.7h-0.7c0-0.8,0.3-1.2,1.3-1.2c0.7,0,1.2,0.3,1.2,0.9V35.2z M180.6,34c-0.2,0.2-0.6,0.2-0.8,0.4
		c-0.2,0.1-0.3,0.3-0.3,0.6c0,0.3,0.2,0.6,0.5,0.6c0.5,0,0.7-0.3,0.7-0.9V34z"/>
	<path fill="#231F20" d="M182,32.2h0.8v0.6h0c0.2-0.4,0.4-0.7,0.9-0.7c0.1,0,0.1,0,0.2,0v0.8c-0.1,0-0.2,0-0.3,0
		c-0.3,0-0.8,0.2-0.8,0.9V36H182V32.2z"/>
	<path fill="#231F20" d="M184.8,34.2v0.2c0,0.5,0.1,1.1,0.6,1.1c0.5,0,0.6-0.6,0.6-0.8h0.7c0,0.8-0.5,1.4-1.3,1.4
		c-0.6,0-1.4-0.2-1.4-1.9c0-1,0.2-2,1.4-2c1.1,0,1.3,0.6,1.3,1.7v0.4H184.8z M186,33.7v-0.2c0-0.5-0.2-0.8-0.6-0.8
		c-0.5,0-0.6,0.5-0.6,1v0.1H186z"/>
</g>
<g>
	<path fill="#231F20" d="M188.7,31h1.4l1,3.2h0V31h1.1v5h-1.3l-1-3.4h0V36h-1V31z"/>
	<path fill="#231F20" d="M194.4,36.1c-1.5,0-1.8-1-1.8-2.6s0.2-2.6,1.8-2.6c1.7,0,1.8,1.2,1.8,2.6S196.1,36.1,194.4,36.1z
		 M194.4,35.3c0.5,0,0.5-0.4,0.5-1.8c0-1.4-0.1-1.8-0.5-1.8c-0.5,0-0.5,0.4-0.5,1.8C193.9,34.9,193.9,35.3,194.4,35.3z"/>
	<path fill="#231F20" d="M197.4,31.9h-1.1v-1h3.3v1h-1.1v4h-1.2V31.9z"/>
	<path fill="#231F20" d="M202.4,31.9h-1.1v-1h3.3v1h-1.1v4h-1.2V31.9z"/>
	<path fill="#231F20" d="M205,31h1.2v1.9h0.9V31h1.2v5h-1.2v-2.1h-0.9V36H205V31z"/>
	<path fill="#231F20" d="M208.9,31h2.9v1h-1.7v1h1.6v1h-1.6V35h1.8v1h-3V31z"/>
	<path fill="#231F20" d="M215,34.5v0.2c0,0.4,0.1,0.7,0.5,0.7c0.4,0,0.5-0.3,0.5-0.6c0-1.1-2.2-0.5-2.2-2.3c0-0.8,0.4-1.5,1.6-1.5
		c1.2,0,1.6,0.6,1.6,1.4v0.1H216c0-0.2,0-0.4-0.1-0.5c-0.1-0.1-0.2-0.2-0.4-0.2c-0.3,0-0.5,0.2-0.5,0.5c0,1.1,2.2,0.5,2.2,2.3
		c0,1.1-0.6,1.6-1.7,1.6c-0.9,0-1.6-0.3-1.6-1.3v-0.3H215z"/>
	<path fill="#231F20" d="M218.7,31h1.5l1.2,5h-1.2l-0.2-1h-1.2l-0.2,1h-1.2L218.7,31z M219.4,31.9L219.4,31.9l-0.4,2.2h0.9
		L219.4,31.9z"/>
	<path fill="#231F20" d="M221.7,31h1.7l0.6,3.3h0l0.6-3.3h1.7v5h-1.1v-3.9h0l-0.8,3.9h-0.9l-0.8-3.9h0V36h-1V31z"/>
	<path fill="#231F20" d="M227,31h2.9v1h-1.7v1h1.6v1h-1.6V35h1.8v1h-3V31z"/>
</g>
<g>
	<path fill="#231F20" d="M230.5,35.1h0.8V36h-0.8V35.1z"/>
</g>
<rect x="0.1" y="43.8" fill="#FFFFFF" width="241.2" height="21.8"/>
<rect x="0.1" y="43.8" fill="none" stroke="#231F20" stroke-width="0.25" stroke-miterlimit="10" width="241.2" height="21.8"/>
<rect x="0.1" y="43.8" fill="#FFFFFF" width="106.8" height="21.8"/>
<rect x="0.1" y="43.8" fill="none" stroke="#231F20" stroke-width="0.25" stroke-miterlimit="10" width="106.8" height="21.8"/>
<rect x="0.1" y="43.8" fill="#FFFFFF" width="29.4" height="21.8"/>
<rect x="0.1" y="43.8" fill="none" stroke="#231F20" stroke-width="0.25" stroke-miterlimit="10" width="29.4" height="21.8"/>
<g>
	<path fill="#231F20" d="M12.6,55.6c0.1-0.3,0.2-0.7,0.2-1H14c0,0.7-0.3,1.4-0.7,2l0.9,1.2h-1.4l-0.4-0.5c-0.3,0.4-0.9,0.6-1.6,0.6
		c-1.7,0-2-1.2-2-1.9c0-0.8,0.5-1.4,1.3-1.9l-0.2-0.3c-0.4-0.5-0.4-0.8-0.4-1.2c0-0.9,0.7-1.4,1.7-1.4c1.1,0,1.7,0.6,1.7,1.4
		c0,0.7-0.4,1.2-1.2,1.7L12.6,55.6z M10.8,54.9c-0.5,0.4-0.7,0.7-0.7,1.1s0.3,0.9,0.9,0.9c0.4,0,0.6-0.1,0.9-0.4L10.8,54.9z
		 M10.9,53.2l0.2,0.2l0.2-0.2c0.3-0.3,0.4-0.5,0.4-0.7c0-0.4-0.2-0.6-0.6-0.6c-0.3,0-0.6,0.2-0.6,0.5C10.6,52.7,10.7,52.9,10.9,53.2
		z"/>
	<path fill="#231F20" d="M18.9,55.6c0.1-0.3,0.2-0.7,0.2-1h1.2c0,0.7-0.3,1.4-0.7,2l0.9,1.2H19l-0.4-0.5c-0.3,0.4-0.9,0.6-1.6,0.6
		c-1.7,0-2-1.2-2-1.9c0-0.8,0.5-1.4,1.3-1.9l-0.2-0.3c-0.4-0.5-0.4-0.8-0.4-1.2c0-0.9,0.7-1.4,1.7-1.4c1.1,0,1.7,0.6,1.7,1.4
		c0,0.7-0.4,1.2-1.2,1.7L18.9,55.6z M17,54.9c-0.5,0.4-0.7,0.7-0.7,1.1s0.3,0.9,0.9,0.9c0.4,0,0.6-0.1,0.9-0.4L17,54.9z M17.1,53.2
		l0.2,0.2l0.2-0.2c0.3-0.3,0.4-0.5,0.4-0.7c0-0.4-0.2-0.6-0.6-0.6c-0.3,0-0.6,0.2-0.6,0.5C16.8,52.7,16.9,52.9,17.1,53.2z"/>
</g>
<g>
	<path fill="#231F20" d="M62.2,51.1h1.7l1.8,6.6h-1.4l-0.3-1.4h-1.8l-0.3,1.4h-1.4L62.2,51.1z M62.4,55.3h1.3l-0.6-3h0L62.4,55.3z"
		/>
	<path fill="#231F20" d="M67.5,51.1l1.6,4.5h0v-4.5h1.2v6.6h-1.5l-1.6-4.6h0v4.6h-1.2v-6.6H67.5z"/>
	<path fill="#231F20" d="M71.2,51.1h2.2c1.8,0,2.2,1.3,2.2,3.2c0,2.3-0.5,3.4-2.3,3.4h-2.1V51.1z M72.6,56.8h0.6
		c0.9,0,1.1-0.6,1.1-2.4c0-1.5-0.1-2.3-1.1-2.3h-0.6V56.8z"/>
</g>
<g>
	<path fill="#231F20" d="M115.9,52.8h1.5l1.2,5h-1.2l-0.2-1H116l-0.2,1h-1.2L115.9,52.8z M116.6,53.7L116.6,53.7l-0.4,2.2h0.9
		L116.6,53.7z"/>
	<path fill="#231F20" d="M123.3,56.1c0.1-0.2,0.2-0.4,0.2-0.7h1c0,0.6-0.2,1.1-0.6,1.5l0.7,0.9h-1.2l-0.2-0.3
		c-0.4,0.3-0.7,0.4-1.2,0.4c-1.1,0-1.5-0.8-1.5-1.4c0-0.7,0.4-1.1,1-1.5c-0.2-0.3-0.5-0.7-0.5-1.1c0-0.8,0.6-1.2,1.4-1.2
		c0.7,0,1.3,0.4,1.3,1.1c0,0.6-0.4,1-0.9,1.3L123.3,56.1z M121.9,55.8c-0.3,0.2-0.4,0.4-0.4,0.7c0,0.3,0.3,0.6,0.6,0.6
		c0.2,0,0.4-0.1,0.5-0.3L121.9,55.8z M122.2,54.5c0.2-0.2,0.4-0.4,0.4-0.7c0-0.2-0.2-0.4-0.4-0.4c-0.2,0-0.4,0.1-0.4,0.4
		S122,54.3,122.2,54.5z"/>
	<path fill="#231F20" d="M127.7,56.1c0.1-0.2,0.2-0.4,0.2-0.7h1c0,0.6-0.2,1.1-0.6,1.5l0.7,0.9h-1.2l-0.2-0.3
		c-0.4,0.3-0.7,0.4-1.2,0.4c-1.1,0-1.5-0.8-1.5-1.4c0-0.7,0.4-1.1,1-1.5c-0.2-0.3-0.5-0.7-0.5-1.1c0-0.8,0.6-1.2,1.4-1.2
		c0.7,0,1.3,0.4,1.3,1.1c0,0.6-0.4,1-0.9,1.3L127.7,56.1z M126.2,55.8c-0.3,0.2-0.4,0.4-0.4,0.7c0,0.3,0.3,0.6,0.6,0.6
		c0.2,0,0.4-0.1,0.5-0.3L126.2,55.8z M126.5,54.5c0.2-0.2,0.4-0.4,0.4-0.7c0-0.2-0.2-0.4-0.4-0.4c-0.2,0-0.4,0.1-0.4,0.4
		S126.3,54.3,126.5,54.5z"/>
	<path fill="#231F20" d="M131,52.8h1.8c0.9,0,1.4,0.4,1.4,1.2c0,0.6-0.3,1-0.8,1.1v0c0.4,0.1,0.9,0.2,0.9,1.2c0,0.6-0.3,1.4-1.7,1.4
		H131V52.8z M132.2,54.8h0.3c0.4,0,0.6-0.2,0.6-0.6c0-0.3-0.1-0.5-0.6-0.5h-0.3V54.8z M132.2,57h0.4c0.5,0,0.6-0.3,0.6-0.7
		c0-0.5-0.3-0.7-0.6-0.7h-0.4V57z"/>
</g>
<g>
	<path fill="#231F20" d="M136.7,52.8h0.8v0.8h-0.8V52.8z M136.7,54.1h0.8v3.8h-0.8V54.1z"/>
	<path fill="#231F20" d="M139.7,55.2L139.7,55.2c0-0.4-0.1-0.7-0.5-0.7c-0.3,0-0.5,0.1-0.5,0.5c0,0.3,0.1,0.4,0.5,0.6l0.5,0.2
		c0.6,0.2,0.8,0.5,0.8,1.1c0,0.8-0.6,1.1-1.4,1.1c-1,0-1.2-0.4-1.2-1.2v-0.1h0.7v0.1c0,0.4,0.1,0.7,0.6,0.7c0.4,0,0.6-0.2,0.6-0.6
		c0-0.3-0.1-0.5-0.4-0.6l-0.6-0.2c-0.6-0.2-0.8-0.5-0.8-1.1c0-0.7,0.5-1,1.3-1c1,0,1.2,0.6,1.2,1v0.2H139.7z"/>
	<path fill="#231F20" d="M142.2,54.1h0.5V53h0.8v1.1h0.6v0.6h-0.6v2.2c0,0.3,0.1,0.4,0.3,0.4c0.1,0,0.2,0,0.3,0v0.6
		c-0.2,0-0.4,0.1-0.6,0.1c-0.5,0-0.8-0.1-0.8-0.9v-2.3h-0.5V54.1z"/>
	<path fill="#231F20" d="M144.4,54.1h0.8v0.6h0c0.2-0.4,0.4-0.7,0.9-0.7c0.1,0,0.1,0,0.2,0v0.8c-0.1,0-0.2,0-0.3,0
		c-0.3,0-0.8,0.2-0.8,0.9v2.3h-0.8V54.1z"/>
	<path fill="#231F20" d="M148.5,57.4L148.5,57.4c-0.2,0.3-0.6,0.5-1,0.5c-0.6,0-0.9-0.3-0.9-1.2v-2.6h0.8v2.7c0,0.4,0.2,0.6,0.5,0.6
		s0.6-0.2,0.6-0.6v-2.6h0.8v3.8h-0.7V57.4z"/>
	<path fill="#231F20" d="M150.5,56.1v0.2c0,0.5,0.1,1.1,0.6,1.1c0.5,0,0.6-0.6,0.6-0.8h0.7c0,0.8-0.5,1.4-1.3,1.4
		c-0.6,0-1.4-0.2-1.4-1.9c0-1,0.2-2,1.4-2c1.1,0,1.3,0.6,1.3,1.7v0.4H150.5z M151.7,55.5v-0.2c0-0.5-0.2-0.8-0.6-0.8
		c-0.5,0-0.6,0.5-0.6,1v0.1H151.7z"/>
	<path fill="#231F20" d="M154.6,52.8h0.8v0.8h-0.8V52.8z M154.6,54.1h0.8v3.8h-0.8V54.1z"/>
	<path fill="#231F20" d="M156.3,54.6h-0.5v-0.6h0.5v-0.4c0-0.7,0.3-0.9,1-0.9c0.2,0,0.3,0,0.4,0v0.6h-0.2c-0.3,0-0.4,0.1-0.4,0.4
		v0.3h0.6v0.6h-0.6v3.2h-0.8V54.6z"/>
</g>
<g>
	<path fill="#231F20" d="M159.5,52.8h1.8c0.9,0,1.4,0.4,1.4,1.2c0,0.6-0.3,1-0.8,1.1v0c0.4,0.1,0.9,0.2,0.9,1.2
		c0,0.6-0.3,1.4-1.7,1.4h-1.7V52.8z M160.6,54.8h0.3c0.4,0,0.6-0.2,0.6-0.6c0-0.3-0.1-0.5-0.6-0.5h-0.3V54.8z M160.6,57h0.4
		c0.5,0,0.6-0.3,0.6-0.7c0-0.5-0.3-0.7-0.6-0.7h-0.4V57z"/>
	<path fill="#231F20" d="M165,57.9c-1.5,0-1.8-1-1.8-2.6s0.2-2.6,1.8-2.6c1.7,0,1.8,1.2,1.8,2.6S166.7,57.9,165,57.9z M165,57.1
		c0.5,0,0.5-0.4,0.5-1.8c0-1.4-0.1-1.8-0.5-1.8c-0.5,0-0.5,0.4-0.5,1.8C164.5,56.7,164.6,57.1,165,57.1z"/>
	<path fill="#231F20" d="M168,53.8H167v-1h3.3v1h-1.1v4H168V53.8z"/>
	<path fill="#231F20" d="M170.6,52.8h1.2v1.9h0.9v-1.9h1.2v5h-1.2v-2.1h-0.9v2.1h-1.2V52.8z"/>
</g>
<g>
	<path fill="#231F20" d="M177.2,52.8h1l1.3,5h-0.8l-0.3-1.2H177l-0.3,1.2h-0.8L177.2,52.8z M178.3,56l-0.6-2.5h0l-0.6,2.5H178.3z"/>
	<path fill="#231F20" d="M183.8,57.1c0,0.1,0.1,0.3,0.2,0.3c0.1,0,0.1,0,0.1,0v0.5c-0.1,0-0.2,0.1-0.4,0.1c-0.3,0-0.6-0.1-0.6-0.5h0
		c-0.2,0.4-0.5,0.6-0.9,0.6c-0.6,0-1-0.3-1-1.1c0-0.8,0.4-1,0.9-1.2l0.6-0.2c0.3-0.1,0.4-0.2,0.4-0.5c0-0.3-0.1-0.6-0.5-0.6
		c-0.5,0-0.6,0.4-0.6,0.7h-0.7c0-0.8,0.3-1.2,1.3-1.2c0.7,0,1.2,0.3,1.2,0.9V57.1z M183.1,55.8c-0.2,0.2-0.6,0.2-0.8,0.4
		c-0.2,0.1-0.3,0.3-0.3,0.6c0,0.3,0.2,0.6,0.5,0.6c0.5,0,0.7-0.3,0.7-0.9V55.8z"/>
	<path fill="#231F20" d="M184.5,54.1h0.7v0.4h0c0.2-0.3,0.5-0.5,1-0.5c0.6,0,0.9,0.3,0.9,1v2.8h-0.8v-2.6c0-0.5-0.1-0.7-0.5-0.7
		c-0.3,0-0.6,0.2-0.6,0.7v2.5h-0.8V54.1z"/>
	<path fill="#231F20" d="M189.7,57.4L189.7,57.4c-0.1,0.2-0.3,0.6-0.8,0.6c-0.9,0-1.2-0.7-1.2-2c0-1.7,0.6-1.9,1.2-1.9
		c0.4,0,0.7,0.2,0.9,0.5h0v-1.7h0.8v5h-0.7V57.4z M189.1,54.6c-0.4,0-0.6,0.4-0.6,1.4c0,0.9,0.1,1.4,0.6,1.4c0.5,0,0.6-0.5,0.6-1.3
		C189.7,55.1,189.6,54.6,189.1,54.6z"/>
	<path fill="#231F20" d="M192.7,52.8h1.6c0.7,0,1.3,0.3,1.3,1.2c0,0.6-0.2,1-0.7,1.1v0c0.5,0.1,0.9,0.4,0.9,1.3
		c0,0.8-0.6,1.4-1.5,1.4h-1.6V52.8z M194.2,54.9c0.5,0,0.7-0.3,0.7-0.8c0-0.6-0.4-0.7-0.8-0.7h-0.6v1.5H194.2z M194.3,57.2
		c0.5,0,0.7-0.3,0.7-0.9c0-0.5-0.3-0.8-0.8-0.8h-0.7v1.7H194.3z"/>
	<path fill="#231F20" d="M200.4,57.1c0,0.1,0.1,0.3,0.2,0.3c0.1,0,0.1,0,0.1,0v0.5c-0.1,0-0.2,0.1-0.4,0.1c-0.3,0-0.6-0.1-0.6-0.5h0
		c-0.2,0.4-0.5,0.6-0.9,0.6c-0.6,0-1-0.3-1-1.1c0-0.8,0.4-1,0.9-1.2l0.6-0.2c0.3-0.1,0.4-0.2,0.4-0.5c0-0.3-0.1-0.6-0.5-0.6
		c-0.5,0-0.6,0.4-0.6,0.7h-0.7c0-0.8,0.3-1.2,1.3-1.2c0.7,0,1.2,0.3,1.2,0.9V57.1z M199.7,55.8c-0.2,0.2-0.6,0.2-0.8,0.4
		c-0.2,0.1-0.3,0.3-0.3,0.6c0,0.3,0.2,0.6,0.5,0.6c0.5,0,0.7-0.3,0.7-0.9V55.8z"/>
	<path fill="#231F20" d="M201.1,54.1h0.8v0.6h0c0.2-0.4,0.4-0.7,0.9-0.7c0.1,0,0.1,0,0.2,0v0.8c-0.1,0-0.2,0-0.3,0
		c-0.3,0-0.8,0.2-0.8,0.9v2.3h-0.8V54.1z"/>
	<path fill="#231F20" d="M203.9,56.1v0.2c0,0.5,0.1,1.1,0.6,1.1c0.5,0,0.6-0.6,0.6-0.8h0.7c0,0.8-0.5,1.4-1.3,1.4
		c-0.6,0-1.4-0.2-1.4-1.9c0-1,0.2-2,1.4-2c1.1,0,1.3,0.6,1.3,1.7v0.4H203.9z M205.1,55.5v-0.2c0-0.5-0.2-0.8-0.6-0.8
		c-0.5,0-0.6,0.5-0.6,1v0.1H205.1z"/>
</g>
<g>
	<path fill="#231F20" d="M208.6,53.8h-1.1v-1h3.3v1h-1.1v4h-1.2V53.8z"/>
	<path fill="#231F20" d="M211.2,52.8h2c1,0,1.3,0.6,1.3,1.3c0,0.7-0.3,1.1-0.8,1.2v0c0.8,0.1,0.8,0.6,0.8,1.2c0,1,0.1,1.1,0.2,1.2
		v0.1h-1.3c-0.1-0.2-0.1-0.4-0.1-1c0-0.9-0.1-1.1-0.5-1.1h-0.4v2.1h-1.2V52.8z M212.4,54.9h0.4c0.5,0,0.6-0.4,0.6-0.7
		c0-0.4-0.1-0.6-0.6-0.6h-0.4V54.9z"/>
	<path fill="#231F20" d="M218.3,56.2c0,1-0.3,1.8-1.6,1.8c-1.4,0-1.6-0.8-1.6-1.8v-3.3h1.2v3.7c0,0.4,0.2,0.6,0.5,0.6
		c0.3,0,0.5-0.2,0.5-0.6v-3.7h1.2V56.2z"/>
	<path fill="#231F20" d="M218.9,52.8h2.9v1h-1.7v1h1.6v1h-1.6v1.1h1.8v1h-3V52.8z"/>
</g>
<g>
	<path fill="#231F20" d="M222.4,56.9h0.8v0.9h-0.8V56.9z"/>
</g>
<rect x="0.1" y="65.7" fill="#FFFFFF" width="241.2" height="21.8"/>
<rect x="0.1" y="65.7" fill="none" stroke="#231F20" stroke-width="0.25" stroke-miterlimit="10" width="241.2" height="21.8"/>
<rect x="0.1" y="65.7" fill="#FFFFFF" width="106.8" height="21.8"/>
<rect x="0.1" y="65.7" fill="none" stroke="#231F20" stroke-width="0.25" stroke-miterlimit="10" width="106.8" height="21.8"/>
<rect x="0.1" y="65.7" fill="#FFFFFF" width="29.4" height="21.8"/>
<rect x="0.1" y="65.7" fill="none" stroke="#231F20" stroke-width="0.25" stroke-miterlimit="10" width="29.4" height="21.8"/>
<g>
	<path fill="#231F20" d="M12.6,72.8h1.2v6.9h-1.2V72.8z"/>
	<path fill="#231F20" d="M15.4,72.8h1.2v6.9h-1.2V72.8z"/>
</g>
<g>
	<path fill="#231F20" d="M65.7,72.8c2,0,2.3,1.4,2.3,3.4s-0.3,3.4-2.3,3.4c-2,0-2.3-1.4-2.3-3.4S63.7,72.8,65.7,72.8z M65.7,78.8
		c0.8,0,0.9-0.7,0.9-2.5c0-1.8-0.1-2.5-0.9-2.5c-0.8,0-0.9,0.7-0.9,2.5C64.8,78.1,64.9,78.8,65.7,78.8z"/>
	<path fill="#231F20" d="M68.6,73h2.5c1.1,0,1.8,0.6,1.8,1.7c0,0.9-0.4,1.5-1.1,1.6v0c0.9,0.1,1,0.6,1.1,2c0,0.7,0,1,0.3,1.2v0.1
		h-1.4c-0.1-0.2-0.2-0.4-0.2-0.7l0-1.3c0-0.5-0.2-0.8-0.8-0.8H70v2.8h-1.3V73z M70,75.9h0.6c0.6,0,1-0.3,1-1c0-0.6-0.3-0.9-0.9-0.9
		H70V75.9z"/>
</g>
<g>
	<path fill="#231F20" d="M115.9,74.7h1.5l1.2,5h-1.2l-0.2-1H116l-0.2,1h-1.2L115.9,74.7z M116.6,75.6L116.6,75.6l-0.4,2.2h0.9
		L116.6,75.6z"/>
	<path fill="#231F20" d="M120.6,74.6h0.9v5.2h-0.9V74.6z"/>
	<path fill="#231F20" d="M122,74.6h0.9v5.2H122V74.6z"/>
	<path fill="#231F20" d="M125.3,74.7h1.8c0.9,0,1.4,0.4,1.4,1.2c0,0.6-0.3,1-0.8,1.1v0c0.4,0.1,0.9,0.2,0.9,1.2
		c0,0.6-0.3,1.4-1.7,1.4h-1.7V74.7z M126.5,76.7h0.3c0.4,0,0.6-0.2,0.6-0.6c0-0.3-0.1-0.5-0.6-0.5h-0.3V76.7z M126.5,78.8h0.4
		c0.5,0,0.6-0.3,0.6-0.7c0-0.5-0.3-0.7-0.6-0.7h-0.4V78.8z"/>
</g>
<g>
	<path fill="#231F20" d="M130.8,74.6h0.8v0.8h-0.8V74.6z M130.8,75.9h0.8v3.8h-0.8V75.9z"/>
	<path fill="#231F20" d="M133.9,77L133.9,77c0-0.4-0.1-0.7-0.5-0.7c-0.3,0-0.5,0.1-0.5,0.5c0,0.3,0.1,0.4,0.5,0.6l0.5,0.2
		c0.6,0.2,0.8,0.5,0.8,1.1c0,0.8-0.6,1.1-1.4,1.1c-1,0-1.2-0.4-1.2-1.2v-0.1h0.7v0.1c0,0.4,0.1,0.7,0.6,0.7c0.4,0,0.6-0.2,0.6-0.6
		c0-0.3-0.1-0.5-0.4-0.6l-0.6-0.2c-0.6-0.2-0.8-0.5-0.8-1.1c0-0.7,0.5-1,1.3-1c1,0,1.2,0.6,1.2,1V77H133.9z"/>
	<path fill="#231F20" d="M136.4,75.9h0.5v-1.1h0.8v1.1h0.6v0.6h-0.6v2.2c0,0.3,0.1,0.4,0.3,0.4c0.1,0,0.2,0,0.3,0v0.6
		c-0.2,0-0.4,0.1-0.6,0.1c-0.5,0-0.8-0.1-0.8-0.9v-2.3h-0.5V75.9z"/>
	<path fill="#231F20" d="M138.6,75.9h0.8v0.6h0c0.2-0.4,0.4-0.7,0.9-0.7c0.1,0,0.1,0,0.2,0v0.8c-0.1,0-0.2,0-0.3,0
		c-0.3,0-0.8,0.2-0.8,0.9v2.3h-0.8V75.9z"/>
	<path fill="#231F20" d="M142.6,79.2L142.6,79.2c-0.2,0.3-0.6,0.5-1,0.5c-0.6,0-0.9-0.3-0.9-1.2v-2.6h0.8v2.7c0,0.4,0.2,0.6,0.5,0.6
		s0.6-0.2,0.6-0.6v-2.6h0.8v3.8h-0.7V79.2z"/>
	<path fill="#231F20" d="M144.7,77.9v0.2c0,0.5,0.1,1.1,0.6,1.1c0.5,0,0.6-0.6,0.6-0.8h0.7c0,0.8-0.5,1.4-1.3,1.4
		c-0.6,0-1.4-0.2-1.4-1.9c0-1,0.2-2,1.4-2c1.1,0,1.3,0.6,1.3,1.7v0.4H144.7z M145.9,77.4v-0.2c0-0.5-0.2-0.8-0.6-0.8
		c-0.5,0-0.6,0.5-0.6,1v0.1H145.9z"/>
	<path fill="#231F20" d="M148.8,74.6h0.8v0.8h-0.8V74.6z M148.8,75.9h0.8v3.8h-0.8V75.9z"/>
	<path fill="#231F20" d="M150.4,76.5h-0.5v-0.6h0.5v-0.4c0-0.7,0.3-0.9,1-0.9c0.2,0,0.3,0,0.4,0v0.6h-0.2c-0.3,0-0.4,0.1-0.4,0.4
		v0.3h0.6v0.6h-0.6v3.2h-0.8V76.5z"/>
</g>
<g>
	<path fill="#231F20" d="M154.5,74.7h1.5l1.2,5H156l-0.2-1h-1.2l-0.2,1h-1.2L154.5,74.7z M155.2,75.6L155.2,75.6l-0.4,2.2h0.9
		L155.2,75.6z"/>
</g>
<g>
	<path fill="#231F20" d="M159,77.8c0-1.2,0.3-2,1.4-2c1.1,0,1.4,0.8,1.4,2s-0.4,2-1.4,2C159.3,79.8,159,79,159,77.8z M160.4,79.2
		c0.6,0,0.7-0.5,0.7-1.4c0-0.8-0.1-1.4-0.7-1.4c-0.5,0-0.6,0.6-0.6,1.4C159.7,78.8,159.8,79.2,160.4,79.2z"/>
	<path fill="#231F20" d="M162.3,75.9h0.8v0.6h0c0.2-0.4,0.4-0.7,0.9-0.7c0.1,0,0.1,0,0.2,0v0.8c-0.1,0-0.2,0-0.3,0
		c-0.3,0-0.8,0.2-0.8,0.9v2.3h-0.8V75.9z"/>
</g>
<g>
	<path fill="#231F20" d="M166,74.7h1.8c0.9,0,1.4,0.4,1.4,1.2c0,0.6-0.3,1-0.8,1.1v0c0.4,0.1,0.9,0.2,0.9,1.2c0,0.6-0.3,1.4-1.7,1.4
		H166V74.7z M167.1,76.7h0.3c0.4,0,0.6-0.2,0.6-0.6c0-0.3-0.1-0.5-0.6-0.5h-0.3V76.7z M167.1,78.8h0.4c0.5,0,0.6-0.3,0.6-0.7
		c0-0.5-0.3-0.7-0.6-0.7h-0.4V78.8z"/>
</g>
<g>
	<path fill="#231F20" d="M171.5,77.8c0-1.2,0.3-2,1.4-2c1.1,0,1.4,0.8,1.4,2s-0.4,2-1.4,2C171.8,79.8,171.5,79,171.5,77.8z
		 M172.9,79.2c0.6,0,0.7-0.5,0.7-1.4c0-0.8-0.1-1.4-0.7-1.4c-0.5,0-0.6,0.6-0.6,1.4C172.2,78.8,172.3,79.2,172.9,79.2z"/>
	<path fill="#231F20" d="M174.8,75.9h0.8v0.6h0c0.2-0.4,0.4-0.7,0.9-0.7c0.1,0,0.1,0,0.2,0v0.8c-0.1,0-0.2,0-0.3,0
		c-0.3,0-0.8,0.2-0.8,0.9v2.3h-0.8V75.9z"/>
</g>
<g>
	<path fill="#231F20" d="M178.5,74.7h1.8c0.9,0,1.4,0.4,1.4,1.2c0,0.6-0.3,1-0.8,1.1v0c0.4,0.1,0.9,0.2,0.9,1.2
		c0,0.6-0.3,1.4-1.7,1.4h-1.7V74.7z M179.7,76.7h0.3c0.4,0,0.6-0.2,0.6-0.6c0-0.3-0.1-0.5-0.6-0.5h-0.3V76.7z M179.7,78.8h0.4
		c0.5,0,0.6-0.3,0.6-0.7c0-0.5-0.3-0.7-0.6-0.7h-0.4V78.8z"/>
	<path fill="#231F20" d="M184.1,79.8c-1.5,0-1.8-1-1.8-2.6s0.2-2.6,1.8-2.6c1.7,0,1.8,1.2,1.8,2.6S185.7,79.8,184.1,79.8z M184.1,79
		c0.5,0,0.5-0.4,0.5-1.8s-0.1-1.8-0.5-1.8c-0.5,0-0.5,0.4-0.5,1.8S183.6,79,184.1,79z"/>
	<path fill="#231F20" d="M187.1,75.6H186v-1h3.3v1h-1.1v4h-1.2V75.6z"/>
	<path fill="#231F20" d="M189.6,74.7h1.2v1.9h0.9v-1.9h1.2v5h-1.2v-2.1h-0.9v2.1h-1.2V74.7z"/>
</g>
<g>
	<path fill="#231F20" d="M197.7,78.9c0,0.1,0.1,0.3,0.2,0.3c0.1,0,0.1,0,0.1,0v0.5c-0.1,0-0.2,0.1-0.4,0.1c-0.3,0-0.6-0.1-0.6-0.5h0
		c-0.2,0.4-0.5,0.6-0.9,0.6c-0.6,0-1-0.3-1-1.1c0-0.8,0.4-1,0.9-1.2l0.6-0.2c0.3-0.1,0.4-0.2,0.4-0.5c0-0.3-0.1-0.6-0.5-0.6
		c-0.5,0-0.6,0.4-0.6,0.7h-0.7c0-0.8,0.3-1.2,1.3-1.2c0.7,0,1.2,0.3,1.2,0.9V78.9z M197,77.7c-0.2,0.2-0.6,0.2-0.8,0.4
		c-0.2,0.1-0.3,0.3-0.3,0.6c0,0.3,0.2,0.6,0.5,0.6c0.5,0,0.7-0.3,0.7-0.9V77.7z"/>
	<path fill="#231F20" d="M198.4,75.9h0.8v0.6h0c0.2-0.4,0.4-0.7,0.9-0.7c0.1,0,0.1,0,0.2,0v0.8c-0.1,0-0.2,0-0.3,0
		c-0.3,0-0.8,0.2-0.8,0.9v2.3h-0.8V75.9z"/>
	<path fill="#231F20" d="M201.2,77.9v0.2c0,0.5,0.1,1.1,0.6,1.1c0.5,0,0.6-0.6,0.6-0.8h0.7c0,0.8-0.5,1.4-1.3,1.4
		c-0.6,0-1.4-0.2-1.4-1.9c0-1,0.2-2,1.4-2c1.1,0,1.3,0.6,1.3,1.7v0.4H201.2z M202.4,77.4v-0.2c0-0.5-0.2-0.8-0.6-0.8
		c-0.5,0-0.6,0.5-0.6,1v0.1H202.4z"/>
</g>
<g>
	<path fill="#231F20" d="M206,75.6h-1.1v-1h3.3v1h-1.1v4H206V75.6z"/>
	<path fill="#231F20" d="M208.5,74.7h2c1,0,1.3,0.6,1.3,1.3c0,0.7-0.3,1.1-0.8,1.2v0c0.8,0.1,0.8,0.6,0.8,1.2c0,1,0.1,1.1,0.2,1.2
		v0.1h-1.3c-0.1-0.2-0.1-0.4-0.1-1c0-0.9-0.1-1.1-0.5-1.1h-0.4v2.1h-1.2V74.7z M209.7,76.8h0.4c0.5,0,0.6-0.4,0.6-0.7
		c0-0.4-0.1-0.6-0.6-0.6h-0.4V76.8z"/>
	<path fill="#231F20" d="M215.7,78c0,1-0.3,1.8-1.6,1.8c-1.4,0-1.6-0.8-1.6-1.8v-3.3h1.2v3.7c0,0.4,0.2,0.6,0.5,0.6s0.5-0.2,0.5-0.6
		v-3.7h1.2V78z"/>
	<path fill="#231F20" d="M216.3,74.7h2.9v1h-1.7v1h1.6v1h-1.6v1.1h1.8v1h-3V74.7z"/>
</g>
<g>
	<path fill="#231F20" d="M219.7,78.8h0.8v0.9h-0.8V78.8z"/>
</g>
<rect x="0.1" y="87.5" fill="#FFFFFF" width="241.2" height="31.2"/>
<rect x="0.1" y="87.5" fill="none" stroke="#231F20" stroke-width="0.25" stroke-miterlimit="10" width="241.2" height="31.2"/>
<rect x="0.1" y="87.5" fill="#FFFFFF" width="106.8" height="31.2"/>
<rect x="0.1" y="87.5" fill="none" stroke="#231F20" stroke-width="0.25" stroke-miterlimit="10" width="106.8" height="31.2"/>
<rect x="0.1" y="87.5" fill="#FFFFFF" width="29.4" height="31.2"/>
<rect x="0.1" y="87.5" fill="none" stroke="#231F20" stroke-width="0.25" stroke-miterlimit="10" width="29.4" height="31.2"/>
<g>
	<path fill="#231F20" d="M14.1,103.8l-0.2-2.6V99h1.3v2.2l-0.2,2.6H14.1z M15.2,104.4v1.2h-1.3v-1.2H15.2z"/>
</g>
<g>
	<path fill="#231F20" d="M62.9,99l1.6,4.5h0V99h1.2v6.6h-1.5l-1.6-4.6h0v4.6h-1.2V99H62.9z"/>
	<path fill="#231F20" d="M68.7,98.9c2,0,2.3,1.4,2.3,3.4s-0.3,3.4-2.3,3.4c-2,0-2.3-1.4-2.3-3.4S66.7,98.9,68.7,98.9z M68.7,104.8
		c0.8,0,0.9-0.7,0.9-2.5c0-1.8-0.1-2.5-0.9-2.5c-0.8,0-0.9,0.7-0.9,2.5C67.7,104.1,67.9,104.8,68.7,104.8z"/>
	<path fill="#231F20" d="M75.5,99v1.1H74v5.5h-1.3v-5.5h-1.4V99H75.5z"/>
</g>
<g>
	<path fill="#231F20" d="M112.6,95.8h1.1v1.6l-0.1,1.9h-0.9l-0.1-1.9V95.8z M112.6,99.8h1.1v1.1h-1.1V99.8z"/>
	<path fill="#231F20" d="M115.4,95.8h1.5l1.2,5h-1.2l-0.2-1h-1.2l-0.2,1h-1.2L115.4,95.8z M116.2,96.7L116.2,96.7l-0.4,2.2h0.9
		L116.2,96.7z"/>
</g>
<g>
	<path fill="#231F20" d="M120,95.8h0.8v0.8H120V95.8z M120,97.1h0.8v3.8H120V97.1z"/>
	<path fill="#231F20" d="M123,98.2L123,98.2c0-0.4-0.1-0.7-0.5-0.7c-0.3,0-0.5,0.1-0.5,0.5c0,0.3,0.1,0.4,0.5,0.6l0.5,0.2
		c0.6,0.2,0.8,0.5,0.8,1.1c0,0.8-0.6,1.1-1.4,1.1c-1,0-1.2-0.4-1.2-1.2v-0.1h0.7v0.1c0,0.4,0.1,0.7,0.6,0.7c0.4,0,0.6-0.2,0.6-0.6
		c0-0.3-0.1-0.5-0.4-0.6l-0.6-0.2c-0.6-0.2-0.8-0.5-0.8-1.1c0-0.7,0.5-1,1.3-1c1,0,1.2,0.6,1.2,1v0.2H123z"/>
</g>
<g>
	<path fill="#231F20" d="M126.4,96.8h-1.1v-1h3.3v1h-1.1v4h-1.2V96.8z"/>
	<path fill="#231F20" d="M128.8,95.8h2c1,0,1.3,0.6,1.3,1.3c0,0.7-0.3,1.1-0.8,1.2v0c0.8,0.1,0.8,0.6,0.8,1.2c0,1,0.1,1.1,0.2,1.2
		v0.1h-1.3c-0.1-0.2-0.1-0.4-0.1-1c0-0.9-0.1-1-0.5-1H130v2.1h-1.2V95.8z M130,97.9h0.4c0.5,0,0.6-0.3,0.6-0.7
		c0-0.4-0.1-0.6-0.6-0.6H130V97.9z"/>
	<path fill="#231F20" d="M135.9,99.2c0,1-0.3,1.8-1.6,1.8c-1.4,0-1.6-0.8-1.6-1.8v-3.3h1.2v3.7c0,0.4,0.2,0.6,0.5,0.6
		s0.5-0.2,0.5-0.6v-3.7h1.2V99.2z"/>
	<path fill="#231F20" d="M136.4,95.8h2.9v1h-1.7v1h1.6v1h-1.6v1.1h1.8v1h-3V95.8z"/>
</g>
<g>
	<path fill="#231F20" d="M141.4,95.8h0.8v0.8h-0.8V95.8z M141.4,97.1h0.8v3.8h-0.8V97.1z"/>
	<path fill="#231F20" d="M142.9,97.6h-0.5v-0.6h0.5v-0.4c0-0.7,0.3-0.9,1-0.9c0.2,0,0.3,0,0.4,0v0.6h-0.2c-0.3,0-0.4,0.1-0.4,0.4
		v0.3h0.6v0.6h-0.6v3.2h-0.8V97.6z"/>
	<path fill="#231F20" d="M147,95.8h1l1.3,5h-0.8l-0.3-1.2h-1.5l-0.3,1.2h-0.8L147,95.8z M148,99l-0.6-2.5h0l-0.6,2.5H148z"/>
	<path fill="#231F20" d="M151,95.8h0.8v0.8H151V95.8z M151,97.1h0.8v3.8H151V97.1z"/>
	<path fill="#231F20" d="M153.9,98.2L153.9,98.2c0-0.4-0.1-0.7-0.5-0.7c-0.3,0-0.5,0.1-0.5,0.5c0,0.3,0.1,0.4,0.5,0.6l0.5,0.2
		c0.6,0.2,0.8,0.5,0.8,1.1c0,0.8-0.6,1.1-1.4,1.1c-1,0-1.2-0.4-1.2-1.2v-0.1h0.7v0.1c0,0.4,0.1,0.7,0.6,0.7c0.4,0,0.6-0.2,0.6-0.6
		c0-0.3-0.1-0.5-0.4-0.6l-0.6-0.2c-0.6-0.2-0.8-0.5-0.8-1.1c0-0.7,0.5-1,1.3-1c1,0,1.2,0.6,1.2,1v0.2H153.9z"/>
</g>
<g>
	<path fill="#231F20" d="M156.6,95.8h2.9v1h-1.7v1h1.6v1h-1.6v2.1h-1.2V95.8z"/>
	<path fill="#231F20" d="M160.7,95.8h1.5l1.2,5h-1.2l-0.2-1h-1.2l-0.2,1h-1.2L160.7,95.8z M161.4,96.7L161.4,96.7L161,99h0.9
		L161.4,96.7z"/>
	<path fill="#231F20" d="M163.6,95.8h1.2v4h1.7v1h-2.9V95.8z"/>
	<path fill="#231F20" d="M167.6,99.3v0.2c0,0.4,0.1,0.7,0.5,0.7s0.5-0.3,0.5-0.6c0-1.1-2.2-0.5-2.2-2.3c0-0.8,0.4-1.5,1.6-1.5
		c1.2,0,1.6,0.6,1.6,1.4v0.1h-1.1c0-0.2,0-0.4-0.1-0.5c-0.1-0.1-0.2-0.2-0.4-0.2c-0.3,0-0.5,0.2-0.5,0.5c0,1,2.2,0.5,2.2,2.3
		c0,1.1-0.6,1.6-1.7,1.6c-0.9,0-1.6-0.3-1.6-1.3v-0.3H167.6z"/>
	<path fill="#231F20" d="M170.3,95.8h2.9v1h-1.7v1h1.6v1h-1.6v1.1h1.8v1h-3V95.8z"/>
</g>
<g>
	<path fill="#231F20" d="M173.6,99.9h0.8v0.9h-0.8V99.9z"/>
</g>
<g>
	<path fill="#231F20" d="M112.6,104.2h1.1v1.6l-0.1,1.9h-0.9l-0.1-1.9V104.2z M112.6,108.2h1.1v1.1h-1.1V108.2z"/>
	<path fill="#231F20" d="M115.4,104.2h1.5l1.2,5h-1.2l-0.2-1h-1.2l-0.2,1h-1.2L115.4,104.2z M116.2,105.1L116.2,105.1l-0.4,2.2h0.9
		L116.2,105.1z"/>
</g>
<g>
	<path fill="#231F20" d="M119.9,104.2h0.8v0.8h-0.8V104.2z M119.9,105.5h0.8v3.8h-0.8V105.5z"/>
	<path fill="#231F20" d="M122.9,106.5L122.9,106.5c0-0.4-0.1-0.7-0.5-0.7c-0.3,0-0.5,0.1-0.5,0.5c0,0.3,0.1,0.4,0.5,0.6l0.5,0.2
		c0.6,0.2,0.8,0.5,0.8,1.1c0,0.8-0.6,1.1-1.4,1.1c-1,0-1.2-0.4-1.2-1.2V108h0.7v0.1c0,0.4,0.1,0.7,0.6,0.7c0.4,0,0.6-0.2,0.6-0.6
		c0-0.3-0.1-0.5-0.4-0.6l-0.6-0.2c-0.6-0.2-0.8-0.5-0.8-1.1c0-0.7,0.5-1,1.3-1c1,0,1.2,0.6,1.2,1v0.2H122.9z"/>
</g>
<g>
	<path fill="#231F20" d="M125.5,104.2h2.8v0.8h-1.8v1.2h1.7v0.8h-1.7v2.2h-1V104.2z"/>
	<path fill="#231F20" d="M129.5,104.2h1.2l1.3,5h-1l-0.2-1.1h-1.3l-0.2,1.1h-1.1L129.5,104.2z M129.7,107.3h1l-0.5-2.2h0
		L129.7,107.3z"/>
	<path fill="#231F20" d="M132.3,109.2v-5h1v4.2h1.8v0.8H132.3z"/>
	<path fill="#231F20" d="M136.1,107.7v0.1c0,0.5,0.1,0.8,0.7,0.8c0.3,0,0.6-0.2,0.6-0.6c0-0.4-0.2-0.6-0.9-0.9
		c-0.9-0.3-1.3-0.7-1.3-1.5c0-1,0.6-1.5,1.5-1.5c0.9,0,1.5,0.4,1.5,1.3v0.1h-1c0-0.5-0.2-0.7-0.5-0.7c-0.5,0-0.6,0.3-0.6,0.6
		c0,0.3,0.1,0.5,0.5,0.7l0.8,0.3c0.8,0.3,1,0.7,1,1.3c0,1.1-0.6,1.5-1.7,1.5c-1.1,0-1.6-0.5-1.6-1.5v-0.2H136.1z"/>
	<path fill="#231F20" d="M141.6,104.2v0.8h-1.8v1.2h1.7v0.8h-1.7v1.3h1.9v0.8h-2.9v-5H141.6z"/>
</g>
<g>
	<path fill="#231F20" d="M143.5,104.2h0.8v0.8h-0.8V104.2z M143.5,105.5h0.8v3.8h-0.8V105.5z"/>
	<path fill="#231F20" d="M145.1,106h-0.5v-0.6h0.5v-0.3c0-0.7,0.3-0.9,1-0.9c0.2,0,0.3,0,0.4,0v0.6h-0.2c-0.3,0-0.4,0.1-0.4,0.4v0.3
		h0.6v0.6h-0.6v3.2h-0.8V106z"/>
	<path fill="#231F20" d="M149.1,104.2h1l1.3,5h-0.8l-0.3-1.2h-1.5l-0.3,1.2h-0.8L149.1,104.2z M150.2,107.4l-0.6-2.5h0l-0.6,2.5
		H150.2z"/>
	<path fill="#231F20" d="M153.1,104.2h0.8v0.8h-0.8V104.2z M153.1,105.5h0.8v3.8h-0.8V105.5z"/>
	<path fill="#231F20" d="M156.1,106.5L156.1,106.5c0-0.4-0.1-0.7-0.5-0.7c-0.3,0-0.5,0.1-0.5,0.5c0,0.3,0.1,0.4,0.5,0.6l0.5,0.2
		c0.6,0.2,0.8,0.5,0.8,1.1c0,0.8-0.6,1.1-1.4,1.1c-1,0-1.2-0.4-1.2-1.2V108h0.7v0.1c0,0.4,0.1,0.7,0.6,0.7c0.4,0,0.6-0.2,0.6-0.6
		c0-0.3-0.1-0.5-0.4-0.6l-0.6-0.2c-0.6-0.2-0.8-0.5-0.8-1.1c0-0.7,0.5-1,1.3-1c1,0,1.2,0.6,1.2,1v0.2H156.1z"/>
</g>
<g>
	<path fill="#231F20" d="M161.6,104.2v0.8h-1.1v4.2h-1V105h-1.1v-0.8H161.6z"/>
	<path fill="#231F20" d="M161.9,104.2h1.9c0.8,0,1.3,0.4,1.3,1.3c0,0.7-0.3,1.1-0.8,1.2v0c0.7,0.1,0.8,0.5,0.8,1.5
		c0,0.5,0,0.8,0.2,0.9v0h-1.1c-0.1-0.1-0.1-0.3-0.1-0.5l0-1c0-0.4-0.2-0.6-0.6-0.6h-0.5v2.1h-1V104.2z M162.9,106.4h0.4
		c0.5,0,0.8-0.2,0.8-0.8c0-0.5-0.2-0.7-0.7-0.7h-0.5V106.4z"/>
	<path fill="#231F20" d="M166.6,104.2v3.5c0,0.5,0.1,0.9,0.6,0.9s0.6-0.4,0.6-0.9v-3.5h1v3.5c0,1.3-0.8,1.6-1.6,1.6
		s-1.6-0.3-1.6-1.6v-3.5H166.6z"/>
	<path fill="#231F20" d="M172,104.2v0.8h-1.8v1.2h1.7v0.8h-1.7v1.3h1.9v0.8h-2.9v-5H172z"/>
</g>
<g>
	<path fill="#231F20" d="M172.5,108.3h0.8v0.9h-0.8V108.3z"/>
</g>
</svg>
