<?xml version="1.0" encoding="utf-8"?>
<!-- Generator: Adobe Illustrator 18.0.0, SVG Export Plug-In . SVG Version: 6.00 Build 0)  -->
<!DOCTYPE svg PUBLIC "-//W3C//DTD SVG 1.1//EN" "http://www.w3.org/Graphics/SVG/1.1/DTD/svg11.dtd">
<svg version="1.1" id="Layer_1" xmlns="http://www.w3.org/2000/svg" xmlns:xlink="http://www.w3.org/1999/xlink" x="0px" y="0px"
	 viewBox="0 0 100 100" enable-background="new 0 0 100 100" xml:space="preserve">
<path fill="#2D3D4E" d="M92.4,80.1L73.9,64.9c-0.9-0.8-0.8-2.3,0.3-2.8l8-4.2c1.4-0.7,1.2-2.7-0.3-3.2l-42-12.5
	c-1.4-0.4-2.7,1.1-2,2.4l20.4,38.8c0.7,1.4,2.7,1.2,3.2-0.3l3-10.3c0.3-1.2,1.8-1.6,2.7-0.8l19,15.5c0.7,0.6,1.8,0.5,2.4-0.2l4-4.8
	C93.2,81.7,93.1,80.7,92.4,80.1z"/>
<g>
	<line fill="none" stroke="#2D3D4E" stroke-miterlimit="10" x1="21.2" y1="28.9" x2="13.3" y2="22.4"/>
	
		<line fill="none" stroke="#2D3D4E" stroke-width="2.727" stroke-linecap="round" stroke-miterlimit="10" x1="21.2" y1="28.9" x2="13.3" y2="22.4"/>
</g>
<g>
	<line fill="none" stroke="#2D3D4E" stroke-miterlimit="10" x1="17.2" y1="38" x2="7" y2="36.3"/>
	
		<line fill="none" stroke="#2D3D4E" stroke-width="2.727" stroke-linecap="round" stroke-miterlimit="10" x1="17.2" y1="38" x2="7" y2="36.3"/>
</g>
<g>
	<line fill="none" stroke="#2D3D4E" stroke-miterlimit="10" x1="18.1" y1="47.8" x2="8.5" y2="51.4"/>
	
		<line fill="none" stroke="#2D3D4E" stroke-width="2.727" stroke-linecap="round" stroke-miterlimit="10" x1="18.1" y1="47.8" x2="8.5" y2="51.4"/>
</g>
<g>
	<line fill="none" stroke="#2D3D4E" stroke-miterlimit="10" x1="23.9" y1="55.9" x2="17.4" y2="63.8"/>
	
		<line fill="none" stroke="#2D3D4E" stroke-width="2.727" stroke-linecap="round" stroke-miterlimit="10" x1="23.9" y1="55.9" x2="17.4" y2="63.8"/>
</g>
<g>
	<line fill="none" stroke="#2D3D4E" stroke-miterlimit="10" x1="32.9" y1="59.9" x2="31.2" y2="70.1"/>
	
		<line fill="none" stroke="#2D3D4E" stroke-width="2.727" stroke-linecap="round" stroke-miterlimit="10" x1="32.9" y1="59.9" x2="31.2" y2="70.1"/>
</g>
<g>
	<line fill="none" stroke="#2D3D4E" stroke-miterlimit="10" x1="53.9" y1="34.3" x2="63.6" y2="30.7"/>
	
		<line fill="none" stroke="#2D3D4E" stroke-width="2.727" stroke-linecap="round" stroke-miterlimit="10" x1="53.9" y1="34.3" x2="63.6" y2="30.7"/>
</g>
<g>
	<line fill="none" stroke="#2D3D4E" stroke-miterlimit="10" x1="48.2" y1="26.3" x2="54.7" y2="18.3"/>
	
		<line fill="none" stroke="#2D3D4E" stroke-width="2.727" stroke-linecap="round" stroke-miterlimit="10" x1="48.2" y1="26.3" x2="54.7" y2="18.3"/>
</g>
<g>
	<line fill="none" stroke="#2D3D4E" stroke-miterlimit="10" x1="39.1" y1="22.2" x2="40.8" y2="12.1"/>
	
		<line fill="none" stroke="#2D3D4E" stroke-width="2.727" stroke-linecap="round" stroke-miterlimit="10" x1="39.1" y1="22.2" x2="40.8" y2="12.1"/>
</g>
<g>
	<line fill="none" stroke="#2D3D4E" stroke-miterlimit="10" x1="29.3" y1="23.2" x2="25.7" y2="13.5"/>
	
		<line fill="none" stroke="#2D3D4E" stroke-width="2.727" stroke-linecap="round" stroke-miterlimit="10" x1="29.3" y1="23.2" x2="25.7" y2="13.5"/>
</g>
</svg>
