<?xml version="1.0" encoding="utf-8"?>
<!-- Generator: Adobe Illustrator 17.0.2, SVG Export Plug-In . SVG Version: 6.00 Build 0)  -->
<!DOCTYPE svg PUBLIC "-//W3C//DTD SVG 1.0//EN" "http://www.w3.org/TR/2001/REC-SVG-20010904/DTD/svg10.dtd">
<svg version="1.0" id="Layer_1" xmlns="http://www.w3.org/2000/svg" xmlns:xlink="http://www.w3.org/1999/xlink" x="0px" y="0px"
	 width="74.5px" height="46.6px" viewBox="0 0 74.5 46.6" enable-background="new 0 0 74.5 46.6" xml:space="preserve">
<rect x="4.8" y="7.3" fill="#D2D3D4" stroke="#93AAD8" stroke-miterlimit="10" width="3.8" height="3.8"/>
<rect x="4.8" y="7.3" fill="none" stroke="#93AAD8" stroke-width="0.282" stroke-linecap="round" stroke-linejoin="round" stroke-miterlimit="10" width="3.8" height="3.8"/>
<rect x="42.9" y="7.3" fill="#D2D3D4" stroke="#93AAD8" stroke-miterlimit="10" width="3.8" height="3.8"/>
<rect x="42.9" y="7.3" fill="none" stroke="#93AAD8" stroke-width="0.282" stroke-linecap="round" stroke-linejoin="round" stroke-miterlimit="10" width="3.8" height="3.8"/>
<rect x="62" y="7.3" fill="#D2D3D4" stroke="#93AAD8" stroke-miterlimit="10" width="3.8" height="3.8"/>
<rect x="62" y="7.3" fill="none" stroke="#93AAD8" stroke-width="0.282" stroke-linecap="round" stroke-linejoin="round" stroke-miterlimit="10" width="3.8" height="3.8"/>
<line fill="none" stroke="#93AAD8" stroke-width="0.282" stroke-linecap="round" stroke-linejoin="round" stroke-miterlimit="10" x1="8.5" y1="39.3" x2="8.5" y2="35.5"/>
<rect x="4.8" y="35.5" fill="#D2D3D4" stroke="#93AAD8" stroke-miterlimit="10" width="3.8" height="3.8"/>
<rect x="4.8" y="35.5" fill="none" stroke="#93AAD8" stroke-width="0.282" stroke-linecap="round" stroke-linejoin="round" stroke-miterlimit="10" width="3.8" height="3.8"/>
<line fill="none" stroke="#93AAD8" stroke-width="0.282" stroke-linecap="round" stroke-linejoin="round" stroke-miterlimit="10" x1="56.2" y1="39.3" x2="52.4" y2="39.3"/>
<rect x="52.4" y="35.5" fill="#D2D3D4" stroke="#93AAD8" stroke-miterlimit="10" width="3.8" height="3.8"/>
<rect x="52.4" y="35.5" fill="none" stroke="#93AAD8" stroke-width="0.282" stroke-linecap="round" stroke-linejoin="round" stroke-miterlimit="10" width="3.8" height="3.8"/>
<rect x="5.6" y="36.1" fill="#6E6F72" stroke="#93AAD8" stroke-miterlimit="10" width="2.7" height="2.5"/>
<rect x="5.6" y="36.1" fill="none" stroke="#93AAD8" stroke-width="0.415" width="2.7" height="2.5"/>
<rect x="5.5" y="8" fill="#6E6F72" stroke="#93AAD8" stroke-miterlimit="10" width="2.7" height="2.5"/>
<rect x="5.5" y="8" fill="none" stroke="#93AAD8" stroke-width="0.415" width="2.7" height="2.5"/>
<rect x="52.7" y="35.7" fill="#D2D3D4" stroke="#93AAD8" stroke-miterlimit="10" width="3.3" height="3.3"/>
<rect x="52.7" y="35.7" fill="none" stroke="#93AAD8" width="3.3" height="3.3"/>
<rect x="62.2" y="7.6" fill="#D2D3D4" stroke="#93AAD8" stroke-miterlimit="10" width="3.3" height="3.3"/>
<rect x="62.2" y="7.6" fill="none" stroke="#93AAD8" width="3.3" height="3.3"/>
<rect x="43.1" y="7.6" fill="#D2D3D4" stroke="#93AAD8" stroke-miterlimit="10" width="3.3" height="3.3"/>
<rect x="43.1" y="7.6" fill="none" stroke="#93AAD8" width="3.3" height="3.3"/>
<rect x="5.3" y="7.6" fill="#D2D3D4" stroke="#93AAD8" stroke-miterlimit="10" width="3.3" height="3.3"/>
<rect x="5.3" y="7.6" fill="none" stroke="#93AAD8" width="3.3" height="3.3"/>
<rect x="5.3" y="35.7" fill="#D2D3D4" stroke="#93AAD8" stroke-miterlimit="10" width="3.3" height="3.3"/>
<rect x="5.3" y="35.7" fill="none" stroke="#93AAD8" width="3.3" height="3.3"/>
</svg>
