<?xml version='1.0' encoding='UTF-8' standalone='no'?>
<!-- Created with Fritzing (http://www.fritzing.org/) -->
<svg xmlns:svg='http://www.w3.org/2000/svg' xmlns='http://www.w3.org/2000/svg' version='1.2' baseProfile='tiny' x='0in' y='0in' width='0.76248in' height='0.21467in' viewBox='0 0 54.8986 15.4562' >
<path stroke='#8c8c8c' stroke-width='2.15136' stroke-linecap='round' stroke-linejoin='round' fill='none' d='M29.2068,10.9296L53.8229,10.9296' />
<path stroke='#8c8c8c' stroke-width='2.15136' stroke-linecap='round' stroke-linejoin='round' fill='none' d='M29.2068,3.72744L53.8229,3.72744' />
<g partID='18788120'><g transform='translate(0,15.4562)' ><g transform='matrix(0,-1,1,0,0,0)'  ><g xmlns="http://www.w3.org/2000/svg" id="breadboard">
 <rect xmlns="http://www.w3.org/2000/svg" width="2.15208" x="3.45096" y="25.421" fill="none" height="0.72" id="connector0pin"/>
 <rect xmlns="http://www.w3.org/2000/svg" width="2.15424" x="10.651" y="25.421" fill="none" height="0.72" id="connector1pin"/>
 <g xmlns="http://www.w3.org/2000/svg" fill="none" stroke="#8C8C8C" id="connector0leg" stroke-linecap="round" y1="40.565" x1="6.287" y2="74.754" stroke-width="2.15136" x2="6.287"/>
 <g xmlns="http://www.w3.org/2000/svg" fill="none" stroke="#8C8C8C" id="connector1leg" stroke-linecap="round" y1="40.565" x1="16.29" y2="74.754" stroke-width="2.15136" x2="16.29"/>
 <rect xmlns="http://www.w3.org/2000/svg" width="2.15136" x="3.45096" y="19.3795" fill="#8C8C8C" height="9.82728"/>
 <path xmlns="http://www.w3.org/2000/svg" fill="#8C8C8C" d="M12.8045,29.2068c0,-1.1736,-1.06488,-2.1024,-2.088,-2.9916c-0.41616,-0.3672,-1.19952,-1.00152,-1.19952,-1.42488l0,-5.47056l-2.16144,0l0,5.78016c0,1.0584,0.94752,1.87848,1.94616,2.74824c0.44424,0.37584,1.34856,1.24992,1.34856,1.76976"/>
 <g xmlns="http://www.w3.org/2000/svg" id="g12">
  <path xmlns="http://www.w3.org/2000/svg" opacity="0.3" fill="#fadf47" id="color_path14" d="M14.1732,13.001L14.1732,7.0884C14.1732,3.1752,11.0052,0,7.08768,0C3.1752,0,0,3.16944,0,7.0884l0,13.649c1.47384,1.65096,4.0968,2.75256,7.08768,2.75256c4.61952,0,8.36856,-2.61792,8.36856,-5.85936l0,-1.52352C15.4555,14.9645,14.9818,13.9032,14.1732,13.001z"/>
  <path xmlns="http://www.w3.org/2000/svg" opacity="0.5" fill="#E6E6E6" id="path16" d="M14.1732,13.001L14.1732,7.0884C14.1732,3.1752,11.0052,0,7.08768,0C3.1752,0,0,3.16944,0,7.0884l0,13.649c1.47384,1.65096,4.0968,2.75256,7.08768,2.75256c4.61952,0,8.36856,-2.61792,8.36856,-5.85936l0,-1.52352C15.4555,14.9645,14.9818,13.9032,14.1732,13.001z"/>
  <path xmlns="http://www.w3.org/2000/svg" opacity="0.9" fill="#D1D1D1" id="path18" d="M14.1732,13.001l0,3.10536c0,2.73888,-3.16584,4.96512,-7.08552,4.96512C3.1752,21.0715,0,18.8525,0,16.1064l0,3.10536L0,20.736c1.47384,1.65168,4.0968,2.75256,7.08768,2.75256c4.61952,0,8.36856,-2.61792,8.36856,-5.85864L15.4562,16.1064C15.4555,14.9645,14.9818,13.9032,14.1732,13.001z"/>
  <path xmlns="http://www.w3.org/2000/svg" opacity="0.7" fill="#fadf47" id="color_path20" d="M14.1732,13.001l0,3.10536c0,2.73888,-3.16584,4.96512,-7.08552,4.96512C3.1752,21.0715,0,18.8525,0,16.1064l0,3.10536L0,20.736c1.47384,1.65168,4.0968,2.75256,7.08768,2.75256c4.61952,0,8.36856,-2.61792,8.36856,-5.85864L15.4562,16.1064C15.4555,14.9645,14.9818,13.9032,14.1732,13.001z"/>
  <path xmlns="http://www.w3.org/2000/svg" opacity="0.25" fill="#fadf47" id="color_path22" d="M14.1732,13.001l0,3.10536c0,2.73888,-3.16584,4.96512,-7.08552,4.96512C3.1752,21.0715,0,18.8525,0,16.1064l0,3.10536c1.47384,1.65024,4.0968,2.75256,7.08768,2.75256c4.61952,0,8.36856,-2.61792,8.36856,-5.85864C15.4555,14.9645,14.9818,13.9032,14.1732,13.001z"/>
  <ellipse xmlns="http://www.w3.org/2000/svg" opacity="0.25" fill="#E6E6E6" cx="7.08768" cy="16.1064" rx="7.08696" ry="4.9608" id="ellipse24"/>
  <ellipse xmlns="http://www.w3.org/2000/svg" opacity="0.25" fill="#fadf47" cx="7.08768" cy="16.1064" rx="7.08696" ry="4.9608" id="color_ellipse26"/>
  <polygon xmlns="http://www.w3.org/2000/svg" fill="#666666" points="2.2032,9.648,2.2032,16.1071,3.19608,16.1071,3.19608,13.0946,6.0156,13.0946,10.0123,8.80488,3.40704,8.80488" id="polygon28"/>
  <polygon xmlns="http://www.w3.org/2000/svg" fill="#666666" points="10.7784,8.52408,11.2147,9.03384,7.41168,13.0946,11.0599,13.0946,11.0599,16.1071,11.9736,16.1071,11.9736,8.52408" id="polygon30"/>
  <path xmlns="http://www.w3.org/2000/svg" opacity="0.65" fill="#fadf47" id="color_path32" d="M14.1732,13.001L14.1732,7.0884C14.1732,3.1752,11.0052,0,7.08768,0C3.1752,0,0,3.16944,0,7.0884l0,13.649c1.47384,1.65096,4.0968,2.75256,7.08768,2.75256c4.61952,0,8.36856,-2.61792,8.36856,-5.85936l0,-1.52352C15.4555,14.9645,14.9818,13.9032,14.1732,13.001z"/>
  <path xmlns="http://www.w3.org/2000/svg" opacity="0.5" fill="#FFFFFF" id="path34" d="M10.3882,3.75408l1.4364,-0.2736c-0.84168,-1.13184,-2.08224,-1.95768,-3.54168,-2.23848l0.25416,1.08072C9.30096,2.59344,9.94392,3.1032,10.3882,3.75408z"/>
  <path xmlns="http://www.w3.org/2000/svg" opacity="0.5" fill="#FFFFFF" id="path36" d="M0.76824,19.926l0,1.51992c0.64872,0.5292,1.43352,0.97632,2.3076,1.31688l0,-1.52496C2.19744,20.9016,1.41912,20.4559,0.76824,19.926z"/>
  <path xmlns="http://www.w3.org/2000/svg" opacity="0.5" fill="#FFFFFF" id="path38" d="M11.0729,20.2097c-0.2556,0.1224,-0.52992,0.22968,-0.80568,0.32976c-0.05832,0.01944,-0.11736,0.04032,-0.17784,0.05832c-0.56376,0.17928,-1.16136,0.31896,-1.79496,0.39456c-0.07488,0.00936,-0.1512,0.01872,-0.22464,0.01944c-0.3204,0.03024,-0.64368,0.05832,-0.97056,0.05832c-0.14832,0,-0.30744,-0.01512,-0.4716,-0.02376c-1.20024,-0.05688,-2.33064,-0.31464,-3.2976,-0.73944L3.33,11.9174L3.33,7.092c0,-1.47096,0.84816,-2.72952,2.0736,-3.34944L5.38128,3.68928l-1.24776,-1.512c-1.66968,1.00296,-2.79,2.8224,-2.79,4.91184l0,11.9052c-0.04968,-0.04968,-0.30816,-0.30888,-0.48024,-0.52992l-0.30744,0.6876c1.40112,1.48176,3.8088,2.46168,6.54264,2.46168c1.67976,0,3.23712,-0.37368,4.51152,-1.00224l-0.52704,-0.40896C11.0729,20.2097,11.0729,20.2097,11.0729,20.2097z"/>
 </g>
</g>
</g></g></g></svg>