<?xml version="1.0" encoding="utf-8"?>
<!-- Generator: Adobe Illustrator 17.0.2, SVG Export Plug-In . SVG Version: 6.00 Build 0)  -->
<!DOCTYPE svg PUBLIC "-//W3C//DTD SVG 1.1//EN" "http://www.w3.org/Graphics/SVG/1.1/DTD/svg11.dtd">
<svg version="1.1" id="Layer_1" xmlns:svg="http://www.w3.org/2000/svg"
	 xmlns="http://www.w3.org/2000/svg" xmlns:xlink="http://www.w3.org/1999/xlink" x="0px" y="0px" width="82.895px"
	 height="66.026px" viewBox="0 0 82.895 66.026" enable-background="new 0 0 82.895 66.026" xml:space="preserve">
<path fill="none" stroke="#DDDDDD" stroke-width="2.16" stroke-linecap="round" stroke-linejoin="round" d="M80.494,60.076
	l1.169,0.72"/>
<path fill="none" stroke="#FF0000" stroke-width="2.16" stroke-linecap="round" stroke-linejoin="round" d="M80.72,53.349
	l0.943,0.247"/>
<path fill="none" stroke="#000000" stroke-width="2.16" stroke-linecap="round" stroke-linejoin="round" d="M80.604,46.594
	l1.058-0.197"/>
<g>
	<g transform="matrix(1, 0, 0, 1, -0.400297, 32.424)">
		<g id="breadboard">
			<rect id="connector0pin" x="73.046" y="20.15" fill="none" width="0.72" height="0.72"/>
			<rect id="connector1pin" x="73.125" y="18.117" fill="none" width="0.72" height="0.72"/>
			<rect id="connector2pin" x="73.046" y="16.114" fill="none" width="0.72" height="0.72"/>
			<g id="connector0leg">
			</g>
			<g id="connector1leg">
			</g>
			<g id="connector2leg">
			</g>
			<path id="path7" fill="none" stroke="#DDDDDD" stroke-width="2.16" d="M73.046,20.15c0,0-5.097-1.346,7.848,7.502"/>
			<path id="path9" fill="none" stroke="#FF0000" stroke-width="2.16" d="M73.125,18.117c4.035,0,4.108,1.173,7.996,2.808"/>
			<path id="path11" fill="none" stroke="#000000" stroke-width="2.16" d="M73.046,16.114c5.382,0,7.598-3.177,7.958-0.936"/>
			<polygon id="polygon13" fill="#333333" points="0.4,6.697 12.508,6.697 12.508,-6.756 70.356,-6.756 70.356,6.697 82.463,6.697 
				82.463,8.042 70.356,8.042 70.356,33.602 12.508,33.602 12.508,8.042 0.4,8.042 			"/>
			<polygon id="polygon15" points="8.472,8.042 12.508,8.042 12.508,33.602 8.472,29.567 			"/>
			<polygon id="polygon17" fill="#999999" points="12.508,6.697 0.4,6.697 0.4,-0.03 8.472,-0.03 8.472,2.66 			"/>
			<polygon id="polygon19" fill="#999999" points="12.508,-6.756 8.472,-10.792 8.472,-18.864 12.508,-22.9 70.356,-22.9 
				74.391,-18.864 74.391,-10.792 70.356,-6.756 			"/>
			<polygon id="polygon21" fill="#666666" points="74.391,8.042 70.356,8.042 70.356,33.602 74.391,29.567 			"/>
			<polygon id="polygon23" fill="#999999" points="70.356,6.697 82.464,6.697 82.464,-0.03 74.391,-0.03 74.391,2.66 			"/>
			<polygon id="polygon25" points="8.472,-10.792 12.508,-6.756 12.508,6.697 8.472,2.66 			"/>
			<polygon id="polygon27" fill="#666666" points="74.391,-10.792 70.356,-6.756 70.356,6.697 74.391,2.66 			"/>
			<path id="path29" fill="#CCCCCC" d="M32.019-12.676c-4.725,2.599-9.926,1.11-11.911-0.117
				C18.123-14.019,6.386-24.003,4.81-24.996c-1.577-0.993-1.402-2.39-1.402-4.414c0-2.575,1.284,1.927,3.972,3.153
				c2.685,1.226,27.132,4.243,27.132,8.719C34.51-16.176,35.056-14.347,32.019-12.676z"/>
			<path id="path31" fill="#FFFFFF" d="M32.019-14.054c-4.496,2.978-9.926,1.11-11.911-0.117
				C18.123-15.398,6.386-25.382,4.81-26.375c-1.577-0.992-2.219-3.912-0.058-5.313c2.16-1.401,5.138-0.585,7.824,0.642
				c2.686,1.226,13.956,5.955,17.809,8.233C34.238-20.536,36.516-17.032,32.019-14.054z M8.391-27.621
				c1.892,0,3.426-0.767,3.426-1.713s-1.534-1.712-3.426-1.712s-3.426,0.766-3.426,1.712S6.499-27.621,8.391-27.621z"/>
			<g id="g33">
				<path id="path35" fill="#CCCCCC" d="M11.772-28.965c-0.34-0.767-1.706-1.341-3.343-1.341c-1.636,0-3.046,0.573-3.386,1.34
					l0.003,0.001c-0.052-0.119-0.081-0.241-0.081-0.368c0-0.946,1.534-1.712,3.426-1.712s3.426,0.766,3.426,1.712
					c0,0.127,0,0.256-0.052,0.375L11.772-28.965z"/>
			</g>
			<g id="g37">
				<ellipse id="ellipse39" fill="#999999" cx="25.986" cy="-18.278" rx="5.761" ry="3.215"/>
				<g id="g41">
					<path id="path43" fill="#666666" d="M20.329-18.309c0.572,1.382,2.869,2.416,5.621,2.416s5.124-1.034,5.697-2.416h-0.006
						c0.087,0.213,0.135,0.435,0.135,0.662c0,1.705-2.579,3.087-5.761,3.087s-5.761-1.382-5.761-3.087
						c0-0.228-0.001-0.462,0.086-0.675L20.329-18.309z"/>
				</g>
			</g>
			<g id="g45">
				<path id="path47" fill="#FFCC33" d="M40.705-16.721v0.818h2.452v0.817h0.817v0.817h-0.817v0.818h-4.088v-0.818h3.27v-0.817
					h-2.452v-0.817h-0.817v-0.818h0.817v-0.817h4.088v0.817H40.705z"/>
				<path id="path49" fill="#FFCC33" d="M49.697-17.538v0.817h-3.27v0.818h2.452v0.817h-2.452v0.817h3.27v0.818h-4.905v-4.087
					L49.697-17.538L49.697-17.538z"/>
				<path id="path51" fill="#FFCC33" d="M54.602-16.721h0.819v1.635h-0.819v0.817h0.819v0.818h-2.452v-0.818l-0.819,0v0.818h-1.635
					v-4.087h4.087L54.602-16.721L54.602-16.721z M53.784-16.721H52.15v1.635l1.634,0V-16.721z"/>
				<path id="path53" fill="#FFCC33" d="M61.142-17.538v1.635h-0.817v1.634h-0.819v0.818H57.87v-0.818h-0.817v-1.634h-0.818v-1.635
					h1.635v1.635h1.635v-1.635H61.142z"/>
				<path id="path55" fill="#FFCC33" d="M62.776-13.451v-0.818h-0.817v-2.452h0.817v-0.817h3.27v0.817h0.818v2.452l-0.818,0v0.818
					L62.776-13.451L62.776-13.451z M65.229-14.269v-2.452h-1.635v2.452L65.229-14.269z"/>
			</g>
		</g>
	</g>
</g>
</svg>
