<?xml version='1.0' encoding='UTF-8' standalone='no'?>
<!-- Created with Fritzing (http://www.fritzing.org/) -->
<svg xmlns:svg='http://www.w3.org/2000/svg' xmlns='http://www.w3.org/2000/svg' version='1.2' baseProfile='tiny' x='0in' y='0in' width='0.758778in' height='0.33in' viewBox='0 0 54.632 23.76' >
<path stroke='#8c8c8c' stroke-width='2.16' stroke-linecap='round' stroke-linejoin='round' fill='none' d='M32.5512,1.08L53.552,1.08' />
<path stroke='#8c8c8c' stroke-width='2.16' stroke-linecap='round' stroke-linejoin='round' fill='none' d='M32.5512,22.68L53.552,22.68' />
<path stroke='#8c8c8c' stroke-width='2.16' stroke-linecap='round' stroke-linejoin='round' fill='none' d='M32.5512,15.48L53.552,15.48' />
<path stroke='#8c8c8c' stroke-width='2.16' stroke-linecap='round' stroke-linejoin='round' fill='none' d='M32.5512,8.28L53.552,8.28' />
<g partID='18745890'><g transform='translate(0,23.76)' ><g transform='matrix(-4.44089e-16,-1,1,-4.44089e-16,0,0)'  ><g xmlns="http://www.w3.org/2000/svg" id="breadboard">
 <rect xmlns="http://www.w3.org/2000/svg" width="1" y="22.0008" fill="none" height="1.00004" id="connector0pin"/>
 <rect xmlns="http://www.w3.org/2000/svg" width="1" x="7.199" y="22.0008" fill="none" height="1.00004" id="connector1pin"/>
 <rect xmlns="http://www.w3.org/2000/svg" width="1" x="14.399" y="22.0008" fill="none" height="1.00004" id="connector2pin"/>
 <rect xmlns="http://www.w3.org/2000/svg" width="1" x="21.598" y="22.0008" fill="none" height="1.00004" id="connector3pin"/>
 <g xmlns="http://www.w3.org/2000/svg" fill="none" stroke="#8C8C8C" id="connector0leg" stroke-linecap="round" y1="32.55" x1="1.08" y2="53.55" stroke-width="2.16" x2="1.08"/>
 <g xmlns="http://www.w3.org/2000/svg" fill="none" stroke="#8C8C8C" id="connector1leg" stroke-linecap="round" y1="32.55" x1="8.28" y2="53.55" stroke-width="2.16" x2="8.28"/>
 <g xmlns="http://www.w3.org/2000/svg" fill="none" stroke="#8C8C8C" id="connector2leg" stroke-linecap="round" y1="32.55" x1="15.48" y2="53.55" stroke-width="2.16" x2="15.48"/>
 <g xmlns="http://www.w3.org/2000/svg" fill="none" stroke="#8C8C8C" id="connector3leg" stroke-linecap="round" y1="32.55" x1="22.68" y2="53.55" stroke-width="2.16" x2="22.68"/>
 <g xmlns="http://www.w3.org/2000/svg" id="rgbled">
  <path xmlns="http://www.w3.org/2000/svg" fill="#8C8C8C" d="M8.993,18.0127l0,5.00618c0,1.17404,-0.417,2.49409,-0.857,3.89214c-0.464,1.46905,-0.942,2.98611,-0.942,4.44916l0,1.18804l0.008,0l0,0L9.36,32.5482l0,0L9.354,32.5482l0,-1.18804c0,-1.12904,0.409,-2.42609,0.842,-3.79914c0.473,-1.49306,0.959,-3.03611,0.959,-4.54217l0,-5.00618L8.993,18.0127L8.993,18.0127z"/>
  <path xmlns="http://www.w3.org/2000/svg" fill="#8C8C8C" d="M5.363,18.0127c0,0,0,3.99415,0,5.18619S4.092,25.5009,2.973,26.627C1.511,28.098,0,29.6191,0,31.3602l0,1.18804l0,0l2.16,0l0,0l0,-1.02304c0,-1.09604,1.246,-2.27008,2.345,-3.37312c1.483,-1.49306,3.019,-3.03811,3.019,-4.82118l0,-5.3142L5.363,18.0127L5.363,18.0127z"/>
  <path xmlns="http://www.w3.org/2000/svg" fill="#8C8C8C" d="M15.623,26.911c-0.441,-1.39605,-0.857,-2.7181,-0.857,-3.89214l0,-5.00618l-2.159,0l0,5.00618c0,1.50606,0.485,3.04911,0.957,4.54217c0.436,1.37305,0.844,2.6701,0.844,3.79914l0,1.18804l-0.008,0l0,0l2.159,0l0,0l0.009,0l0,-1.18804C16.567,29.8971,16.086,28.377,15.623,26.911z"/>
  <path xmlns="http://www.w3.org/2000/svg" fill="#8C8C8C" d="M20.786,26.626c-1.12,-1.12704,-2.391,-2.23608,-2.391,-3.42813s0,-5.18619,0,-5.18619l-2.16,0l0,5.3132c0,1.78407,1.535,3.32912,3.019,4.82218c1.101,1.10404,2.346,2.27408,2.346,3.37312l0,1.02204l0,0l2.16,0l0,0l0,-1.18504C23.76,29.6191,22.248,28.098,20.786,26.626z"/>
  <path xmlns="http://www.w3.org/2000/svg" opacity="0.5" fill="#E6E6E6" d="M19.133,13.1765L19.133,7.18426C19.133,3.21612,15.916,0,11.948,0C7.982,0,4.765,3.21612,4.765,7.18426l0,13.8345c1.5,1.67406,4.153,2.7891,7.184,2.7891c4.687,0,8.48,-2.6581,8.48,-5.93822l0,-1.54706C20.432,15.1676,19.95,14.0895,19.133,13.1765z"/>
  <path xmlns="http://www.w3.org/2000/svg" opacity="0.9" fill="#D1D1D1" d="M19.133,13.1765l0,3.14612c0,2.7771,-3.217,5.02919,-7.185,5.02919c-3.966,0,-7.184,-2.25208,-7.184,-5.02919l0,3.14812l0,1.54706c1.5,1.67206,4.153,2.7891,7.184,2.7891c4.687,0,8.48,-2.6581,8.48,-5.93822l0,-1.54606C20.432,15.1676,19.95,14.0895,19.133,13.1765z"/>
  <path xmlns="http://www.w3.org/2000/svg" opacity="0.24" d="M19.133,13.1765l0,3.14612c0,2.7771,-3.217,5.02919,-7.185,5.02919c-3.966,0,-7.184,-2.25208,-7.184,-5.02919l0,3.14812c1.5,1.67406,4.153,2.7891,7.184,2.7891c4.687,0,8.48,-2.6581,8.48,-5.93822C20.432,15.1676,19.95,14.0895,19.133,13.1765z"/>
  <ellipse xmlns="http://www.w3.org/2000/svg" opacity="0.5" fill="#CCCCCC" cx="11.95" cy="16.3236" rx="7.183" ry="5.02919"/>
  <polygon xmlns="http://www.w3.org/2000/svg" fill="#999999" points="15.692,8.63732,16.133,9.15334,12.981,12.5185,15.978,12.5185,15.978,13.2685,15.978,16.3256,16.903,16.3256,16.903,8.63732"/>
  <polygon xmlns="http://www.w3.org/2000/svg" fill="#999999" points="12.729,8.92133,12.223,9.79636,10.278,9.79636,9.772,8.92133,8.22,8.92133,6.999,9.77636,6.999,16.3256,8.865,16.3236,8.865,12.5185,11.563,12.5185,14.916,8.92133"/>
  <path xmlns="http://www.w3.org/2000/svg" opacity="0.6" fill="#FFFFFF" d="M15.295,3.80114l1.459,-0.27701c-0.849,-1.14904,-2.108,-1.98607,-3.588,-2.27108l0.252,1.09704C14.194,2.6251,14.846,3.14112,15.295,3.80114z"/>
  <path xmlns="http://www.w3.org/2000/svg" opacity="0.6" fill="#FFFFFF" d="M5.545,20.1967l0,1.54606c0.66,0.53602,1.447,0.989036,2.34,1.33405l0,-1.54806C6.992,21.1868,6.205,20.7318,5.545,20.1967z"/>
  <path xmlns="http://www.w3.org/2000/svg" opacity="0.6" fill="#FFFFFF" d="M15.987,20.4818c-0.264,0.125005,-0.537,0.233009,-0.821,0.334012c-0.06,0.0210008,-0.119,0.0410015,-0.181,0.0620023c-0.569,0.188007,-1.184,0.321012,-1.821,0.397015c-0.076,0.0110004,-0.154,0.0190007,-0.23,0.0250009c-0.321,0.0300011,-0.647,0.053002,-0.983,0.053002c-0.148,0,-0.312,-0.0100004,-0.478,-0.0240009c-1.223,-0.0580021,-2.362,-0.317012,-3.344,-0.750028l0,-8.50731L8.129,7.18426c0,-1.49005,0.86,-2.7661,2.104,-3.39613l-0.021,-0.0510019L8.946,2.20308C7.257,3.22312,6.115,5.06519,6.115,7.18226L6.115,19.2507c-0.049,-0.0490018,-0.313,-0.312012,-0.485,-0.53402l-0.312,0.699026c1.426,1.50306,3.861,2.49709,6.632,2.49709c1.703,0,3.277,-0.379014,4.572,-1.01904l-0.531,-0.412015C15.987,20.4818,15.987,20.4818,15.987,20.4818z"/>
 </g>
</g>
</g></g></g></svg>