<?xml version='1.0' encoding='UTF-8' standalone='no'?>
<!-- Created with Fritzing (http://www.fritzing.org/) -->
<svg xmlns:svg='http://www.w3.org/2000/svg' xmlns='http://www.w3.org/2000/svg' version='1.2' baseProfile='tiny' x='0in' y='0in' width='0.42917in' height='0.0971in' viewBox='0 0 30.9002 6.9912' >
<path stroke='#8c8c8c' stroke-width='2.0952' stroke-linecap='round' stroke-linejoin='round' fill='none' d='M2.0952,3.6324L1.0476,3.6324' />
<path stroke='#8c8c8c' stroke-width='2.0952' stroke-linecap='round' stroke-linejoin='round' fill='none' d='M28.805,3.6324L29.8526,3.6324' />
<g partID='97940'><g xmlns="http://www.w3.org/2000/svg" id="breadboard">
 <rect xmlns="http://www.w3.org/2000/svg" width="0.72" x="0.36" y="2.5848" fill="none" height="0.72" id="connector0pin"/>
 <rect xmlns="http://www.w3.org/2000/svg" width="0.72" x="29.8202" y="2.5848" fill="none" height="0.72" id="connector1pin"/>
 <line xmlns="http://www.w3.org/2000/svg" fill="none" stroke="#8C8C8C" id="connector0leg" stroke-linecap="round" y1="3.6324" x1="1.0476" y2="3.6324" stroke-width="2.0952" x2="2.0952"/>
 <line xmlns="http://www.w3.org/2000/svg" fill="none" stroke="#8C8C8C" id="connector1leg" stroke-linecap="round" y1="3.6324" x1="29.8526" y2="3.6324" stroke-width="2.0952" x2="28.805"/>
 <path xmlns="http://www.w3.org/2000/svg" fill="none" stroke="#8C8C8C" stroke-width="2.0952" d="M1.0476,3.6324l28.3666,0"/>
 <path xmlns="http://www.w3.org/2000/svg" fill="#D9B477" id="body" d="M10.2478,0.49536c-0.36,-0.1656,-0.9792,-0.2952,-1.3752,-0.2952l-1.9872,0c-0.396,0,-0.72,0.324,-0.72,0.72l0,5.35608c0,0.39672,0.324,0.72,0.72,0.72l1.9872,0c0.396,0,1.0152,-0.13608,1.3752,-0.2952l0.072,-0.03528c0.36,-0.1656,0.9792,-0.2952,1.3752,-0.2952l7.1856,0c0.39672,0,1.01448,0.13608,1.37448,0.2952l0.07272,0.03528c0.36,0.1656,0.97776,0.2952,1.3752,0.2952l1.9872,0c0.39744,0,0.72,-0.32328,0.72,-0.72L24.4102,0.92016c0,-0.396,-0.32256,-0.72,-0.72,-0.72l-1.9872,0c-0.39744,0,-1.0152,0.1368,-1.3752,0.2952l-0.07272,0.036c-0.36,0.1656,-0.97776,0.2952,-1.37448,0.2952l-7.1856,0c-0.396,0,-1.0152,-0.1368,-1.3752,-0.2952L10.2478,0.49536z"/>
 <rect xmlns="http://www.w3.org/2000/svg" width="0.70272" x="22.019" y="0.19368" fill="#ad9f4e" height="6.79536" id="gold_band"/>
 <rect xmlns="http://www.w3.org/2000/svg" width="1.8504" x="16.1726" y="0.82656" fill="#8a3d06" height="5.5368" id="band_rd_multiplier"/>
 <rect xmlns="http://www.w3.org/2000/svg" width="1.8504" x="12.4726" y="0.82656" fill="#c40808" height="5.5368" id="band_2_nd"/>
 <path xmlns="http://www.w3.org/2000/svg" fill="#c40808" id="band_1_st" d="M10.6286,0.63936c-0.1152,-0.036,-0.2232,-0.072,-0.3096,-0.1152l-0.072,-0.036c-0.36,-0.16488,-0.9792,-0.2952,-1.3752,-0.2952l-0.0864,0l0,6.79608l0.0864,0c0.396,0,1.0152,-0.13608,1.3752,-0.2952l0.072,-0.03528c0.0864,-0.04464,0.1944,-0.07992,0.3096,-0.1152L10.6286,0.63936z"/>
 <path xmlns="http://www.w3.org/2000/svg" opacity="0.3" id="Shadow" d="M23.711,4.0896L23.711,4.0896c0,0.37944,-0.13032,0.69912,-0.2952,0.69912l-1.9224,0c-0.38016,0,-0.97776,-0.05616,-1.33272,-0.1224L20.088,4.65048c-0.34488,-0.0648,-0.94896,-0.1224,-1.33344,-0.1224L11.808,4.52808c-0.3816,0,-0.9792,0.0576,-1.332,0.1224l-0.072,0.01512c-0.3456,0.06552,-0.9432,0.1224,-1.332,0.1224l-0.3168,0l-1.0008,0l-0.3096,0c-0.3816,0,-0.6984,0.29376,-0.6984,0.64512l0,0.24696L6.7464,5.8392l0,0.1728c0,0.36,0.3168,0.64512,0.6984,0.64512l1.62,0c0.3816,0,0.9792,-0.1224,1.332,-0.26712l0.072,-0.02808c0.3456,-0.14112,0.9504,-0.26496,1.332,-0.26496l6.94656,0c0.37944,0,0.97704,0.12384,1.33416,0.26568l0.07416,0.02808c0.34488,0.14472,0.94464,0.26712,1.33344,0.26712l2.2248,0c0.38088,0,0.69912,-0.2952,0.69912,-0.64512L24.413,5.472L24.413,4.49928L24.413,2.65536C24.1358,2.76336,23.711,3.06576,23.711,4.0896z"/>
 <rect xmlns="http://www.w3.org/2000/svg" width="0.70272" x="22.019" opacity="0.4" y="3.48336" height="3.15288" id="ShadowExtra"/>
 <path xmlns="http://www.w3.org/2000/svg" opacity="0.25" fill="#FFFFFF" id="ReflexRight" d="M19.751,1.08576c0.22968,0,0.49104,-0.1008,0.6624,-0.1728c0.2016,-0.0792,0.57672,-0.144,0.96624,-0.144l1.46088,0c0.22464,0,0.22464,0.2448,0.22464,0.3744c0,0.1296,-0.01512,0.3816,-0.22464,0.3816l-3.06,0c-0.10728,0,-0.2304,-0.1152,-0.2304,-0.22392C19.5566,1.21536,19.6286,1.08576,19.751,1.08576z"/>
 <circle xmlns="http://www.w3.org/2000/svg" opacity="0.35" fill="#FFFFFF" cx="6.99984" cy="1.13616" id="ReflexLeft" r="0.432"/>
 <rect xmlns="http://www.w3.org/2000/svg" width="0.70272" x="22.019" opacity="0.5" y="0.42336" fill="#FFFF33" height="1.62" id="Reflex_gold"/>
 <rect xmlns="http://www.w3.org/2000/svg" width="0.70272" x="22.019" opacity="0.5" y="0.78336" fill="#FFFFFF" height="0.7488" id="Reflex_extra"/>
</g>
</g></svg>