<?xml version='1.0' encoding='UTF-8' standalone='no'?>
<!-- Created with Fritzing (http://www.fritzing.org/) -->
<svg xmlns:svg='http://www.w3.org/2000/svg' xmlns='http://www.w3.org/2000/svg' version='1.2' baseProfile='tiny' x='0in' y='0in' width='1.15132in' height='0.917024in' viewBox='0 0 82.8948 66.0257' >
<path stroke='#000000' stroke-width='2.16' stroke-linecap='round' stroke-linejoin='round' fill='none' d='M80.604,46.5936L81.6625,46.3964' />
<path stroke='#ff0000' stroke-width='2.16' stroke-linecap='round' stroke-linejoin='round' fill='none' d='M80.72,53.3494L81.6625,53.5964' />
<path stroke='#ffffff' stroke-width='2.16' stroke-linecap='round' stroke-linejoin='round' fill='none' d='M80.4939,60.0764L81.6625,60.7964' />
<g partID='18797170'><g transform="matrix(1, 0, 0, 1, -0.400297, 32.424)">
 <g  id="breadboard">
  <g  gorn="0.3.0.0">
   <rect  width="0.72" x="73.0462" y="20.1499" fill="none" gorn="0.3.0.0.0" height="0.72" id="connector2pin"/>
   <rect  width="0.72" x="73.1246" y="18.1174" fill="none" gorn="0.3.0.0.1" height="0.72" id="connector1pin"/>
   <rect  width="0.72" x="73.0462" y="16.1136" fill="none" gorn="0.3.0.0.2" height="0.72" id="connector0pin"/>
   <g  stroke-opacity="1" fill="none" gorn="0.3.0.0.3" stroke="#ffffff" style="stroke-linecap:round;" id="connector2leg" stroke-linecap="round" y1="38.405998" x1="112.353" y2="39.405998" stroke-width="2.16" x2="113.97603"/>
   <g  fill="none" gorn="0.3.0.0.4" stroke="#ff0000" style="stroke-linecap:round" id="connector1leg" stroke-linecap="round" y1="29.063" x1="112.667" y2="29.406" stroke-width="2.16" x2="113.97603"/>
   <g  stroke-opacity="1" fill="none" gorn="0.3.0.0.5" stroke="#000000" style="stroke-linecap:round;" id="connector0leg" stroke-linecap="round" y1="19.68" x1="112.506" y2="19.406" stroke-width="2.16" x2="113.97603"/>
   <path  stroke-opacity="1" fill="none" gorn="0.3.0.0.6" stroke="#ffffff" id="path7" stroke-width="2.16" d="m73.0462,20.1499c0,0,-5.09688,-1.34568,7.848,7.5024"/>
   <path  fill="none" gorn="0.3.0.0.7" stroke="#ff0000" id="path9" stroke-width="2.16" d="m73.1246,18.1174c4.03488,0,4.1076,1.17288,7.9956,2.808"/>
   <path  stroke-opacity="1" fill="none" gorn="0.3.0.0.8" stroke="#000000" id="path11" stroke-width="2.16" d="m73.0462,16.1136c5.382,0,7.59816,-3.17664,7.95816,-0.936"/>
   <polygon  points="12.5078,6.69744,12.5078,-6.75648,70.3562,-6.75648,70.3562,6.69744,82.463,6.69744,82.463,8.04168,70.3562,8.04168,70.3562,33.6017,12.5078,33.6017,12.5078,8.04168,0.40032,8.04168,0.40032,6.69744" fill="#333333" gorn="0.3.0.0.9" id="polygon13"/>
   <polygon  points="12.5078,8.04168,12.5078,33.6017,8.47152,29.5668,8.47152,8.04168" gorn="0.3.0.0.10" id="polygon15"/>
   <polygon  points="0.40032,6.69744,0.40032,-0.03024,8.47152,-0.03024,8.47152,2.6604,12.5078,6.69744" fill="#999999" gorn="0.3.0.0.11" id="polygon17"/>
   <polygon  points="8.47152,-10.7921,8.47152,-18.864,12.5078,-22.8996,70.3562,-22.8996,74.3911,-18.864,74.3911,-10.7921,70.3562,-6.75648,12.5078,-6.75648" fill="#999999" gorn="0.3.0.0.12" id="polygon19"/>
   <polygon  points="70.3562,8.04168,70.3562,33.6017,74.3911,29.5668,74.3911,8.04168" fill="#666666" gorn="0.3.0.0.13" id="polygon21"/>
   <polygon  points="82.4638,6.69744,82.4638,-0.03024,74.3911,-0.03024,74.3911,2.6604,70.3562,6.69744" fill="#999999" gorn="0.3.0.0.14" id="polygon23"/>
   <polygon  points="12.5078,-6.75648,12.5078,6.69744,8.47152,2.6604,8.47152,-10.7921" gorn="0.3.0.0.15" id="polygon25"/>
   <polygon  points="70.3562,-6.75648,70.3562,6.69744,74.3911,2.6604,74.3911,-10.7921" fill="#666666" gorn="0.3.0.0.16" id="polygon27"/>
   <path  fill="#cccccc" gorn="0.3.0.0.17" id="path29" d="m32.0191,-12.6763c-4.72464,2.5992,-9.92592,1.10952,-11.911,-0.11664,-1.98576,-1.22616,-13.7225,-11.2104,-15.2978,-12.2033,-1.5768,-0.99288,-1.40184,-2.3904,-1.40184,-4.41432,0,-2.57544,1.28448,1.92672,3.97152,3.15288,2.68488,1.22616,27.1318,4.24296,27.1318,8.7192,-0.00144,1.36224,0.5436,3.19176,-2.49264,4.86216z"/>
   <path  fill="#ffffff" gorn="0.3.0.0.18" id="path31" d="m32.0191,-14.0544c-4.49568,2.97792,-9.92592,1.10952,-11.911,-0.11736C18.1224,-15.3979,6.38568,-25.3822,4.81032,-26.375,3.23352,-27.3672,2.59128,-30.2868,4.752,-31.6879c2.16,-1.40112,5.13792,-0.58464,7.82352,0.64224,2.6856,1.22616,13.9558,5.95512,17.8085,8.2332,3.85416,2.27664,6.13224,5.78016,1.63512,8.75808zM8.39088,-27.6206c1.89216,0,3.42648,-0.7668,3.42648,-1.71288,0,-0.94608,-1.53432,-1.71216,-3.42648,-1.71216,-1.89216,0,-3.42576,0.76608,-3.42576,1.71216,0,0.94608,1.5336,1.71288,3.42576,1.71288z"/>
   <g  gorn="0.3.0.0.19" id="g33">
    <path  fill="#cccccc" gorn="0.3.0.0.19.0" id="path35" d="m11.772,-28.9649c-0.33984,-0.7668,-1.70568,-1.34064,-3.34296,-1.34064,-1.63584,0,-3.04632,0.57312,-3.38616,1.33992l0.00288,0.00072c-0.05184,-0.1188,-0.08064,-0.2412,-0.08064,-0.36792,0,-0.94608,1.5336,-1.71216,3.42576,-1.71216,1.89216,0,3.42648,0.76608,3.42648,1.71216,0,0.12672,0,0.25632,-0.05184,0.37512l0.00648,-0.0072z"/>
   </g>
   <g  gorn="0.3.0.0.20" id="g37">
    <ellipse  fill="#999999" cx="25.9862" gorn="0.3.0.0.20.0" cy="-18.2779" rx="5.76144" ry="3.2148" id="ellipse39"/>
    <g  gorn="0.3.0.0.20.1" id="g41">
     <path  fill="#666666" gorn="0.3.0.0.20.1.0" id="path43" d="m20.3285,-18.3089c0.57168,1.38168,2.8692,2.41632,5.62104,2.41632,2.75184,0,5.12352,-1.03392,5.69664,-2.41632l-0.00576,0c0.08712,0.21312,0.13536,0.43488,0.13536,0.6624,0,1.70496,-2.57904,3.08736,-5.76144,3.08736,-3.1824,0,-5.76144,-1.3824,-5.76144,-3.08736,0,-0.22752,-0.00072,-0.46224,0.0864,-0.67536l-0.0108,0.01296z"/>
    </g>
   </g>
   <g  gorn="0.3.0.0.21" id="g45">
    <path  fill="#ffcc33" gorn="0.3.0.0.21.0" id="path47" d="m40.7052,-16.7213l0,0.81792l2.45232,0l0,0.8172l0.8172,0l0,0.8172l-0.8172,0l0,0.81792l-4.08816,0l0,-0.81792l3.26952,0l0,-0.8172l-2.45232,0l0,-0.8172l-0.8172,0l0,-0.81792l0.8172,0l0,-0.8172l4.08816,0l0,0.8172l-3.26952,0z"/>
    <path  fill="#ffcc33" gorn="0.3.0.0.21.1" id="path49" d="m49.6966,-17.5385l0,0.8172l-3.26952,0l0,0.81792l2.45232,0l0,0.8172l-2.45232,0l0,0.8172l3.26952,0l0,0.81792l-4.90464,0l0,-4.08744l4.90464,0l0,0z"/>
    <path  fill="#ffcc33" gorn="0.3.0.0.21.2" id="path51" d="m54.6019,-16.7213l0.81864,0l0,1.63512l-0.81864,0l0,0.8172l0.81864,0l0,0.81792l-2.45232,0l0,-0.81792L52.1496,-14.269l0,0.81792l-1.63512,0l0,-4.08744l4.08744,0l0,0.8172,0,0zm-0.81792,0l-1.6344,0l0,1.63512l1.6344,0l0,-1.63512z"/>
    <path  fill="#ffcc33" gorn="0.3.0.0.21.3" id="path53" d="m61.1417,-17.5385l0,1.63512l-0.8172,0l0,1.6344l-0.81936,0l0,0.81792l-1.63512,0l0,-0.81792L57.0528,-14.269l0,-1.6344l-0.81792,0l0,-1.63512l1.63512,0l0,1.63512l1.63512,0l0,-1.63512l1.63656,0z"/>
    <path  fill="#ffcc33" gorn="0.3.0.0.21.4" id="path55" d="m62.7761,-13.451l0,-0.81792l-0.8172,0l0,-2.45232l0.8172,0l0,-0.8172l3.26952,0l0,0.8172l0.81792,0l0,2.45232L66.0456,-14.269l0,0.81792l-3.26952,0l0,0zm2.45304,-0.81792l0,-2.45232l-1.63512,0l0,2.45232l1.63512,0z"/>
   </g>
  </g>
 </g>
</g>
</g></svg>