<?xml version='1.0' encoding='UTF-8' standalone='no'?>
<!-- Created with Fritzing (http://www.fritzing.org/) -->
<svg xmlns:svg='http://www.w3.org/2000/svg' xmlns='http://www.w3.org/2000/svg' version='1.2' baseProfile='tiny' x='0in' y='0in' width='0.337889in' height='0.151833in' viewBox='0 0 24.328 10.932' >
<path stroke='#8c8c8c' stroke-width='2.1' stroke-linecap='round' stroke-linejoin='round' fill='none' d='M1.05,5.41999L1.05,9.88198' />
<path stroke='#8c8c8c' stroke-width='2.1' stroke-linecap='round' stroke-linejoin='round' fill='none' d='M23.278,5.41999L23.278,9.88198' />
<g partID='18760750'><g xmlns="http://www.w3.org/2000/svg" id="breadboard">
 <rect xmlns="http://www.w3.org/2000/svg" width="1" x="0.284" y="4.28399" fill="none" height="0.999998" id="connector0pin"/>
 <rect xmlns="http://www.w3.org/2000/svg" width="1" x="21.885" y="4.28399" fill="none" height="0.999998" id="connector1pin"/>
 <g xmlns="http://www.w3.org/2000/svg" fill="none" stroke="#8C8C8C" id="connector0leg" stroke-linecap="round" y1="5.42" x1="1.05" y2="9.882" stroke-width="2.1" x2="1.05"/>
 <g xmlns="http://www.w3.org/2000/svg" fill="none" stroke="#8C8C8C" id="connector1leg" stroke-linecap="round" y1="5.42" x1="23.278" y2="9.882" stroke-width="2.1" x2="23.278"/>
 <g xmlns="http://www.w3.org/2000/svg">
  <path xmlns="http://www.w3.org/2000/svg" fill="none" stroke="#8C8C8C" stroke-linecap="round" stroke-width="2.1" d="M23.278,5.41999L1.05,5.41999"/>
  <path xmlns="http://www.w3.org/2000/svg" d="M4.864,5.46499c0,2.178,0.959,4.12699,2.473,5.46699l9.655,0c1.517,-1.338,2.477,-3.28599,2.477,-5.46699c0,-2.177,-0.96,-4.12599,-2.477,-5.46499L7.336,-8.88176e-16C5.823,1.337,4.864,3.28699,4.864,5.46499z"/>
  <rect xmlns="http://www.w3.org/2000/svg" width="9.656" x="7.336" y="0" height="10.932"/>
  <path xmlns="http://www.w3.org/2000/svg" fill="#CCCCCC" d="M17.009,10.306c0,0,-2.349,0.228999,-4.845,0.228999S7.32,10.306,7.32,10.306S7.096,7.96198,7.096,5.46499c0,-2.49599,0.225,-4.84399,0.225,-4.84399s2.348,-0.228999,4.844,-0.228999c2.495,0,4.844,0.228999,4.844,0.228999s0.228,2.34799,0.228,4.84399C17.232,7.96198,17.009,10.306,17.009,10.306z"/>
  <path xmlns="http://www.w3.org/2000/svg" fill="#8F0000" d="M16.482,1.36l-0.031,-0.182l-0.184,-0.0309999c-0.021,-0.00299999,-1.979,-0.311999,-4.104,-0.311999c-1.109,0,-2.163,0.0869998,-2.851,0.146c-0.691,0.0739998,-1.05,0.114,-1.244,0.164c-0.057,0,-0.105,0.021,-0.145,0.0619999C7.861,1.235,7.848,1.288,7.846,1.35C7.786,1.538,7.738,1.9,7.667,2.61299C7.614,3.14899,7.525,4.23999,7.525,5.46999c0,2.136,0.32,4.08799,0.323,4.10499l0.031,0.181l0.181,0.0299999C8.079,9.78998,10.031,10.1,12.165,10.1c2.138,0,4.086,-0.311999,4.104,-0.311999l0.184,-0.0299999l0.029,-0.181c0.004,-0.021,0.32,-1.979,0.32,-4.10499S16.484,1.379,16.482,1.36zM8.326,9.30298c-0.077,-0.523999,-0.29,-2.118,-0.29,-3.83799c0,-1.8,0.188,-3.38199,0.271,-3.83899C8.49,1.599,8.834,1.552,9.271,1.505C9.264,1.548,9.253,1.583,9.253,1.63c0,0.305999,0.188,0.820998,0.21,0.878998C9.508,2.62799,9.63,2.69799,9.755,2.67099c0.012,-0.002,1.157,-0.234999,2.41,-0.234999c1.188,0,2.271,0.209,2.39,0.229999c0.002,0.00499999,0.012,0.02,0.012,0.0609999c0,0.104,-0.049,0.270999,-0.103,0.415999c-0.282,-0.0489999,-0.815,-0.125,-1.434,-0.125c-0.887,0,-1.736,0.158,-1.771,0.165c-0.075,0.021,-0.138,0.0619999,-0.176,0.126c-0.017,0.0299999,-0.103,0.196,-0.103,0.520999c0,0.270999,0.071,0.645999,0.074,0.675999c0.013,0.0619999,0.051,0.127,0.107,0.165c0.057,0.0389999,0.127,0.0519999,0.195,0.0389999c0.003,0,0.389,-0.0749998,0.809,-0.0749998c0.26,0,0.495,0.0279999,0.646,0.0499999c0.021,0.0649999,0.021,0.147,0.021,0.240999c0,0.103,-0.012,0.204,-0.023,0.289999l-0.645,0l-0.858,0c-0.119,0,-0.222,0.0809998,-0.25,0.195c-0.003,0.012,-0.076,0.309999,-0.076,0.603999c0,0.300999,0.075,0.523999,0.082,0.550999c0.03,0.0859998,0.104,0.151,0.194,0.169c0.018,0.00299999,0.436,0.0839998,0.908,0.0839998c0.247,0,0.476,-0.02,0.645,-0.0439999c0.021,0.105,0.025,0.228999,0.025,0.334999c0,0.0739998,-0.009,0.119,-0.016,0.163c-0.28,0.0439999,-0.896,0.129,-1.521,0.129c-0.833,0,-1.535,-0.146,-1.542,-0.146c-0.1,-0.021,-0.2,0.016,-0.26,0.0969998C9.475,7.37698,9.264,7.66598,9.264,8.00998c0,0.344999,0.211,0.629999,0.236,0.660999C9.538,8.71998,9.592,8.75398,9.652,8.76698c0.048,0.012,1.207,0.245999,2.513,0.245999c0.985,0,1.885,-0.134,2.29,-0.203c0.054,0.177,0.105,0.383999,0.105,0.494999c0,0.0829998,-0.029,0.139,-0.062,0.179c-0.676,0.0619999,-1.486,0.113,-2.339,0.113C10.445,9.59298,8.85,9.38098,8.326,9.30298zM16.002,9.30298c-0.189,0.0279999,-0.521,0.0749998,-0.941,0.12c0.006,-0.0409999,0.021,-0.0749998,0.021,-0.123c0,-0.303999,-0.188,-0.819998,-0.211,-0.876998c-0.044,-0.12,-0.167,-0.189,-0.292,-0.163c-0.017,0.002,-1.158,0.234999,-2.41,0.234999c-1.042,0,-2.001,-0.16,-2.303,-0.215C9.825,8.20798,9.782,8.09998,9.782,8.00598c0,-0.0759998,0.026,-0.156,0.056,-0.225c0.275,0.0479999,0.826,0.132,1.465,0.132c0.886,0,1.736,-0.159,1.771,-0.165c0.07,-0.021,0.139,-0.0619999,0.176,-0.128c0.02,-0.0299999,0.104,-0.194,0.104,-0.520999c0,-0.286999,-0.062,-0.659999,-0.062,-0.674999c-0.021,-0.0659999,-0.062,-0.126,-0.104,-0.162c-0.062,-0.0389999,-0.129,-0.0529999,-0.188,-0.0409999C12.975,6.22599,12.586,6.29999,12.17,6.29999c-0.261,0,-0.496,-0.0279999,-0.647,-0.0489999c-0.012,-0.0659999,-0.022,-0.146,-0.022,-0.239999c0,-0.104,0.012,-0.204,0.025,-0.290999l0.644,0l0.855,0c0.119,0,0.226,-0.0819998,0.252,-0.196c0.002,-0.013,0.074,-0.311999,0.074,-0.603999c0,-0.301999,-0.074,-0.523999,-0.082,-0.551999C13.24,4.26999,13.165,4.21799,13.078,4.19999c-0.02,-0.021,-0.437,-0.103,-0.909,-0.103c-0.248,0,-0.475,0.022,-0.645,0.0619999c-0.014,-0.106,-0.026,-0.228999,-0.026,-0.352999c0,-0.0619999,0.009,-0.104,0.015,-0.146c0.28,-0.0439999,0.896,-0.146,1.521,-0.146c0.829,0,1.532,0.153,1.541,0.154c0.118,0.0259999,0.239,-0.0349999,0.288,-0.146c0.021,-0.0599999,0.219,-0.491999,0.219,-0.811998c0,-0.375999,-0.264,-0.529999,-0.398,-0.561999c-0.05,-0.021,-1.207,-0.240999,-2.515,-0.240999c-0.985,0,-1.884,0.136,-2.291,0.2c-0.055,-0.188,-0.11,-0.391999,-0.11,-0.491999c0,-0.0809998,0.031,-0.146,0.06,-0.187c0.681,-0.0619999,1.498,-0.104,2.339,-0.104c1.72,0,3.312,0.212,3.838,0.285999c0.076,0.520999,0.289,2.115,0.289,3.83999C16.289,7.18398,16.08,8.77798,16.002,9.30298z"/>
  <circle xmlns="http://www.w3.org/2000/svg" fill="#8C8C8C" cx="6.433" cy="5.46599" r="1.379"/>
  <circle xmlns="http://www.w3.org/2000/svg" fill="#8C8C8C" cx="17.895" cy="5.46499" r="1.379"/>
  <path xmlns="http://www.w3.org/2000/svg" opacity="0.2" d="M16.992,0L7.336,0C5.823,1.337,4.864,3.28699,4.864,5.46499s0.959,4.12699,2.473,5.46699l9.655,0c1.517,-1.338,2.477,-3.28599,2.477,-5.46699C19.466,3.28699,18.507,1.337,16.992,0zM11.868,9.66098c-2.485,0,-4.5,-2.021,-4.5,-4.49999c0,-2.48499,2.015,-4.50099,4.5,-4.50099c2.483,0,4.501,2.016,4.501,4.50099C16.369,7.64498,14.354,9.66098,11.868,9.66098z"/>
  <circle xmlns="http://www.w3.org/2000/svg" opacity="0.8" fill="#FFFFFF" cx="10.357" cy="3.39799" r="1.17"/>
 </g>
</g>
</g></svg>